%TF.GenerationSoftware,KiCad,Pcbnew,9.0.7*%
%TF.CreationDate,2026-06-15T23:00:31+05:30*%
%TF.ProjectId,Jazz,4a617a7a-2e6b-4696-9361-645f70636258,rev?*%
%TF.SameCoordinates,Original*%
%TF.FileFunction,Drillmap*%
%TF.FilePolarity,Positive*%
%FSLAX45Y45*%
G04 Gerber Fmt 4.5, Leading zero omitted, Abs format (unit mm)*
G04 Created by KiCad (PCBNEW 9.0.7) date 2026-06-15 23:00:31*
%MOMM*%
%LPD*%
G01*
G04 APERTURE LIST*
%ADD10C,0.050000*%
%ADD11C,0.200000*%
%ADD12C,0.100000*%
G04 APERTURE END LIST*
D10*
X7474409Y-7963000D02*
G75*
G02*
X7273591Y-7963000I-100409J0D01*
G01*
X7273591Y-7963000D02*
G75*
G02*
X7474409Y-7963000I100409J0D01*
G01*
X7077409Y-6462000D02*
G75*
G02*
X6876591Y-6462000I-100409J0D01*
G01*
X6876591Y-6462000D02*
G75*
G02*
X7077409Y-6462000I100409J0D01*
G01*
X5607000Y-5247000D02*
X9453000Y-5247000D01*
X9453000Y-8269000D01*
X5607000Y-8269000D01*
X5607000Y-5247000D01*
X6057409Y-7991000D02*
G75*
G02*
X5856591Y-7991000I-100409J0D01*
G01*
X5856591Y-7991000D02*
G75*
G02*
X6057409Y-7991000I100409J0D01*
G01*
D11*
D12*
X5886000Y-5739000D02*
X5916000Y-5769000D01*
X5916000Y-5739000D02*
X5886000Y-5769000D01*
X5893500Y-5505000D02*
X5923500Y-5535000D01*
X5923500Y-5505000D02*
X5893500Y-5535000D01*
X5991000Y-6331500D02*
X6021000Y-6361500D01*
X6021000Y-6331500D02*
X5991000Y-6361500D01*
X6212000Y-6327000D02*
X6242000Y-6357000D01*
X6242000Y-6327000D02*
X6212000Y-6357000D01*
X6488000Y-7566000D02*
X6518000Y-7596000D01*
X6518000Y-7566000D02*
X6488000Y-7596000D01*
X6512000Y-7156000D02*
X6542000Y-7186000D01*
X6542000Y-7156000D02*
X6512000Y-7186000D01*
X6555000Y-6715000D02*
X6585000Y-6745000D01*
X6585000Y-6715000D02*
X6555000Y-6745000D01*
X6579000Y-6908000D02*
X6609000Y-6938000D01*
X6609000Y-6908000D02*
X6579000Y-6938000D01*
X6628000Y-5958000D02*
X6658000Y-5988000D01*
X6658000Y-5958000D02*
X6628000Y-5988000D01*
X6793000Y-7261000D02*
X6823000Y-7291000D01*
X6823000Y-7261000D02*
X6793000Y-7291000D01*
X6867000Y-6024000D02*
X6897000Y-6054000D01*
X6897000Y-6024000D02*
X6867000Y-6054000D01*
X6906000Y-6669000D02*
X6936000Y-6699000D01*
X6936000Y-6669000D02*
X6906000Y-6699000D01*
X7134000Y-7406500D02*
X7164000Y-7436500D01*
X7164000Y-7406500D02*
X7134000Y-7436500D01*
X7439000Y-6676000D02*
X7469000Y-6706000D01*
X7469000Y-6676000D02*
X7439000Y-6706000D01*
X7442500Y-6988000D02*
X7472500Y-7018000D01*
X7472500Y-6988000D02*
X7442500Y-7018000D01*
X8211000Y-6103000D02*
X8241000Y-6133000D01*
X8241000Y-6103000D02*
X8211000Y-6133000D01*
X8287000Y-6266000D02*
X8317000Y-6296000D01*
X8317000Y-6266000D02*
X8287000Y-6296000D01*
X8457000Y-6780250D02*
X8487000Y-6810250D01*
X8487000Y-6780250D02*
X8457000Y-6810250D01*
X5827000Y-6751000D02*
G75*
G02*
X5767000Y-6751000I-30000J0D01*
G01*
X5767000Y-6751000D02*
G75*
G02*
X5827000Y-6751000I30000J0D01*
G01*
X5871999Y-6721000D02*
X5722001Y-6721000D01*
X5722001Y-6781000D02*
G75*
G02*
X5722001Y-6721000I0J30000D01*
G01*
X5722001Y-6781000D02*
X5871999Y-6781000D01*
X5871999Y-6781000D02*
G75*
G03*
X5871999Y-6721000I0J30000D01*
G01*
X5827000Y-7615000D02*
G75*
G02*
X5767000Y-7615000I-30000J0D01*
G01*
X5767000Y-7615000D02*
G75*
G02*
X5827000Y-7615000I30000J0D01*
G01*
X5872000Y-7585000D02*
X5722000Y-7585000D01*
X5722000Y-7645000D02*
G75*
G02*
X5722000Y-7585000I0J30000D01*
G01*
X5722000Y-7645000D02*
X5872000Y-7645000D01*
X5872000Y-7645000D02*
G75*
G03*
X5872000Y-7585000I0J30000D01*
G01*
X6363000Y-6751000D02*
G75*
G02*
X6303000Y-6751000I-30000J0D01*
G01*
X6303000Y-6751000D02*
G75*
G02*
X6363000Y-6751000I30000J0D01*
G01*
X6383000Y-6721000D02*
X6283000Y-6721000D01*
X6283000Y-6781000D02*
G75*
G02*
X6283000Y-6721000I0J30000D01*
G01*
X6283000Y-6781000D02*
X6383000Y-6781000D01*
X6383000Y-6781000D02*
G75*
G03*
X6383000Y-6721000I0J30000D01*
G01*
X6363000Y-7615000D02*
G75*
G02*
X6303000Y-7615000I-30000J0D01*
G01*
X6303000Y-7615000D02*
G75*
G02*
X6363000Y-7615000I30000J0D01*
G01*
X6383000Y-7585000D02*
X6283000Y-7585000D01*
X6283000Y-7645000D02*
G75*
G02*
X6283000Y-7585000I0J30000D01*
G01*
X6283000Y-7645000D02*
X6383000Y-7645000D01*
X6383000Y-7645000D02*
G75*
G03*
X6383000Y-7585000I0J30000D01*
G01*
X7769975Y-6251798D02*
X7769975Y-6351798D01*
X7719975Y-6301798D02*
X7819975Y-6301798D01*
X7769975Y-6505798D02*
X7769975Y-6605798D01*
X7719975Y-6555798D02*
X7819975Y-6555798D01*
X7769975Y-6759798D02*
X7769975Y-6859798D01*
X7719975Y-6809798D02*
X7819975Y-6809798D01*
X7769975Y-7013798D02*
X7769975Y-7113798D01*
X7719975Y-7063798D02*
X7819975Y-7063798D01*
X7769975Y-7267798D02*
X7769975Y-7367798D01*
X7719975Y-7317798D02*
X7819975Y-7317798D01*
X7769975Y-7521798D02*
X7769975Y-7621798D01*
X7719975Y-7571798D02*
X7819975Y-7571798D01*
X7769975Y-7775798D02*
X7769975Y-7875798D01*
X7719975Y-7825798D02*
X7819975Y-7825798D01*
X9294975Y-6251798D02*
X9294975Y-6351798D01*
X9244975Y-6301798D02*
X9344975Y-6301798D01*
X9294975Y-6505798D02*
X9294975Y-6605798D01*
X9244975Y-6555798D02*
X9344975Y-6555798D01*
X9294975Y-6759798D02*
X9294975Y-6859798D01*
X9244975Y-6809798D02*
X9344975Y-6809798D01*
X9294975Y-7013798D02*
X9294975Y-7113798D01*
X9244975Y-7063798D02*
X9344975Y-7063798D01*
X9294975Y-7267798D02*
X9294975Y-7367798D01*
X9244975Y-7317798D02*
X9344975Y-7317798D01*
X9294975Y-7521798D02*
X9294975Y-7621798D01*
X9244975Y-7571798D02*
X9344975Y-7571798D01*
X9294975Y-7775798D02*
X9294975Y-7875798D01*
X9244975Y-7825798D02*
X9344975Y-7825798D01*
D11*
X5865277Y-8582984D02*
X5865277Y-8382984D01*
X5865277Y-8382984D02*
X5912896Y-8382984D01*
X5912896Y-8382984D02*
X5941467Y-8392508D01*
X5941467Y-8392508D02*
X5960515Y-8411555D01*
X5960515Y-8411555D02*
X5970039Y-8430603D01*
X5970039Y-8430603D02*
X5979562Y-8468698D01*
X5979562Y-8468698D02*
X5979562Y-8497270D01*
X5979562Y-8497270D02*
X5970039Y-8535365D01*
X5970039Y-8535365D02*
X5960515Y-8554412D01*
X5960515Y-8554412D02*
X5941467Y-8573460D01*
X5941467Y-8573460D02*
X5912896Y-8582984D01*
X5912896Y-8582984D02*
X5865277Y-8582984D01*
X6065277Y-8582984D02*
X6065277Y-8449650D01*
X6065277Y-8487746D02*
X6074801Y-8468698D01*
X6074801Y-8468698D02*
X6084324Y-8459174D01*
X6084324Y-8459174D02*
X6103372Y-8449650D01*
X6103372Y-8449650D02*
X6122420Y-8449650D01*
X6189086Y-8582984D02*
X6189086Y-8449650D01*
X6189086Y-8382984D02*
X6179562Y-8392508D01*
X6179562Y-8392508D02*
X6189086Y-8402031D01*
X6189086Y-8402031D02*
X6198610Y-8392508D01*
X6198610Y-8392508D02*
X6189086Y-8382984D01*
X6189086Y-8382984D02*
X6189086Y-8402031D01*
X6312896Y-8582984D02*
X6293848Y-8573460D01*
X6293848Y-8573460D02*
X6284324Y-8554412D01*
X6284324Y-8554412D02*
X6284324Y-8382984D01*
X6417658Y-8582984D02*
X6398610Y-8573460D01*
X6398610Y-8573460D02*
X6389086Y-8554412D01*
X6389086Y-8554412D02*
X6389086Y-8382984D01*
X6646229Y-8582984D02*
X6646229Y-8382984D01*
X6646229Y-8382984D02*
X6712896Y-8525841D01*
X6712896Y-8525841D02*
X6779562Y-8382984D01*
X6779562Y-8382984D02*
X6779562Y-8582984D01*
X6960515Y-8582984D02*
X6960515Y-8478222D01*
X6960515Y-8478222D02*
X6950991Y-8459174D01*
X6950991Y-8459174D02*
X6931943Y-8449650D01*
X6931943Y-8449650D02*
X6893848Y-8449650D01*
X6893848Y-8449650D02*
X6874801Y-8459174D01*
X6960515Y-8573460D02*
X6941467Y-8582984D01*
X6941467Y-8582984D02*
X6893848Y-8582984D01*
X6893848Y-8582984D02*
X6874801Y-8573460D01*
X6874801Y-8573460D02*
X6865277Y-8554412D01*
X6865277Y-8554412D02*
X6865277Y-8535365D01*
X6865277Y-8535365D02*
X6874801Y-8516317D01*
X6874801Y-8516317D02*
X6893848Y-8506793D01*
X6893848Y-8506793D02*
X6941467Y-8506793D01*
X6941467Y-8506793D02*
X6960515Y-8497270D01*
X7055753Y-8449650D02*
X7055753Y-8649650D01*
X7055753Y-8459174D02*
X7074801Y-8449650D01*
X7074801Y-8449650D02*
X7112896Y-8449650D01*
X7112896Y-8449650D02*
X7131943Y-8459174D01*
X7131943Y-8459174D02*
X7141467Y-8468698D01*
X7141467Y-8468698D02*
X7150991Y-8487746D01*
X7150991Y-8487746D02*
X7150991Y-8544889D01*
X7150991Y-8544889D02*
X7141467Y-8563936D01*
X7141467Y-8563936D02*
X7131943Y-8573460D01*
X7131943Y-8573460D02*
X7112896Y-8582984D01*
X7112896Y-8582984D02*
X7074801Y-8582984D01*
X7074801Y-8582984D02*
X7055753Y-8573460D01*
X7236705Y-8563936D02*
X7246229Y-8573460D01*
X7246229Y-8573460D02*
X7236705Y-8582984D01*
X7236705Y-8582984D02*
X7227182Y-8573460D01*
X7227182Y-8573460D02*
X7236705Y-8563936D01*
X7236705Y-8563936D02*
X7236705Y-8582984D01*
X7236705Y-8459174D02*
X7246229Y-8468698D01*
X7246229Y-8468698D02*
X7236705Y-8478222D01*
X7236705Y-8478222D02*
X7227182Y-8468698D01*
X7227182Y-8468698D02*
X7236705Y-8459174D01*
X7236705Y-8459174D02*
X7236705Y-8478222D01*
D12*
X5574500Y-8896500D02*
X5604500Y-8926500D01*
X5604500Y-8896500D02*
X5574500Y-8926500D01*
D11*
X5903372Y-8802984D02*
X5922420Y-8802984D01*
X5922420Y-8802984D02*
X5941467Y-8812508D01*
X5941467Y-8812508D02*
X5950991Y-8822031D01*
X5950991Y-8822031D02*
X5960515Y-8841079D01*
X5960515Y-8841079D02*
X5970039Y-8879174D01*
X5970039Y-8879174D02*
X5970039Y-8926793D01*
X5970039Y-8926793D02*
X5960515Y-8964889D01*
X5960515Y-8964889D02*
X5950991Y-8983936D01*
X5950991Y-8983936D02*
X5941467Y-8993460D01*
X5941467Y-8993460D02*
X5922420Y-9002984D01*
X5922420Y-9002984D02*
X5903372Y-9002984D01*
X5903372Y-9002984D02*
X5884324Y-8993460D01*
X5884324Y-8993460D02*
X5874801Y-8983936D01*
X5874801Y-8983936D02*
X5865277Y-8964889D01*
X5865277Y-8964889D02*
X5855753Y-8926793D01*
X5855753Y-8926793D02*
X5855753Y-8879174D01*
X5855753Y-8879174D02*
X5865277Y-8841079D01*
X5865277Y-8841079D02*
X5874801Y-8822031D01*
X5874801Y-8822031D02*
X5884324Y-8812508D01*
X5884324Y-8812508D02*
X5903372Y-8802984D01*
X6055753Y-8983936D02*
X6065277Y-8993460D01*
X6065277Y-8993460D02*
X6055753Y-9002984D01*
X6055753Y-9002984D02*
X6046229Y-8993460D01*
X6046229Y-8993460D02*
X6055753Y-8983936D01*
X6055753Y-8983936D02*
X6055753Y-9002984D01*
X6131943Y-8802984D02*
X6255753Y-8802984D01*
X6255753Y-8802984D02*
X6189086Y-8879174D01*
X6189086Y-8879174D02*
X6217658Y-8879174D01*
X6217658Y-8879174D02*
X6236705Y-8888698D01*
X6236705Y-8888698D02*
X6246229Y-8898222D01*
X6246229Y-8898222D02*
X6255753Y-8917270D01*
X6255753Y-8917270D02*
X6255753Y-8964889D01*
X6255753Y-8964889D02*
X6246229Y-8983936D01*
X6246229Y-8983936D02*
X6236705Y-8993460D01*
X6236705Y-8993460D02*
X6217658Y-9002984D01*
X6217658Y-9002984D02*
X6160515Y-9002984D01*
X6160515Y-9002984D02*
X6141467Y-8993460D01*
X6141467Y-8993460D02*
X6131943Y-8983936D01*
X6379562Y-8802984D02*
X6398610Y-8802984D01*
X6398610Y-8802984D02*
X6417658Y-8812508D01*
X6417658Y-8812508D02*
X6427182Y-8822031D01*
X6427182Y-8822031D02*
X6436705Y-8841079D01*
X6436705Y-8841079D02*
X6446229Y-8879174D01*
X6446229Y-8879174D02*
X6446229Y-8926793D01*
X6446229Y-8926793D02*
X6436705Y-8964889D01*
X6436705Y-8964889D02*
X6427182Y-8983936D01*
X6427182Y-8983936D02*
X6417658Y-8993460D01*
X6417658Y-8993460D02*
X6398610Y-9002984D01*
X6398610Y-9002984D02*
X6379562Y-9002984D01*
X6379562Y-9002984D02*
X6360515Y-8993460D01*
X6360515Y-8993460D02*
X6350991Y-8983936D01*
X6350991Y-8983936D02*
X6341467Y-8964889D01*
X6341467Y-8964889D02*
X6331943Y-8926793D01*
X6331943Y-8926793D02*
X6331943Y-8879174D01*
X6331943Y-8879174D02*
X6341467Y-8841079D01*
X6341467Y-8841079D02*
X6350991Y-8822031D01*
X6350991Y-8822031D02*
X6360515Y-8812508D01*
X6360515Y-8812508D02*
X6379562Y-8802984D01*
X6570039Y-8802984D02*
X6589086Y-8802984D01*
X6589086Y-8802984D02*
X6608134Y-8812508D01*
X6608134Y-8812508D02*
X6617658Y-8822031D01*
X6617658Y-8822031D02*
X6627182Y-8841079D01*
X6627182Y-8841079D02*
X6636705Y-8879174D01*
X6636705Y-8879174D02*
X6636705Y-8926793D01*
X6636705Y-8926793D02*
X6627182Y-8964889D01*
X6627182Y-8964889D02*
X6617658Y-8983936D01*
X6617658Y-8983936D02*
X6608134Y-8993460D01*
X6608134Y-8993460D02*
X6589086Y-9002984D01*
X6589086Y-9002984D02*
X6570039Y-9002984D01*
X6570039Y-9002984D02*
X6550991Y-8993460D01*
X6550991Y-8993460D02*
X6541467Y-8983936D01*
X6541467Y-8983936D02*
X6531943Y-8964889D01*
X6531943Y-8964889D02*
X6522420Y-8926793D01*
X6522420Y-8926793D02*
X6522420Y-8879174D01*
X6522420Y-8879174D02*
X6531943Y-8841079D01*
X6531943Y-8841079D02*
X6541467Y-8822031D01*
X6541467Y-8822031D02*
X6550991Y-8812508D01*
X6550991Y-8812508D02*
X6570039Y-8802984D01*
X6722420Y-9002984D02*
X6722420Y-8869650D01*
X6722420Y-8888698D02*
X6731943Y-8879174D01*
X6731943Y-8879174D02*
X6750991Y-8869650D01*
X6750991Y-8869650D02*
X6779563Y-8869650D01*
X6779563Y-8869650D02*
X6798610Y-8879174D01*
X6798610Y-8879174D02*
X6808134Y-8898222D01*
X6808134Y-8898222D02*
X6808134Y-9002984D01*
X6808134Y-8898222D02*
X6817658Y-8879174D01*
X6817658Y-8879174D02*
X6836705Y-8869650D01*
X6836705Y-8869650D02*
X6865277Y-8869650D01*
X6865277Y-8869650D02*
X6884324Y-8879174D01*
X6884324Y-8879174D02*
X6893848Y-8898222D01*
X6893848Y-8898222D02*
X6893848Y-9002984D01*
X6989086Y-9002984D02*
X6989086Y-8869650D01*
X6989086Y-8888698D02*
X6998610Y-8879174D01*
X6998610Y-8879174D02*
X7017658Y-8869650D01*
X7017658Y-8869650D02*
X7046229Y-8869650D01*
X7046229Y-8869650D02*
X7065277Y-8879174D01*
X7065277Y-8879174D02*
X7074801Y-8898222D01*
X7074801Y-8898222D02*
X7074801Y-9002984D01*
X7074801Y-8898222D02*
X7084324Y-8879174D01*
X7084324Y-8879174D02*
X7103372Y-8869650D01*
X7103372Y-8869650D02*
X7131943Y-8869650D01*
X7131943Y-8869650D02*
X7150991Y-8879174D01*
X7150991Y-8879174D02*
X7160515Y-8898222D01*
X7160515Y-8898222D02*
X7160515Y-9002984D01*
X7550991Y-8793460D02*
X7379563Y-9050603D01*
X7808134Y-8802984D02*
X7827182Y-8802984D01*
X7827182Y-8802984D02*
X7846229Y-8812508D01*
X7846229Y-8812508D02*
X7855753Y-8822031D01*
X7855753Y-8822031D02*
X7865277Y-8841079D01*
X7865277Y-8841079D02*
X7874801Y-8879174D01*
X7874801Y-8879174D02*
X7874801Y-8926793D01*
X7874801Y-8926793D02*
X7865277Y-8964889D01*
X7865277Y-8964889D02*
X7855753Y-8983936D01*
X7855753Y-8983936D02*
X7846229Y-8993460D01*
X7846229Y-8993460D02*
X7827182Y-9002984D01*
X7827182Y-9002984D02*
X7808134Y-9002984D01*
X7808134Y-9002984D02*
X7789086Y-8993460D01*
X7789086Y-8993460D02*
X7779563Y-8983936D01*
X7779563Y-8983936D02*
X7770039Y-8964889D01*
X7770039Y-8964889D02*
X7760515Y-8926793D01*
X7760515Y-8926793D02*
X7760515Y-8879174D01*
X7760515Y-8879174D02*
X7770039Y-8841079D01*
X7770039Y-8841079D02*
X7779563Y-8822031D01*
X7779563Y-8822031D02*
X7789086Y-8812508D01*
X7789086Y-8812508D02*
X7808134Y-8802984D01*
X7960515Y-8983936D02*
X7970039Y-8993460D01*
X7970039Y-8993460D02*
X7960515Y-9002984D01*
X7960515Y-9002984D02*
X7950991Y-8993460D01*
X7950991Y-8993460D02*
X7960515Y-8983936D01*
X7960515Y-8983936D02*
X7960515Y-9002984D01*
X8093848Y-8802984D02*
X8112896Y-8802984D01*
X8112896Y-8802984D02*
X8131944Y-8812508D01*
X8131944Y-8812508D02*
X8141467Y-8822031D01*
X8141467Y-8822031D02*
X8150991Y-8841079D01*
X8150991Y-8841079D02*
X8160515Y-8879174D01*
X8160515Y-8879174D02*
X8160515Y-8926793D01*
X8160515Y-8926793D02*
X8150991Y-8964889D01*
X8150991Y-8964889D02*
X8141467Y-8983936D01*
X8141467Y-8983936D02*
X8131944Y-8993460D01*
X8131944Y-8993460D02*
X8112896Y-9002984D01*
X8112896Y-9002984D02*
X8093848Y-9002984D01*
X8093848Y-9002984D02*
X8074801Y-8993460D01*
X8074801Y-8993460D02*
X8065277Y-8983936D01*
X8065277Y-8983936D02*
X8055753Y-8964889D01*
X8055753Y-8964889D02*
X8046229Y-8926793D01*
X8046229Y-8926793D02*
X8046229Y-8879174D01*
X8046229Y-8879174D02*
X8055753Y-8841079D01*
X8055753Y-8841079D02*
X8065277Y-8822031D01*
X8065277Y-8822031D02*
X8074801Y-8812508D01*
X8074801Y-8812508D02*
X8093848Y-8802984D01*
X8350991Y-9002984D02*
X8236706Y-9002984D01*
X8293848Y-9002984D02*
X8293848Y-8802984D01*
X8293848Y-8802984D02*
X8274801Y-8831555D01*
X8274801Y-8831555D02*
X8255753Y-8850603D01*
X8255753Y-8850603D02*
X8236706Y-8860127D01*
X8541468Y-9002984D02*
X8427182Y-9002984D01*
X8484325Y-9002984D02*
X8484325Y-8802984D01*
X8484325Y-8802984D02*
X8465277Y-8831555D01*
X8465277Y-8831555D02*
X8446229Y-8850603D01*
X8446229Y-8850603D02*
X8427182Y-8860127D01*
X8655753Y-8888698D02*
X8636706Y-8879174D01*
X8636706Y-8879174D02*
X8627182Y-8869650D01*
X8627182Y-8869650D02*
X8617658Y-8850603D01*
X8617658Y-8850603D02*
X8617658Y-8841079D01*
X8617658Y-8841079D02*
X8627182Y-8822031D01*
X8627182Y-8822031D02*
X8636706Y-8812508D01*
X8636706Y-8812508D02*
X8655753Y-8802984D01*
X8655753Y-8802984D02*
X8693849Y-8802984D01*
X8693849Y-8802984D02*
X8712896Y-8812508D01*
X8712896Y-8812508D02*
X8722420Y-8822031D01*
X8722420Y-8822031D02*
X8731944Y-8841079D01*
X8731944Y-8841079D02*
X8731944Y-8850603D01*
X8731944Y-8850603D02*
X8722420Y-8869650D01*
X8722420Y-8869650D02*
X8712896Y-8879174D01*
X8712896Y-8879174D02*
X8693849Y-8888698D01*
X8693849Y-8888698D02*
X8655753Y-8888698D01*
X8655753Y-8888698D02*
X8636706Y-8898222D01*
X8636706Y-8898222D02*
X8627182Y-8907746D01*
X8627182Y-8907746D02*
X8617658Y-8926793D01*
X8617658Y-8926793D02*
X8617658Y-8964889D01*
X8617658Y-8964889D02*
X8627182Y-8983936D01*
X8627182Y-8983936D02*
X8636706Y-8993460D01*
X8636706Y-8993460D02*
X8655753Y-9002984D01*
X8655753Y-9002984D02*
X8693849Y-9002984D01*
X8693849Y-9002984D02*
X8712896Y-8993460D01*
X8712896Y-8993460D02*
X8722420Y-8983936D01*
X8722420Y-8983936D02*
X8731944Y-8964889D01*
X8731944Y-8964889D02*
X8731944Y-8926793D01*
X8731944Y-8926793D02*
X8722420Y-8907746D01*
X8722420Y-8907746D02*
X8712896Y-8898222D01*
X8712896Y-8898222D02*
X8693849Y-8888698D01*
X8808134Y-8802984D02*
X8808134Y-8841079D01*
X8884325Y-8802984D02*
X8884325Y-8841079D01*
X9179563Y-9079174D02*
X9170039Y-9069650D01*
X9170039Y-9069650D02*
X9150991Y-9041079D01*
X9150991Y-9041079D02*
X9141468Y-9022031D01*
X9141468Y-9022031D02*
X9131944Y-8993460D01*
X9131944Y-8993460D02*
X9122420Y-8945841D01*
X9122420Y-8945841D02*
X9122420Y-8907746D01*
X9122420Y-8907746D02*
X9131944Y-8860127D01*
X9131944Y-8860127D02*
X9141468Y-8831555D01*
X9141468Y-8831555D02*
X9150991Y-8812508D01*
X9150991Y-8812508D02*
X9170039Y-8783936D01*
X9170039Y-8783936D02*
X9179563Y-8774412D01*
X9360515Y-9002984D02*
X9246230Y-9002984D01*
X9303372Y-9002984D02*
X9303372Y-8802984D01*
X9303372Y-8802984D02*
X9284325Y-8831555D01*
X9284325Y-8831555D02*
X9265277Y-8850603D01*
X9265277Y-8850603D02*
X9246230Y-8860127D01*
X9474801Y-8888698D02*
X9455753Y-8879174D01*
X9455753Y-8879174D02*
X9446230Y-8869650D01*
X9446230Y-8869650D02*
X9436706Y-8850603D01*
X9436706Y-8850603D02*
X9436706Y-8841079D01*
X9436706Y-8841079D02*
X9446230Y-8822031D01*
X9446230Y-8822031D02*
X9455753Y-8812508D01*
X9455753Y-8812508D02*
X9474801Y-8802984D01*
X9474801Y-8802984D02*
X9512896Y-8802984D01*
X9512896Y-8802984D02*
X9531944Y-8812508D01*
X9531944Y-8812508D02*
X9541468Y-8822031D01*
X9541468Y-8822031D02*
X9550991Y-8841079D01*
X9550991Y-8841079D02*
X9550991Y-8850603D01*
X9550991Y-8850603D02*
X9541468Y-8869650D01*
X9541468Y-8869650D02*
X9531944Y-8879174D01*
X9531944Y-8879174D02*
X9512896Y-8888698D01*
X9512896Y-8888698D02*
X9474801Y-8888698D01*
X9474801Y-8888698D02*
X9455753Y-8898222D01*
X9455753Y-8898222D02*
X9446230Y-8907746D01*
X9446230Y-8907746D02*
X9436706Y-8926793D01*
X9436706Y-8926793D02*
X9436706Y-8964889D01*
X9436706Y-8964889D02*
X9446230Y-8983936D01*
X9446230Y-8983936D02*
X9455753Y-8993460D01*
X9455753Y-8993460D02*
X9474801Y-9002984D01*
X9474801Y-9002984D02*
X9512896Y-9002984D01*
X9512896Y-9002984D02*
X9531944Y-8993460D01*
X9531944Y-8993460D02*
X9541468Y-8983936D01*
X9541468Y-8983936D02*
X9550991Y-8964889D01*
X9550991Y-8964889D02*
X9550991Y-8926793D01*
X9550991Y-8926793D02*
X9541468Y-8907746D01*
X9541468Y-8907746D02*
X9531944Y-8898222D01*
X9531944Y-8898222D02*
X9512896Y-8888698D01*
X9789087Y-9002984D02*
X9789087Y-8802984D01*
X9874801Y-9002984D02*
X9874801Y-8898222D01*
X9874801Y-8898222D02*
X9865277Y-8879174D01*
X9865277Y-8879174D02*
X9846230Y-8869650D01*
X9846230Y-8869650D02*
X9817658Y-8869650D01*
X9817658Y-8869650D02*
X9798611Y-8879174D01*
X9798611Y-8879174D02*
X9789087Y-8888698D01*
X9998611Y-9002984D02*
X9979563Y-8993460D01*
X9979563Y-8993460D02*
X9970039Y-8983936D01*
X9970039Y-8983936D02*
X9960515Y-8964889D01*
X9960515Y-8964889D02*
X9960515Y-8907746D01*
X9960515Y-8907746D02*
X9970039Y-8888698D01*
X9970039Y-8888698D02*
X9979563Y-8879174D01*
X9979563Y-8879174D02*
X9998611Y-8869650D01*
X9998611Y-8869650D02*
X10027182Y-8869650D01*
X10027182Y-8869650D02*
X10046230Y-8879174D01*
X10046230Y-8879174D02*
X10055753Y-8888698D01*
X10055753Y-8888698D02*
X10065277Y-8907746D01*
X10065277Y-8907746D02*
X10065277Y-8964889D01*
X10065277Y-8964889D02*
X10055753Y-8983936D01*
X10055753Y-8983936D02*
X10046230Y-8993460D01*
X10046230Y-8993460D02*
X10027182Y-9002984D01*
X10027182Y-9002984D02*
X9998611Y-9002984D01*
X10179563Y-9002984D02*
X10160515Y-8993460D01*
X10160515Y-8993460D02*
X10150992Y-8974412D01*
X10150992Y-8974412D02*
X10150992Y-8802984D01*
X10331944Y-8993460D02*
X10312896Y-9002984D01*
X10312896Y-9002984D02*
X10274801Y-9002984D01*
X10274801Y-9002984D02*
X10255753Y-8993460D01*
X10255753Y-8993460D02*
X10246230Y-8974412D01*
X10246230Y-8974412D02*
X10246230Y-8898222D01*
X10246230Y-8898222D02*
X10255753Y-8879174D01*
X10255753Y-8879174D02*
X10274801Y-8869650D01*
X10274801Y-8869650D02*
X10312896Y-8869650D01*
X10312896Y-8869650D02*
X10331944Y-8879174D01*
X10331944Y-8879174D02*
X10341468Y-8898222D01*
X10341468Y-8898222D02*
X10341468Y-8917270D01*
X10341468Y-8917270D02*
X10246230Y-8936317D01*
X10417658Y-8993460D02*
X10436706Y-9002984D01*
X10436706Y-9002984D02*
X10474801Y-9002984D01*
X10474801Y-9002984D02*
X10493849Y-8993460D01*
X10493849Y-8993460D02*
X10503373Y-8974412D01*
X10503373Y-8974412D02*
X10503373Y-8964889D01*
X10503373Y-8964889D02*
X10493849Y-8945841D01*
X10493849Y-8945841D02*
X10474801Y-8936317D01*
X10474801Y-8936317D02*
X10446230Y-8936317D01*
X10446230Y-8936317D02*
X10427182Y-8926793D01*
X10427182Y-8926793D02*
X10417658Y-8907746D01*
X10417658Y-8907746D02*
X10417658Y-8898222D01*
X10417658Y-8898222D02*
X10427182Y-8879174D01*
X10427182Y-8879174D02*
X10446230Y-8869650D01*
X10446230Y-8869650D02*
X10474801Y-8869650D01*
X10474801Y-8869650D02*
X10493849Y-8879174D01*
X10570039Y-9079174D02*
X10579563Y-9069650D01*
X10579563Y-9069650D02*
X10598611Y-9041079D01*
X10598611Y-9041079D02*
X10608134Y-9022031D01*
X10608134Y-9022031D02*
X10617658Y-8993460D01*
X10617658Y-8993460D02*
X10627182Y-8945841D01*
X10627182Y-8945841D02*
X10627182Y-8907746D01*
X10627182Y-8907746D02*
X10617658Y-8860127D01*
X10617658Y-8860127D02*
X10608134Y-8831555D01*
X10608134Y-8831555D02*
X10598611Y-8812508D01*
X10598611Y-8812508D02*
X10579563Y-8783936D01*
X10579563Y-8783936D02*
X10570039Y-8774412D01*
D12*
X5604500Y-9175500D02*
G75*
G02*
X5544500Y-9175500I-30000J0D01*
G01*
X5544500Y-9175500D02*
G75*
G02*
X5604500Y-9175500I30000J0D01*
G01*
D11*
X5903372Y-9066984D02*
X5922420Y-9066984D01*
X5922420Y-9066984D02*
X5941467Y-9076508D01*
X5941467Y-9076508D02*
X5950991Y-9086031D01*
X5950991Y-9086031D02*
X5960515Y-9105079D01*
X5960515Y-9105079D02*
X5970039Y-9143174D01*
X5970039Y-9143174D02*
X5970039Y-9190793D01*
X5970039Y-9190793D02*
X5960515Y-9228889D01*
X5960515Y-9228889D02*
X5950991Y-9247936D01*
X5950991Y-9247936D02*
X5941467Y-9257460D01*
X5941467Y-9257460D02*
X5922420Y-9266984D01*
X5922420Y-9266984D02*
X5903372Y-9266984D01*
X5903372Y-9266984D02*
X5884324Y-9257460D01*
X5884324Y-9257460D02*
X5874801Y-9247936D01*
X5874801Y-9247936D02*
X5865277Y-9228889D01*
X5865277Y-9228889D02*
X5855753Y-9190793D01*
X5855753Y-9190793D02*
X5855753Y-9143174D01*
X5855753Y-9143174D02*
X5865277Y-9105079D01*
X5865277Y-9105079D02*
X5874801Y-9086031D01*
X5874801Y-9086031D02*
X5884324Y-9076508D01*
X5884324Y-9076508D02*
X5903372Y-9066984D01*
X6055753Y-9247936D02*
X6065277Y-9257460D01*
X6065277Y-9257460D02*
X6055753Y-9266984D01*
X6055753Y-9266984D02*
X6046229Y-9257460D01*
X6046229Y-9257460D02*
X6055753Y-9247936D01*
X6055753Y-9247936D02*
X6055753Y-9266984D01*
X6236705Y-9066984D02*
X6198610Y-9066984D01*
X6198610Y-9066984D02*
X6179562Y-9076508D01*
X6179562Y-9076508D02*
X6170039Y-9086031D01*
X6170039Y-9086031D02*
X6150991Y-9114603D01*
X6150991Y-9114603D02*
X6141467Y-9152698D01*
X6141467Y-9152698D02*
X6141467Y-9228889D01*
X6141467Y-9228889D02*
X6150991Y-9247936D01*
X6150991Y-9247936D02*
X6160515Y-9257460D01*
X6160515Y-9257460D02*
X6179562Y-9266984D01*
X6179562Y-9266984D02*
X6217658Y-9266984D01*
X6217658Y-9266984D02*
X6236705Y-9257460D01*
X6236705Y-9257460D02*
X6246229Y-9247936D01*
X6246229Y-9247936D02*
X6255753Y-9228889D01*
X6255753Y-9228889D02*
X6255753Y-9181270D01*
X6255753Y-9181270D02*
X6246229Y-9162222D01*
X6246229Y-9162222D02*
X6236705Y-9152698D01*
X6236705Y-9152698D02*
X6217658Y-9143174D01*
X6217658Y-9143174D02*
X6179562Y-9143174D01*
X6179562Y-9143174D02*
X6160515Y-9152698D01*
X6160515Y-9152698D02*
X6150991Y-9162222D01*
X6150991Y-9162222D02*
X6141467Y-9181270D01*
X6379562Y-9066984D02*
X6398610Y-9066984D01*
X6398610Y-9066984D02*
X6417658Y-9076508D01*
X6417658Y-9076508D02*
X6427182Y-9086031D01*
X6427182Y-9086031D02*
X6436705Y-9105079D01*
X6436705Y-9105079D02*
X6446229Y-9143174D01*
X6446229Y-9143174D02*
X6446229Y-9190793D01*
X6446229Y-9190793D02*
X6436705Y-9228889D01*
X6436705Y-9228889D02*
X6427182Y-9247936D01*
X6427182Y-9247936D02*
X6417658Y-9257460D01*
X6417658Y-9257460D02*
X6398610Y-9266984D01*
X6398610Y-9266984D02*
X6379562Y-9266984D01*
X6379562Y-9266984D02*
X6360515Y-9257460D01*
X6360515Y-9257460D02*
X6350991Y-9247936D01*
X6350991Y-9247936D02*
X6341467Y-9228889D01*
X6341467Y-9228889D02*
X6331943Y-9190793D01*
X6331943Y-9190793D02*
X6331943Y-9143174D01*
X6331943Y-9143174D02*
X6341467Y-9105079D01*
X6341467Y-9105079D02*
X6350991Y-9086031D01*
X6350991Y-9086031D02*
X6360515Y-9076508D01*
X6360515Y-9076508D02*
X6379562Y-9066984D01*
X6570039Y-9066984D02*
X6589086Y-9066984D01*
X6589086Y-9066984D02*
X6608134Y-9076508D01*
X6608134Y-9076508D02*
X6617658Y-9086031D01*
X6617658Y-9086031D02*
X6627182Y-9105079D01*
X6627182Y-9105079D02*
X6636705Y-9143174D01*
X6636705Y-9143174D02*
X6636705Y-9190793D01*
X6636705Y-9190793D02*
X6627182Y-9228889D01*
X6627182Y-9228889D02*
X6617658Y-9247936D01*
X6617658Y-9247936D02*
X6608134Y-9257460D01*
X6608134Y-9257460D02*
X6589086Y-9266984D01*
X6589086Y-9266984D02*
X6570039Y-9266984D01*
X6570039Y-9266984D02*
X6550991Y-9257460D01*
X6550991Y-9257460D02*
X6541467Y-9247936D01*
X6541467Y-9247936D02*
X6531943Y-9228889D01*
X6531943Y-9228889D02*
X6522420Y-9190793D01*
X6522420Y-9190793D02*
X6522420Y-9143174D01*
X6522420Y-9143174D02*
X6531943Y-9105079D01*
X6531943Y-9105079D02*
X6541467Y-9086031D01*
X6541467Y-9086031D02*
X6550991Y-9076508D01*
X6550991Y-9076508D02*
X6570039Y-9066984D01*
X6722420Y-9266984D02*
X6722420Y-9133650D01*
X6722420Y-9152698D02*
X6731943Y-9143174D01*
X6731943Y-9143174D02*
X6750991Y-9133650D01*
X6750991Y-9133650D02*
X6779563Y-9133650D01*
X6779563Y-9133650D02*
X6798610Y-9143174D01*
X6798610Y-9143174D02*
X6808134Y-9162222D01*
X6808134Y-9162222D02*
X6808134Y-9266984D01*
X6808134Y-9162222D02*
X6817658Y-9143174D01*
X6817658Y-9143174D02*
X6836705Y-9133650D01*
X6836705Y-9133650D02*
X6865277Y-9133650D01*
X6865277Y-9133650D02*
X6884324Y-9143174D01*
X6884324Y-9143174D02*
X6893848Y-9162222D01*
X6893848Y-9162222D02*
X6893848Y-9266984D01*
X6989086Y-9266984D02*
X6989086Y-9133650D01*
X6989086Y-9152698D02*
X6998610Y-9143174D01*
X6998610Y-9143174D02*
X7017658Y-9133650D01*
X7017658Y-9133650D02*
X7046229Y-9133650D01*
X7046229Y-9133650D02*
X7065277Y-9143174D01*
X7065277Y-9143174D02*
X7074801Y-9162222D01*
X7074801Y-9162222D02*
X7074801Y-9266984D01*
X7074801Y-9162222D02*
X7084324Y-9143174D01*
X7084324Y-9143174D02*
X7103372Y-9133650D01*
X7103372Y-9133650D02*
X7131943Y-9133650D01*
X7131943Y-9133650D02*
X7150991Y-9143174D01*
X7150991Y-9143174D02*
X7160515Y-9162222D01*
X7160515Y-9162222D02*
X7160515Y-9266984D01*
X7550991Y-9057460D02*
X7379563Y-9314603D01*
X7808134Y-9066984D02*
X7827182Y-9066984D01*
X7827182Y-9066984D02*
X7846229Y-9076508D01*
X7846229Y-9076508D02*
X7855753Y-9086031D01*
X7855753Y-9086031D02*
X7865277Y-9105079D01*
X7865277Y-9105079D02*
X7874801Y-9143174D01*
X7874801Y-9143174D02*
X7874801Y-9190793D01*
X7874801Y-9190793D02*
X7865277Y-9228889D01*
X7865277Y-9228889D02*
X7855753Y-9247936D01*
X7855753Y-9247936D02*
X7846229Y-9257460D01*
X7846229Y-9257460D02*
X7827182Y-9266984D01*
X7827182Y-9266984D02*
X7808134Y-9266984D01*
X7808134Y-9266984D02*
X7789086Y-9257460D01*
X7789086Y-9257460D02*
X7779563Y-9247936D01*
X7779563Y-9247936D02*
X7770039Y-9228889D01*
X7770039Y-9228889D02*
X7760515Y-9190793D01*
X7760515Y-9190793D02*
X7760515Y-9143174D01*
X7760515Y-9143174D02*
X7770039Y-9105079D01*
X7770039Y-9105079D02*
X7779563Y-9086031D01*
X7779563Y-9086031D02*
X7789086Y-9076508D01*
X7789086Y-9076508D02*
X7808134Y-9066984D01*
X7960515Y-9247936D02*
X7970039Y-9257460D01*
X7970039Y-9257460D02*
X7960515Y-9266984D01*
X7960515Y-9266984D02*
X7950991Y-9257460D01*
X7950991Y-9257460D02*
X7960515Y-9247936D01*
X7960515Y-9247936D02*
X7960515Y-9266984D01*
X8093848Y-9066984D02*
X8112896Y-9066984D01*
X8112896Y-9066984D02*
X8131944Y-9076508D01*
X8131944Y-9076508D02*
X8141467Y-9086031D01*
X8141467Y-9086031D02*
X8150991Y-9105079D01*
X8150991Y-9105079D02*
X8160515Y-9143174D01*
X8160515Y-9143174D02*
X8160515Y-9190793D01*
X8160515Y-9190793D02*
X8150991Y-9228889D01*
X8150991Y-9228889D02*
X8141467Y-9247936D01*
X8141467Y-9247936D02*
X8131944Y-9257460D01*
X8131944Y-9257460D02*
X8112896Y-9266984D01*
X8112896Y-9266984D02*
X8093848Y-9266984D01*
X8093848Y-9266984D02*
X8074801Y-9257460D01*
X8074801Y-9257460D02*
X8065277Y-9247936D01*
X8065277Y-9247936D02*
X8055753Y-9228889D01*
X8055753Y-9228889D02*
X8046229Y-9190793D01*
X8046229Y-9190793D02*
X8046229Y-9143174D01*
X8046229Y-9143174D02*
X8055753Y-9105079D01*
X8055753Y-9105079D02*
X8065277Y-9086031D01*
X8065277Y-9086031D02*
X8074801Y-9076508D01*
X8074801Y-9076508D02*
X8093848Y-9066984D01*
X8236706Y-9086031D02*
X8246229Y-9076508D01*
X8246229Y-9076508D02*
X8265277Y-9066984D01*
X8265277Y-9066984D02*
X8312896Y-9066984D01*
X8312896Y-9066984D02*
X8331944Y-9076508D01*
X8331944Y-9076508D02*
X8341467Y-9086031D01*
X8341467Y-9086031D02*
X8350991Y-9105079D01*
X8350991Y-9105079D02*
X8350991Y-9124127D01*
X8350991Y-9124127D02*
X8341467Y-9152698D01*
X8341467Y-9152698D02*
X8227182Y-9266984D01*
X8227182Y-9266984D02*
X8350991Y-9266984D01*
X8417658Y-9066984D02*
X8541468Y-9066984D01*
X8541468Y-9066984D02*
X8474801Y-9143174D01*
X8474801Y-9143174D02*
X8503372Y-9143174D01*
X8503372Y-9143174D02*
X8522420Y-9152698D01*
X8522420Y-9152698D02*
X8531944Y-9162222D01*
X8531944Y-9162222D02*
X8541468Y-9181270D01*
X8541468Y-9181270D02*
X8541468Y-9228889D01*
X8541468Y-9228889D02*
X8531944Y-9247936D01*
X8531944Y-9247936D02*
X8522420Y-9257460D01*
X8522420Y-9257460D02*
X8503372Y-9266984D01*
X8503372Y-9266984D02*
X8446229Y-9266984D01*
X8446229Y-9266984D02*
X8427182Y-9257460D01*
X8427182Y-9257460D02*
X8417658Y-9247936D01*
X8712896Y-9066984D02*
X8674801Y-9066984D01*
X8674801Y-9066984D02*
X8655753Y-9076508D01*
X8655753Y-9076508D02*
X8646229Y-9086031D01*
X8646229Y-9086031D02*
X8627182Y-9114603D01*
X8627182Y-9114603D02*
X8617658Y-9152698D01*
X8617658Y-9152698D02*
X8617658Y-9228889D01*
X8617658Y-9228889D02*
X8627182Y-9247936D01*
X8627182Y-9247936D02*
X8636706Y-9257460D01*
X8636706Y-9257460D02*
X8655753Y-9266984D01*
X8655753Y-9266984D02*
X8693849Y-9266984D01*
X8693849Y-9266984D02*
X8712896Y-9257460D01*
X8712896Y-9257460D02*
X8722420Y-9247936D01*
X8722420Y-9247936D02*
X8731944Y-9228889D01*
X8731944Y-9228889D02*
X8731944Y-9181270D01*
X8731944Y-9181270D02*
X8722420Y-9162222D01*
X8722420Y-9162222D02*
X8712896Y-9152698D01*
X8712896Y-9152698D02*
X8693849Y-9143174D01*
X8693849Y-9143174D02*
X8655753Y-9143174D01*
X8655753Y-9143174D02*
X8636706Y-9152698D01*
X8636706Y-9152698D02*
X8627182Y-9162222D01*
X8627182Y-9162222D02*
X8617658Y-9181270D01*
X8808134Y-9066984D02*
X8808134Y-9105079D01*
X8884325Y-9066984D02*
X8884325Y-9105079D01*
X9179563Y-9343174D02*
X9170039Y-9333650D01*
X9170039Y-9333650D02*
X9150991Y-9305079D01*
X9150991Y-9305079D02*
X9141468Y-9286031D01*
X9141468Y-9286031D02*
X9131944Y-9257460D01*
X9131944Y-9257460D02*
X9122420Y-9209841D01*
X9122420Y-9209841D02*
X9122420Y-9171746D01*
X9122420Y-9171746D02*
X9131944Y-9124127D01*
X9131944Y-9124127D02*
X9141468Y-9095555D01*
X9141468Y-9095555D02*
X9150991Y-9076508D01*
X9150991Y-9076508D02*
X9170039Y-9047936D01*
X9170039Y-9047936D02*
X9179563Y-9038412D01*
X9293849Y-9066984D02*
X9312896Y-9066984D01*
X9312896Y-9066984D02*
X9331944Y-9076508D01*
X9331944Y-9076508D02*
X9341468Y-9086031D01*
X9341468Y-9086031D02*
X9350991Y-9105079D01*
X9350991Y-9105079D02*
X9360515Y-9143174D01*
X9360515Y-9143174D02*
X9360515Y-9190793D01*
X9360515Y-9190793D02*
X9350991Y-9228889D01*
X9350991Y-9228889D02*
X9341468Y-9247936D01*
X9341468Y-9247936D02*
X9331944Y-9257460D01*
X9331944Y-9257460D02*
X9312896Y-9266984D01*
X9312896Y-9266984D02*
X9293849Y-9266984D01*
X9293849Y-9266984D02*
X9274801Y-9257460D01*
X9274801Y-9257460D02*
X9265277Y-9247936D01*
X9265277Y-9247936D02*
X9255753Y-9228889D01*
X9255753Y-9228889D02*
X9246230Y-9190793D01*
X9246230Y-9190793D02*
X9246230Y-9143174D01*
X9246230Y-9143174D02*
X9255753Y-9105079D01*
X9255753Y-9105079D02*
X9265277Y-9086031D01*
X9265277Y-9086031D02*
X9274801Y-9076508D01*
X9274801Y-9076508D02*
X9293849Y-9066984D01*
X9598611Y-9266984D02*
X9598611Y-9066984D01*
X9684325Y-9266984D02*
X9684325Y-9162222D01*
X9684325Y-9162222D02*
X9674801Y-9143174D01*
X9674801Y-9143174D02*
X9655753Y-9133650D01*
X9655753Y-9133650D02*
X9627182Y-9133650D01*
X9627182Y-9133650D02*
X9608134Y-9143174D01*
X9608134Y-9143174D02*
X9598611Y-9152698D01*
X9808134Y-9266984D02*
X9789087Y-9257460D01*
X9789087Y-9257460D02*
X9779563Y-9247936D01*
X9779563Y-9247936D02*
X9770039Y-9228889D01*
X9770039Y-9228889D02*
X9770039Y-9171746D01*
X9770039Y-9171746D02*
X9779563Y-9152698D01*
X9779563Y-9152698D02*
X9789087Y-9143174D01*
X9789087Y-9143174D02*
X9808134Y-9133650D01*
X9808134Y-9133650D02*
X9836706Y-9133650D01*
X9836706Y-9133650D02*
X9855753Y-9143174D01*
X9855753Y-9143174D02*
X9865277Y-9152698D01*
X9865277Y-9152698D02*
X9874801Y-9171746D01*
X9874801Y-9171746D02*
X9874801Y-9228889D01*
X9874801Y-9228889D02*
X9865277Y-9247936D01*
X9865277Y-9247936D02*
X9855753Y-9257460D01*
X9855753Y-9257460D02*
X9836706Y-9266984D01*
X9836706Y-9266984D02*
X9808134Y-9266984D01*
X9989087Y-9266984D02*
X9970039Y-9257460D01*
X9970039Y-9257460D02*
X9960515Y-9238412D01*
X9960515Y-9238412D02*
X9960515Y-9066984D01*
X10141468Y-9257460D02*
X10122420Y-9266984D01*
X10122420Y-9266984D02*
X10084325Y-9266984D01*
X10084325Y-9266984D02*
X10065277Y-9257460D01*
X10065277Y-9257460D02*
X10055753Y-9238412D01*
X10055753Y-9238412D02*
X10055753Y-9162222D01*
X10055753Y-9162222D02*
X10065277Y-9143174D01*
X10065277Y-9143174D02*
X10084325Y-9133650D01*
X10084325Y-9133650D02*
X10122420Y-9133650D01*
X10122420Y-9133650D02*
X10141468Y-9143174D01*
X10141468Y-9143174D02*
X10150992Y-9162222D01*
X10150992Y-9162222D02*
X10150992Y-9181270D01*
X10150992Y-9181270D02*
X10055753Y-9200317D01*
X10227182Y-9257460D02*
X10246230Y-9266984D01*
X10246230Y-9266984D02*
X10284325Y-9266984D01*
X10284325Y-9266984D02*
X10303373Y-9257460D01*
X10303373Y-9257460D02*
X10312896Y-9238412D01*
X10312896Y-9238412D02*
X10312896Y-9228889D01*
X10312896Y-9228889D02*
X10303373Y-9209841D01*
X10303373Y-9209841D02*
X10284325Y-9200317D01*
X10284325Y-9200317D02*
X10255753Y-9200317D01*
X10255753Y-9200317D02*
X10236706Y-9190793D01*
X10236706Y-9190793D02*
X10227182Y-9171746D01*
X10227182Y-9171746D02*
X10227182Y-9162222D01*
X10227182Y-9162222D02*
X10236706Y-9143174D01*
X10236706Y-9143174D02*
X10255753Y-9133650D01*
X10255753Y-9133650D02*
X10284325Y-9133650D01*
X10284325Y-9133650D02*
X10303373Y-9143174D01*
X10550992Y-9190793D02*
X10703373Y-9190793D01*
X10627182Y-9266984D02*
X10627182Y-9114603D01*
X11036706Y-9133650D02*
X11036706Y-9266984D01*
X10989087Y-9057460D02*
X10941468Y-9200317D01*
X10941468Y-9200317D02*
X11065277Y-9200317D01*
X11284325Y-9257460D02*
X11303373Y-9266984D01*
X11303373Y-9266984D02*
X11341468Y-9266984D01*
X11341468Y-9266984D02*
X11360515Y-9257460D01*
X11360515Y-9257460D02*
X11370039Y-9238412D01*
X11370039Y-9238412D02*
X11370039Y-9228889D01*
X11370039Y-9228889D02*
X11360515Y-9209841D01*
X11360515Y-9209841D02*
X11341468Y-9200317D01*
X11341468Y-9200317D02*
X11312896Y-9200317D01*
X11312896Y-9200317D02*
X11293849Y-9190793D01*
X11293849Y-9190793D02*
X11284325Y-9171746D01*
X11284325Y-9171746D02*
X11284325Y-9162222D01*
X11284325Y-9162222D02*
X11293849Y-9143174D01*
X11293849Y-9143174D02*
X11312896Y-9133650D01*
X11312896Y-9133650D02*
X11341468Y-9133650D01*
X11341468Y-9133650D02*
X11360515Y-9143174D01*
X11484325Y-9266984D02*
X11465277Y-9257460D01*
X11465277Y-9257460D02*
X11455754Y-9238412D01*
X11455754Y-9238412D02*
X11455754Y-9066984D01*
X11589087Y-9266984D02*
X11570039Y-9257460D01*
X11570039Y-9257460D02*
X11560515Y-9247936D01*
X11560515Y-9247936D02*
X11550992Y-9228889D01*
X11550992Y-9228889D02*
X11550992Y-9171746D01*
X11550992Y-9171746D02*
X11560515Y-9152698D01*
X11560515Y-9152698D02*
X11570039Y-9143174D01*
X11570039Y-9143174D02*
X11589087Y-9133650D01*
X11589087Y-9133650D02*
X11617658Y-9133650D01*
X11617658Y-9133650D02*
X11636706Y-9143174D01*
X11636706Y-9143174D02*
X11646230Y-9152698D01*
X11646230Y-9152698D02*
X11655754Y-9171746D01*
X11655754Y-9171746D02*
X11655754Y-9228889D01*
X11655754Y-9228889D02*
X11646230Y-9247936D01*
X11646230Y-9247936D02*
X11636706Y-9257460D01*
X11636706Y-9257460D02*
X11617658Y-9266984D01*
X11617658Y-9266984D02*
X11589087Y-9266984D01*
X11712896Y-9133650D02*
X11789087Y-9133650D01*
X11741468Y-9066984D02*
X11741468Y-9238412D01*
X11741468Y-9238412D02*
X11750992Y-9257460D01*
X11750992Y-9257460D02*
X11770039Y-9266984D01*
X11770039Y-9266984D02*
X11789087Y-9266984D01*
X11846230Y-9257460D02*
X11865277Y-9266984D01*
X11865277Y-9266984D02*
X11903373Y-9266984D01*
X11903373Y-9266984D02*
X11922420Y-9257460D01*
X11922420Y-9257460D02*
X11931944Y-9238412D01*
X11931944Y-9238412D02*
X11931944Y-9228889D01*
X11931944Y-9228889D02*
X11922420Y-9209841D01*
X11922420Y-9209841D02*
X11903373Y-9200317D01*
X11903373Y-9200317D02*
X11874801Y-9200317D01*
X11874801Y-9200317D02*
X11855754Y-9190793D01*
X11855754Y-9190793D02*
X11846230Y-9171746D01*
X11846230Y-9171746D02*
X11846230Y-9162222D01*
X11846230Y-9162222D02*
X11855754Y-9143174D01*
X11855754Y-9143174D02*
X11874801Y-9133650D01*
X11874801Y-9133650D02*
X11903373Y-9133650D01*
X11903373Y-9133650D02*
X11922420Y-9143174D01*
X11998611Y-9343174D02*
X12008135Y-9333650D01*
X12008135Y-9333650D02*
X12027182Y-9305079D01*
X12027182Y-9305079D02*
X12036706Y-9286031D01*
X12036706Y-9286031D02*
X12046230Y-9257460D01*
X12046230Y-9257460D02*
X12055754Y-9209841D01*
X12055754Y-9209841D02*
X12055754Y-9171746D01*
X12055754Y-9171746D02*
X12046230Y-9124127D01*
X12046230Y-9124127D02*
X12036706Y-9095555D01*
X12036706Y-9095555D02*
X12027182Y-9076508D01*
X12027182Y-9076508D02*
X12008135Y-9047936D01*
X12008135Y-9047936D02*
X11998611Y-9038412D01*
D12*
X5554500Y-9389500D02*
X5554500Y-9489500D01*
X5504500Y-9439500D02*
X5604500Y-9439500D01*
D11*
X5970039Y-9530984D02*
X5855753Y-9530984D01*
X5912896Y-9530984D02*
X5912896Y-9330984D01*
X5912896Y-9330984D02*
X5893848Y-9359555D01*
X5893848Y-9359555D02*
X5874801Y-9378603D01*
X5874801Y-9378603D02*
X5855753Y-9388127D01*
X6055753Y-9511936D02*
X6065277Y-9521460D01*
X6065277Y-9521460D02*
X6055753Y-9530984D01*
X6055753Y-9530984D02*
X6046229Y-9521460D01*
X6046229Y-9521460D02*
X6055753Y-9511936D01*
X6055753Y-9511936D02*
X6055753Y-9530984D01*
X6189086Y-9330984D02*
X6208134Y-9330984D01*
X6208134Y-9330984D02*
X6227182Y-9340508D01*
X6227182Y-9340508D02*
X6236705Y-9350031D01*
X6236705Y-9350031D02*
X6246229Y-9369079D01*
X6246229Y-9369079D02*
X6255753Y-9407174D01*
X6255753Y-9407174D02*
X6255753Y-9454793D01*
X6255753Y-9454793D02*
X6246229Y-9492889D01*
X6246229Y-9492889D02*
X6236705Y-9511936D01*
X6236705Y-9511936D02*
X6227182Y-9521460D01*
X6227182Y-9521460D02*
X6208134Y-9530984D01*
X6208134Y-9530984D02*
X6189086Y-9530984D01*
X6189086Y-9530984D02*
X6170039Y-9521460D01*
X6170039Y-9521460D02*
X6160515Y-9511936D01*
X6160515Y-9511936D02*
X6150991Y-9492889D01*
X6150991Y-9492889D02*
X6141467Y-9454793D01*
X6141467Y-9454793D02*
X6141467Y-9407174D01*
X6141467Y-9407174D02*
X6150991Y-9369079D01*
X6150991Y-9369079D02*
X6160515Y-9350031D01*
X6160515Y-9350031D02*
X6170039Y-9340508D01*
X6170039Y-9340508D02*
X6189086Y-9330984D01*
X6379562Y-9330984D02*
X6398610Y-9330984D01*
X6398610Y-9330984D02*
X6417658Y-9340508D01*
X6417658Y-9340508D02*
X6427182Y-9350031D01*
X6427182Y-9350031D02*
X6436705Y-9369079D01*
X6436705Y-9369079D02*
X6446229Y-9407174D01*
X6446229Y-9407174D02*
X6446229Y-9454793D01*
X6446229Y-9454793D02*
X6436705Y-9492889D01*
X6436705Y-9492889D02*
X6427182Y-9511936D01*
X6427182Y-9511936D02*
X6417658Y-9521460D01*
X6417658Y-9521460D02*
X6398610Y-9530984D01*
X6398610Y-9530984D02*
X6379562Y-9530984D01*
X6379562Y-9530984D02*
X6360515Y-9521460D01*
X6360515Y-9521460D02*
X6350991Y-9511936D01*
X6350991Y-9511936D02*
X6341467Y-9492889D01*
X6341467Y-9492889D02*
X6331943Y-9454793D01*
X6331943Y-9454793D02*
X6331943Y-9407174D01*
X6331943Y-9407174D02*
X6341467Y-9369079D01*
X6341467Y-9369079D02*
X6350991Y-9350031D01*
X6350991Y-9350031D02*
X6360515Y-9340508D01*
X6360515Y-9340508D02*
X6379562Y-9330984D01*
X6570039Y-9330984D02*
X6589086Y-9330984D01*
X6589086Y-9330984D02*
X6608134Y-9340508D01*
X6608134Y-9340508D02*
X6617658Y-9350031D01*
X6617658Y-9350031D02*
X6627182Y-9369079D01*
X6627182Y-9369079D02*
X6636705Y-9407174D01*
X6636705Y-9407174D02*
X6636705Y-9454793D01*
X6636705Y-9454793D02*
X6627182Y-9492889D01*
X6627182Y-9492889D02*
X6617658Y-9511936D01*
X6617658Y-9511936D02*
X6608134Y-9521460D01*
X6608134Y-9521460D02*
X6589086Y-9530984D01*
X6589086Y-9530984D02*
X6570039Y-9530984D01*
X6570039Y-9530984D02*
X6550991Y-9521460D01*
X6550991Y-9521460D02*
X6541467Y-9511936D01*
X6541467Y-9511936D02*
X6531943Y-9492889D01*
X6531943Y-9492889D02*
X6522420Y-9454793D01*
X6522420Y-9454793D02*
X6522420Y-9407174D01*
X6522420Y-9407174D02*
X6531943Y-9369079D01*
X6531943Y-9369079D02*
X6541467Y-9350031D01*
X6541467Y-9350031D02*
X6550991Y-9340508D01*
X6550991Y-9340508D02*
X6570039Y-9330984D01*
X6722420Y-9530984D02*
X6722420Y-9397650D01*
X6722420Y-9416698D02*
X6731943Y-9407174D01*
X6731943Y-9407174D02*
X6750991Y-9397650D01*
X6750991Y-9397650D02*
X6779563Y-9397650D01*
X6779563Y-9397650D02*
X6798610Y-9407174D01*
X6798610Y-9407174D02*
X6808134Y-9426222D01*
X6808134Y-9426222D02*
X6808134Y-9530984D01*
X6808134Y-9426222D02*
X6817658Y-9407174D01*
X6817658Y-9407174D02*
X6836705Y-9397650D01*
X6836705Y-9397650D02*
X6865277Y-9397650D01*
X6865277Y-9397650D02*
X6884324Y-9407174D01*
X6884324Y-9407174D02*
X6893848Y-9426222D01*
X6893848Y-9426222D02*
X6893848Y-9530984D01*
X6989086Y-9530984D02*
X6989086Y-9397650D01*
X6989086Y-9416698D02*
X6998610Y-9407174D01*
X6998610Y-9407174D02*
X7017658Y-9397650D01*
X7017658Y-9397650D02*
X7046229Y-9397650D01*
X7046229Y-9397650D02*
X7065277Y-9407174D01*
X7065277Y-9407174D02*
X7074801Y-9426222D01*
X7074801Y-9426222D02*
X7074801Y-9530984D01*
X7074801Y-9426222D02*
X7084324Y-9407174D01*
X7084324Y-9407174D02*
X7103372Y-9397650D01*
X7103372Y-9397650D02*
X7131943Y-9397650D01*
X7131943Y-9397650D02*
X7150991Y-9407174D01*
X7150991Y-9407174D02*
X7160515Y-9426222D01*
X7160515Y-9426222D02*
X7160515Y-9530984D01*
X7550991Y-9321460D02*
X7379563Y-9578603D01*
X7808134Y-9330984D02*
X7827182Y-9330984D01*
X7827182Y-9330984D02*
X7846229Y-9340508D01*
X7846229Y-9340508D02*
X7855753Y-9350031D01*
X7855753Y-9350031D02*
X7865277Y-9369079D01*
X7865277Y-9369079D02*
X7874801Y-9407174D01*
X7874801Y-9407174D02*
X7874801Y-9454793D01*
X7874801Y-9454793D02*
X7865277Y-9492889D01*
X7865277Y-9492889D02*
X7855753Y-9511936D01*
X7855753Y-9511936D02*
X7846229Y-9521460D01*
X7846229Y-9521460D02*
X7827182Y-9530984D01*
X7827182Y-9530984D02*
X7808134Y-9530984D01*
X7808134Y-9530984D02*
X7789086Y-9521460D01*
X7789086Y-9521460D02*
X7779563Y-9511936D01*
X7779563Y-9511936D02*
X7770039Y-9492889D01*
X7770039Y-9492889D02*
X7760515Y-9454793D01*
X7760515Y-9454793D02*
X7760515Y-9407174D01*
X7760515Y-9407174D02*
X7770039Y-9369079D01*
X7770039Y-9369079D02*
X7779563Y-9350031D01*
X7779563Y-9350031D02*
X7789086Y-9340508D01*
X7789086Y-9340508D02*
X7808134Y-9330984D01*
X7960515Y-9511936D02*
X7970039Y-9521460D01*
X7970039Y-9521460D02*
X7960515Y-9530984D01*
X7960515Y-9530984D02*
X7950991Y-9521460D01*
X7950991Y-9521460D02*
X7960515Y-9511936D01*
X7960515Y-9511936D02*
X7960515Y-9530984D01*
X8093848Y-9330984D02*
X8112896Y-9330984D01*
X8112896Y-9330984D02*
X8131944Y-9340508D01*
X8131944Y-9340508D02*
X8141467Y-9350031D01*
X8141467Y-9350031D02*
X8150991Y-9369079D01*
X8150991Y-9369079D02*
X8160515Y-9407174D01*
X8160515Y-9407174D02*
X8160515Y-9454793D01*
X8160515Y-9454793D02*
X8150991Y-9492889D01*
X8150991Y-9492889D02*
X8141467Y-9511936D01*
X8141467Y-9511936D02*
X8131944Y-9521460D01*
X8131944Y-9521460D02*
X8112896Y-9530984D01*
X8112896Y-9530984D02*
X8093848Y-9530984D01*
X8093848Y-9530984D02*
X8074801Y-9521460D01*
X8074801Y-9521460D02*
X8065277Y-9511936D01*
X8065277Y-9511936D02*
X8055753Y-9492889D01*
X8055753Y-9492889D02*
X8046229Y-9454793D01*
X8046229Y-9454793D02*
X8046229Y-9407174D01*
X8046229Y-9407174D02*
X8055753Y-9369079D01*
X8055753Y-9369079D02*
X8065277Y-9350031D01*
X8065277Y-9350031D02*
X8074801Y-9340508D01*
X8074801Y-9340508D02*
X8093848Y-9330984D01*
X8227182Y-9330984D02*
X8350991Y-9330984D01*
X8350991Y-9330984D02*
X8284325Y-9407174D01*
X8284325Y-9407174D02*
X8312896Y-9407174D01*
X8312896Y-9407174D02*
X8331944Y-9416698D01*
X8331944Y-9416698D02*
X8341467Y-9426222D01*
X8341467Y-9426222D02*
X8350991Y-9445270D01*
X8350991Y-9445270D02*
X8350991Y-9492889D01*
X8350991Y-9492889D02*
X8341467Y-9511936D01*
X8341467Y-9511936D02*
X8331944Y-9521460D01*
X8331944Y-9521460D02*
X8312896Y-9530984D01*
X8312896Y-9530984D02*
X8255753Y-9530984D01*
X8255753Y-9530984D02*
X8236706Y-9521460D01*
X8236706Y-9521460D02*
X8227182Y-9511936D01*
X8446229Y-9530984D02*
X8484325Y-9530984D01*
X8484325Y-9530984D02*
X8503372Y-9521460D01*
X8503372Y-9521460D02*
X8512896Y-9511936D01*
X8512896Y-9511936D02*
X8531944Y-9483365D01*
X8531944Y-9483365D02*
X8541468Y-9445270D01*
X8541468Y-9445270D02*
X8541468Y-9369079D01*
X8541468Y-9369079D02*
X8531944Y-9350031D01*
X8531944Y-9350031D02*
X8522420Y-9340508D01*
X8522420Y-9340508D02*
X8503372Y-9330984D01*
X8503372Y-9330984D02*
X8465277Y-9330984D01*
X8465277Y-9330984D02*
X8446229Y-9340508D01*
X8446229Y-9340508D02*
X8436706Y-9350031D01*
X8436706Y-9350031D02*
X8427182Y-9369079D01*
X8427182Y-9369079D02*
X8427182Y-9416698D01*
X8427182Y-9416698D02*
X8436706Y-9435746D01*
X8436706Y-9435746D02*
X8446229Y-9445270D01*
X8446229Y-9445270D02*
X8465277Y-9454793D01*
X8465277Y-9454793D02*
X8503372Y-9454793D01*
X8503372Y-9454793D02*
X8522420Y-9445270D01*
X8522420Y-9445270D02*
X8531944Y-9435746D01*
X8531944Y-9435746D02*
X8541468Y-9416698D01*
X8712896Y-9397650D02*
X8712896Y-9530984D01*
X8665277Y-9321460D02*
X8617658Y-9464317D01*
X8617658Y-9464317D02*
X8741468Y-9464317D01*
X8808134Y-9330984D02*
X8808134Y-9369079D01*
X8884325Y-9330984D02*
X8884325Y-9369079D01*
X9179563Y-9607174D02*
X9170039Y-9597650D01*
X9170039Y-9597650D02*
X9150991Y-9569079D01*
X9150991Y-9569079D02*
X9141468Y-9550031D01*
X9141468Y-9550031D02*
X9131944Y-9521460D01*
X9131944Y-9521460D02*
X9122420Y-9473841D01*
X9122420Y-9473841D02*
X9122420Y-9435746D01*
X9122420Y-9435746D02*
X9131944Y-9388127D01*
X9131944Y-9388127D02*
X9141468Y-9359555D01*
X9141468Y-9359555D02*
X9150991Y-9340508D01*
X9150991Y-9340508D02*
X9170039Y-9311936D01*
X9170039Y-9311936D02*
X9179563Y-9302412D01*
X9360515Y-9530984D02*
X9246230Y-9530984D01*
X9303372Y-9530984D02*
X9303372Y-9330984D01*
X9303372Y-9330984D02*
X9284325Y-9359555D01*
X9284325Y-9359555D02*
X9265277Y-9378603D01*
X9265277Y-9378603D02*
X9246230Y-9388127D01*
X9531944Y-9397650D02*
X9531944Y-9530984D01*
X9484325Y-9321460D02*
X9436706Y-9464317D01*
X9436706Y-9464317D02*
X9560515Y-9464317D01*
X9789087Y-9530984D02*
X9789087Y-9330984D01*
X9874801Y-9530984D02*
X9874801Y-9426222D01*
X9874801Y-9426222D02*
X9865277Y-9407174D01*
X9865277Y-9407174D02*
X9846230Y-9397650D01*
X9846230Y-9397650D02*
X9817658Y-9397650D01*
X9817658Y-9397650D02*
X9798611Y-9407174D01*
X9798611Y-9407174D02*
X9789087Y-9416698D01*
X9998611Y-9530984D02*
X9979563Y-9521460D01*
X9979563Y-9521460D02*
X9970039Y-9511936D01*
X9970039Y-9511936D02*
X9960515Y-9492889D01*
X9960515Y-9492889D02*
X9960515Y-9435746D01*
X9960515Y-9435746D02*
X9970039Y-9416698D01*
X9970039Y-9416698D02*
X9979563Y-9407174D01*
X9979563Y-9407174D02*
X9998611Y-9397650D01*
X9998611Y-9397650D02*
X10027182Y-9397650D01*
X10027182Y-9397650D02*
X10046230Y-9407174D01*
X10046230Y-9407174D02*
X10055753Y-9416698D01*
X10055753Y-9416698D02*
X10065277Y-9435746D01*
X10065277Y-9435746D02*
X10065277Y-9492889D01*
X10065277Y-9492889D02*
X10055753Y-9511936D01*
X10055753Y-9511936D02*
X10046230Y-9521460D01*
X10046230Y-9521460D02*
X10027182Y-9530984D01*
X10027182Y-9530984D02*
X9998611Y-9530984D01*
X10179563Y-9530984D02*
X10160515Y-9521460D01*
X10160515Y-9521460D02*
X10150992Y-9502412D01*
X10150992Y-9502412D02*
X10150992Y-9330984D01*
X10331944Y-9521460D02*
X10312896Y-9530984D01*
X10312896Y-9530984D02*
X10274801Y-9530984D01*
X10274801Y-9530984D02*
X10255753Y-9521460D01*
X10255753Y-9521460D02*
X10246230Y-9502412D01*
X10246230Y-9502412D02*
X10246230Y-9426222D01*
X10246230Y-9426222D02*
X10255753Y-9407174D01*
X10255753Y-9407174D02*
X10274801Y-9397650D01*
X10274801Y-9397650D02*
X10312896Y-9397650D01*
X10312896Y-9397650D02*
X10331944Y-9407174D01*
X10331944Y-9407174D02*
X10341468Y-9426222D01*
X10341468Y-9426222D02*
X10341468Y-9445270D01*
X10341468Y-9445270D02*
X10246230Y-9464317D01*
X10417658Y-9521460D02*
X10436706Y-9530984D01*
X10436706Y-9530984D02*
X10474801Y-9530984D01*
X10474801Y-9530984D02*
X10493849Y-9521460D01*
X10493849Y-9521460D02*
X10503373Y-9502412D01*
X10503373Y-9502412D02*
X10503373Y-9492889D01*
X10503373Y-9492889D02*
X10493849Y-9473841D01*
X10493849Y-9473841D02*
X10474801Y-9464317D01*
X10474801Y-9464317D02*
X10446230Y-9464317D01*
X10446230Y-9464317D02*
X10427182Y-9454793D01*
X10427182Y-9454793D02*
X10417658Y-9435746D01*
X10417658Y-9435746D02*
X10417658Y-9426222D01*
X10417658Y-9426222D02*
X10427182Y-9407174D01*
X10427182Y-9407174D02*
X10446230Y-9397650D01*
X10446230Y-9397650D02*
X10474801Y-9397650D01*
X10474801Y-9397650D02*
X10493849Y-9407174D01*
X10570039Y-9607174D02*
X10579563Y-9597650D01*
X10579563Y-9597650D02*
X10598611Y-9569079D01*
X10598611Y-9569079D02*
X10608134Y-9550031D01*
X10608134Y-9550031D02*
X10617658Y-9521460D01*
X10617658Y-9521460D02*
X10627182Y-9473841D01*
X10627182Y-9473841D02*
X10627182Y-9435746D01*
X10627182Y-9435746D02*
X10617658Y-9388127D01*
X10617658Y-9388127D02*
X10608134Y-9359555D01*
X10608134Y-9359555D02*
X10598611Y-9340508D01*
X10598611Y-9340508D02*
X10579563Y-9311936D01*
X10579563Y-9311936D02*
X10570039Y-9302412D01*
M02*
