%TF.GenerationSoftware,KiCad,Pcbnew,9.0.7*%
%TF.CreationDate,2026-06-15T23:00:31+05:30*%
%TF.ProjectId,Jazz,4a617a7a-2e6b-4696-9361-645f70636258,rev?*%
%TF.SameCoordinates,Original*%
%TF.FileFunction,Plated,1,4,PTH,Mixed*%
%TF.FilePolarity,Positive*%
%FSLAX46Y46*%
G04 Gerber Fmt 4.6, Leading zero omitted, Abs format (unit mm)*
G04 Created by KiCad (PCBNEW 9.0.7) date 2026-06-15 23:00:31*
%MOMM*%
%LPD*%
G01*
G04 APERTURE LIST*
%TA.AperFunction,ViaDrill*%
%ADD10C,0.300000*%
%TD*%
G04 aperture for slot hole*
%TA.AperFunction,ComponentDrill*%
%ADD11C,0.599998*%
%TD*%
%TA.AperFunction,ComponentDrill*%
%ADD12C,1.000000*%
%TD*%
G04 APERTURE END LIST*
D10*
X59010000Y-57540000D03*
X59085000Y-55200000D03*
X60060000Y-63465000D03*
X62270000Y-63420000D03*
X65030000Y-75810000D03*
X65270000Y-71710000D03*
X65700000Y-67300000D03*
X65940000Y-69230000D03*
X66430000Y-59730000D03*
X68080000Y-72760000D03*
X68820000Y-60390000D03*
X69210000Y-66840000D03*
X71490000Y-74215000D03*
X74540000Y-66910000D03*
X74575000Y-70030000D03*
X82260000Y-61180000D03*
X83020000Y-62810000D03*
X84720000Y-67952500D03*
D11*
%TO.C,USB-C-Port1*%
X57220014Y-67510000D02*
X58719986Y-67510000D01*
X57220001Y-76150000D02*
X58719999Y-76150000D01*
X62830001Y-67510000D02*
X63829999Y-67510000D01*
X62830001Y-76150000D02*
X63829999Y-76150000D01*
D12*
%TO.C,U1*%
X77699750Y-63017985D03*
X77699750Y-65557985D03*
X77699750Y-68097985D03*
X77699750Y-70637985D03*
X77699750Y-73177985D03*
X77699750Y-75717985D03*
X77699750Y-78257985D03*
X92949750Y-63017985D03*
X92949750Y-65557985D03*
X92949750Y-68097985D03*
X92949750Y-70637985D03*
X92949750Y-73177985D03*
X92949750Y-75717985D03*
X92949750Y-78257985D03*
M02*
