%TF.GenerationSoftware,KiCad,Pcbnew,9.0.7*%
%TF.CreationDate,2026-06-15T22:57:30+05:30*%
%TF.ProjectId,Jazz,4a617a7a-2e6b-4696-9361-645f70636258,rev?*%
%TF.SameCoordinates,Original*%
%TF.FileFunction,Copper,L1,Top*%
%TF.FilePolarity,Positive*%
%FSLAX46Y46*%
G04 Gerber Fmt 4.6, Leading zero omitted, Abs format (unit mm)*
G04 Created by KiCad (PCBNEW 9.0.7) date 2026-06-15 22:57:30*
%MOMM*%
%LPD*%
G01*
G04 APERTURE LIST*
G04 Aperture macros list*
%AMRoundRect*
0 Rectangle with rounded corners*
0 $1 Rounding radius*
0 $2 $3 $4 $5 $6 $7 $8 $9 X,Y pos of 4 corners*
0 Add a 4 corners polygon primitive as box body*
4,1,4,$2,$3,$4,$5,$6,$7,$8,$9,$2,$3,0*
0 Add four circle primitives for the rounded corners*
1,1,$1+$1,$2,$3*
1,1,$1+$1,$4,$5*
1,1,$1+$1,$6,$7*
1,1,$1+$1,$8,$9*
0 Add four rect primitives between the rounded corners*
20,1,$1+$1,$2,$3,$4,$5,0*
20,1,$1+$1,$4,$5,$6,$7,0*
20,1,$1+$1,$6,$7,$8,$9,0*
20,1,$1+$1,$8,$9,$2,$3,0*%
G04 Aperture macros list end*
%TA.AperFunction,SMDPad,CuDef*%
%ADD10RoundRect,0.500000X-0.500000X-1.500000X0.500000X-1.500000X0.500000X1.500000X-0.500000X1.500000X0*%
%TD*%
%TA.AperFunction,SMDPad,CuDef*%
%ADD11RoundRect,0.250000X0.450000X-0.262500X0.450000X0.262500X-0.450000X0.262500X-0.450000X-0.262500X0*%
%TD*%
%TA.AperFunction,SMDPad,CuDef*%
%ADD12RoundRect,0.250000X0.325000X0.650000X-0.325000X0.650000X-0.325000X-0.650000X0.325000X-0.650000X0*%
%TD*%
%TA.AperFunction,ComponentPad*%
%ADD13R,1.700000X1.700000*%
%TD*%
%TA.AperFunction,ComponentPad*%
%ADD14C,1.700000*%
%TD*%
%TA.AperFunction,SMDPad,CuDef*%
%ADD15RoundRect,0.250000X0.250000X0.475000X-0.250000X0.475000X-0.250000X-0.475000X0.250000X-0.475000X0*%
%TD*%
%TA.AperFunction,SMDPad,CuDef*%
%ADD16R,0.505000X0.224000*%
%TD*%
%TA.AperFunction,SMDPad,CuDef*%
%ADD17R,0.900000X1.500000*%
%TD*%
%TA.AperFunction,SMDPad,CuDef*%
%ADD18RoundRect,0.250000X-0.262500X-0.450000X0.262500X-0.450000X0.262500X0.450000X-0.262500X0.450000X0*%
%TD*%
%TA.AperFunction,SMDPad,CuDef*%
%ADD19RoundRect,0.150000X-0.512500X-0.150000X0.512500X-0.150000X0.512500X0.150000X-0.512500X0.150000X0*%
%TD*%
%TA.AperFunction,SMDPad,CuDef*%
%ADD20RoundRect,0.250000X-0.250000X-0.475000X0.250000X-0.475000X0.250000X0.475000X-0.250000X0.475000X0*%
%TD*%
%TA.AperFunction,ComponentPad*%
%ADD21O,2.100000X1.000000*%
%TD*%
%TA.AperFunction,ComponentPad*%
%ADD22O,2.600000X1.000000*%
%TD*%
%TA.AperFunction,SMDPad,CuDef*%
%ADD23R,0.800000X0.300000*%
%TD*%
%TA.AperFunction,SMDPad,CuDef*%
%ADD24R,0.700000X1.000000*%
%TD*%
%TA.AperFunction,SMDPad,CuDef*%
%ADD25R,0.700000X0.300000*%
%TD*%
%TA.AperFunction,SMDPad,CuDef*%
%ADD26RoundRect,0.250000X-0.475000X0.250000X-0.475000X-0.250000X0.475000X-0.250000X0.475000X0.250000X0*%
%TD*%
%TA.AperFunction,SMDPad,CuDef*%
%ADD27RoundRect,0.250000X-0.450000X0.262500X-0.450000X-0.262500X0.450000X-0.262500X0.450000X0.262500X0*%
%TD*%
%TA.AperFunction,ViaPad*%
%ADD28C,0.600000*%
%TD*%
%TA.AperFunction,Conductor*%
%ADD29C,0.150000*%
%TD*%
%TA.AperFunction,Conductor*%
%ADD30C,0.200000*%
%TD*%
G04 APERTURE END LIST*
D10*
%TO.P,Off,1,1*%
%TO.N,Battery-Rail Out*%
X68010000Y-56540000D03*
%TD*%
D11*
%TO.P,R3,1*%
%TO.N,GND*%
X69610000Y-78075000D03*
%TO.P,R3,2*%
%TO.N,Net-(U3-PRETERM)*%
X69610000Y-76250000D03*
%TD*%
D12*
%TO.P,C4,1*%
%TO.N,GND*%
X74575000Y-70030000D03*
%TO.P,C4,2*%
%TO.N,Battery-Rail Out*%
X71625000Y-70030000D03*
%TD*%
D13*
%TO.P,U1,1,P0.02_A0_D0*%
%TO.N,unconnected-(U1-P0.02_A0_D0-Pad1)*%
X92949750Y-78257985D03*
D14*
%TO.P,U1,2,P0.03_A1_D1*%
%TO.N,unconnected-(U1-P0.03_A1_D1-Pad2)*%
X92949750Y-75717985D03*
%TO.P,U1,3,P0.28_A2_D2*%
%TO.N,unconnected-(U1-P0.28_A2_D2-Pad3)*%
X92949750Y-73177985D03*
%TO.P,U1,4,P0.29_A3_D3*%
%TO.N,unconnected-(U1-P0.29_A3_D3-Pad4)*%
X92949750Y-70637985D03*
%TO.P,U1,5,P0.04_A4_D4_SDA*%
%TO.N,unconnected-(U1-P0.04_A4_D4_SDA-Pad5)*%
X92949750Y-68097985D03*
%TO.P,U1,6,P0.05_A5_D5_SCL*%
%TO.N,unconnected-(U1-P0.05_A5_D5_SCL-Pad6)*%
X92949750Y-65557985D03*
%TO.P,U1,7,P1.11_D6_TX*%
%TO.N,unconnected-(U1-P1.11_D6_TX-Pad7)*%
X92949750Y-63017985D03*
%TO.P,U1,8,P1.12_D7_RX*%
%TO.N,Pairing-Mode*%
X77699750Y-63017985D03*
%TO.P,U1,9,P1.13_D8_SCK*%
%TO.N,BCLK*%
X77699750Y-65557985D03*
%TO.P,U1,10,P1.14_D9_MISO*%
%TO.N,LRCK*%
X77699750Y-68097985D03*
%TO.P,U1,11,P1.15_D10_MOSI*%
%TO.N,DIN*%
X77699750Y-70637985D03*
%TO.P,U1,12,3V3*%
%TO.N,Diode Out*%
X77699750Y-73177985D03*
%TO.P,U1,13,GND*%
%TO.N,GND*%
X77699750Y-75717985D03*
%TO.P,U1,14,VBUS*%
%TO.N,unconnected-(U1-VBUS-Pad14)*%
X77699750Y-78257985D03*
%TD*%
D15*
%TO.P,C3,1*%
%TO.N,GND*%
X69420000Y-70570000D03*
%TO.P,C3,2*%
%TO.N,VBUS*%
X67520000Y-70570000D03*
%TD*%
D12*
%TO.P,C2,1*%
%TO.N,Switch_OUT*%
X62035000Y-55200000D03*
%TO.P,C2,2*%
%TO.N,GND*%
X59085000Y-55200000D03*
%TD*%
D10*
%TO.P,I/O1,1,1*%
%TO.N,Pairing-Mode*%
X81100000Y-56730000D03*
%TD*%
D16*
%TO.P,U3,1,IN*%
%TO.N,VBUS*%
X67130000Y-71960000D03*
%TO.P,U3,2,ISET*%
%TO.N,Net-(U3-ISET)*%
X67130000Y-72360000D03*
%TO.P,U3,3,VSS*%
%TO.N,GND*%
X67130000Y-72760000D03*
%TO.P,U3,4,PRETERM*%
%TO.N,Net-(U3-PRETERM)*%
X67130000Y-73160000D03*
%TO.P,U3,5,~{PG}*%
%TO.N,unconnected-(U3-~{PG}-Pad5)*%
X67130000Y-73560000D03*
%TO.P,U3,6,NC*%
%TO.N,unconnected-(U3-NC-Pad6)*%
X69030000Y-73560000D03*
%TO.P,U3,7,ISET2*%
%TO.N,GND*%
X69030000Y-73160000D03*
%TO.P,U3,8,~{CHG}*%
%TO.N,unconnected-(U3-~{CHG}-Pad8)*%
X69030000Y-72760000D03*
%TO.P,U3,9,TS*%
%TO.N,Net-(U3-TS)*%
X69030000Y-72360000D03*
%TO.P,U3,10,OUT*%
%TO.N,Battery-Rail Out*%
X69030000Y-71960000D03*
D17*
%TO.P,U3,11,EP*%
%TO.N,GND*%
X68080000Y-72760000D03*
%TD*%
D18*
%TO.P,R5,1*%
%TO.N,Net-(USB-C-Port1-CC2)*%
X62430000Y-78040000D03*
%TO.P,R5,2*%
%TO.N,GND*%
X64255000Y-78040000D03*
%TD*%
D19*
%TO.P,U2,1,IN*%
%TO.N,Switch_OUT*%
X60192500Y-59490000D03*
%TO.P,U2,2,GND*%
%TO.N,GND*%
X60192500Y-60440000D03*
%TO.P,U2,3,EN*%
%TO.N,Switch_OUT*%
X60192500Y-61390000D03*
%TO.P,U2,4,NC*%
%TO.N,unconnected-(U2-NC-Pad4)*%
X62467500Y-61390000D03*
%TO.P,U2,5,OUT*%
%TO.N,3.3V*%
X62467500Y-59490000D03*
%TD*%
D11*
%TO.P,R2,1*%
%TO.N,GND*%
X67020000Y-78025000D03*
%TO.P,R2,2*%
%TO.N,Net-(U3-ISET)*%
X67020000Y-76200000D03*
%TD*%
D20*
%TO.P,C5,1*%
%TO.N,GND*%
X59010000Y-57540000D03*
%TO.P,C5,2*%
%TO.N,Switch_OUT*%
X60910000Y-57540000D03*
%TD*%
D21*
%TO.P,USB-C-Port1,0,0*%
%TO.N,GROUND*%
X63330000Y-67510000D03*
D22*
X57970000Y-67510000D03*
D21*
X63330000Y-76150000D03*
D22*
X57970000Y-76150000D03*
D23*
%TO.P,USB-C-Port1,A1,GND*%
%TO.N,GND*%
X63790000Y-68830000D03*
%TO.P,USB-C-Port1,A2,TX1+*%
%TO.N,unconnected-(USB-C-Port1-TX1+-PadA2)*%
X63790000Y-69330000D03*
%TO.P,USB-C-Port1,A3,TX1-*%
%TO.N,unconnected-(USB-C-Port1-TX1--PadA3)*%
X63790000Y-69830000D03*
%TO.P,USB-C-Port1,A4,VBUS*%
%TO.N,VBUS*%
X63790000Y-70330000D03*
%TO.P,USB-C-Port1,A5,CC1*%
%TO.N,Net-(USB-C-Port1-CC1)*%
X63790000Y-70830000D03*
%TO.P,USB-C-Port1,A6,D+*%
%TO.N,unconnected-(USB-C-Port1-D+-PadA6)*%
X63790000Y-71330000D03*
%TO.P,USB-C-Port1,A7,D-*%
%TO.N,unconnected-(USB-C-Port1-D--PadA7)*%
X63790000Y-72330000D03*
%TO.P,USB-C-Port1,A8,SBU1*%
%TO.N,unconnected-(USB-C-Port1-SBU1-PadA8)*%
X63790000Y-72830000D03*
%TO.P,USB-C-Port1,A9,VBUS*%
%TO.N,VBUS*%
X63790000Y-73330000D03*
%TO.P,USB-C-Port1,A10,RX2-*%
%TO.N,unconnected-(USB-C-Port1-RX2--PadA10)*%
X63790000Y-73830000D03*
%TO.P,USB-C-Port1,A11,RX2+*%
%TO.N,unconnected-(USB-C-Port1-RX2+-PadA11)*%
X63790000Y-74330000D03*
%TO.P,USB-C-Port1,A12,GND*%
%TO.N,GND*%
X63790000Y-74830000D03*
D24*
%TO.P,USB-C-Port1,B1,GND*%
X62440000Y-74930000D03*
D25*
%TO.P,USB-C-Port1,B2,TX2+*%
%TO.N,unconnected-(USB-C-Port1-TX2+-PadB2)*%
X62440000Y-74080000D03*
%TO.P,USB-C-Port1,B3,TX2-*%
%TO.N,unconnected-(USB-C-Port1-TX2--PadB3)*%
X62440000Y-73580000D03*
%TO.P,USB-C-Port1,B4,VBUS*%
%TO.N,VBUS*%
X62440000Y-73080000D03*
%TO.P,USB-C-Port1,B5,CC2*%
%TO.N,Net-(USB-C-Port1-CC2)*%
X62440000Y-72580000D03*
%TO.P,USB-C-Port1,B6,D+*%
%TO.N,unconnected-(USB-C-Port1-D+-PadB6)*%
X62440000Y-72080000D03*
%TO.P,USB-C-Port1,B7,D-*%
%TO.N,unconnected-(USB-C-Port1-D--PadB7)*%
X62440000Y-71580000D03*
%TO.P,USB-C-Port1,B8,SBU2*%
%TO.N,unconnected-(USB-C-Port1-SBU2-PadB8)*%
X62440000Y-71080000D03*
%TO.P,USB-C-Port1,B9,VBUS*%
%TO.N,VBUS*%
X62440000Y-70580000D03*
%TO.P,USB-C-Port1,B10,RX1-*%
%TO.N,unconnected-(USB-C-Port1-RX1--PadB10)*%
X62440000Y-70080000D03*
%TO.P,USB-C-Port1,B11,RX1+*%
%TO.N,unconnected-(USB-C-Port1-RX1+-PadB11)*%
X62440000Y-69580000D03*
D24*
%TO.P,USB-C-Port1,B12,GND*%
%TO.N,GND*%
X62440000Y-68730000D03*
%TD*%
D10*
%TO.P,-,1,1*%
%TO.N,GND*%
X74620000Y-56620000D03*
%TD*%
D26*
%TO.P,C7,1*%
%TO.N,GND*%
X62270000Y-63420000D03*
%TO.P,C7,2*%
%TO.N,GROUND*%
X62270000Y-65320000D03*
%TD*%
D10*
%TO.P,GND1,1,1*%
%TO.N,GND*%
X77690000Y-56840000D03*
%TD*%
%TO.P,VCC1,1,1*%
%TO.N,3.3V*%
X84260000Y-56790000D03*
%TD*%
D18*
%TO.P,R6,1*%
%TO.N,Net-(USB-C-Port1-CC1)*%
X65700000Y-67300000D03*
%TO.P,R6,2*%
%TO.N,GND*%
X67525000Y-67300000D03*
%TD*%
D10*
%TO.P,+,1,1*%
%TO.N,Battery-Rail Out*%
X71420000Y-56570000D03*
%TD*%
D19*
%TO.P,D1,1,A*%
%TO.N,3.3V*%
X65872500Y-61000000D03*
%TO.P,D1,2,NC*%
%TO.N,unconnected-(D1-NC-Pad2)*%
X65872500Y-62900000D03*
%TO.P,D1,3,K*%
%TO.N,Diode Out*%
X68147500Y-61950000D03*
%TD*%
D11*
%TO.P,R4,1*%
%TO.N,GND*%
X71490000Y-74215000D03*
%TO.P,R4,2*%
%TO.N,Net-(U3-TS)*%
X71490000Y-72390000D03*
%TD*%
D27*
%TO.P,R7,1*%
%TO.N,GND*%
X60060000Y-63465000D03*
%TO.P,R7,2*%
%TO.N,GROUND*%
X60060000Y-65290000D03*
%TD*%
D10*
%TO.P,On,1,1*%
%TO.N,Switch_OUT*%
X65100000Y-56440000D03*
%TD*%
D28*
%TO.N,GND*%
X62270000Y-63420000D03*
X65940000Y-69230000D03*
X71490000Y-74215000D03*
X84720000Y-67952500D03*
X65030000Y-75810000D03*
X83020000Y-62810000D03*
X74575000Y-70030000D03*
X60060000Y-63465000D03*
X59010000Y-57540000D03*
X59085000Y-55200000D03*
X68080000Y-72760000D03*
X74540000Y-66910000D03*
%TO.N,Switch_OUT*%
X66430000Y-59730000D03*
%TO.N,3.3V*%
X68820000Y-60390000D03*
X82260000Y-61180000D03*
%TO.N,Diode Out*%
X69210000Y-66840000D03*
%TO.N,Net-(USB-C-Port1-CC1)*%
X65700000Y-67300000D03*
X65270000Y-71710000D03*
%TD*%
D29*
%TO.N,GND*%
X69420000Y-69195000D02*
X67525000Y-67300000D01*
X69030000Y-73160000D02*
X70080000Y-73160000D01*
D30*
X65030000Y-75810000D02*
X65030000Y-77265000D01*
X65540000Y-68830000D02*
X65940000Y-69230000D01*
D29*
X74620000Y-56620000D02*
X77470000Y-56620000D01*
D30*
X63690000Y-74930000D02*
X63790000Y-74830000D01*
D29*
X69610000Y-78075000D02*
X67070000Y-78075000D01*
X61360000Y-60440000D02*
X61410000Y-60490000D01*
X65790000Y-78025000D02*
X65030000Y-77265000D01*
D30*
X62440000Y-68730000D02*
X62540000Y-68830000D01*
D29*
X70080000Y-73160000D02*
X71135000Y-74215000D01*
X61410000Y-60490000D02*
X61410000Y-62560000D01*
X67070000Y-78075000D02*
X67020000Y-78025000D01*
X67130000Y-72760000D02*
X68080000Y-72760000D01*
D30*
X62440000Y-74930000D02*
X63690000Y-74930000D01*
D29*
X77470000Y-56620000D02*
X77690000Y-56840000D01*
D30*
X64050000Y-74830000D02*
X65030000Y-75810000D01*
D29*
X74775000Y-69830000D02*
X74575000Y-70030000D01*
X60505000Y-63465000D02*
X60060000Y-63465000D01*
D30*
X62540000Y-68830000D02*
X63790000Y-68830000D01*
X63790000Y-68830000D02*
X65540000Y-68830000D01*
D29*
X68480000Y-73160000D02*
X68080000Y-72760000D01*
X67525000Y-67645000D02*
X65940000Y-69230000D01*
X67020000Y-78025000D02*
X65790000Y-78025000D01*
X74620000Y-66830000D02*
X74540000Y-66910000D01*
X74620000Y-56620000D02*
X74620000Y-66830000D01*
D30*
X63790000Y-74830000D02*
X64050000Y-74830000D01*
D29*
X77630000Y-56900000D02*
X77690000Y-56840000D01*
X61410000Y-62560000D02*
X62270000Y-63420000D01*
X69030000Y-73160000D02*
X68480000Y-73160000D01*
X61410000Y-62560000D02*
X60505000Y-63465000D01*
X71135000Y-74215000D02*
X71490000Y-74215000D01*
D30*
X65030000Y-77265000D02*
X64255000Y-78040000D01*
D29*
X69420000Y-70570000D02*
X69420000Y-69195000D01*
X67525000Y-67300000D02*
X67525000Y-67645000D01*
X60192500Y-60440000D02*
X61360000Y-60440000D01*
%TO.N,Battery-Rail Out*%
X71655000Y-70060000D02*
X71625000Y-70030000D01*
X71420000Y-56570000D02*
X71390000Y-56540000D01*
X71470000Y-56620000D02*
X71470000Y-69875000D01*
X71420000Y-56570000D02*
X71470000Y-56620000D01*
X69770000Y-71960000D02*
X69770000Y-71885000D01*
X69770000Y-71885000D02*
X71625000Y-70030000D01*
X71500000Y-56650000D02*
X71420000Y-56570000D01*
X71470000Y-69875000D02*
X71625000Y-70030000D01*
X71390000Y-56540000D02*
X68010000Y-56540000D01*
X69030000Y-71960000D02*
X69770000Y-71960000D01*
%TO.N,Switch_OUT*%
X59010000Y-59490000D02*
X59000000Y-59500000D01*
X59000000Y-61470000D02*
X60112500Y-61470000D01*
X62035000Y-56415000D02*
X60910000Y-57540000D01*
X60192500Y-59490000D02*
X59010000Y-59490000D01*
X65100000Y-56440000D02*
X65100000Y-58400000D01*
X62035000Y-55200000D02*
X62035000Y-56415000D01*
X59000000Y-59500000D02*
X59000000Y-61470000D01*
X65100000Y-58400000D02*
X66430000Y-59730000D01*
X60112500Y-61470000D02*
X60192500Y-61390000D01*
X63275000Y-56440000D02*
X62035000Y-55200000D01*
X65100000Y-56440000D02*
X63275000Y-56440000D01*
X60910000Y-57540000D02*
X60910000Y-58772500D01*
X60910000Y-58772500D02*
X60192500Y-59490000D01*
%TO.N,VBUS*%
X65970000Y-71960000D02*
X65970000Y-72470000D01*
D30*
X62957500Y-70550000D02*
X62470000Y-70550000D01*
X62460000Y-73100000D02*
X62440000Y-73080000D01*
X63177500Y-70330000D02*
X62957500Y-70550000D01*
X63790000Y-70330000D02*
X63177500Y-70330000D01*
D29*
X67130000Y-71960000D02*
X65970000Y-71960000D01*
X65970000Y-72470000D02*
X65110000Y-73330000D01*
D30*
X67102000Y-71920000D02*
X66241000Y-71059000D01*
X63067500Y-73100000D02*
X62460000Y-73100000D01*
D29*
X67520000Y-70570000D02*
X66730000Y-70570000D01*
D30*
X62470000Y-70550000D02*
X62440000Y-70580000D01*
X66241000Y-71059000D02*
X65512000Y-70330000D01*
X63790000Y-73330000D02*
X65110000Y-73330000D01*
X65512000Y-70330000D02*
X63790000Y-70330000D01*
D29*
X66730000Y-70570000D02*
X66241000Y-71059000D01*
D30*
X63790000Y-73330000D02*
X63297500Y-73330000D01*
X63297500Y-73330000D02*
X63067500Y-73100000D01*
D29*
%TO.N,3.3V*%
X64362500Y-59490000D02*
X64401250Y-59528750D01*
X84260000Y-56790000D02*
X84260000Y-59180000D01*
X62467500Y-59490000D02*
X64362500Y-59490000D01*
X65872500Y-61000000D02*
X68210000Y-61000000D01*
X64401250Y-59528750D02*
X65872500Y-61000000D01*
X84260000Y-59180000D02*
X82260000Y-61180000D01*
X68210000Y-61000000D02*
X68820000Y-60390000D01*
%TO.N,GROUND*%
X57970000Y-67380000D02*
X60060000Y-65290000D01*
X63330000Y-67510000D02*
X63330000Y-66380000D01*
X60090000Y-65320000D02*
X60060000Y-65290000D01*
X57970000Y-67510000D02*
X57970000Y-67380000D01*
X63330000Y-66380000D02*
X62270000Y-65320000D01*
X62270000Y-65320000D02*
X60090000Y-65320000D01*
%TO.N,Diode Out*%
X68147500Y-61950000D02*
X68147500Y-65777500D01*
X68147500Y-65777500D02*
X69210000Y-66840000D01*
%TO.N,Pairing-Mode*%
X81100000Y-59617735D02*
X77699750Y-63017985D01*
X81100000Y-56730000D02*
X81100000Y-59617735D01*
%TO.N,Net-(U3-ISET)*%
X66700000Y-72360000D02*
X65640000Y-73420000D01*
X67130000Y-72360000D02*
X66700000Y-72360000D01*
X65640000Y-74820000D02*
X67020000Y-76200000D01*
X65640000Y-73420000D02*
X65640000Y-74820000D01*
%TO.N,Net-(U3-PRETERM)*%
X69060000Y-76250000D02*
X69610000Y-76250000D01*
X67130000Y-73160000D02*
X66440000Y-73160000D01*
X66440000Y-73630000D02*
X69060000Y-76250000D01*
X66440000Y-73160000D02*
X66440000Y-73630000D01*
%TO.N,Net-(U3-TS)*%
X69030000Y-72360000D02*
X71460000Y-72360000D01*
X71460000Y-72360000D02*
X71490000Y-72390000D01*
%TO.N,Net-(USB-C-Port1-CC2)*%
X61930000Y-72580000D02*
X62440000Y-72580000D01*
X61270000Y-73240000D02*
X61930000Y-72580000D01*
X61270000Y-76880000D02*
X61270000Y-73240000D01*
X62430000Y-78040000D02*
X61270000Y-76880000D01*
%TO.N,Net-(USB-C-Port1-CC1)*%
X64390000Y-70830000D02*
X65270000Y-71710000D01*
X63790000Y-70830000D02*
X64390000Y-70830000D01*
%TD*%
%TA.AperFunction,NonConductor*%
G36*
X62706352Y-56686472D02*
G01*
X62717383Y-56696263D01*
X62814485Y-56793365D01*
X62921635Y-56900515D01*
X63052865Y-56976281D01*
X63199234Y-57015500D01*
X63475501Y-57015500D01*
X63542540Y-57035185D01*
X63588295Y-57087989D01*
X63599501Y-57139500D01*
X63599501Y-57998034D01*
X63610113Y-58117415D01*
X63666089Y-58313045D01*
X63666090Y-58313048D01*
X63666091Y-58313049D01*
X63760302Y-58493407D01*
X63797579Y-58539124D01*
X63888892Y-58651111D01*
X63941980Y-58694398D01*
X63981498Y-58752018D01*
X63983590Y-58821857D01*
X63947592Y-58881740D01*
X63884934Y-58912654D01*
X63863620Y-58914500D01*
X63525808Y-58914500D01*
X63458769Y-58894815D01*
X63438131Y-58878185D01*
X63381865Y-58821919D01*
X63381760Y-58821857D01*
X63286464Y-58765499D01*
X63240398Y-58738256D01*
X63240397Y-58738255D01*
X63240396Y-58738255D01*
X63240393Y-58738254D01*
X63082573Y-58692402D01*
X63082567Y-58692401D01*
X63045701Y-58689500D01*
X63045694Y-58689500D01*
X61889306Y-58689500D01*
X61889297Y-58689500D01*
X61852694Y-58692381D01*
X61784316Y-58678016D01*
X61734560Y-58628964D01*
X61719222Y-58560799D01*
X61743172Y-58495162D01*
X61748627Y-58488821D01*
X61752705Y-58483662D01*
X61752712Y-58483656D01*
X61844814Y-58334334D01*
X61899999Y-58167797D01*
X61910500Y-58065009D01*
X61910499Y-57404740D01*
X61930183Y-57337702D01*
X61946814Y-57317064D01*
X62378155Y-56885722D01*
X62378160Y-56885719D01*
X62388363Y-56875515D01*
X62388365Y-56875515D01*
X62495515Y-56768365D01*
X62522316Y-56721943D01*
X62572880Y-56673729D01*
X62641487Y-56660505D01*
X62706352Y-56686472D01*
G37*
%TD.AperFunction*%
%TA.AperFunction,NonConductor*%
G36*
X66616861Y-58500278D02*
G01*
X66635527Y-58526834D01*
X66670302Y-58593407D01*
X66699295Y-58628964D01*
X66798891Y-58751110D01*
X66805021Y-58756108D01*
X66844537Y-58813729D01*
X66846628Y-58883568D01*
X66810630Y-58943450D01*
X66747971Y-58974364D01*
X66702177Y-58973768D01*
X66690350Y-58971386D01*
X66663497Y-58960263D01*
X66508842Y-58929500D01*
X66482380Y-58929500D01*
X66470260Y-58927059D01*
X66449839Y-58916315D01*
X66427703Y-58909815D01*
X66409302Y-58894986D01*
X66408426Y-58894526D01*
X66408170Y-58894075D01*
X66407061Y-58893181D01*
X66324695Y-58810815D01*
X66291210Y-58749492D01*
X66296194Y-58679800D01*
X66316270Y-58644778D01*
X66429521Y-58505887D01*
X66487140Y-58466372D01*
X66556978Y-58464280D01*
X66616861Y-58500278D01*
G37*
%TD.AperFunction*%
%TA.AperFunction,NonConductor*%
G36*
X69862540Y-57135185D02*
G01*
X69908295Y-57187989D01*
X69919501Y-57239500D01*
X69919501Y-58128034D01*
X69930113Y-58247415D01*
X69986089Y-58443045D01*
X69986090Y-58443048D01*
X69986091Y-58443049D01*
X70080302Y-58623407D01*
X70097724Y-58644773D01*
X70208890Y-58781109D01*
X70270211Y-58831109D01*
X70366593Y-58909698D01*
X70546951Y-59003909D01*
X70742582Y-59059886D01*
X70781481Y-59063344D01*
X70846513Y-59088888D01*
X70887413Y-59145536D01*
X70894500Y-59186857D01*
X70894500Y-63333856D01*
X70874815Y-63400895D01*
X70822011Y-63446650D01*
X70752853Y-63456594D01*
X70697615Y-63434174D01*
X70558578Y-63333158D01*
X70533327Y-63320292D01*
X70347563Y-63225639D01*
X70347560Y-63225638D01*
X70122327Y-63152457D01*
X70005370Y-63133932D01*
X69888414Y-63115408D01*
X69651586Y-63115408D01*
X69573615Y-63127757D01*
X69417672Y-63152457D01*
X69192439Y-63225638D01*
X69192436Y-63225639D01*
X68981422Y-63333157D01*
X68919885Y-63377867D01*
X68854078Y-63401346D01*
X68786025Y-63385520D01*
X68737330Y-63335414D01*
X68723000Y-63277548D01*
X68723000Y-62852195D01*
X68742685Y-62785156D01*
X68795489Y-62739401D01*
X68812395Y-62733122D01*
X68920398Y-62701744D01*
X69061865Y-62618081D01*
X69178081Y-62501865D01*
X69261744Y-62360398D01*
X69297917Y-62235890D01*
X69307597Y-62202573D01*
X69307598Y-62202567D01*
X69310500Y-62165694D01*
X69310500Y-61734306D01*
X69307598Y-61697431D01*
X69306280Y-61692896D01*
X69263535Y-61545766D01*
X69261744Y-61539602D01*
X69178081Y-61398135D01*
X69178079Y-61398133D01*
X69178076Y-61398129D01*
X69104243Y-61324296D01*
X69070758Y-61262973D01*
X69075742Y-61193281D01*
X69117614Y-61137348D01*
X69144467Y-61122055D01*
X69199179Y-61099394D01*
X69330289Y-61011789D01*
X69441789Y-60900289D01*
X69529394Y-60769179D01*
X69589737Y-60623497D01*
X69620500Y-60468842D01*
X69620500Y-60311158D01*
X69620500Y-60311155D01*
X69620499Y-60311153D01*
X69606693Y-60241745D01*
X69589737Y-60156503D01*
X69589735Y-60156498D01*
X69529397Y-60010827D01*
X69529390Y-60010814D01*
X69441789Y-59879711D01*
X69441786Y-59879707D01*
X69330292Y-59768213D01*
X69330288Y-59768210D01*
X69199185Y-59680609D01*
X69199172Y-59680602D01*
X69053501Y-59620264D01*
X69053489Y-59620261D01*
X68898845Y-59589500D01*
X68898842Y-59589500D01*
X68741158Y-59589500D01*
X68741155Y-59589500D01*
X68586510Y-59620261D01*
X68586498Y-59620264D01*
X68440827Y-59680602D01*
X68440814Y-59680609D01*
X68309711Y-59768210D01*
X68309707Y-59768213D01*
X68198213Y-59879707D01*
X68198210Y-59879711D01*
X68110609Y-60010814D01*
X68110602Y-60010827D01*
X68050264Y-60156498D01*
X68050261Y-60156510D01*
X68019501Y-60311146D01*
X68019354Y-60312646D01*
X68019057Y-60313381D01*
X68018311Y-60317132D01*
X68017599Y-60316990D01*
X67993197Y-60377435D01*
X67936165Y-60417798D01*
X67895950Y-60424500D01*
X67160691Y-60424500D01*
X67093652Y-60404815D01*
X67047897Y-60352011D01*
X67037953Y-60282853D01*
X67057589Y-60231609D01*
X67139390Y-60109185D01*
X67139390Y-60109184D01*
X67139394Y-60109179D01*
X67199737Y-59963497D01*
X67230500Y-59808842D01*
X67230500Y-59651158D01*
X67230500Y-59651155D01*
X67230499Y-59651153D01*
X67224355Y-59620264D01*
X67199737Y-59496503D01*
X67170943Y-59426987D01*
X67139397Y-59350827D01*
X67139390Y-59350814D01*
X67051789Y-59219711D01*
X67051786Y-59219707D01*
X67011973Y-59179894D01*
X66978488Y-59118571D01*
X66983472Y-59048879D01*
X67025344Y-58992946D01*
X67090808Y-58968529D01*
X67133766Y-58972997D01*
X67136948Y-58973907D01*
X67136951Y-58973909D01*
X67332582Y-59029886D01*
X67451963Y-59040500D01*
X68568036Y-59040499D01*
X68687418Y-59029886D01*
X68883049Y-58973909D01*
X69063407Y-58879698D01*
X69221109Y-58751109D01*
X69349698Y-58593407D01*
X69443909Y-58413049D01*
X69499886Y-58217418D01*
X69510500Y-58098037D01*
X69510500Y-57239500D01*
X69513050Y-57230814D01*
X69511762Y-57221853D01*
X69522740Y-57197812D01*
X69530185Y-57172461D01*
X69537025Y-57166533D01*
X69540787Y-57158297D01*
X69563021Y-57144007D01*
X69582989Y-57126706D01*
X69593503Y-57124418D01*
X69599565Y-57120523D01*
X69634500Y-57115500D01*
X69795501Y-57115500D01*
X69862540Y-57135185D01*
G37*
%TD.AperFunction*%
%TA.AperFunction,NonConductor*%
G36*
X93966475Y-64038203D02*
G01*
X94015170Y-64088309D01*
X94029500Y-64146175D01*
X94029500Y-64429794D01*
X94026169Y-64441136D01*
X94027328Y-64452899D01*
X94016506Y-64474043D01*
X94009815Y-64496833D01*
X94000883Y-64504572D01*
X93995497Y-64515097D01*
X93974959Y-64527035D01*
X93957011Y-64542588D01*
X93945311Y-64544270D01*
X93935092Y-64550211D01*
X93911364Y-64549151D01*
X93887853Y-64552532D01*
X93875587Y-64547553D01*
X93865292Y-64547094D01*
X93833874Y-64531015D01*
X93829776Y-64528115D01*
X93829542Y-64527881D01*
X93657566Y-64402934D01*
X93640802Y-64394392D01*
X93633473Y-64389206D01*
X93590119Y-64334413D01*
X93583271Y-64264880D01*
X93615102Y-64202682D01*
X93648804Y-64177500D01*
X93657566Y-64173036D01*
X93774184Y-64088309D01*
X93832615Y-64045857D01*
X93898421Y-64022377D01*
X93966475Y-64038203D01*
G37*
%TD.AperFunction*%
%TA.AperFunction,NonConductor*%
G36*
X64139797Y-60085185D02*
G01*
X64160439Y-60101819D01*
X64681629Y-60623009D01*
X64715114Y-60684332D01*
X64713171Y-60741136D01*
X64713540Y-60741204D01*
X64713083Y-60743703D01*
X64713030Y-60745267D01*
X64712403Y-60747423D01*
X64712401Y-60747436D01*
X64709500Y-60784298D01*
X64709500Y-61215701D01*
X64712401Y-61252567D01*
X64712402Y-61252573D01*
X64758254Y-61410393D01*
X64758255Y-61410396D01*
X64841917Y-61551862D01*
X64841923Y-61551870D01*
X64958129Y-61668076D01*
X64958133Y-61668079D01*
X64958135Y-61668081D01*
X65099602Y-61751744D01*
X65141224Y-61763836D01*
X65257426Y-61797597D01*
X65257429Y-61797597D01*
X65257431Y-61797598D01*
X65294306Y-61800500D01*
X65294314Y-61800500D01*
X66450686Y-61800500D01*
X66450694Y-61800500D01*
X66487569Y-61797598D01*
X66487571Y-61797597D01*
X66487573Y-61797597D01*
X66589806Y-61767895D01*
X66645398Y-61751744D01*
X66770048Y-61678026D01*
X66793580Y-61664110D01*
X66794655Y-61665928D01*
X66849532Y-61644381D01*
X66918050Y-61658059D01*
X66968296Y-61706609D01*
X66984500Y-61767895D01*
X66984500Y-62132104D01*
X66964815Y-62199143D01*
X66912011Y-62244898D01*
X66842853Y-62254842D01*
X66794502Y-62234330D01*
X66793580Y-62235890D01*
X66704171Y-62183014D01*
X66645398Y-62148256D01*
X66645397Y-62148255D01*
X66645396Y-62148255D01*
X66645393Y-62148254D01*
X66487573Y-62102402D01*
X66487567Y-62102401D01*
X66450701Y-62099500D01*
X66450694Y-62099500D01*
X65294306Y-62099500D01*
X65294298Y-62099500D01*
X65257432Y-62102401D01*
X65257426Y-62102402D01*
X65099606Y-62148254D01*
X65099603Y-62148255D01*
X64958137Y-62231917D01*
X64958129Y-62231923D01*
X64841923Y-62348129D01*
X64841917Y-62348137D01*
X64758255Y-62489603D01*
X64758254Y-62489606D01*
X64712402Y-62647426D01*
X64712401Y-62647432D01*
X64709500Y-62684298D01*
X64709500Y-63115701D01*
X64712401Y-63152567D01*
X64712402Y-63152573D01*
X64758254Y-63310393D01*
X64758255Y-63310396D01*
X64758256Y-63310398D01*
X64764107Y-63320292D01*
X64841917Y-63451862D01*
X64841923Y-63451870D01*
X64958129Y-63568076D01*
X64958133Y-63568079D01*
X64958135Y-63568081D01*
X65099602Y-63651744D01*
X65141224Y-63663836D01*
X65257426Y-63697597D01*
X65257429Y-63697597D01*
X65257431Y-63697598D01*
X65294306Y-63700500D01*
X65294314Y-63700500D01*
X66450686Y-63700500D01*
X66450694Y-63700500D01*
X66487569Y-63697598D01*
X66487571Y-63697597D01*
X66487573Y-63697597D01*
X66529191Y-63685505D01*
X66645398Y-63651744D01*
X66786865Y-63568081D01*
X66903081Y-63451865D01*
X66986744Y-63310398D01*
X67032598Y-63152569D01*
X67035500Y-63115694D01*
X67035500Y-62717895D01*
X67055185Y-62650856D01*
X67107989Y-62605101D01*
X67177147Y-62595157D01*
X67225496Y-62615671D01*
X67226420Y-62614110D01*
X67253467Y-62630105D01*
X67374602Y-62701744D01*
X67482596Y-62733119D01*
X67541480Y-62770725D01*
X67570687Y-62834197D01*
X67572000Y-62852195D01*
X67572000Y-65701734D01*
X67572000Y-65853266D01*
X67589743Y-65919485D01*
X67596153Y-65943407D01*
X67594490Y-66013257D01*
X67555327Y-66071119D01*
X67491098Y-66098623D01*
X67476378Y-66099500D01*
X67212499Y-66099500D01*
X67212480Y-66099501D01*
X67109703Y-66110000D01*
X67109700Y-66110001D01*
X66943168Y-66165185D01*
X66943163Y-66165187D01*
X66793842Y-66257289D01*
X66700181Y-66350951D01*
X66638858Y-66384436D01*
X66569166Y-66379452D01*
X66524819Y-66350951D01*
X66431157Y-66257289D01*
X66431156Y-66257288D01*
X66281834Y-66165186D01*
X66115297Y-66110001D01*
X66115295Y-66110000D01*
X66012510Y-66099500D01*
X65387498Y-66099500D01*
X65387480Y-66099501D01*
X65284703Y-66110000D01*
X65284700Y-66110001D01*
X65118168Y-66165185D01*
X65118163Y-66165187D01*
X64968842Y-66257289D01*
X64844789Y-66381342D01*
X64752687Y-66530663D01*
X64752686Y-66530666D01*
X64706463Y-66670156D01*
X64666690Y-66727600D01*
X64602174Y-66754423D01*
X64533398Y-66742108D01*
X64519866Y-66734253D01*
X64353920Y-66623371D01*
X64353907Y-66623364D01*
X64171839Y-66547950D01*
X64171829Y-66547947D01*
X64005308Y-66514823D01*
X63979148Y-66501139D01*
X63951848Y-66489882D01*
X63948533Y-66485125D01*
X63943397Y-66482438D01*
X63928785Y-66456779D01*
X63911908Y-66432553D01*
X63910673Y-66424971D01*
X63908823Y-66421722D01*
X63905586Y-66397830D01*
X63905500Y-66395525D01*
X63905500Y-66304234D01*
X63905169Y-66303000D01*
X63866281Y-66157865D01*
X63847071Y-66124592D01*
X63790515Y-66026635D01*
X63683365Y-65919485D01*
X63526819Y-65762939D01*
X63493334Y-65701616D01*
X63491142Y-65662660D01*
X63495500Y-65620009D01*
X63495499Y-65019992D01*
X63495451Y-65019526D01*
X63484999Y-64917203D01*
X63484998Y-64917200D01*
X63450375Y-64812716D01*
X63429814Y-64750666D01*
X63337712Y-64601344D01*
X63213656Y-64477288D01*
X63210819Y-64475538D01*
X63209283Y-64473830D01*
X63207989Y-64472807D01*
X63208163Y-64472585D01*
X63164096Y-64423594D01*
X63152872Y-64354632D01*
X63180713Y-64290549D01*
X63210817Y-64264462D01*
X63213656Y-64262712D01*
X63337712Y-64138656D01*
X63429814Y-63989334D01*
X63484999Y-63822797D01*
X63495500Y-63720009D01*
X63495499Y-63119992D01*
X63484999Y-63017203D01*
X63429814Y-62850666D01*
X63337712Y-62701344D01*
X63213656Y-62577288D01*
X63087659Y-62499573D01*
X63064336Y-62485187D01*
X63064331Y-62485185D01*
X63062064Y-62484433D01*
X62904448Y-62432205D01*
X62847005Y-62392433D01*
X62820182Y-62327918D01*
X62832497Y-62259142D01*
X62880040Y-62207942D01*
X62943454Y-62190500D01*
X63045686Y-62190500D01*
X63045694Y-62190500D01*
X63082569Y-62187598D01*
X63082571Y-62187597D01*
X63082573Y-62187597D01*
X63157962Y-62165694D01*
X63240398Y-62141744D01*
X63381865Y-62058081D01*
X63498081Y-61941865D01*
X63581744Y-61800398D01*
X63620186Y-61668081D01*
X63627597Y-61642573D01*
X63627598Y-61642567D01*
X63630499Y-61605701D01*
X63630500Y-61605694D01*
X63630500Y-61174306D01*
X63627598Y-61137431D01*
X63623130Y-61122053D01*
X63581745Y-60979606D01*
X63581744Y-60979603D01*
X63581744Y-60979602D01*
X63498081Y-60838135D01*
X63498079Y-60838133D01*
X63498076Y-60838129D01*
X63381870Y-60721923D01*
X63381862Y-60721917D01*
X63240396Y-60638255D01*
X63240393Y-60638254D01*
X63082573Y-60592402D01*
X63082567Y-60592401D01*
X63045701Y-60589500D01*
X63045694Y-60589500D01*
X62109500Y-60589500D01*
X62100814Y-60586949D01*
X62091853Y-60588238D01*
X62067812Y-60577259D01*
X62042461Y-60569815D01*
X62036533Y-60562974D01*
X62028297Y-60559213D01*
X62014007Y-60536978D01*
X61996706Y-60517011D01*
X61994418Y-60506496D01*
X61990523Y-60500435D01*
X61985500Y-60465500D01*
X61985500Y-60414500D01*
X62005185Y-60347461D01*
X62057989Y-60301706D01*
X62109500Y-60290500D01*
X63045686Y-60290500D01*
X63045694Y-60290500D01*
X63082569Y-60287598D01*
X63082571Y-60287597D01*
X63082573Y-60287597D01*
X63124191Y-60275505D01*
X63240398Y-60241744D01*
X63381865Y-60158081D01*
X63438128Y-60101817D01*
X63499449Y-60068334D01*
X63525808Y-60065500D01*
X64072758Y-60065500D01*
X64139797Y-60085185D01*
G37*
%TD.AperFunction*%
%TA.AperFunction,NonConductor*%
G36*
X93966475Y-66578203D02*
G01*
X94015170Y-66628309D01*
X94029500Y-66686175D01*
X94029500Y-66969794D01*
X94026169Y-66981136D01*
X94027328Y-66992899D01*
X94016506Y-67014043D01*
X94009815Y-67036833D01*
X94000883Y-67044572D01*
X93995497Y-67055097D01*
X93974959Y-67067035D01*
X93957011Y-67082588D01*
X93945311Y-67084270D01*
X93935092Y-67090211D01*
X93911364Y-67089151D01*
X93887853Y-67092532D01*
X93875587Y-67087553D01*
X93865292Y-67087094D01*
X93833874Y-67071015D01*
X93829776Y-67068115D01*
X93829542Y-67067881D01*
X93657566Y-66942934D01*
X93640802Y-66934392D01*
X93633473Y-66929206D01*
X93590119Y-66874413D01*
X93583271Y-66804880D01*
X93615102Y-66742682D01*
X93648804Y-66717500D01*
X93657566Y-66713036D01*
X93774184Y-66628309D01*
X93832615Y-66585857D01*
X93898421Y-66562377D01*
X93966475Y-66578203D01*
G37*
%TD.AperFunction*%
%TA.AperFunction,NonConductor*%
G36*
X93966475Y-69118203D02*
G01*
X94015170Y-69168309D01*
X94029500Y-69226175D01*
X94029500Y-69509794D01*
X94026169Y-69521136D01*
X94027328Y-69532899D01*
X94016506Y-69554043D01*
X94009815Y-69576833D01*
X94000883Y-69584572D01*
X93995497Y-69595097D01*
X93974959Y-69607035D01*
X93957011Y-69622588D01*
X93945311Y-69624270D01*
X93935092Y-69630211D01*
X93911364Y-69629151D01*
X93887853Y-69632532D01*
X93875587Y-69627553D01*
X93865292Y-69627094D01*
X93833874Y-69611015D01*
X93829776Y-69608115D01*
X93829542Y-69607881D01*
X93657566Y-69482934D01*
X93640802Y-69474392D01*
X93633473Y-69469206D01*
X93590119Y-69414413D01*
X93583271Y-69344880D01*
X93615102Y-69282682D01*
X93648804Y-69257500D01*
X93657566Y-69253036D01*
X93693122Y-69227203D01*
X93832615Y-69125857D01*
X93898421Y-69102377D01*
X93966475Y-69118203D01*
G37*
%TD.AperFunction*%
%TA.AperFunction,NonConductor*%
G36*
X67914824Y-68512387D02*
G01*
X67946415Y-68535295D01*
X68721615Y-69310495D01*
X68755100Y-69371818D01*
X68750116Y-69441510D01*
X68722138Y-69485331D01*
X68711685Y-69495909D01*
X68701344Y-69502288D01*
X68577288Y-69626344D01*
X68568128Y-69641194D01*
X68558204Y-69651238D01*
X68539492Y-69661600D01*
X68523589Y-69675905D01*
X68509536Y-69678191D01*
X68497082Y-69685089D01*
X68475737Y-69683690D01*
X68454626Y-69687126D01*
X68441568Y-69681452D01*
X68427362Y-69680522D01*
X68410162Y-69667806D01*
X68390544Y-69659282D01*
X68376128Y-69642645D01*
X68371179Y-69638986D01*
X68369790Y-69635330D01*
X68364463Y-69629182D01*
X68362714Y-69626346D01*
X68238657Y-69502289D01*
X68238656Y-69502288D01*
X68123468Y-69431240D01*
X68089336Y-69410187D01*
X68089331Y-69410185D01*
X68087862Y-69409698D01*
X67922797Y-69355001D01*
X67922795Y-69355000D01*
X67820010Y-69344500D01*
X67219998Y-69344500D01*
X67219980Y-69344501D01*
X67117203Y-69355000D01*
X67117200Y-69355001D01*
X66950668Y-69410185D01*
X66950666Y-69410185D01*
X66950666Y-69410186D01*
X66950662Y-69410187D01*
X66950661Y-69410189D01*
X66929310Y-69423358D01*
X66920950Y-69425645D01*
X66914330Y-69431240D01*
X66887761Y-69434725D01*
X66861917Y-69441797D01*
X66853647Y-69439201D01*
X66845054Y-69440329D01*
X66820818Y-69428897D01*
X66795254Y-69420873D01*
X66789700Y-69414218D01*
X66781861Y-69410521D01*
X66767654Y-69387802D01*
X66750485Y-69367230D01*
X66748439Y-69357075D01*
X66744816Y-69351281D01*
X66742925Y-69329696D01*
X66740224Y-69316287D01*
X66740303Y-69309828D01*
X66740500Y-69308842D01*
X66740500Y-69293938D01*
X66740509Y-69293210D01*
X66750565Y-69260461D01*
X66760185Y-69227702D01*
X66760897Y-69226818D01*
X66761020Y-69226418D01*
X66761646Y-69225888D01*
X66776815Y-69207064D01*
X67447061Y-68536817D01*
X67508384Y-68503333D01*
X67534742Y-68500499D01*
X67837502Y-68500499D01*
X67837508Y-68500499D01*
X67846131Y-68499618D01*
X67914824Y-68512387D01*
G37*
%TD.AperFunction*%
%TA.AperFunction,NonConductor*%
G36*
X65140780Y-69450185D02*
G01*
X65186535Y-69502989D01*
X65188299Y-69507040D01*
X65202465Y-69541241D01*
X65209427Y-69558047D01*
X65216896Y-69627516D01*
X65185621Y-69689996D01*
X65125532Y-69725648D01*
X65094866Y-69729500D01*
X64812351Y-69729500D01*
X64810149Y-69728853D01*
X64807926Y-69729421D01*
X64776783Y-69719056D01*
X64745312Y-69709815D01*
X64743810Y-69708081D01*
X64741632Y-69707357D01*
X64721034Y-69681796D01*
X64699557Y-69657011D01*
X64698781Y-69654182D01*
X64697790Y-69652953D01*
X64689062Y-69618756D01*
X64686320Y-69593253D01*
X64686320Y-69566747D01*
X64689062Y-69541239D01*
X64715802Y-69476691D01*
X64773195Y-69436844D01*
X64812351Y-69430500D01*
X65073741Y-69430500D01*
X65140780Y-69450185D01*
G37*
%TD.AperFunction*%
%TA.AperFunction,NonConductor*%
G36*
X70831474Y-65798170D02*
G01*
X70880169Y-65848276D01*
X70894500Y-65906143D01*
X70894500Y-68679126D01*
X70874815Y-68746165D01*
X70835598Y-68784664D01*
X70831344Y-68787287D01*
X70707289Y-68911342D01*
X70615187Y-69060663D01*
X70615185Y-69060668D01*
X70587349Y-69144670D01*
X70560001Y-69227203D01*
X70560001Y-69227204D01*
X70560000Y-69227204D01*
X70549500Y-69329983D01*
X70549500Y-69654063D01*
X70529815Y-69721102D01*
X70477011Y-69766857D01*
X70407853Y-69776801D01*
X70344297Y-69747776D01*
X70319961Y-69719160D01*
X70312681Y-69707357D01*
X70262712Y-69626344D01*
X70138656Y-69502288D01*
X70138652Y-69502285D01*
X70054403Y-69450319D01*
X70007678Y-69398371D01*
X69995500Y-69344781D01*
X69995500Y-69119236D01*
X69995500Y-69119234D01*
X69956281Y-68972865D01*
X69880515Y-68841635D01*
X69773365Y-68734485D01*
X68855886Y-67817006D01*
X68822401Y-67755683D01*
X68827385Y-67685991D01*
X68869257Y-67630058D01*
X68934721Y-67605641D01*
X68970312Y-67609632D01*
X68970528Y-67608549D01*
X69131153Y-67640499D01*
X69131156Y-67640500D01*
X69131158Y-67640500D01*
X69288844Y-67640500D01*
X69288845Y-67640499D01*
X69443497Y-67609737D01*
X69589179Y-67549394D01*
X69720289Y-67461789D01*
X69831789Y-67350289D01*
X69919394Y-67219179D01*
X69919803Y-67218193D01*
X69947220Y-67152000D01*
X69979737Y-67073497D01*
X70010500Y-66918842D01*
X70010500Y-66761158D01*
X70010500Y-66761155D01*
X70010499Y-66761153D01*
X69989741Y-66656797D01*
X69979737Y-66606503D01*
X69961460Y-66562377D01*
X69919397Y-66460827D01*
X69919390Y-66460814D01*
X69831789Y-66329711D01*
X69827924Y-66325001D01*
X69829680Y-66323559D01*
X69801057Y-66271140D01*
X69806041Y-66201448D01*
X69847913Y-66145515D01*
X69902823Y-66122309D01*
X70122326Y-66087543D01*
X70347563Y-66014360D01*
X70558578Y-65906842D01*
X70697618Y-65805823D01*
X70763420Y-65782345D01*
X70831474Y-65798170D01*
G37*
%TD.AperFunction*%
%TA.AperFunction,NonConductor*%
G36*
X93966475Y-71658203D02*
G01*
X94015170Y-71708309D01*
X94029500Y-71766175D01*
X94029500Y-72049794D01*
X94026169Y-72061136D01*
X94027328Y-72072899D01*
X94016506Y-72094043D01*
X94009815Y-72116833D01*
X94000883Y-72124572D01*
X93995497Y-72135097D01*
X93974959Y-72147035D01*
X93957011Y-72162588D01*
X93945311Y-72164270D01*
X93935092Y-72170211D01*
X93911364Y-72169151D01*
X93887853Y-72172532D01*
X93875587Y-72167553D01*
X93865292Y-72167094D01*
X93833874Y-72151015D01*
X93829776Y-72148115D01*
X93829542Y-72147881D01*
X93657566Y-72022934D01*
X93640802Y-72014392D01*
X93633473Y-72009206D01*
X93590119Y-71954413D01*
X93583271Y-71884880D01*
X93615102Y-71822682D01*
X93648804Y-71797500D01*
X93657566Y-71793036D01*
X93774184Y-71708309D01*
X93832615Y-71665857D01*
X93898421Y-71642377D01*
X93966475Y-71658203D01*
G37*
%TD.AperFunction*%
%TA.AperFunction,NonConductor*%
G36*
X93966475Y-74198203D02*
G01*
X94015170Y-74248309D01*
X94029500Y-74306175D01*
X94029500Y-74589794D01*
X94009815Y-74656833D01*
X93957011Y-74702588D01*
X93887853Y-74712532D01*
X93832615Y-74690113D01*
X93733274Y-74617939D01*
X93657566Y-74562934D01*
X93648804Y-74558470D01*
X93598009Y-74510497D01*
X93581213Y-74442677D01*
X93603749Y-74376541D01*
X93648804Y-74337500D01*
X93657566Y-74333036D01*
X93774184Y-74248309D01*
X93832615Y-74205857D01*
X93898421Y-74182377D01*
X93966475Y-74198203D01*
G37*
%TD.AperFunction*%
%TA.AperFunction,NonConductor*%
G36*
X65007539Y-73950185D02*
G01*
X65053294Y-74002989D01*
X65064500Y-74054500D01*
X65064500Y-74695903D01*
X65058261Y-74717148D01*
X65056682Y-74739237D01*
X65048609Y-74750020D01*
X65044815Y-74762942D01*
X65028081Y-74777441D01*
X65014810Y-74795170D01*
X65002189Y-74799877D01*
X64992011Y-74808697D01*
X64970093Y-74811848D01*
X64949346Y-74819587D01*
X64936185Y-74816724D01*
X64922853Y-74818641D01*
X64902709Y-74809441D01*
X64881073Y-74804735D01*
X64863347Y-74791466D01*
X64859297Y-74789616D01*
X64852819Y-74783584D01*
X64723383Y-74654148D01*
X64689898Y-74592825D01*
X64687775Y-74553213D01*
X64690500Y-74527873D01*
X64690499Y-74132128D01*
X64690498Y-74132111D01*
X64686320Y-74093253D01*
X64686320Y-74066747D01*
X64689062Y-74041239D01*
X64715802Y-73976691D01*
X64773195Y-73936844D01*
X64812351Y-73930500D01*
X64940500Y-73930500D01*
X65007539Y-73950185D01*
G37*
%TD.AperFunction*%
%TA.AperFunction,NonConductor*%
G36*
X66420703Y-74425029D02*
G01*
X66427181Y-74431061D01*
X66971439Y-74975319D01*
X66982051Y-74994755D01*
X66996552Y-75011489D01*
X66998468Y-75024820D01*
X67004924Y-75036642D01*
X67003344Y-75058728D01*
X67006496Y-75080647D01*
X67000900Y-75092898D01*
X66999940Y-75106334D01*
X66986669Y-75124060D01*
X66977471Y-75144203D01*
X66966139Y-75151485D01*
X66958068Y-75162267D01*
X66937322Y-75170004D01*
X66918693Y-75181977D01*
X66896774Y-75185128D01*
X66892604Y-75186684D01*
X66883758Y-75187000D01*
X66872242Y-75187000D01*
X66805203Y-75167315D01*
X66784561Y-75150681D01*
X66251819Y-74617939D01*
X66218334Y-74556616D01*
X66215500Y-74530258D01*
X66215500Y-74518742D01*
X66235185Y-74451703D01*
X66287989Y-74405948D01*
X66357147Y-74396004D01*
X66420703Y-74425029D01*
G37*
%TD.AperFunction*%
%TA.AperFunction,NonConductor*%
G36*
X65835703Y-76687953D02*
G01*
X65872206Y-76742662D01*
X65885185Y-76781831D01*
X65885187Y-76781836D01*
X65899002Y-76804234D01*
X65974810Y-76927139D01*
X65977289Y-76931157D01*
X66070951Y-77024819D01*
X66075289Y-77032764D01*
X66082537Y-77038190D01*
X66091771Y-77062949D01*
X66104436Y-77086142D01*
X66103790Y-77095171D01*
X66106954Y-77103654D01*
X66101337Y-77129474D01*
X66099452Y-77155834D01*
X66093633Y-77164887D01*
X66092102Y-77171927D01*
X66070951Y-77200181D01*
X66012687Y-77258445D01*
X65951364Y-77291930D01*
X65881672Y-77286946D01*
X65837325Y-77258445D01*
X65666819Y-77087939D01*
X65633334Y-77026616D01*
X65630500Y-77000258D01*
X65630500Y-76781666D01*
X65650185Y-76714627D01*
X65702989Y-76668872D01*
X65772147Y-76658928D01*
X65835703Y-76687953D01*
G37*
%TD.AperFunction*%
%TA.AperFunction,NonConductor*%
G36*
X68362073Y-76606684D02*
G01*
X68413273Y-76654226D01*
X68424421Y-76678636D01*
X68475186Y-76831834D01*
X68560124Y-76969542D01*
X68567289Y-76981157D01*
X68660951Y-77074819D01*
X68694436Y-77136142D01*
X68689452Y-77205834D01*
X68660951Y-77250181D01*
X68567289Y-77343842D01*
X68507611Y-77440597D01*
X68500023Y-77447421D01*
X68495785Y-77456703D01*
X68474485Y-77470391D01*
X68455663Y-77487321D01*
X68444027Y-77489965D01*
X68437007Y-77494477D01*
X68402072Y-77499500D01*
X68258768Y-77499500D01*
X68191729Y-77479815D01*
X68153229Y-77440597D01*
X68062712Y-77293844D01*
X67969049Y-77200181D01*
X67935564Y-77138858D01*
X67940548Y-77069166D01*
X67969049Y-77024819D01*
X68012712Y-76981156D01*
X68062712Y-76931156D01*
X68154814Y-76781834D01*
X68189010Y-76678635D01*
X68228781Y-76621193D01*
X68293297Y-76594369D01*
X68362073Y-76606684D01*
G37*
%TD.AperFunction*%
%TA.AperFunction,NonConductor*%
G36*
X93972539Y-52990185D02*
G01*
X94018294Y-53042989D01*
X94029500Y-53094500D01*
X94029500Y-61889794D01*
X94009815Y-61956833D01*
X93957011Y-62002588D01*
X93887853Y-62012532D01*
X93832615Y-61990113D01*
X93657565Y-61862933D01*
X93468164Y-61766429D01*
X93468163Y-61766428D01*
X93468162Y-61766428D01*
X93265993Y-61700739D01*
X93265991Y-61700738D01*
X93265990Y-61700738D01*
X93104707Y-61675193D01*
X93056037Y-61667485D01*
X92843463Y-61667485D01*
X92794792Y-61675193D01*
X92633510Y-61700738D01*
X92633507Y-61700739D01*
X92476531Y-61751744D01*
X92431335Y-61766429D01*
X92241929Y-61862936D01*
X92069963Y-61987875D01*
X91919640Y-62138198D01*
X91794701Y-62310164D01*
X91698194Y-62499570D01*
X91632503Y-62701745D01*
X91603769Y-62883166D01*
X91599250Y-62911698D01*
X91599250Y-63124272D01*
X91609284Y-63187629D01*
X91632334Y-63333158D01*
X91632504Y-63334228D01*
X91692669Y-63519397D01*
X91698194Y-63536399D01*
X91794701Y-63725805D01*
X91919640Y-63897771D01*
X92069963Y-64048094D01*
X92241932Y-64173035D01*
X92250696Y-64177501D01*
X92301492Y-64225476D01*
X92318286Y-64293297D01*
X92295748Y-64359432D01*
X92250696Y-64398469D01*
X92241932Y-64402934D01*
X92069963Y-64527875D01*
X91919640Y-64678198D01*
X91794701Y-64850164D01*
X91698194Y-65039570D01*
X91632503Y-65241745D01*
X91599250Y-65451698D01*
X91599250Y-65664272D01*
X91606717Y-65711414D01*
X91629183Y-65853265D01*
X91632504Y-65874228D01*
X91695399Y-66067799D01*
X91698194Y-66076399D01*
X91794701Y-66265805D01*
X91919640Y-66437771D01*
X92069963Y-66588094D01*
X92241932Y-66713035D01*
X92250696Y-66717501D01*
X92301492Y-66765476D01*
X92318286Y-66833297D01*
X92295748Y-66899432D01*
X92250696Y-66938469D01*
X92241932Y-66942934D01*
X92069963Y-67067875D01*
X91919640Y-67218198D01*
X91794701Y-67390164D01*
X91698194Y-67579570D01*
X91632503Y-67781745D01*
X91599250Y-67991698D01*
X91599250Y-68204271D01*
X91629717Y-68396635D01*
X91632504Y-68414228D01*
X91695921Y-68609406D01*
X91698194Y-68616399D01*
X91794701Y-68805805D01*
X91919640Y-68977771D01*
X92069963Y-69128094D01*
X92241932Y-69253035D01*
X92250696Y-69257501D01*
X92301492Y-69305476D01*
X92318286Y-69373297D01*
X92295748Y-69439432D01*
X92250696Y-69478469D01*
X92241932Y-69482934D01*
X92069963Y-69607875D01*
X91919640Y-69758198D01*
X91794701Y-69930164D01*
X91698194Y-70119570D01*
X91632503Y-70321745D01*
X91599250Y-70531698D01*
X91599250Y-70744271D01*
X91632503Y-70954224D01*
X91698194Y-71156399D01*
X91794701Y-71345805D01*
X91919640Y-71517771D01*
X92069963Y-71668094D01*
X92241932Y-71793035D01*
X92250696Y-71797501D01*
X92301492Y-71845476D01*
X92318286Y-71913297D01*
X92295748Y-71979432D01*
X92250696Y-72018469D01*
X92241932Y-72022934D01*
X92069963Y-72147875D01*
X91919640Y-72298198D01*
X91794701Y-72470164D01*
X91698194Y-72659570D01*
X91632503Y-72861745D01*
X91599250Y-73071698D01*
X91599250Y-73284271D01*
X91632503Y-73494224D01*
X91698194Y-73696399D01*
X91794701Y-73885805D01*
X91919640Y-74057771D01*
X92069963Y-74208094D01*
X92241932Y-74333035D01*
X92250696Y-74337501D01*
X92301492Y-74385476D01*
X92318286Y-74453297D01*
X92295748Y-74519432D01*
X92250696Y-74558469D01*
X92241932Y-74562934D01*
X92069963Y-74687875D01*
X91919640Y-74838198D01*
X91794701Y-75010164D01*
X91698194Y-75199570D01*
X91632503Y-75401745D01*
X91599250Y-75611698D01*
X91599250Y-75824271D01*
X91632503Y-76034224D01*
X91698194Y-76236399D01*
X91794701Y-76425805D01*
X91919640Y-76597771D01*
X92033180Y-76711311D01*
X92066665Y-76772634D01*
X92061681Y-76842326D01*
X92019809Y-76898259D01*
X91988833Y-76915174D01*
X91857419Y-76964188D01*
X91857414Y-76964191D01*
X91742205Y-77050437D01*
X91742202Y-77050440D01*
X91655956Y-77165649D01*
X91655952Y-77165656D01*
X91605658Y-77300502D01*
X91599251Y-77360101D01*
X91599250Y-77360120D01*
X91599250Y-79155855D01*
X91599251Y-79155861D01*
X91605658Y-79215468D01*
X91655952Y-79350313D01*
X91655956Y-79350320D01*
X91742202Y-79465529D01*
X91742205Y-79465532D01*
X91857414Y-79551778D01*
X91857421Y-79551782D01*
X91992267Y-79602076D01*
X91992266Y-79602076D01*
X91999194Y-79602820D01*
X92051877Y-79608485D01*
X93847622Y-79608484D01*
X93892246Y-79603687D01*
X93961006Y-79616094D01*
X94012143Y-79663705D01*
X94029500Y-79726977D01*
X94029500Y-82065500D01*
X94009815Y-82132539D01*
X93957011Y-82178294D01*
X93905500Y-82189500D01*
X56694500Y-82189500D01*
X56627461Y-82169815D01*
X56581706Y-82117011D01*
X56570500Y-82065500D01*
X56570500Y-79791586D01*
X58065408Y-79791586D01*
X58065408Y-79844268D01*
X58065408Y-80028414D01*
X58077177Y-80102716D01*
X58102457Y-80262327D01*
X58175638Y-80487560D01*
X58175639Y-80487563D01*
X58283158Y-80698578D01*
X58422362Y-80890176D01*
X58589824Y-81057638D01*
X58781422Y-81196842D01*
X58884918Y-81249576D01*
X58992436Y-81304360D01*
X58992439Y-81304361D01*
X59105055Y-81340951D01*
X59217674Y-81377543D01*
X59451586Y-81414592D01*
X59451587Y-81414592D01*
X59688413Y-81414592D01*
X59688414Y-81414592D01*
X59922326Y-81377543D01*
X60147563Y-81304360D01*
X60358578Y-81196842D01*
X60550176Y-81057638D01*
X60717638Y-80890176D01*
X60856842Y-80698578D01*
X60964360Y-80487563D01*
X61037543Y-80262326D01*
X61074592Y-80028414D01*
X61074592Y-79791586D01*
X61037543Y-79557674D01*
X61022569Y-79511587D01*
X72235408Y-79511587D01*
X72235408Y-79748412D01*
X72272457Y-79982327D01*
X72345638Y-80207560D01*
X72345639Y-80207563D01*
X72431085Y-80375258D01*
X72453158Y-80418578D01*
X72592362Y-80610176D01*
X72759824Y-80777638D01*
X72951422Y-80916842D01*
X73054918Y-80969576D01*
X73162436Y-81024360D01*
X73162439Y-81024361D01*
X73264848Y-81057635D01*
X73387674Y-81097543D01*
X73621586Y-81134592D01*
X73621587Y-81134592D01*
X73858413Y-81134592D01*
X73858414Y-81134592D01*
X74092326Y-81097543D01*
X74317563Y-81024360D01*
X74528578Y-80916842D01*
X74720176Y-80777638D01*
X74887638Y-80610176D01*
X75026842Y-80418578D01*
X75134360Y-80207563D01*
X75207543Y-79982326D01*
X75244592Y-79748414D01*
X75244592Y-79511586D01*
X75207543Y-79277674D01*
X75145915Y-79087999D01*
X75134361Y-79052439D01*
X75134360Y-79052436D01*
X75071884Y-78929821D01*
X75026842Y-78841422D01*
X74887638Y-78649824D01*
X74720176Y-78482362D01*
X74528578Y-78343158D01*
X74477003Y-78316879D01*
X74317563Y-78235639D01*
X74317560Y-78235638D01*
X74092327Y-78162457D01*
X73975370Y-78143932D01*
X73858414Y-78125408D01*
X73621586Y-78125408D01*
X73543615Y-78137757D01*
X73387672Y-78162457D01*
X73162439Y-78235638D01*
X73162436Y-78235639D01*
X72951421Y-78343158D01*
X72759821Y-78482364D01*
X72592364Y-78649821D01*
X72453158Y-78841421D01*
X72345639Y-79052436D01*
X72345638Y-79052439D01*
X72272457Y-79277672D01*
X72235408Y-79511587D01*
X61022569Y-79511587D01*
X61000850Y-79444742D01*
X60964361Y-79332439D01*
X60964360Y-79332436D01*
X60904761Y-79215468D01*
X60856842Y-79121422D01*
X60717638Y-78929824D01*
X60550176Y-78762362D01*
X60358578Y-78623158D01*
X60352743Y-78620185D01*
X60147563Y-78515639D01*
X60147560Y-78515638D01*
X59922327Y-78442457D01*
X59805370Y-78423932D01*
X59688414Y-78405408D01*
X59451586Y-78405408D01*
X59373615Y-78417757D01*
X59217672Y-78442457D01*
X58992439Y-78515638D01*
X58992436Y-78515639D01*
X58781421Y-78623158D01*
X58589821Y-78762364D01*
X58422364Y-78929821D01*
X58283158Y-79121421D01*
X58175639Y-79332436D01*
X58175638Y-79332439D01*
X58102457Y-79557672D01*
X58099676Y-79575231D01*
X58065408Y-79791586D01*
X56570500Y-79791586D01*
X56570500Y-77170191D01*
X56590185Y-77103152D01*
X56642989Y-77057397D01*
X56712147Y-77047453D01*
X56741948Y-77055628D01*
X56878165Y-77112051D01*
X56878169Y-77112051D01*
X56878170Y-77112052D01*
X57071456Y-77150500D01*
X57071459Y-77150500D01*
X58868543Y-77150500D01*
X58998582Y-77124632D01*
X59061835Y-77112051D01*
X59202655Y-77053721D01*
X59243907Y-77036635D01*
X59243907Y-77036634D01*
X59243914Y-77036632D01*
X59407782Y-76927139D01*
X59547139Y-76787782D01*
X59656632Y-76623914D01*
X59732051Y-76441835D01*
X59770500Y-76248541D01*
X59770500Y-76051459D01*
X59770500Y-76051456D01*
X59732052Y-75858170D01*
X59732051Y-75858169D01*
X59732051Y-75858165D01*
X59718012Y-75824271D01*
X59656635Y-75676092D01*
X59656628Y-75676079D01*
X59547139Y-75512218D01*
X59547136Y-75512214D01*
X59407785Y-75372863D01*
X59407781Y-75372860D01*
X59243920Y-75263371D01*
X59243907Y-75263364D01*
X59061839Y-75187950D01*
X59061829Y-75187947D01*
X58868543Y-75149500D01*
X58868541Y-75149500D01*
X57071459Y-75149500D01*
X57071457Y-75149500D01*
X56878170Y-75187947D01*
X56878160Y-75187950D01*
X56741952Y-75244369D01*
X56672483Y-75251838D01*
X56610004Y-75220562D01*
X56574352Y-75160473D01*
X56570500Y-75129808D01*
X56570500Y-68530191D01*
X56590185Y-68463152D01*
X56642989Y-68417397D01*
X56712147Y-68407453D01*
X56741948Y-68415628D01*
X56878165Y-68472051D01*
X56878169Y-68472051D01*
X56878170Y-68472052D01*
X57071456Y-68510500D01*
X57071459Y-68510500D01*
X58868543Y-68510500D01*
X58998582Y-68484632D01*
X59061835Y-68472051D01*
X59243914Y-68396632D01*
X59407782Y-68287139D01*
X59547139Y-68147782D01*
X59656632Y-67983914D01*
X59732051Y-67801835D01*
X59748526Y-67719010D01*
X59770500Y-67608543D01*
X59770500Y-67411456D01*
X59732052Y-67218170D01*
X59732051Y-67218169D01*
X59732051Y-67218165D01*
X59704645Y-67152000D01*
X59656635Y-67036092D01*
X59656628Y-67036079D01*
X59547139Y-66872218D01*
X59547136Y-66872214D01*
X59507081Y-66832159D01*
X59473596Y-66770836D01*
X59478580Y-66701144D01*
X59507079Y-66656799D01*
X59824561Y-66339318D01*
X59885884Y-66305833D01*
X59912242Y-66302999D01*
X60560002Y-66302999D01*
X60560008Y-66302999D01*
X60662797Y-66292499D01*
X60829334Y-66237314D01*
X60978656Y-66145212D01*
X61056069Y-66067799D01*
X61117392Y-66034314D01*
X61187084Y-66039298D01*
X61231431Y-66067799D01*
X61326344Y-66162712D01*
X61475666Y-66254814D01*
X61642203Y-66309999D01*
X61744991Y-66320500D01*
X62405257Y-66320499D01*
X62434703Y-66329145D01*
X62464684Y-66335667D01*
X62469697Y-66339419D01*
X62472296Y-66340183D01*
X62492938Y-66356818D01*
X62495465Y-66359345D01*
X62528950Y-66420668D01*
X62523966Y-66490360D01*
X62482094Y-66546293D01*
X62455237Y-66561587D01*
X62306089Y-66623366D01*
X62306079Y-66623371D01*
X62142218Y-66732860D01*
X62142214Y-66732863D01*
X62002863Y-66872214D01*
X62002860Y-66872218D01*
X61893371Y-67036079D01*
X61893364Y-67036092D01*
X61817950Y-67218160D01*
X61817947Y-67218170D01*
X61779500Y-67411456D01*
X61779500Y-67608545D01*
X61803850Y-67730961D01*
X61797623Y-67800553D01*
X61756546Y-67854417D01*
X61732459Y-67872449D01*
X61732451Y-67872457D01*
X61646206Y-67987664D01*
X61646202Y-67987671D01*
X61595908Y-68122517D01*
X61589501Y-68182116D01*
X61589500Y-68182135D01*
X61589500Y-69277869D01*
X61589501Y-69277878D01*
X61593679Y-69316745D01*
X61593679Y-69343250D01*
X61589500Y-69382122D01*
X61589500Y-69777869D01*
X61589501Y-69777878D01*
X61593679Y-69816745D01*
X61593679Y-69843250D01*
X61589500Y-69882122D01*
X61589500Y-70277869D01*
X61589501Y-70277878D01*
X61593679Y-70316745D01*
X61593679Y-70343250D01*
X61589500Y-70382122D01*
X61589500Y-70777869D01*
X61589501Y-70777878D01*
X61593679Y-70816745D01*
X61593679Y-70843250D01*
X61589500Y-70882122D01*
X61589500Y-71277869D01*
X61589501Y-71277878D01*
X61593679Y-71316745D01*
X61593679Y-71343250D01*
X61589500Y-71382122D01*
X61589500Y-71777869D01*
X61589501Y-71777878D01*
X61593679Y-71816745D01*
X61594360Y-71832688D01*
X61594244Y-71837990D01*
X61589500Y-71882127D01*
X61589500Y-72056611D01*
X61589471Y-72057948D01*
X61579289Y-72090029D01*
X61569815Y-72122296D01*
X61568552Y-72123863D01*
X61568336Y-72124544D01*
X61567333Y-72125375D01*
X61553181Y-72142938D01*
X60916635Y-72779485D01*
X60809487Y-72886632D01*
X60809485Y-72886635D01*
X60733719Y-73017863D01*
X60706042Y-73121157D01*
X60694500Y-73164234D01*
X60694500Y-76804234D01*
X60694500Y-76955766D01*
X60708075Y-77006428D01*
X60733719Y-77102136D01*
X60749503Y-77129474D01*
X60809485Y-77233365D01*
X60809487Y-77233367D01*
X61380681Y-77804561D01*
X61414166Y-77865884D01*
X61417000Y-77892242D01*
X61417000Y-78540001D01*
X61417001Y-78540019D01*
X61427500Y-78642796D01*
X61427501Y-78642799D01*
X61471772Y-78776397D01*
X61482686Y-78809334D01*
X61574788Y-78958656D01*
X61698844Y-79082712D01*
X61848166Y-79174814D01*
X62014703Y-79229999D01*
X62117491Y-79240500D01*
X62742508Y-79240499D01*
X62742516Y-79240498D01*
X62742519Y-79240498D01*
X62798802Y-79234748D01*
X62845297Y-79229999D01*
X63011834Y-79174814D01*
X63161156Y-79082712D01*
X63254819Y-78989049D01*
X63316142Y-78955564D01*
X63385834Y-78960548D01*
X63430181Y-78989049D01*
X63523844Y-79082712D01*
X63673166Y-79174814D01*
X63839703Y-79229999D01*
X63942491Y-79240500D01*
X64567508Y-79240499D01*
X64567516Y-79240498D01*
X64567519Y-79240498D01*
X64623802Y-79234748D01*
X64670297Y-79229999D01*
X64836834Y-79174814D01*
X64986156Y-79082712D01*
X65110212Y-78958656D01*
X65202314Y-78809334D01*
X65257499Y-78642797D01*
X65263181Y-78587172D01*
X65289576Y-78522482D01*
X65346757Y-78482330D01*
X65416568Y-78479466D01*
X65448540Y-78492388D01*
X65523237Y-78535515D01*
X65567865Y-78561281D01*
X65714233Y-78600500D01*
X65714234Y-78600500D01*
X65812072Y-78600500D01*
X65879111Y-78620185D01*
X65917609Y-78659401D01*
X65977288Y-78756156D01*
X66101344Y-78880212D01*
X66250666Y-78972314D01*
X66417203Y-79027499D01*
X66519991Y-79038000D01*
X67520008Y-79037999D01*
X67520016Y-79037998D01*
X67520019Y-79037998D01*
X67576302Y-79032248D01*
X67622797Y-79027499D01*
X67789334Y-78972314D01*
X67938656Y-78880212D01*
X68062712Y-78756156D01*
X68091549Y-78709402D01*
X68099136Y-78702578D01*
X68103375Y-78693297D01*
X68124674Y-78679608D01*
X68143497Y-78662679D01*
X68155132Y-78660034D01*
X68162153Y-78655523D01*
X68197088Y-78650500D01*
X68402072Y-78650500D01*
X68469111Y-78670185D01*
X68507609Y-78709401D01*
X68567288Y-78806156D01*
X68691344Y-78930212D01*
X68840666Y-79022314D01*
X69007203Y-79077499D01*
X69109991Y-79088000D01*
X70110008Y-79087999D01*
X70110016Y-79087998D01*
X70110019Y-79087998D01*
X70166302Y-79082248D01*
X70212797Y-79077499D01*
X70379334Y-79022314D01*
X70528656Y-78930212D01*
X70652712Y-78806156D01*
X70744814Y-78656834D01*
X70799999Y-78490297D01*
X70810500Y-78387509D01*
X70810499Y-77762492D01*
X70808157Y-77739570D01*
X70799999Y-77659703D01*
X70799998Y-77659700D01*
X70763701Y-77550164D01*
X70744814Y-77493166D01*
X70652712Y-77343844D01*
X70559049Y-77250181D01*
X70525564Y-77188858D01*
X70530548Y-77119166D01*
X70559049Y-77074819D01*
X70601104Y-77032764D01*
X70652712Y-76981156D01*
X70744814Y-76831834D01*
X70799999Y-76665297D01*
X70810500Y-76562509D01*
X70810499Y-75937492D01*
X70799999Y-75834703D01*
X70744814Y-75668166D01*
X70652712Y-75518844D01*
X70528656Y-75394788D01*
X70379334Y-75302686D01*
X70212797Y-75247501D01*
X70212795Y-75247500D01*
X70110010Y-75237000D01*
X69109998Y-75237000D01*
X69109980Y-75237001D01*
X69007203Y-75247500D01*
X69007195Y-75247502D01*
X68977783Y-75257248D01*
X68907955Y-75259648D01*
X68851102Y-75227222D01*
X67846060Y-74222180D01*
X67812575Y-74160857D01*
X67817559Y-74091165D01*
X67859431Y-74035232D01*
X67924895Y-74010815D01*
X67933741Y-74010499D01*
X68353239Y-74010499D01*
X68420278Y-74030184D01*
X68427543Y-74035227D01*
X68535165Y-74115793D01*
X68535169Y-74115796D01*
X68535171Y-74115797D01*
X68578912Y-74132111D01*
X68670017Y-74166091D01*
X68729627Y-74172500D01*
X69330372Y-74172499D01*
X69389983Y-74166091D01*
X69524831Y-74115796D01*
X69640046Y-74029546D01*
X69726296Y-73914331D01*
X69726298Y-73914326D01*
X69738777Y-73880869D01*
X69780647Y-73824935D01*
X69846112Y-73800517D01*
X69914385Y-73815368D01*
X69942640Y-73836520D01*
X70253181Y-74147061D01*
X70286666Y-74208384D01*
X70289500Y-74234742D01*
X70289500Y-74527500D01*
X70289501Y-74527519D01*
X70300000Y-74630296D01*
X70300001Y-74630299D01*
X70355185Y-74796831D01*
X70355187Y-74796836D01*
X70369220Y-74819587D01*
X70447288Y-74946156D01*
X70571344Y-75070212D01*
X70720666Y-75162314D01*
X70887203Y-75217499D01*
X70989991Y-75228000D01*
X71990008Y-75227999D01*
X71990016Y-75227998D01*
X71990019Y-75227998D01*
X72062812Y-75220562D01*
X72092797Y-75217499D01*
X72259334Y-75162314D01*
X72408656Y-75070212D01*
X72532712Y-74946156D01*
X72624814Y-74796834D01*
X72679999Y-74630297D01*
X72690500Y-74527509D01*
X72690499Y-73902492D01*
X72688794Y-73885805D01*
X72679999Y-73799703D01*
X72679998Y-73799700D01*
X72645767Y-73696399D01*
X72624814Y-73633166D01*
X72532712Y-73483844D01*
X72439049Y-73390181D01*
X72405564Y-73328858D01*
X72410548Y-73259166D01*
X72439049Y-73214819D01*
X72532712Y-73121156D01*
X72624814Y-72971834D01*
X72679999Y-72805297D01*
X72690500Y-72702509D01*
X72690499Y-72077492D01*
X72679999Y-71974703D01*
X72624814Y-71808166D01*
X72532712Y-71658844D01*
X72408656Y-71534788D01*
X72408655Y-71534787D01*
X72372315Y-71512373D01*
X72325590Y-71460426D01*
X72314367Y-71391463D01*
X72342210Y-71327381D01*
X72372315Y-71301295D01*
X72418656Y-71272712D01*
X72542712Y-71148656D01*
X72634814Y-70999334D01*
X72689999Y-70832797D01*
X72700500Y-70730009D01*
X72700499Y-69329992D01*
X72700498Y-69329983D01*
X73499500Y-69329983D01*
X73499500Y-70730001D01*
X73499501Y-70730018D01*
X73510000Y-70832796D01*
X73510001Y-70832799D01*
X73526347Y-70882127D01*
X73565186Y-70999334D01*
X73657288Y-71148656D01*
X73781344Y-71272712D01*
X73930666Y-71364814D01*
X74097203Y-71419999D01*
X74199991Y-71430500D01*
X74950008Y-71430499D01*
X74950016Y-71430498D01*
X74950019Y-71430498D01*
X75006302Y-71424748D01*
X75052797Y-71419999D01*
X75219334Y-71364814D01*
X75368656Y-71272712D01*
X75492712Y-71148656D01*
X75584814Y-70999334D01*
X75639999Y-70832797D01*
X75650500Y-70730009D01*
X75650499Y-69329992D01*
X75641651Y-69243380D01*
X75639999Y-69227203D01*
X75639998Y-69227200D01*
X75607157Y-69128094D01*
X75584814Y-69060666D01*
X75492712Y-68911344D01*
X75368656Y-68787288D01*
X75219334Y-68695186D01*
X75052797Y-68640001D01*
X75052795Y-68640000D01*
X74950010Y-68629500D01*
X74199998Y-68629500D01*
X74199980Y-68629501D01*
X74097203Y-68640000D01*
X74097200Y-68640001D01*
X73930668Y-68695185D01*
X73930663Y-68695187D01*
X73781342Y-68787289D01*
X73657289Y-68911342D01*
X73565187Y-69060663D01*
X73565185Y-69060668D01*
X73537349Y-69144670D01*
X73510001Y-69227203D01*
X73510001Y-69227204D01*
X73510000Y-69227204D01*
X73499500Y-69329983D01*
X72700498Y-69329983D01*
X72698507Y-69310495D01*
X72689999Y-69227203D01*
X72689998Y-69227200D01*
X72657157Y-69128094D01*
X72634814Y-69060666D01*
X72542712Y-68911344D01*
X72418656Y-68787288D01*
X72269334Y-68695186D01*
X72168854Y-68661890D01*
X72130495Y-68649179D01*
X72073051Y-68609406D01*
X72046228Y-68544890D01*
X72045500Y-68531473D01*
X72045500Y-59168236D01*
X72065185Y-59101197D01*
X72117989Y-59055442D01*
X72135375Y-59049025D01*
X72293049Y-59003909D01*
X72473407Y-58909698D01*
X72631109Y-58781109D01*
X72759698Y-58623407D01*
X72853909Y-58443049D01*
X72893632Y-58304222D01*
X72930997Y-58245188D01*
X72994350Y-58215724D01*
X73063576Y-58225189D01*
X73116695Y-58270577D01*
X73132061Y-58304223D01*
X73134587Y-58313049D01*
X73183403Y-58483657D01*
X73186091Y-58493049D01*
X73280302Y-58673407D01*
X73301834Y-58699814D01*
X73408890Y-58831109D01*
X73470985Y-58881740D01*
X73566593Y-58959698D01*
X73746951Y-59053909D01*
X73746953Y-59053909D01*
X73746954Y-59053910D01*
X73767836Y-59059885D01*
X73942582Y-59109886D01*
X73942590Y-59109886D01*
X73943150Y-59109991D01*
X73943408Y-59110121D01*
X73948249Y-59111507D01*
X73947981Y-59112441D01*
X74005466Y-59141590D01*
X74040806Y-59201864D01*
X74044500Y-59231905D01*
X74044500Y-66222059D01*
X74024815Y-66289098D01*
X74008181Y-66309740D01*
X73918213Y-66399707D01*
X73918210Y-66399711D01*
X73830609Y-66530814D01*
X73830602Y-66530827D01*
X73770264Y-66676498D01*
X73770261Y-66676510D01*
X73739500Y-66831153D01*
X73739500Y-66988846D01*
X73770261Y-67143489D01*
X73770264Y-67143501D01*
X73830602Y-67289172D01*
X73830609Y-67289185D01*
X73918210Y-67420288D01*
X73918213Y-67420292D01*
X74029707Y-67531786D01*
X74029711Y-67531789D01*
X74160814Y-67619390D01*
X74160827Y-67619397D01*
X74306498Y-67679735D01*
X74306503Y-67679737D01*
X74461153Y-67710499D01*
X74461156Y-67710500D01*
X74461158Y-67710500D01*
X74618844Y-67710500D01*
X74618845Y-67710499D01*
X74773497Y-67679737D01*
X74919179Y-67619394D01*
X75050289Y-67531789D01*
X75161789Y-67420289D01*
X75249394Y-67289179D01*
X75309737Y-67143497D01*
X75340500Y-66988842D01*
X75340500Y-66831158D01*
X75340500Y-66831155D01*
X75340499Y-66831153D01*
X75326575Y-66761153D01*
X75309737Y-66676503D01*
X75287727Y-66623366D01*
X75249397Y-66530827D01*
X75249390Y-66530814D01*
X75216398Y-66481438D01*
X75195520Y-66414760D01*
X75195500Y-66412547D01*
X75195500Y-62911698D01*
X76349250Y-62911698D01*
X76349250Y-63124272D01*
X76359284Y-63187629D01*
X76382334Y-63333158D01*
X76382504Y-63334228D01*
X76442669Y-63519397D01*
X76448194Y-63536399D01*
X76544701Y-63725805D01*
X76669640Y-63897771D01*
X76819963Y-64048094D01*
X76991932Y-64173035D01*
X77000696Y-64177501D01*
X77051492Y-64225476D01*
X77068286Y-64293297D01*
X77045748Y-64359432D01*
X77000696Y-64398469D01*
X76991932Y-64402934D01*
X76819963Y-64527875D01*
X76669640Y-64678198D01*
X76544701Y-64850164D01*
X76448194Y-65039570D01*
X76382503Y-65241745D01*
X76349250Y-65451698D01*
X76349250Y-65664272D01*
X76356717Y-65711414D01*
X76379183Y-65853265D01*
X76382504Y-65874228D01*
X76445399Y-66067799D01*
X76448194Y-66076399D01*
X76544701Y-66265805D01*
X76669640Y-66437771D01*
X76819963Y-66588094D01*
X76991932Y-66713035D01*
X77000696Y-66717501D01*
X77051492Y-66765476D01*
X77068286Y-66833297D01*
X77045748Y-66899432D01*
X77000696Y-66938469D01*
X76991932Y-66942934D01*
X76819963Y-67067875D01*
X76669640Y-67218198D01*
X76544701Y-67390164D01*
X76448194Y-67579570D01*
X76382503Y-67781745D01*
X76349250Y-67991698D01*
X76349250Y-68204271D01*
X76379717Y-68396635D01*
X76382504Y-68414228D01*
X76445921Y-68609406D01*
X76448194Y-68616399D01*
X76544701Y-68805805D01*
X76669640Y-68977771D01*
X76819963Y-69128094D01*
X76991932Y-69253035D01*
X77000696Y-69257501D01*
X77051492Y-69305476D01*
X77068286Y-69373297D01*
X77045748Y-69439432D01*
X77000696Y-69478469D01*
X76991932Y-69482934D01*
X76819963Y-69607875D01*
X76669640Y-69758198D01*
X76544701Y-69930164D01*
X76448194Y-70119570D01*
X76382503Y-70321745D01*
X76349250Y-70531698D01*
X76349250Y-70744271D01*
X76382503Y-70954224D01*
X76448194Y-71156399D01*
X76544701Y-71345805D01*
X76669640Y-71517771D01*
X76819963Y-71668094D01*
X76991932Y-71793035D01*
X77000696Y-71797501D01*
X77051492Y-71845476D01*
X77068286Y-71913297D01*
X77045748Y-71979432D01*
X77000696Y-72018469D01*
X76991932Y-72022934D01*
X76819963Y-72147875D01*
X76669640Y-72298198D01*
X76544701Y-72470164D01*
X76448194Y-72659570D01*
X76382503Y-72861745D01*
X76349250Y-73071698D01*
X76349250Y-73284271D01*
X76382503Y-73494224D01*
X76448194Y-73696399D01*
X76544701Y-73885805D01*
X76669640Y-74057771D01*
X76819963Y-74208094D01*
X76991932Y-74333035D01*
X77000696Y-74337501D01*
X77051492Y-74385476D01*
X77068286Y-74453297D01*
X77045748Y-74519432D01*
X77000696Y-74558469D01*
X76991932Y-74562934D01*
X76819963Y-74687875D01*
X76669640Y-74838198D01*
X76544701Y-75010164D01*
X76448194Y-75199570D01*
X76382503Y-75401745D01*
X76349250Y-75611698D01*
X76349250Y-75824271D01*
X76382503Y-76034224D01*
X76448194Y-76236399D01*
X76544701Y-76425805D01*
X76669640Y-76597771D01*
X76819963Y-76748094D01*
X76991932Y-76873035D01*
X77000696Y-76877501D01*
X77051492Y-76925476D01*
X77068286Y-76993297D01*
X77045748Y-77059432D01*
X77000696Y-77098469D01*
X76991932Y-77102934D01*
X76819963Y-77227875D01*
X76669640Y-77378198D01*
X76544701Y-77550164D01*
X76448194Y-77739570D01*
X76382503Y-77941745D01*
X76353414Y-78125408D01*
X76349250Y-78151698D01*
X76349250Y-78364272D01*
X76352932Y-78387516D01*
X76373224Y-78515640D01*
X76382504Y-78574228D01*
X76443633Y-78762364D01*
X76448194Y-78776399D01*
X76544701Y-78965805D01*
X76669640Y-79137771D01*
X76819963Y-79288094D01*
X76991929Y-79413033D01*
X76991931Y-79413034D01*
X76991934Y-79413036D01*
X77181338Y-79509542D01*
X77383507Y-79575231D01*
X77593463Y-79608485D01*
X77593464Y-79608485D01*
X77806036Y-79608485D01*
X77806037Y-79608485D01*
X78015993Y-79575231D01*
X78218162Y-79509542D01*
X78407566Y-79413036D01*
X78493888Y-79350320D01*
X78579536Y-79288094D01*
X78579538Y-79288091D01*
X78579542Y-79288089D01*
X78729854Y-79137777D01*
X78729856Y-79137773D01*
X78729859Y-79137771D01*
X78850069Y-78972314D01*
X78854801Y-78965801D01*
X78951307Y-78776397D01*
X79016996Y-78574228D01*
X79050250Y-78364272D01*
X79050250Y-78151698D01*
X79016996Y-77941742D01*
X78951307Y-77739573D01*
X78854801Y-77550169D01*
X78854799Y-77550166D01*
X78854798Y-77550164D01*
X78729859Y-77378198D01*
X78579536Y-77227875D01*
X78407570Y-77102936D01*
X78405998Y-77102135D01*
X78398804Y-77098470D01*
X78348009Y-77050497D01*
X78331213Y-76982677D01*
X78353749Y-76916541D01*
X78398804Y-76877500D01*
X78407566Y-76873036D01*
X78449835Y-76842326D01*
X78579536Y-76748094D01*
X78579538Y-76748091D01*
X78579542Y-76748089D01*
X78729854Y-76597777D01*
X78729856Y-76597773D01*
X78729859Y-76597771D01*
X78854798Y-76425805D01*
X78854797Y-76425805D01*
X78854801Y-76425801D01*
X78951307Y-76236397D01*
X79016996Y-76034228D01*
X79050250Y-75824272D01*
X79050250Y-75611698D01*
X79016996Y-75401742D01*
X78951307Y-75199573D01*
X78854801Y-75010169D01*
X78854799Y-75010166D01*
X78854798Y-75010164D01*
X78729859Y-74838198D01*
X78579536Y-74687875D01*
X78407570Y-74562936D01*
X78406865Y-74562576D01*
X78398804Y-74558470D01*
X78348009Y-74510497D01*
X78331213Y-74442677D01*
X78353749Y-74376541D01*
X78398804Y-74337500D01*
X78407566Y-74333036D01*
X78524184Y-74248309D01*
X78579536Y-74208094D01*
X78579538Y-74208091D01*
X78579542Y-74208089D01*
X78729854Y-74057777D01*
X78729856Y-74057773D01*
X78729859Y-74057771D01*
X78854798Y-73885805D01*
X78854797Y-73885805D01*
X78854801Y-73885801D01*
X78951307Y-73696397D01*
X79016996Y-73494228D01*
X79050250Y-73284272D01*
X79050250Y-73071698D01*
X79016996Y-72861742D01*
X78951307Y-72659573D01*
X78854801Y-72470169D01*
X78854799Y-72470166D01*
X78854798Y-72470164D01*
X78729859Y-72298198D01*
X78579536Y-72147875D01*
X78407570Y-72022936D01*
X78406865Y-72022576D01*
X78398804Y-72018470D01*
X78348009Y-71970497D01*
X78331213Y-71902677D01*
X78353749Y-71836541D01*
X78398804Y-71797500D01*
X78407566Y-71793036D01*
X78524184Y-71708309D01*
X78579536Y-71668094D01*
X78579538Y-71668091D01*
X78579542Y-71668089D01*
X78729854Y-71517777D01*
X78729856Y-71517773D01*
X78729859Y-71517771D01*
X78854798Y-71345805D01*
X78854797Y-71345805D01*
X78854801Y-71345801D01*
X78951307Y-71156397D01*
X79016996Y-70954228D01*
X79050250Y-70744272D01*
X79050250Y-70531698D01*
X79016996Y-70321742D01*
X78951307Y-70119573D01*
X78854801Y-69930169D01*
X78854799Y-69930166D01*
X78854798Y-69930164D01*
X78729859Y-69758198D01*
X78579536Y-69607875D01*
X78407570Y-69482936D01*
X78406865Y-69482576D01*
X78398804Y-69478470D01*
X78348009Y-69430497D01*
X78331213Y-69362677D01*
X78353749Y-69296541D01*
X78398804Y-69257500D01*
X78407566Y-69253036D01*
X78443122Y-69227203D01*
X78579536Y-69128094D01*
X78579538Y-69128091D01*
X78579542Y-69128089D01*
X78729854Y-68977777D01*
X78729856Y-68977773D01*
X78729859Y-68977771D01*
X78854798Y-68805805D01*
X78854797Y-68805805D01*
X78854801Y-68805801D01*
X78951307Y-68616397D01*
X79016996Y-68414228D01*
X79050250Y-68204272D01*
X79050250Y-67991698D01*
X79049016Y-67983907D01*
X79033662Y-67886963D01*
X79031554Y-67873653D01*
X83919500Y-67873653D01*
X83919500Y-68031346D01*
X83950261Y-68185989D01*
X83950264Y-68186001D01*
X84010602Y-68331672D01*
X84010609Y-68331685D01*
X84098210Y-68462788D01*
X84098213Y-68462792D01*
X84209707Y-68574286D01*
X84209711Y-68574289D01*
X84340814Y-68661890D01*
X84340827Y-68661897D01*
X84486498Y-68722235D01*
X84486503Y-68722237D01*
X84617696Y-68748333D01*
X84641153Y-68752999D01*
X84641156Y-68753000D01*
X84641158Y-68753000D01*
X84798844Y-68753000D01*
X84798845Y-68752999D01*
X84953497Y-68722237D01*
X85099179Y-68661894D01*
X85230289Y-68574289D01*
X85341789Y-68462789D01*
X85429394Y-68331679D01*
X85489737Y-68185997D01*
X85520500Y-68031342D01*
X85520500Y-67873658D01*
X85520500Y-67873655D01*
X85520499Y-67873653D01*
X85520261Y-67872457D01*
X85489737Y-67719003D01*
X85473472Y-67679735D01*
X85429397Y-67573327D01*
X85429390Y-67573314D01*
X85341789Y-67442211D01*
X85341786Y-67442207D01*
X85230292Y-67330713D01*
X85230288Y-67330710D01*
X85099185Y-67243109D01*
X85099172Y-67243102D01*
X84953501Y-67182764D01*
X84953489Y-67182761D01*
X84798845Y-67152000D01*
X84798842Y-67152000D01*
X84641158Y-67152000D01*
X84641155Y-67152000D01*
X84486510Y-67182761D01*
X84486498Y-67182764D01*
X84340827Y-67243102D01*
X84340814Y-67243109D01*
X84209711Y-67330710D01*
X84209707Y-67330713D01*
X84098213Y-67442207D01*
X84098210Y-67442211D01*
X84010609Y-67573314D01*
X84010602Y-67573327D01*
X83950264Y-67718998D01*
X83950261Y-67719010D01*
X83919500Y-67873653D01*
X79031554Y-67873653D01*
X79016996Y-67781745D01*
X79016996Y-67781742D01*
X78951307Y-67579573D01*
X78854801Y-67390169D01*
X78854799Y-67390166D01*
X78854798Y-67390164D01*
X78729859Y-67218198D01*
X78579536Y-67067875D01*
X78407570Y-66942936D01*
X78406865Y-66942576D01*
X78398804Y-66938470D01*
X78348009Y-66890497D01*
X78331213Y-66822677D01*
X78353749Y-66756541D01*
X78398804Y-66717500D01*
X78407566Y-66713036D01*
X78524184Y-66628309D01*
X78579536Y-66588094D01*
X78579538Y-66588091D01*
X78579542Y-66588089D01*
X78729854Y-66437777D01*
X78729856Y-66437773D01*
X78729859Y-66437771D01*
X78854798Y-66265805D01*
X78854797Y-66265805D01*
X78854801Y-66265801D01*
X78951307Y-66076397D01*
X79016996Y-65874228D01*
X79050250Y-65664272D01*
X79050250Y-65451698D01*
X79016996Y-65241742D01*
X78951307Y-65039573D01*
X78854801Y-64850169D01*
X78854799Y-64850166D01*
X78854798Y-64850164D01*
X78729859Y-64678198D01*
X78579536Y-64527875D01*
X78407570Y-64402936D01*
X78406865Y-64402576D01*
X78398804Y-64398470D01*
X78348009Y-64350497D01*
X78331213Y-64282677D01*
X78353749Y-64216541D01*
X78398804Y-64177500D01*
X78407566Y-64173036D01*
X78524184Y-64088309D01*
X78579536Y-64048094D01*
X78579538Y-64048091D01*
X78579542Y-64048089D01*
X78729854Y-63897777D01*
X78729856Y-63897773D01*
X78729859Y-63897771D01*
X78854798Y-63725805D01*
X78854797Y-63725805D01*
X78854801Y-63725801D01*
X78951307Y-63536397D01*
X79016996Y-63334228D01*
X79050250Y-63124272D01*
X79050250Y-62911698D01*
X79016996Y-62701742D01*
X78994586Y-62632774D01*
X78992592Y-62562934D01*
X79024835Y-62506778D01*
X81560515Y-59971100D01*
X81636281Y-59839870D01*
X81675500Y-59693501D01*
X81675500Y-59541968D01*
X81675500Y-59341905D01*
X81695185Y-59274866D01*
X81747989Y-59229111D01*
X81771775Y-59221594D01*
X81771751Y-59221507D01*
X81774940Y-59220594D01*
X81776850Y-59219991D01*
X81777407Y-59219886D01*
X81777418Y-59219886D01*
X81973049Y-59163909D01*
X82153407Y-59069698D01*
X82311109Y-58941109D01*
X82439698Y-58783407D01*
X82533909Y-58603049D01*
X82552200Y-58539123D01*
X82589567Y-58480086D01*
X82652920Y-58450622D01*
X82722146Y-58460087D01*
X82775265Y-58505476D01*
X82790632Y-58539124D01*
X82826089Y-58663045D01*
X82826090Y-58663048D01*
X82826091Y-58663049D01*
X82920302Y-58843407D01*
X82949891Y-58879695D01*
X83048890Y-59001109D01*
X83133991Y-59070499D01*
X83206593Y-59129698D01*
X83247299Y-59150961D01*
X83297606Y-59199447D01*
X83313713Y-59267434D01*
X83290507Y-59333338D01*
X83277568Y-59348550D01*
X82282939Y-60343181D01*
X82221616Y-60376666D01*
X82195258Y-60379500D01*
X82181155Y-60379500D01*
X82026510Y-60410261D01*
X82026498Y-60410264D01*
X81880827Y-60470602D01*
X81880814Y-60470609D01*
X81749711Y-60558210D01*
X81749707Y-60558213D01*
X81638213Y-60669707D01*
X81638210Y-60669711D01*
X81550609Y-60800814D01*
X81550602Y-60800827D01*
X81490264Y-60946498D01*
X81490261Y-60946510D01*
X81459500Y-61101153D01*
X81459500Y-61258846D01*
X81490261Y-61413489D01*
X81490264Y-61413501D01*
X81550602Y-61559172D01*
X81550609Y-61559185D01*
X81638210Y-61690288D01*
X81638213Y-61690292D01*
X81749707Y-61801786D01*
X81749711Y-61801789D01*
X81880814Y-61889390D01*
X81880827Y-61889397D01*
X82007491Y-61941862D01*
X82026503Y-61949737D01*
X82154669Y-61975231D01*
X82181153Y-61980499D01*
X82181156Y-61980500D01*
X82181158Y-61980500D01*
X82338843Y-61980500D01*
X82354620Y-61977361D01*
X82413355Y-61965678D01*
X82482945Y-61971905D01*
X82538123Y-62014767D01*
X82561368Y-62080656D01*
X82545301Y-62148653D01*
X82513325Y-62183014D01*
X82514419Y-62184347D01*
X82509707Y-62188213D01*
X82398213Y-62299707D01*
X82398210Y-62299711D01*
X82310609Y-62430814D01*
X82310602Y-62430827D01*
X82250264Y-62576498D01*
X82250261Y-62576510D01*
X82219500Y-62731153D01*
X82219500Y-62888846D01*
X82250261Y-63043489D01*
X82250264Y-63043501D01*
X82310602Y-63189172D01*
X82310609Y-63189185D01*
X82398210Y-63320288D01*
X82398213Y-63320292D01*
X82509707Y-63431786D01*
X82509711Y-63431789D01*
X82640814Y-63519390D01*
X82640827Y-63519397D01*
X82758365Y-63568082D01*
X82786503Y-63579737D01*
X82941153Y-63610499D01*
X82941156Y-63610500D01*
X82941158Y-63610500D01*
X83098844Y-63610500D01*
X83098845Y-63610499D01*
X83253497Y-63579737D01*
X83399179Y-63519394D01*
X83530289Y-63431789D01*
X83641789Y-63320289D01*
X83729394Y-63189179D01*
X83789737Y-63043497D01*
X83820500Y-62888842D01*
X83820500Y-62731158D01*
X83820500Y-62731155D01*
X83820499Y-62731153D01*
X83803846Y-62647432D01*
X83789737Y-62576503D01*
X83765375Y-62517687D01*
X83729397Y-62430827D01*
X83729390Y-62430814D01*
X83641789Y-62299711D01*
X83641786Y-62299707D01*
X83530292Y-62188213D01*
X83530288Y-62188210D01*
X83399185Y-62100609D01*
X83399172Y-62100602D01*
X83253501Y-62040264D01*
X83253489Y-62040261D01*
X83098845Y-62009500D01*
X83098842Y-62009500D01*
X82941158Y-62009500D01*
X82941153Y-62009500D01*
X82866644Y-62024321D01*
X82797053Y-62018094D01*
X82741875Y-61975231D01*
X82718631Y-61909341D01*
X82734699Y-61841344D01*
X82766682Y-61806995D01*
X82765581Y-61805653D01*
X82770285Y-61801791D01*
X82770289Y-61801789D01*
X82881789Y-61690289D01*
X82969394Y-61559179D01*
X82972422Y-61551870D01*
X83029735Y-61413501D01*
X83029737Y-61413497D01*
X83060500Y-61258842D01*
X83060500Y-61244742D01*
X83080185Y-61177703D01*
X83096819Y-61157061D01*
X83906419Y-60347461D01*
X84720515Y-59533365D01*
X84796281Y-59402135D01*
X84803953Y-59373498D01*
X84840317Y-59313839D01*
X84903164Y-59283309D01*
X84912745Y-59282079D01*
X84937418Y-59279886D01*
X85133049Y-59223909D01*
X85313407Y-59129698D01*
X85471109Y-59001109D01*
X85599698Y-58843407D01*
X85693909Y-58663049D01*
X85749886Y-58467418D01*
X85760500Y-58348037D01*
X85760499Y-55231964D01*
X85749886Y-55112582D01*
X85694616Y-54919421D01*
X85693910Y-54916954D01*
X85693909Y-54916953D01*
X85693909Y-54916951D01*
X85599698Y-54736593D01*
X85511878Y-54628890D01*
X85471109Y-54578890D01*
X85355933Y-54484977D01*
X85313407Y-54450302D01*
X85133049Y-54356091D01*
X85133048Y-54356090D01*
X85133045Y-54356089D01*
X85015829Y-54322550D01*
X84937418Y-54300114D01*
X84937415Y-54300113D01*
X84937413Y-54300113D01*
X84871102Y-54294217D01*
X84818037Y-54289500D01*
X84818032Y-54289500D01*
X83701971Y-54289500D01*
X83701965Y-54289500D01*
X83701964Y-54289501D01*
X83690316Y-54290536D01*
X83582584Y-54300113D01*
X83386954Y-54356089D01*
X83328558Y-54386593D01*
X83206593Y-54450302D01*
X83206591Y-54450303D01*
X83206590Y-54450304D01*
X83048890Y-54578890D01*
X82952623Y-54696954D01*
X82920302Y-54736593D01*
X82894186Y-54786590D01*
X82826088Y-54916956D01*
X82807798Y-54980877D01*
X82770430Y-55039914D01*
X82707076Y-55069377D01*
X82637851Y-55059911D01*
X82584733Y-55014522D01*
X82569369Y-54980881D01*
X82533909Y-54856951D01*
X82439698Y-54676593D01*
X82360032Y-54578890D01*
X82311109Y-54518890D01*
X82195933Y-54424977D01*
X82153407Y-54390302D01*
X81973049Y-54296091D01*
X81973048Y-54296090D01*
X81973045Y-54296089D01*
X81855829Y-54262550D01*
X81777418Y-54240114D01*
X81777415Y-54240113D01*
X81777413Y-54240113D01*
X81711102Y-54234217D01*
X81658037Y-54229500D01*
X81658032Y-54229500D01*
X80541971Y-54229500D01*
X80541965Y-54229500D01*
X80541964Y-54229501D01*
X80530316Y-54230536D01*
X80422584Y-54240113D01*
X80226954Y-54296089D01*
X80143849Y-54339500D01*
X80046593Y-54390302D01*
X80046591Y-54390303D01*
X80046590Y-54390304D01*
X79888890Y-54518890D01*
X79760304Y-54676590D01*
X79760302Y-54676593D01*
X79728962Y-54736590D01*
X79666089Y-54856954D01*
X79610114Y-55052583D01*
X79610113Y-55052586D01*
X79599500Y-55171966D01*
X79599500Y-58288028D01*
X79599501Y-58288034D01*
X79610113Y-58407415D01*
X79666089Y-58603045D01*
X79666090Y-58603048D01*
X79666091Y-58603049D01*
X79760302Y-58783407D01*
X79760304Y-58783409D01*
X79888890Y-58941109D01*
X79951700Y-58992323D01*
X80046593Y-59069698D01*
X80226951Y-59163909D01*
X80226953Y-59163909D01*
X80226954Y-59163910D01*
X80242073Y-59168236D01*
X80422582Y-59219886D01*
X80422584Y-59219886D01*
X80423297Y-59220090D01*
X80482335Y-59257457D01*
X80511799Y-59320811D01*
X80502334Y-59390036D01*
X80476867Y-59426987D01*
X78210957Y-61692896D01*
X78149634Y-61726381D01*
X78084959Y-61723146D01*
X78015996Y-61700739D01*
X77858526Y-61675798D01*
X77806037Y-61667485D01*
X77593463Y-61667485D01*
X77544792Y-61675193D01*
X77383510Y-61700738D01*
X77383507Y-61700739D01*
X77226531Y-61751744D01*
X77181335Y-61766429D01*
X76991929Y-61862936D01*
X76819963Y-61987875D01*
X76669640Y-62138198D01*
X76544701Y-62310164D01*
X76448194Y-62499570D01*
X76382503Y-62701745D01*
X76353769Y-62883166D01*
X76349250Y-62911698D01*
X75195500Y-62911698D01*
X75195500Y-59231905D01*
X75215185Y-59164866D01*
X75267989Y-59119111D01*
X75291775Y-59111594D01*
X75291751Y-59111507D01*
X75294940Y-59110594D01*
X75296850Y-59109991D01*
X75297407Y-59109886D01*
X75297418Y-59109886D01*
X75493049Y-59053909D01*
X75673407Y-58959698D01*
X75831109Y-58831109D01*
X75959698Y-58673407D01*
X76000139Y-58595985D01*
X76048623Y-58545681D01*
X76116611Y-58529573D01*
X76182514Y-58552779D01*
X76225409Y-58607931D01*
X76229262Y-58619287D01*
X76251423Y-58696734D01*
X76256091Y-58713049D01*
X76350302Y-58893407D01*
X76351450Y-58894815D01*
X76478890Y-59051109D01*
X76562088Y-59118947D01*
X76636593Y-59179698D01*
X76816951Y-59273909D01*
X76816953Y-59273909D01*
X76816954Y-59273910D01*
X76836355Y-59279461D01*
X77012582Y-59329886D01*
X77131963Y-59340500D01*
X78248036Y-59340499D01*
X78367418Y-59329886D01*
X78563049Y-59273909D01*
X78743407Y-59179698D01*
X78901109Y-59051109D01*
X79029698Y-58893407D01*
X79123909Y-58713049D01*
X79179886Y-58517418D01*
X79190500Y-58398037D01*
X79190499Y-55281964D01*
X79179886Y-55162582D01*
X79123909Y-54966951D01*
X79029698Y-54786593D01*
X78940005Y-54676593D01*
X78901109Y-54628890D01*
X78785933Y-54534977D01*
X78743407Y-54500302D01*
X78563049Y-54406091D01*
X78563048Y-54406090D01*
X78563045Y-54406089D01*
X78445829Y-54372550D01*
X78367418Y-54350114D01*
X78367415Y-54350113D01*
X78367413Y-54350113D01*
X78301102Y-54344217D01*
X78248037Y-54339500D01*
X78248032Y-54339500D01*
X77131971Y-54339500D01*
X77131965Y-54339500D01*
X77131964Y-54339501D01*
X77120316Y-54340536D01*
X77012584Y-54350113D01*
X76816954Y-54406089D01*
X76732313Y-54450302D01*
X76636593Y-54500302D01*
X76636591Y-54500303D01*
X76636590Y-54500304D01*
X76478890Y-54628890D01*
X76350302Y-54786593D01*
X76350300Y-54786595D01*
X76309861Y-54864012D01*
X76261374Y-54914319D01*
X76193387Y-54930426D01*
X76127484Y-54907219D01*
X76084589Y-54852066D01*
X76080737Y-54840711D01*
X76053910Y-54746954D01*
X76053909Y-54746953D01*
X76053909Y-54746951D01*
X75959698Y-54566593D01*
X75864877Y-54450304D01*
X75831109Y-54408890D01*
X75715933Y-54314977D01*
X75673407Y-54280302D01*
X75493049Y-54186091D01*
X75493048Y-54186090D01*
X75493045Y-54186089D01*
X75375829Y-54152550D01*
X75297418Y-54130114D01*
X75297415Y-54130113D01*
X75297413Y-54130113D01*
X75231102Y-54124217D01*
X75178037Y-54119500D01*
X75178032Y-54119500D01*
X74061971Y-54119500D01*
X74061965Y-54119500D01*
X74061964Y-54119501D01*
X74050316Y-54120536D01*
X73942584Y-54130113D01*
X73746954Y-54186089D01*
X73665016Y-54228890D01*
X73566593Y-54280302D01*
X73566591Y-54280303D01*
X73566590Y-54280304D01*
X73408890Y-54408890D01*
X73280304Y-54566590D01*
X73280302Y-54566593D01*
X73186091Y-54746951D01*
X73147459Y-54881966D01*
X73146369Y-54885774D01*
X73109001Y-54944811D01*
X73045648Y-54974275D01*
X72976422Y-54964810D01*
X72923303Y-54919421D01*
X72907938Y-54885777D01*
X72853909Y-54696951D01*
X72759698Y-54516593D01*
X72669594Y-54406089D01*
X72631109Y-54358890D01*
X72485439Y-54240113D01*
X72473407Y-54230302D01*
X72293049Y-54136091D01*
X72293048Y-54136090D01*
X72293045Y-54136089D01*
X72167972Y-54100302D01*
X72097418Y-54080114D01*
X72097415Y-54080113D01*
X72097413Y-54080113D01*
X72031102Y-54074217D01*
X71978037Y-54069500D01*
X71978032Y-54069500D01*
X70861971Y-54069500D01*
X70861965Y-54069500D01*
X70861964Y-54069501D01*
X70850316Y-54070536D01*
X70742584Y-54080113D01*
X70546954Y-54136089D01*
X70456772Y-54183196D01*
X70366593Y-54230302D01*
X70366591Y-54230303D01*
X70366590Y-54230304D01*
X70208890Y-54358890D01*
X70080304Y-54516590D01*
X70080302Y-54516593D01*
X70079102Y-54518891D01*
X69986089Y-54696954D01*
X69944956Y-54840711D01*
X69932063Y-54885773D01*
X69930114Y-54892583D01*
X69930113Y-54892586D01*
X69919500Y-55011966D01*
X69919500Y-55840500D01*
X69916949Y-55849185D01*
X69918238Y-55858147D01*
X69907259Y-55882187D01*
X69899815Y-55907539D01*
X69892974Y-55913466D01*
X69889213Y-55921703D01*
X69866978Y-55935992D01*
X69847011Y-55953294D01*
X69836496Y-55955581D01*
X69830435Y-55959477D01*
X69795500Y-55964500D01*
X69634499Y-55964500D01*
X69567460Y-55944815D01*
X69521705Y-55892011D01*
X69510499Y-55840500D01*
X69510499Y-54981971D01*
X69510499Y-54981964D01*
X69499886Y-54862582D01*
X69443909Y-54666951D01*
X69349698Y-54486593D01*
X69297684Y-54422803D01*
X69221109Y-54328890D01*
X69100648Y-54230668D01*
X69063407Y-54200302D01*
X68883049Y-54106091D01*
X68883048Y-54106090D01*
X68883045Y-54106089D01*
X68765829Y-54072550D01*
X68687418Y-54050114D01*
X68687415Y-54050113D01*
X68687413Y-54050113D01*
X68621102Y-54044217D01*
X68568037Y-54039500D01*
X68568032Y-54039500D01*
X67451971Y-54039500D01*
X67451965Y-54039500D01*
X67451964Y-54039501D01*
X67440316Y-54040536D01*
X67332584Y-54050113D01*
X67136954Y-54106089D01*
X67079519Y-54136091D01*
X66956593Y-54200302D01*
X66956591Y-54200303D01*
X66956590Y-54200304D01*
X66798890Y-54328890D01*
X66680480Y-54474110D01*
X66622859Y-54513627D01*
X66553021Y-54515719D01*
X66493138Y-54479721D01*
X66474471Y-54453163D01*
X66439698Y-54386593D01*
X66409953Y-54350114D01*
X66311109Y-54228890D01*
X66195933Y-54134977D01*
X66153407Y-54100302D01*
X65973049Y-54006091D01*
X65973048Y-54006090D01*
X65973045Y-54006089D01*
X65855829Y-53972550D01*
X65777418Y-53950114D01*
X65777415Y-53950113D01*
X65777413Y-53950113D01*
X65711102Y-53944217D01*
X65658037Y-53939500D01*
X65658032Y-53939500D01*
X64541971Y-53939500D01*
X64541965Y-53939500D01*
X64541964Y-53939501D01*
X64530316Y-53940536D01*
X64422584Y-53950113D01*
X64226954Y-54006089D01*
X64142675Y-54050113D01*
X64046593Y-54100302D01*
X64046591Y-54100303D01*
X64046590Y-54100304D01*
X63888890Y-54228890D01*
X63760304Y-54386590D01*
X63760302Y-54386593D01*
X63750118Y-54406089D01*
X63666089Y-54566954D01*
X63610114Y-54762583D01*
X63610113Y-54762586D01*
X63599500Y-54881966D01*
X63599500Y-55651258D01*
X63579815Y-55718297D01*
X63527011Y-55764052D01*
X63457853Y-55773996D01*
X63394297Y-55744971D01*
X63387819Y-55738939D01*
X63146818Y-55497938D01*
X63113333Y-55436615D01*
X63110499Y-55410257D01*
X63110499Y-54499998D01*
X63110498Y-54499981D01*
X63099999Y-54397203D01*
X63099998Y-54397200D01*
X63096482Y-54386590D01*
X63044814Y-54230666D01*
X62952712Y-54081344D01*
X62828656Y-53957288D01*
X62679334Y-53865186D01*
X62512797Y-53810001D01*
X62512795Y-53810000D01*
X62410010Y-53799500D01*
X61659998Y-53799500D01*
X61659980Y-53799501D01*
X61557203Y-53810000D01*
X61557200Y-53810001D01*
X61390668Y-53865185D01*
X61390663Y-53865187D01*
X61241342Y-53957289D01*
X61117289Y-54081342D01*
X61025187Y-54230663D01*
X61025185Y-54230668D01*
X61002173Y-54300114D01*
X60970001Y-54397203D01*
X60970001Y-54397204D01*
X60970000Y-54397204D01*
X60959500Y-54499983D01*
X60959500Y-55900001D01*
X60959501Y-55900018D01*
X60970000Y-56002796D01*
X60970001Y-56002799D01*
X61019275Y-56151496D01*
X61021677Y-56221324D01*
X60985945Y-56281366D01*
X60923425Y-56312559D01*
X60901569Y-56314500D01*
X60609999Y-56314500D01*
X60609980Y-56314501D01*
X60507203Y-56325000D01*
X60507200Y-56325001D01*
X60340668Y-56380185D01*
X60340663Y-56380187D01*
X60191336Y-56472293D01*
X60189777Y-56473526D01*
X60188507Y-56474037D01*
X60185197Y-56476080D01*
X60184847Y-56475513D01*
X60124979Y-56499660D01*
X60056338Y-56486613D01*
X60005648Y-56438527D01*
X59989002Y-56370669D01*
X60007337Y-56311157D01*
X60094814Y-56169334D01*
X60149999Y-56002797D01*
X60160500Y-55900009D01*
X60160499Y-54499992D01*
X60149999Y-54397203D01*
X60094814Y-54230666D01*
X60002712Y-54081344D01*
X59878656Y-53957288D01*
X59729334Y-53865186D01*
X59562797Y-53810001D01*
X59562795Y-53810000D01*
X59460010Y-53799500D01*
X58709998Y-53799500D01*
X58709980Y-53799501D01*
X58607203Y-53810000D01*
X58607200Y-53810001D01*
X58440668Y-53865185D01*
X58440663Y-53865187D01*
X58291342Y-53957289D01*
X58167289Y-54081342D01*
X58075187Y-54230663D01*
X58075185Y-54230668D01*
X58052173Y-54300114D01*
X58020001Y-54397203D01*
X58020001Y-54397204D01*
X58020000Y-54397204D01*
X58009500Y-54499983D01*
X58009500Y-55900001D01*
X58009501Y-55900018D01*
X58020000Y-56002796D01*
X58020001Y-56002799D01*
X58033820Y-56044500D01*
X58075186Y-56169334D01*
X58164725Y-56314501D01*
X58167289Y-56318657D01*
X58218451Y-56369819D01*
X58251936Y-56431142D01*
X58246952Y-56500834D01*
X58218451Y-56545181D01*
X58167289Y-56596342D01*
X58075187Y-56745663D01*
X58075185Y-56745668D01*
X58060000Y-56791494D01*
X58020001Y-56912203D01*
X58020001Y-56912204D01*
X58020000Y-56912204D01*
X58009500Y-57014983D01*
X58009500Y-58065001D01*
X58009501Y-58065019D01*
X58020000Y-58167796D01*
X58020001Y-58167799D01*
X58075185Y-58334331D01*
X58075187Y-58334336D01*
X58083637Y-58348036D01*
X58167288Y-58483656D01*
X58291344Y-58607712D01*
X58440666Y-58699814D01*
X58607203Y-58754999D01*
X58671602Y-58761578D01*
X58736294Y-58787974D01*
X58776445Y-58845155D01*
X58779309Y-58914966D01*
X58743975Y-58975242D01*
X58721001Y-58992323D01*
X58656635Y-59029485D01*
X58656632Y-59029487D01*
X58539487Y-59146632D01*
X58539485Y-59146635D01*
X58463719Y-59277863D01*
X58444169Y-59350827D01*
X58424500Y-59424234D01*
X58424500Y-61545766D01*
X58440559Y-61605701D01*
X58463719Y-61692136D01*
X58495181Y-61746628D01*
X58539485Y-61823365D01*
X58646635Y-61930515D01*
X58749861Y-61990113D01*
X58771468Y-62002588D01*
X58777865Y-62006281D01*
X58924234Y-62045500D01*
X59075766Y-62045500D01*
X59222939Y-62045500D01*
X59286060Y-62062768D01*
X59419602Y-62141744D01*
X59442013Y-62148255D01*
X59577426Y-62187597D01*
X59577429Y-62187597D01*
X59577431Y-62187598D01*
X59614306Y-62190500D01*
X59614314Y-62190500D01*
X60666258Y-62190500D01*
X60733297Y-62210185D01*
X60779052Y-62262989D01*
X60788996Y-62332147D01*
X60759971Y-62395703D01*
X60753937Y-62402183D01*
X60732425Y-62423694D01*
X60671101Y-62457178D01*
X60632144Y-62459369D01*
X60560011Y-62452000D01*
X59559998Y-62452000D01*
X59559980Y-62452001D01*
X59457203Y-62462500D01*
X59457200Y-62462501D01*
X59290668Y-62517685D01*
X59290663Y-62517687D01*
X59141342Y-62609789D01*
X59017289Y-62733842D01*
X58925187Y-62883163D01*
X58925186Y-62883166D01*
X58870001Y-63049703D01*
X58870001Y-63049704D01*
X58870000Y-63049704D01*
X58859500Y-63152483D01*
X58859500Y-63777501D01*
X58859501Y-63777519D01*
X58870000Y-63880296D01*
X58870001Y-63880299D01*
X58875791Y-63897771D01*
X58925186Y-64046834D01*
X59005780Y-64177499D01*
X59017289Y-64196157D01*
X59110951Y-64289819D01*
X59144436Y-64351142D01*
X59139452Y-64420834D01*
X59110951Y-64465181D01*
X59017289Y-64558842D01*
X58925187Y-64708163D01*
X58925186Y-64708166D01*
X58870001Y-64874703D01*
X58870001Y-64874704D01*
X58870000Y-64874704D01*
X58859500Y-64977483D01*
X58859500Y-65602500D01*
X58859501Y-65602519D01*
X58860382Y-65611140D01*
X58847607Y-65679832D01*
X58824704Y-65711414D01*
X58062939Y-66473181D01*
X58001616Y-66506666D01*
X57975258Y-66509500D01*
X57071457Y-66509500D01*
X56878170Y-66547947D01*
X56878160Y-66547950D01*
X56741952Y-66604369D01*
X56672483Y-66611838D01*
X56610004Y-66580562D01*
X56574352Y-66520473D01*
X56570500Y-66489808D01*
X56570500Y-53094500D01*
X56590185Y-53027461D01*
X56642989Y-52981706D01*
X56694500Y-52970500D01*
X93905500Y-52970500D01*
X93972539Y-52990185D01*
G37*
%TD.AperFunction*%
M02*
