%TF.GenerationSoftware,KiCad,Pcbnew,9.0.7*%
%TF.CreationDate,2026-06-15T23:00:31+05:30*%
%TF.ProjectId,Jazz,4a617a7a-2e6b-4696-9361-645f70636258,rev?*%
%TF.SameCoordinates,Original*%
%TF.FileFunction,Drillmap*%
%TF.FilePolarity,Positive*%
%FSLAX45Y45*%
G04 Gerber Fmt 4.5, Leading zero omitted, Abs format (unit mm)*
G04 Created by KiCad (PCBNEW 9.0.7) date 2026-06-15 23:00:31*
%MOMM*%
%LPD*%
G01*
G04 APERTURE LIST*
%ADD10C,0.050000*%
%ADD11C,0.200000*%
G04 APERTURE END LIST*
D10*
X7474409Y-7963000D02*
G75*
G02*
X7273591Y-7963000I-100409J0D01*
G01*
X7273591Y-7963000D02*
G75*
G02*
X7474409Y-7963000I100409J0D01*
G01*
X7077409Y-6462000D02*
G75*
G02*
X6876591Y-6462000I-100409J0D01*
G01*
X6876591Y-6462000D02*
G75*
G02*
X7077409Y-6462000I100409J0D01*
G01*
X5607000Y-5247000D02*
X9453000Y-5247000D01*
X9453000Y-8269000D01*
X5607000Y-8269000D01*
X5607000Y-5247000D01*
X6057409Y-7991000D02*
G75*
G02*
X5856591Y-7991000I-100409J0D01*
G01*
X5856591Y-7991000D02*
G75*
G02*
X6057409Y-7991000I100409J0D01*
G01*
D11*
X5865277Y-8582984D02*
X5865277Y-8382984D01*
X5865277Y-8382984D02*
X5912896Y-8382984D01*
X5912896Y-8382984D02*
X5941467Y-8392508D01*
X5941467Y-8392508D02*
X5960515Y-8411555D01*
X5960515Y-8411555D02*
X5970039Y-8430603D01*
X5970039Y-8430603D02*
X5979562Y-8468698D01*
X5979562Y-8468698D02*
X5979562Y-8497270D01*
X5979562Y-8497270D02*
X5970039Y-8535365D01*
X5970039Y-8535365D02*
X5960515Y-8554412D01*
X5960515Y-8554412D02*
X5941467Y-8573460D01*
X5941467Y-8573460D02*
X5912896Y-8582984D01*
X5912896Y-8582984D02*
X5865277Y-8582984D01*
X6065277Y-8582984D02*
X6065277Y-8449650D01*
X6065277Y-8487746D02*
X6074801Y-8468698D01*
X6074801Y-8468698D02*
X6084324Y-8459174D01*
X6084324Y-8459174D02*
X6103372Y-8449650D01*
X6103372Y-8449650D02*
X6122420Y-8449650D01*
X6189086Y-8582984D02*
X6189086Y-8449650D01*
X6189086Y-8382984D02*
X6179562Y-8392508D01*
X6179562Y-8392508D02*
X6189086Y-8402031D01*
X6189086Y-8402031D02*
X6198610Y-8392508D01*
X6198610Y-8392508D02*
X6189086Y-8382984D01*
X6189086Y-8382984D02*
X6189086Y-8402031D01*
X6312896Y-8582984D02*
X6293848Y-8573460D01*
X6293848Y-8573460D02*
X6284324Y-8554412D01*
X6284324Y-8554412D02*
X6284324Y-8382984D01*
X6417658Y-8582984D02*
X6398610Y-8573460D01*
X6398610Y-8573460D02*
X6389086Y-8554412D01*
X6389086Y-8554412D02*
X6389086Y-8382984D01*
X6646229Y-8582984D02*
X6646229Y-8382984D01*
X6646229Y-8382984D02*
X6712896Y-8525841D01*
X6712896Y-8525841D02*
X6779562Y-8382984D01*
X6779562Y-8382984D02*
X6779562Y-8582984D01*
X6960515Y-8582984D02*
X6960515Y-8478222D01*
X6960515Y-8478222D02*
X6950991Y-8459174D01*
X6950991Y-8459174D02*
X6931943Y-8449650D01*
X6931943Y-8449650D02*
X6893848Y-8449650D01*
X6893848Y-8449650D02*
X6874801Y-8459174D01*
X6960515Y-8573460D02*
X6941467Y-8582984D01*
X6941467Y-8582984D02*
X6893848Y-8582984D01*
X6893848Y-8582984D02*
X6874801Y-8573460D01*
X6874801Y-8573460D02*
X6865277Y-8554412D01*
X6865277Y-8554412D02*
X6865277Y-8535365D01*
X6865277Y-8535365D02*
X6874801Y-8516317D01*
X6874801Y-8516317D02*
X6893848Y-8506793D01*
X6893848Y-8506793D02*
X6941467Y-8506793D01*
X6941467Y-8506793D02*
X6960515Y-8497270D01*
X7055753Y-8449650D02*
X7055753Y-8649650D01*
X7055753Y-8459174D02*
X7074801Y-8449650D01*
X7074801Y-8449650D02*
X7112896Y-8449650D01*
X7112896Y-8449650D02*
X7131943Y-8459174D01*
X7131943Y-8459174D02*
X7141467Y-8468698D01*
X7141467Y-8468698D02*
X7150991Y-8487746D01*
X7150991Y-8487746D02*
X7150991Y-8544889D01*
X7150991Y-8544889D02*
X7141467Y-8563936D01*
X7141467Y-8563936D02*
X7131943Y-8573460D01*
X7131943Y-8573460D02*
X7112896Y-8582984D01*
X7112896Y-8582984D02*
X7074801Y-8582984D01*
X7074801Y-8582984D02*
X7055753Y-8573460D01*
X7236705Y-8563936D02*
X7246229Y-8573460D01*
X7246229Y-8573460D02*
X7236705Y-8582984D01*
X7236705Y-8582984D02*
X7227182Y-8573460D01*
X7227182Y-8573460D02*
X7236705Y-8563936D01*
X7236705Y-8563936D02*
X7236705Y-8582984D01*
X7236705Y-8459174D02*
X7246229Y-8468698D01*
X7246229Y-8468698D02*
X7236705Y-8478222D01*
X7236705Y-8478222D02*
X7227182Y-8468698D01*
X7227182Y-8468698D02*
X7236705Y-8459174D01*
X7236705Y-8459174D02*
X7236705Y-8478222D01*
M02*
