%TF.GenerationSoftware,KiCad,Pcbnew,9.0.7*%
%TF.CreationDate,2026-06-15T22:57:30+05:30*%
%TF.ProjectId,Jazz,4a617a7a-2e6b-4696-9361-645f70636258,rev?*%
%TF.SameCoordinates,Original*%
%TF.FileFunction,Copper,L3,Inr*%
%TF.FilePolarity,Positive*%
%FSLAX46Y46*%
G04 Gerber Fmt 4.6, Leading zero omitted, Abs format (unit mm)*
G04 Created by KiCad (PCBNEW 9.0.7) date 2026-06-15 22:57:30*
%MOMM*%
%LPD*%
G01*
G04 APERTURE LIST*
%TA.AperFunction,ComponentPad*%
%ADD10R,1.700000X1.700000*%
%TD*%
%TA.AperFunction,ComponentPad*%
%ADD11C,1.700000*%
%TD*%
%TA.AperFunction,ComponentPad*%
%ADD12O,2.100000X1.000000*%
%TD*%
%TA.AperFunction,ComponentPad*%
%ADD13O,2.600000X1.000000*%
%TD*%
%TA.AperFunction,ViaPad*%
%ADD14C,0.600000*%
%TD*%
%TA.AperFunction,Conductor*%
%ADD15C,0.150000*%
%TD*%
G04 APERTURE END LIST*
D10*
%TO.N,unconnected-(U1-P0.02_A0_D0-Pad1)*%
%TO.C,U1*%
X92949750Y-78257985D03*
D11*
%TO.N,unconnected-(U1-P0.03_A1_D1-Pad2)*%
X92949750Y-75717985D03*
%TO.N,unconnected-(U1-P0.28_A2_D2-Pad3)*%
X92949750Y-73177985D03*
%TO.N,unconnected-(U1-P0.29_A3_D3-Pad4)*%
X92949750Y-70637985D03*
%TO.N,unconnected-(U1-P0.04_A4_D4_SDA-Pad5)*%
X92949750Y-68097985D03*
%TO.N,unconnected-(U1-P0.05_A5_D5_SCL-Pad6)*%
X92949750Y-65557985D03*
%TO.N,unconnected-(U1-P1.11_D6_TX-Pad7)*%
X92949750Y-63017985D03*
%TO.N,Pairing-Mode*%
X77699750Y-63017985D03*
%TO.N,BCLK*%
X77699750Y-65557985D03*
%TO.N,LRCK*%
X77699750Y-68097985D03*
%TO.N,DIN*%
X77699750Y-70637985D03*
%TO.N,Diode Out*%
X77699750Y-73177985D03*
%TO.N,GND*%
X77699750Y-75717985D03*
%TO.N,unconnected-(U1-VBUS-Pad14)*%
X77699750Y-78257985D03*
%TD*%
D12*
%TO.N,GROUND*%
%TO.C,USB-C-Port1*%
X63330000Y-67510000D03*
D13*
X57970000Y-67510000D03*
D12*
X63330000Y-76150000D03*
D13*
X57970000Y-76150000D03*
%TD*%
D14*
%TO.N,GND*%
X62270000Y-63420000D03*
X65940000Y-69230000D03*
X71490000Y-74215000D03*
X84720000Y-67952500D03*
X65030000Y-75810000D03*
X83020000Y-62810000D03*
X74575000Y-70030000D03*
X60060000Y-63465000D03*
X59010000Y-57540000D03*
X59085000Y-55200000D03*
X68080000Y-72760000D03*
X74540000Y-66910000D03*
%TO.N,Switch_OUT*%
X66430000Y-59730000D03*
%TO.N,3.3V*%
X68820000Y-60390000D03*
X82260000Y-61180000D03*
%TO.N,Diode Out*%
X69210000Y-66840000D03*
%TO.N,Net-(USB-C-Port1-CC1)*%
X65700000Y-67300000D03*
X65270000Y-71710000D03*
%TD*%
D15*
%TO.N,3.3V*%
X81470000Y-60390000D02*
X68820000Y-60390000D01*
X82260000Y-61180000D02*
X81470000Y-60390000D01*
%TO.N,GROUND*%
X57970000Y-67510000D02*
X57970000Y-76150000D01*
X63330000Y-76150000D02*
X57970000Y-76150000D01*
X57970000Y-67510000D02*
X63330000Y-67510000D01*
%TO.N,Diode Out*%
X69210000Y-66840000D02*
X69890000Y-67520000D01*
X77657735Y-73220000D02*
X77699750Y-73177985D01*
X69890000Y-67520000D02*
X69890000Y-73220000D01*
X69890000Y-73220000D02*
X77657735Y-73220000D01*
X77067985Y-73177985D02*
X77699750Y-73177985D01*
%TO.N,Net-(USB-C-Port1-CC1)*%
X65700000Y-67300000D02*
X65270000Y-67730000D01*
X65270000Y-67730000D02*
X65270000Y-71710000D01*
%TD*%
%TA.AperFunction,NonConductor*%
G36*
X93966475Y-64038203D02*
G01*
X94015170Y-64088309D01*
X94029500Y-64146175D01*
X94029500Y-64429794D01*
X94026169Y-64441136D01*
X94027328Y-64452899D01*
X94016506Y-64474043D01*
X94009815Y-64496833D01*
X94000883Y-64504572D01*
X93995497Y-64515097D01*
X93974959Y-64527035D01*
X93957011Y-64542588D01*
X93945311Y-64544270D01*
X93935092Y-64550211D01*
X93911364Y-64549151D01*
X93887853Y-64552532D01*
X93875587Y-64547553D01*
X93865292Y-64547094D01*
X93833874Y-64531015D01*
X93829776Y-64528115D01*
X93829542Y-64527881D01*
X93657566Y-64402934D01*
X93640802Y-64394392D01*
X93633473Y-64389206D01*
X93590119Y-64334413D01*
X93583271Y-64264880D01*
X93615102Y-64202682D01*
X93648804Y-64177500D01*
X93657566Y-64173036D01*
X93694537Y-64146175D01*
X93832615Y-64045857D01*
X93898421Y-64022377D01*
X93966475Y-64038203D01*
G37*
%TD.AperFunction*%
%TA.AperFunction,NonConductor*%
G36*
X93966475Y-66578203D02*
G01*
X94015170Y-66628309D01*
X94029500Y-66686175D01*
X94029500Y-66969794D01*
X94026169Y-66981136D01*
X94027328Y-66992899D01*
X94016506Y-67014043D01*
X94009815Y-67036833D01*
X94000883Y-67044572D01*
X93995497Y-67055097D01*
X93974959Y-67067035D01*
X93957011Y-67082588D01*
X93945311Y-67084270D01*
X93935092Y-67090211D01*
X93911364Y-67089151D01*
X93887853Y-67092532D01*
X93875587Y-67087553D01*
X93865292Y-67087094D01*
X93833874Y-67071015D01*
X93829776Y-67068115D01*
X93829542Y-67067881D01*
X93657566Y-66942934D01*
X93640802Y-66934392D01*
X93633473Y-66929206D01*
X93590119Y-66874413D01*
X93583271Y-66804880D01*
X93615102Y-66742682D01*
X93648804Y-66717500D01*
X93657566Y-66713036D01*
X93774184Y-66628309D01*
X93832615Y-66585857D01*
X93898421Y-66562377D01*
X93966475Y-66578203D01*
G37*
%TD.AperFunction*%
%TA.AperFunction,NonConductor*%
G36*
X93966475Y-69118203D02*
G01*
X94015170Y-69168309D01*
X94029500Y-69226175D01*
X94029500Y-69509794D01*
X94026169Y-69521136D01*
X94027328Y-69532899D01*
X94016506Y-69554043D01*
X94009815Y-69576833D01*
X94000883Y-69584572D01*
X93995497Y-69595097D01*
X93974959Y-69607035D01*
X93957011Y-69622588D01*
X93945311Y-69624270D01*
X93935092Y-69630211D01*
X93911364Y-69629151D01*
X93887853Y-69632532D01*
X93875587Y-69627553D01*
X93865292Y-69627094D01*
X93833874Y-69611015D01*
X93829776Y-69608115D01*
X93829542Y-69607881D01*
X93657566Y-69482934D01*
X93640802Y-69474392D01*
X93633473Y-69469206D01*
X93590119Y-69414413D01*
X93583271Y-69344880D01*
X93615102Y-69282682D01*
X93648804Y-69257500D01*
X93657566Y-69253036D01*
X93774184Y-69168309D01*
X93832615Y-69125857D01*
X93898421Y-69102377D01*
X93966475Y-69118203D01*
G37*
%TD.AperFunction*%
%TA.AperFunction,NonConductor*%
G36*
X93966475Y-71658203D02*
G01*
X94015170Y-71708309D01*
X94029500Y-71766175D01*
X94029500Y-72049794D01*
X94026169Y-72061136D01*
X94027328Y-72072899D01*
X94016506Y-72094043D01*
X94009815Y-72116833D01*
X94000883Y-72124572D01*
X93995497Y-72135097D01*
X93974959Y-72147035D01*
X93957011Y-72162588D01*
X93945311Y-72164270D01*
X93935092Y-72170211D01*
X93911364Y-72169151D01*
X93887853Y-72172532D01*
X93875587Y-72167553D01*
X93865292Y-72167094D01*
X93833874Y-72151015D01*
X93829776Y-72148115D01*
X93829542Y-72147881D01*
X93657566Y-72022934D01*
X93640802Y-72014392D01*
X93633473Y-72009206D01*
X93590119Y-71954413D01*
X93583271Y-71884880D01*
X93615102Y-71822682D01*
X93648804Y-71797500D01*
X93657566Y-71793036D01*
X93774184Y-71708309D01*
X93832615Y-71665857D01*
X93898421Y-71642377D01*
X93966475Y-71658203D01*
G37*
%TD.AperFunction*%
%TA.AperFunction,NonConductor*%
G36*
X93966475Y-74198203D02*
G01*
X94015170Y-74248309D01*
X94029500Y-74306175D01*
X94029500Y-74589794D01*
X94026169Y-74601136D01*
X94027328Y-74612899D01*
X94016506Y-74634043D01*
X94009815Y-74656833D01*
X94000883Y-74664572D01*
X93995497Y-74675097D01*
X93974959Y-74687035D01*
X93957011Y-74702588D01*
X93945311Y-74704270D01*
X93935092Y-74710211D01*
X93911364Y-74709151D01*
X93887853Y-74712532D01*
X93875587Y-74707553D01*
X93865292Y-74707094D01*
X93833874Y-74691015D01*
X93829776Y-74688115D01*
X93829542Y-74687881D01*
X93657566Y-74562934D01*
X93640802Y-74554392D01*
X93633473Y-74549206D01*
X93590119Y-74494413D01*
X93583271Y-74424880D01*
X93615102Y-74362682D01*
X93648804Y-74337500D01*
X93657566Y-74333036D01*
X93774184Y-74248309D01*
X93832615Y-74205857D01*
X93898421Y-74182377D01*
X93966475Y-74198203D01*
G37*
%TD.AperFunction*%
%TA.AperFunction,NonConductor*%
G36*
X56741948Y-68415628D02*
G01*
X56878165Y-68472051D01*
X56878169Y-68472051D01*
X56878170Y-68472052D01*
X57071456Y-68510500D01*
X57071459Y-68510500D01*
X57270500Y-68510500D01*
X57337539Y-68530185D01*
X57383294Y-68582989D01*
X57394500Y-68634500D01*
X57394500Y-75025500D01*
X57374815Y-75092539D01*
X57322011Y-75138294D01*
X57270500Y-75149500D01*
X57071457Y-75149500D01*
X56878170Y-75187947D01*
X56878160Y-75187950D01*
X56741952Y-75244369D01*
X56672483Y-75251838D01*
X56610004Y-75220562D01*
X56574352Y-75160473D01*
X56570500Y-75129808D01*
X56570500Y-68530191D01*
X56590185Y-68463152D01*
X56642989Y-68417397D01*
X56712147Y-68407453D01*
X56741948Y-68415628D01*
G37*
%TD.AperFunction*%
%TA.AperFunction,NonConductor*%
G36*
X93972539Y-52990185D02*
G01*
X94018294Y-53042989D01*
X94029500Y-53094500D01*
X94029500Y-61889794D01*
X94009815Y-61956833D01*
X93957011Y-62002588D01*
X93887853Y-62012532D01*
X93832615Y-61990113D01*
X93657565Y-61862933D01*
X93468164Y-61766429D01*
X93468163Y-61766428D01*
X93468162Y-61766428D01*
X93265993Y-61700739D01*
X93265991Y-61700738D01*
X93265990Y-61700738D01*
X93104707Y-61675193D01*
X93056037Y-61667485D01*
X92843463Y-61667485D01*
X92794792Y-61675193D01*
X92633510Y-61700738D01*
X92431335Y-61766429D01*
X92241929Y-61862936D01*
X92069963Y-61987875D01*
X91919640Y-62138198D01*
X91794701Y-62310164D01*
X91698194Y-62499570D01*
X91632503Y-62701745D01*
X91599250Y-62911698D01*
X91599250Y-63124271D01*
X91632334Y-63333158D01*
X91632504Y-63334228D01*
X91692669Y-63519397D01*
X91698194Y-63536399D01*
X91794701Y-63725805D01*
X91919640Y-63897771D01*
X92069963Y-64048094D01*
X92241932Y-64173035D01*
X92250696Y-64177501D01*
X92301492Y-64225476D01*
X92318286Y-64293297D01*
X92295748Y-64359432D01*
X92250696Y-64398469D01*
X92241932Y-64402934D01*
X92069963Y-64527875D01*
X91919640Y-64678198D01*
X91794701Y-64850164D01*
X91698194Y-65039570D01*
X91632503Y-65241745D01*
X91599250Y-65451698D01*
X91599250Y-65664272D01*
X91632504Y-65874228D01*
X91686204Y-66039500D01*
X91698194Y-66076399D01*
X91794701Y-66265805D01*
X91919640Y-66437771D01*
X92069963Y-66588094D01*
X92241932Y-66713035D01*
X92250696Y-66717501D01*
X92301492Y-66765476D01*
X92318286Y-66833297D01*
X92295748Y-66899432D01*
X92250696Y-66938469D01*
X92241932Y-66942934D01*
X92069963Y-67067875D01*
X91919640Y-67218198D01*
X91794701Y-67390164D01*
X91698194Y-67579570D01*
X91632503Y-67781745D01*
X91599250Y-67991698D01*
X91599250Y-68204271D01*
X91630721Y-68402974D01*
X91632504Y-68414228D01*
X91695533Y-68608211D01*
X91698194Y-68616399D01*
X91794701Y-68805805D01*
X91919640Y-68977771D01*
X92069963Y-69128094D01*
X92241932Y-69253035D01*
X92250696Y-69257501D01*
X92301492Y-69305476D01*
X92318286Y-69373297D01*
X92295748Y-69439432D01*
X92250696Y-69478469D01*
X92241932Y-69482934D01*
X92069963Y-69607875D01*
X91919640Y-69758198D01*
X91794701Y-69930164D01*
X91698194Y-70119570D01*
X91632503Y-70321745D01*
X91618656Y-70409172D01*
X91599250Y-70531698D01*
X91599250Y-70744272D01*
X91632504Y-70954228D01*
X91697226Y-71153422D01*
X91698194Y-71156399D01*
X91794701Y-71345805D01*
X91919640Y-71517771D01*
X92069963Y-71668094D01*
X92241932Y-71793035D01*
X92250696Y-71797501D01*
X92301492Y-71845476D01*
X92318286Y-71913297D01*
X92295748Y-71979432D01*
X92250696Y-72018469D01*
X92241932Y-72022934D01*
X92069963Y-72147875D01*
X91919640Y-72298198D01*
X91794701Y-72470164D01*
X91698194Y-72659570D01*
X91632503Y-72861745D01*
X91611637Y-72993489D01*
X91599250Y-73071698D01*
X91599250Y-73284272D01*
X91609284Y-73347629D01*
X91628570Y-73469394D01*
X91632504Y-73494228D01*
X91693032Y-73680514D01*
X91698194Y-73696399D01*
X91794701Y-73885805D01*
X91919640Y-74057771D01*
X92069963Y-74208094D01*
X92241932Y-74333035D01*
X92250696Y-74337501D01*
X92301492Y-74385476D01*
X92318286Y-74453297D01*
X92295748Y-74519432D01*
X92250696Y-74558469D01*
X92241932Y-74562934D01*
X92069963Y-74687875D01*
X91919640Y-74838198D01*
X91794701Y-75010164D01*
X91698194Y-75199570D01*
X91632503Y-75401745D01*
X91599250Y-75611698D01*
X91599250Y-75824271D01*
X91632503Y-76034224D01*
X91698194Y-76236399D01*
X91794701Y-76425805D01*
X91919640Y-76597771D01*
X92033180Y-76711311D01*
X92066665Y-76772634D01*
X92061681Y-76842326D01*
X92019809Y-76898259D01*
X91988833Y-76915174D01*
X91857419Y-76964188D01*
X91857414Y-76964191D01*
X91742205Y-77050437D01*
X91742202Y-77050440D01*
X91655956Y-77165649D01*
X91655952Y-77165656D01*
X91605658Y-77300502D01*
X91599251Y-77360101D01*
X91599250Y-77360120D01*
X91599250Y-79155855D01*
X91599251Y-79155861D01*
X91605658Y-79215468D01*
X91655952Y-79350313D01*
X91655956Y-79350320D01*
X91742202Y-79465529D01*
X91742205Y-79465532D01*
X91857414Y-79551778D01*
X91857421Y-79551782D01*
X91992267Y-79602076D01*
X91992266Y-79602076D01*
X91999194Y-79602820D01*
X92051877Y-79608485D01*
X93847622Y-79608484D01*
X93892246Y-79603687D01*
X93961006Y-79616094D01*
X94012143Y-79663705D01*
X94029500Y-79726977D01*
X94029500Y-82065500D01*
X94009815Y-82132539D01*
X93957011Y-82178294D01*
X93905500Y-82189500D01*
X56694500Y-82189500D01*
X56627461Y-82169815D01*
X56581706Y-82117011D01*
X56570500Y-82065500D01*
X56570500Y-79791586D01*
X58065408Y-79791586D01*
X58065408Y-79844268D01*
X58065408Y-80028414D01*
X58077177Y-80102716D01*
X58102457Y-80262327D01*
X58175638Y-80487560D01*
X58175639Y-80487563D01*
X58283158Y-80698578D01*
X58422362Y-80890176D01*
X58589824Y-81057638D01*
X58781422Y-81196842D01*
X58884918Y-81249576D01*
X58992436Y-81304360D01*
X58992439Y-81304361D01*
X59105055Y-81340951D01*
X59217674Y-81377543D01*
X59451586Y-81414592D01*
X59451587Y-81414592D01*
X59688413Y-81414592D01*
X59688414Y-81414592D01*
X59922326Y-81377543D01*
X60147563Y-81304360D01*
X60358578Y-81196842D01*
X60550176Y-81057638D01*
X60717638Y-80890176D01*
X60856842Y-80698578D01*
X60964360Y-80487563D01*
X61037543Y-80262326D01*
X61074592Y-80028414D01*
X61074592Y-79791586D01*
X61037543Y-79557674D01*
X61022569Y-79511587D01*
X72235408Y-79511587D01*
X72235408Y-79748412D01*
X72272457Y-79982327D01*
X72345638Y-80207560D01*
X72345639Y-80207563D01*
X72431085Y-80375258D01*
X72453158Y-80418578D01*
X72592362Y-80610176D01*
X72759824Y-80777638D01*
X72951422Y-80916842D01*
X73054918Y-80969576D01*
X73162436Y-81024360D01*
X73162439Y-81024361D01*
X73264848Y-81057635D01*
X73387674Y-81097543D01*
X73621586Y-81134592D01*
X73621587Y-81134592D01*
X73858413Y-81134592D01*
X73858414Y-81134592D01*
X74092326Y-81097543D01*
X74317563Y-81024360D01*
X74528578Y-80916842D01*
X74720176Y-80777638D01*
X74887638Y-80610176D01*
X75026842Y-80418578D01*
X75134360Y-80207563D01*
X75207543Y-79982326D01*
X75244592Y-79748414D01*
X75244592Y-79511586D01*
X75207543Y-79277674D01*
X75134360Y-79052437D01*
X75134360Y-79052436D01*
X75026841Y-78841421D01*
X74979600Y-78776399D01*
X74887638Y-78649824D01*
X74720176Y-78482362D01*
X74528578Y-78343158D01*
X74317563Y-78235639D01*
X74317560Y-78235638D01*
X74092327Y-78162457D01*
X73975370Y-78143932D01*
X73858414Y-78125408D01*
X73621586Y-78125408D01*
X73543615Y-78137757D01*
X73387672Y-78162457D01*
X73162439Y-78235638D01*
X73162436Y-78235639D01*
X72951421Y-78343158D01*
X72759821Y-78482364D01*
X72592364Y-78649821D01*
X72453158Y-78841421D01*
X72345639Y-79052436D01*
X72345638Y-79052439D01*
X72272457Y-79277672D01*
X72235408Y-79511587D01*
X61022569Y-79511587D01*
X61000850Y-79444742D01*
X60964361Y-79332439D01*
X60964360Y-79332436D01*
X60904761Y-79215468D01*
X60856842Y-79121422D01*
X60717638Y-78929824D01*
X60550176Y-78762362D01*
X60358578Y-78623158D01*
X60147563Y-78515639D01*
X60147560Y-78515638D01*
X59922327Y-78442457D01*
X59805370Y-78423932D01*
X59688414Y-78405408D01*
X59451586Y-78405408D01*
X59373615Y-78417757D01*
X59217672Y-78442457D01*
X58992439Y-78515638D01*
X58992436Y-78515639D01*
X58781421Y-78623158D01*
X58589821Y-78762364D01*
X58422364Y-78929821D01*
X58283158Y-79121421D01*
X58175639Y-79332436D01*
X58175638Y-79332439D01*
X58102457Y-79557672D01*
X58099676Y-79575231D01*
X58065408Y-79791586D01*
X56570500Y-79791586D01*
X56570500Y-77170191D01*
X56590185Y-77103152D01*
X56642989Y-77057397D01*
X56712147Y-77047453D01*
X56741948Y-77055628D01*
X56878165Y-77112051D01*
X56878169Y-77112051D01*
X56878170Y-77112052D01*
X57071456Y-77150500D01*
X57071459Y-77150500D01*
X58868543Y-77150500D01*
X58998582Y-77124632D01*
X59061835Y-77112051D01*
X59243914Y-77036632D01*
X59407782Y-76927139D01*
X59547139Y-76787782D01*
X59551934Y-76780606D01*
X59605547Y-76735803D01*
X59655034Y-76725500D01*
X61894966Y-76725500D01*
X61962005Y-76745185D01*
X61998066Y-76780606D01*
X62002861Y-76787783D01*
X62142214Y-76927136D01*
X62142218Y-76927139D01*
X62306079Y-77036628D01*
X62306092Y-77036635D01*
X62488160Y-77112049D01*
X62488165Y-77112051D01*
X62488169Y-77112051D01*
X62488170Y-77112052D01*
X62681456Y-77150500D01*
X62681459Y-77150500D01*
X63978543Y-77150500D01*
X64108582Y-77124632D01*
X64171835Y-77112051D01*
X64353914Y-77036632D01*
X64517782Y-76927139D01*
X64657139Y-76787782D01*
X64750161Y-76648563D01*
X64803771Y-76603760D01*
X64873096Y-76595053D01*
X64877439Y-76595836D01*
X64887196Y-76597777D01*
X64951156Y-76610500D01*
X64951158Y-76610500D01*
X65108844Y-76610500D01*
X65108845Y-76610499D01*
X65263497Y-76579737D01*
X65409179Y-76519394D01*
X65540289Y-76431789D01*
X65651789Y-76320289D01*
X65739394Y-76189179D01*
X65799737Y-76043497D01*
X65830500Y-75888842D01*
X65830500Y-75731158D01*
X65830500Y-75731155D01*
X65830499Y-75731153D01*
X65799737Y-75576503D01*
X65776082Y-75519394D01*
X65739397Y-75430827D01*
X65739390Y-75430814D01*
X65651789Y-75299711D01*
X65651786Y-75299707D01*
X65540292Y-75188213D01*
X65540288Y-75188210D01*
X65409185Y-75100609D01*
X65409172Y-75100602D01*
X65263501Y-75040264D01*
X65263489Y-75040261D01*
X65108845Y-75009500D01*
X65108842Y-75009500D01*
X64951158Y-75009500D01*
X64951155Y-75009500D01*
X64796510Y-75040261D01*
X64796498Y-75040264D01*
X64650827Y-75100602D01*
X64650814Y-75100609D01*
X64519714Y-75188208D01*
X64519708Y-75188212D01*
X64476590Y-75231330D01*
X64415267Y-75264814D01*
X64345575Y-75259828D01*
X64341459Y-75258208D01*
X64171839Y-75187950D01*
X64171829Y-75187947D01*
X63978543Y-75149500D01*
X63978541Y-75149500D01*
X62681459Y-75149500D01*
X62681457Y-75149500D01*
X62488170Y-75187947D01*
X62488160Y-75187950D01*
X62306092Y-75263364D01*
X62306079Y-75263371D01*
X62142218Y-75372860D01*
X62142214Y-75372863D01*
X62002861Y-75512216D01*
X61998066Y-75519394D01*
X61944453Y-75564197D01*
X61894966Y-75574500D01*
X59655034Y-75574500D01*
X59587995Y-75554815D01*
X59551934Y-75519394D01*
X59547138Y-75512216D01*
X59407785Y-75372863D01*
X59407781Y-75372860D01*
X59243920Y-75263371D01*
X59243907Y-75263364D01*
X59061839Y-75187950D01*
X59061829Y-75187947D01*
X58868543Y-75149500D01*
X58868541Y-75149500D01*
X58669500Y-75149500D01*
X58602461Y-75129815D01*
X58556706Y-75077011D01*
X58545500Y-75025500D01*
X58545500Y-72681153D01*
X67279500Y-72681153D01*
X67279500Y-72838846D01*
X67310261Y-72993489D01*
X67310264Y-72993501D01*
X67370602Y-73139172D01*
X67370609Y-73139185D01*
X67458210Y-73270288D01*
X67458213Y-73270292D01*
X67569707Y-73381786D01*
X67569711Y-73381789D01*
X67700814Y-73469390D01*
X67700827Y-73469397D01*
X67846498Y-73529735D01*
X67846503Y-73529737D01*
X68001153Y-73560499D01*
X68001156Y-73560500D01*
X68001158Y-73560500D01*
X68158844Y-73560500D01*
X68158845Y-73560499D01*
X68313497Y-73529737D01*
X68459179Y-73469394D01*
X68590289Y-73381789D01*
X68701789Y-73270289D01*
X68789394Y-73139179D01*
X68849737Y-72993497D01*
X68880500Y-72838842D01*
X68880500Y-72681158D01*
X68880500Y-72681155D01*
X68880499Y-72681153D01*
X68869845Y-72627591D01*
X68849737Y-72526503D01*
X68849735Y-72526498D01*
X68789397Y-72380827D01*
X68789390Y-72380814D01*
X68701789Y-72249711D01*
X68701786Y-72249707D01*
X68590292Y-72138213D01*
X68590288Y-72138210D01*
X68459185Y-72050609D01*
X68459172Y-72050602D01*
X68313501Y-71990264D01*
X68313489Y-71990261D01*
X68158845Y-71959500D01*
X68158842Y-71959500D01*
X68001158Y-71959500D01*
X68001155Y-71959500D01*
X67846510Y-71990261D01*
X67846498Y-71990264D01*
X67700827Y-72050602D01*
X67700814Y-72050609D01*
X67569711Y-72138210D01*
X67569707Y-72138213D01*
X67458213Y-72249707D01*
X67458210Y-72249711D01*
X67370609Y-72380814D01*
X67370602Y-72380827D01*
X67310264Y-72526498D01*
X67310261Y-72526510D01*
X67279500Y-72681153D01*
X58545500Y-72681153D01*
X58545500Y-68634500D01*
X58565185Y-68567461D01*
X58617989Y-68521706D01*
X58669500Y-68510500D01*
X58868543Y-68510500D01*
X58998582Y-68484632D01*
X59061835Y-68472051D01*
X59243914Y-68396632D01*
X59407782Y-68287139D01*
X59547139Y-68147782D01*
X59551934Y-68140606D01*
X59605547Y-68095803D01*
X59655034Y-68085500D01*
X61894966Y-68085500D01*
X61962005Y-68105185D01*
X61998066Y-68140606D01*
X62002861Y-68147783D01*
X62142214Y-68287136D01*
X62142218Y-68287139D01*
X62306079Y-68396628D01*
X62306092Y-68396635D01*
X62488160Y-68472049D01*
X62488165Y-68472051D01*
X62488169Y-68472051D01*
X62488170Y-68472052D01*
X62681456Y-68510500D01*
X62681459Y-68510500D01*
X63978543Y-68510500D01*
X64108582Y-68484632D01*
X64171835Y-68472051D01*
X64353914Y-68396632D01*
X64501610Y-68297944D01*
X64568286Y-68277067D01*
X64635666Y-68295551D01*
X64682357Y-68347530D01*
X64694500Y-68401047D01*
X64694500Y-71102059D01*
X64674815Y-71169098D01*
X64658181Y-71189740D01*
X64648213Y-71199707D01*
X64648210Y-71199711D01*
X64560609Y-71330814D01*
X64560602Y-71330827D01*
X64500264Y-71476498D01*
X64500261Y-71476510D01*
X64469500Y-71631153D01*
X64469500Y-71788846D01*
X64500261Y-71943489D01*
X64500264Y-71943501D01*
X64560602Y-72089172D01*
X64560609Y-72089185D01*
X64648210Y-72220288D01*
X64648213Y-72220292D01*
X64759707Y-72331786D01*
X64759711Y-72331789D01*
X64890814Y-72419390D01*
X64890827Y-72419397D01*
X65036498Y-72479735D01*
X65036503Y-72479737D01*
X65191153Y-72510499D01*
X65191156Y-72510500D01*
X65191158Y-72510500D01*
X65348844Y-72510500D01*
X65348845Y-72510499D01*
X65503497Y-72479737D01*
X65649179Y-72419394D01*
X65780289Y-72331789D01*
X65891789Y-72220289D01*
X65979394Y-72089179D01*
X66039737Y-71943497D01*
X66070500Y-71788842D01*
X66070500Y-71631158D01*
X66070500Y-71631155D01*
X66070499Y-71631153D01*
X66047947Y-71517777D01*
X66039737Y-71476503D01*
X65985599Y-71345801D01*
X65979397Y-71330827D01*
X65979390Y-71330814D01*
X65891789Y-71199711D01*
X65891786Y-71199707D01*
X65881819Y-71189740D01*
X65848334Y-71128417D01*
X65845500Y-71102059D01*
X65845500Y-70154500D01*
X65865185Y-70087461D01*
X65917989Y-70041706D01*
X65969500Y-70030500D01*
X66018844Y-70030500D01*
X66018845Y-70030499D01*
X66173497Y-69999737D01*
X66319179Y-69939394D01*
X66450289Y-69851789D01*
X66561789Y-69740289D01*
X66649394Y-69609179D01*
X66659587Y-69584572D01*
X66685862Y-69521136D01*
X66709737Y-69463497D01*
X66740500Y-69308842D01*
X66740500Y-69151158D01*
X66740500Y-69151155D01*
X66740499Y-69151153D01*
X66709738Y-68996510D01*
X66709737Y-68996503D01*
X66709735Y-68996498D01*
X66649397Y-68850827D01*
X66649390Y-68850814D01*
X66561789Y-68719711D01*
X66561786Y-68719707D01*
X66450292Y-68608213D01*
X66450288Y-68608210D01*
X66319185Y-68520609D01*
X66319172Y-68520602D01*
X66173501Y-68460264D01*
X66173489Y-68460261D01*
X66018845Y-68429500D01*
X66018842Y-68429500D01*
X65969500Y-68429500D01*
X65960814Y-68426949D01*
X65951853Y-68428238D01*
X65927812Y-68417259D01*
X65902461Y-68409815D01*
X65896533Y-68402974D01*
X65888297Y-68399213D01*
X65874007Y-68376978D01*
X65856706Y-68357011D01*
X65854418Y-68346496D01*
X65850523Y-68340435D01*
X65845500Y-68305500D01*
X65845500Y-68188394D01*
X65865185Y-68121355D01*
X65917989Y-68075600D01*
X65933484Y-68069742D01*
X65933495Y-68069737D01*
X65933497Y-68069737D01*
X66079179Y-68009394D01*
X66210289Y-67921789D01*
X66321789Y-67810289D01*
X66409394Y-67679179D01*
X66469737Y-67533497D01*
X66500500Y-67378842D01*
X66500500Y-67221158D01*
X66500500Y-67221155D01*
X66500499Y-67221153D01*
X66489655Y-67166637D01*
X66469737Y-67066503D01*
X66458335Y-67038975D01*
X66409397Y-66920827D01*
X66409390Y-66920814D01*
X66321789Y-66789711D01*
X66321786Y-66789707D01*
X66210292Y-66678213D01*
X66210288Y-66678210D01*
X66079185Y-66590609D01*
X66079172Y-66590602D01*
X65933501Y-66530264D01*
X65933489Y-66530261D01*
X65778845Y-66499500D01*
X65778842Y-66499500D01*
X65621158Y-66499500D01*
X65621155Y-66499500D01*
X65466510Y-66530261D01*
X65466498Y-66530264D01*
X65320827Y-66590602D01*
X65320814Y-66590609D01*
X65189711Y-66678210D01*
X65189707Y-66678213D01*
X65078213Y-66789707D01*
X65078210Y-66789711D01*
X64990609Y-66920814D01*
X64990604Y-66920824D01*
X64964199Y-66984572D01*
X64920358Y-67038975D01*
X64854063Y-67061040D01*
X64786364Y-67043761D01*
X64746536Y-67006010D01*
X64657139Y-66872217D01*
X64517785Y-66732863D01*
X64517781Y-66732860D01*
X64353920Y-66623371D01*
X64353907Y-66623364D01*
X64171839Y-66547950D01*
X64171829Y-66547947D01*
X63978543Y-66509500D01*
X63978541Y-66509500D01*
X62681459Y-66509500D01*
X62681457Y-66509500D01*
X62488170Y-66547947D01*
X62488160Y-66547950D01*
X62306092Y-66623364D01*
X62306079Y-66623371D01*
X62142218Y-66732860D01*
X62142214Y-66732863D01*
X62002861Y-66872216D01*
X61998066Y-66879394D01*
X61944453Y-66924197D01*
X61894966Y-66934500D01*
X59655034Y-66934500D01*
X59587995Y-66914815D01*
X59551934Y-66879394D01*
X59547138Y-66872216D01*
X59407785Y-66732863D01*
X59407781Y-66732860D01*
X59243920Y-66623371D01*
X59243907Y-66623364D01*
X59061839Y-66547950D01*
X59061829Y-66547947D01*
X58868543Y-66509500D01*
X58868541Y-66509500D01*
X57071459Y-66509500D01*
X57071457Y-66509500D01*
X56878170Y-66547947D01*
X56878160Y-66547950D01*
X56741952Y-66604369D01*
X56672483Y-66611838D01*
X56610004Y-66580562D01*
X56574352Y-66520473D01*
X56570500Y-66489808D01*
X56570500Y-64501587D01*
X68265408Y-64501587D01*
X68265408Y-64738412D01*
X68302457Y-64972327D01*
X68375638Y-65197560D01*
X68375639Y-65197563D01*
X68483158Y-65408578D01*
X68622362Y-65600176D01*
X68789824Y-65767638D01*
X68789827Y-65767640D01*
X68943761Y-65879480D01*
X68986427Y-65934810D01*
X68992406Y-66004423D01*
X68959800Y-66066218D01*
X68918329Y-66094359D01*
X68830823Y-66130604D01*
X68830814Y-66130609D01*
X68699711Y-66218210D01*
X68699707Y-66218213D01*
X68588213Y-66329707D01*
X68588210Y-66329711D01*
X68500609Y-66460814D01*
X68500602Y-66460827D01*
X68440264Y-66606498D01*
X68440261Y-66606510D01*
X68409500Y-66761153D01*
X68409500Y-66918846D01*
X68440261Y-67073489D01*
X68440264Y-67073501D01*
X68500602Y-67219172D01*
X68500609Y-67219185D01*
X68588210Y-67350288D01*
X68588213Y-67350292D01*
X68699707Y-67461786D01*
X68699711Y-67461789D01*
X68830814Y-67549390D01*
X68830827Y-67549397D01*
X68976498Y-67609735D01*
X68976503Y-67609737D01*
X69131153Y-67640499D01*
X69131156Y-67640500D01*
X69131158Y-67640500D01*
X69145259Y-67640500D01*
X69174699Y-67649144D01*
X69204686Y-67655668D01*
X69209701Y-67659422D01*
X69212298Y-67660185D01*
X69232940Y-67676819D01*
X69278181Y-67722060D01*
X69311666Y-67783383D01*
X69314500Y-67809741D01*
X69314500Y-73295765D01*
X69353719Y-73442136D01*
X69383793Y-73494224D01*
X69429485Y-73573365D01*
X69536635Y-73680515D01*
X69667865Y-73756281D01*
X69814234Y-73795500D01*
X70611729Y-73795500D01*
X70678768Y-73815185D01*
X70724523Y-73867989D01*
X70734467Y-73937147D01*
X70726290Y-73966953D01*
X70720263Y-73981502D01*
X70720261Y-73981510D01*
X70689500Y-74136153D01*
X70689500Y-74293846D01*
X70720261Y-74448489D01*
X70720264Y-74448501D01*
X70780602Y-74594172D01*
X70780609Y-74594185D01*
X70868210Y-74725288D01*
X70868213Y-74725292D01*
X70979707Y-74836786D01*
X70979711Y-74836789D01*
X71110814Y-74924390D01*
X71110827Y-74924397D01*
X71256498Y-74984735D01*
X71256503Y-74984737D01*
X71411153Y-75015499D01*
X71411156Y-75015500D01*
X71411158Y-75015500D01*
X71568844Y-75015500D01*
X71568845Y-75015499D01*
X71723497Y-74984737D01*
X71869179Y-74924394D01*
X72000289Y-74836789D01*
X72111789Y-74725289D01*
X72199394Y-74594179D01*
X72259737Y-74448497D01*
X72290500Y-74293842D01*
X72290500Y-74136158D01*
X72290500Y-74136155D01*
X72290499Y-74136153D01*
X72274908Y-74057771D01*
X72259737Y-73981503D01*
X72253709Y-73966952D01*
X72246241Y-73897483D01*
X72277516Y-73835004D01*
X72337605Y-73799352D01*
X72368271Y-73795500D01*
X76422701Y-73795500D01*
X76489740Y-73815185D01*
X76533185Y-73863204D01*
X76543484Y-73883417D01*
X76544701Y-73885805D01*
X76669640Y-74057771D01*
X76819963Y-74208094D01*
X76991932Y-74333035D01*
X77000696Y-74337501D01*
X77051492Y-74385476D01*
X77068286Y-74453297D01*
X77045748Y-74519432D01*
X77000696Y-74558469D01*
X76991932Y-74562934D01*
X76819963Y-74687875D01*
X76669640Y-74838198D01*
X76544701Y-75010164D01*
X76448194Y-75199570D01*
X76382503Y-75401745D01*
X76349250Y-75611698D01*
X76349250Y-75824271D01*
X76382503Y-76034224D01*
X76448194Y-76236399D01*
X76544701Y-76425805D01*
X76669640Y-76597771D01*
X76819963Y-76748094D01*
X76991932Y-76873035D01*
X77000696Y-76877501D01*
X77051492Y-76925476D01*
X77068286Y-76993297D01*
X77045748Y-77059432D01*
X77000696Y-77098469D01*
X76991932Y-77102934D01*
X76819963Y-77227875D01*
X76669640Y-77378198D01*
X76544701Y-77550164D01*
X76448194Y-77739570D01*
X76382503Y-77941745D01*
X76349250Y-78151698D01*
X76349250Y-78364271D01*
X76373224Y-78515640D01*
X76382504Y-78574228D01*
X76443633Y-78762364D01*
X76448194Y-78776399D01*
X76544701Y-78965805D01*
X76669640Y-79137771D01*
X76819963Y-79288094D01*
X76991929Y-79413033D01*
X76991931Y-79413034D01*
X76991934Y-79413036D01*
X77181338Y-79509542D01*
X77383507Y-79575231D01*
X77593463Y-79608485D01*
X77593464Y-79608485D01*
X77806036Y-79608485D01*
X77806037Y-79608485D01*
X78015993Y-79575231D01*
X78218162Y-79509542D01*
X78407566Y-79413036D01*
X78493888Y-79350320D01*
X78579536Y-79288094D01*
X78579538Y-79288091D01*
X78579542Y-79288089D01*
X78729854Y-79137777D01*
X78729856Y-79137773D01*
X78729859Y-79137771D01*
X78854798Y-78965805D01*
X78854797Y-78965805D01*
X78854801Y-78965801D01*
X78951307Y-78776397D01*
X79016996Y-78574228D01*
X79050250Y-78364272D01*
X79050250Y-78151698D01*
X79016996Y-77941742D01*
X78951307Y-77739573D01*
X78854801Y-77550169D01*
X78854799Y-77550166D01*
X78854798Y-77550164D01*
X78729859Y-77378198D01*
X78579536Y-77227875D01*
X78407570Y-77102936D01*
X78406865Y-77102576D01*
X78398804Y-77098470D01*
X78348009Y-77050497D01*
X78331213Y-76982677D01*
X78353749Y-76916541D01*
X78398804Y-76877500D01*
X78407566Y-76873036D01*
X78449835Y-76842326D01*
X78579536Y-76748094D01*
X78579538Y-76748091D01*
X78579542Y-76748089D01*
X78729854Y-76597777D01*
X78729856Y-76597773D01*
X78729859Y-76597771D01*
X78854798Y-76425805D01*
X78854797Y-76425805D01*
X78854801Y-76425801D01*
X78951307Y-76236397D01*
X79016996Y-76034228D01*
X79050250Y-75824272D01*
X79050250Y-75611698D01*
X79016996Y-75401742D01*
X78951307Y-75199573D01*
X78854801Y-75010169D01*
X78854799Y-75010166D01*
X78854798Y-75010164D01*
X78729859Y-74838198D01*
X78579536Y-74687875D01*
X78407570Y-74562936D01*
X78406865Y-74562576D01*
X78398804Y-74558470D01*
X78348009Y-74510497D01*
X78331213Y-74442677D01*
X78353749Y-74376541D01*
X78398804Y-74337500D01*
X78407566Y-74333036D01*
X78524184Y-74248309D01*
X78579536Y-74208094D01*
X78579538Y-74208091D01*
X78579542Y-74208089D01*
X78729854Y-74057777D01*
X78729856Y-74057773D01*
X78729859Y-74057771D01*
X78854798Y-73885805D01*
X78854797Y-73885805D01*
X78854801Y-73885801D01*
X78951307Y-73696397D01*
X79016996Y-73494228D01*
X79050250Y-73284272D01*
X79050250Y-73071698D01*
X79016996Y-72861742D01*
X78951307Y-72659573D01*
X78854801Y-72470169D01*
X78854799Y-72470166D01*
X78854798Y-72470164D01*
X78729859Y-72298198D01*
X78579536Y-72147875D01*
X78407570Y-72022936D01*
X78406865Y-72022576D01*
X78398804Y-72018470D01*
X78348009Y-71970497D01*
X78331213Y-71902677D01*
X78353749Y-71836541D01*
X78398804Y-71797500D01*
X78407566Y-71793036D01*
X78524184Y-71708309D01*
X78579536Y-71668094D01*
X78579538Y-71668091D01*
X78579542Y-71668089D01*
X78729854Y-71517777D01*
X78729856Y-71517773D01*
X78729859Y-71517771D01*
X78854798Y-71345805D01*
X78854797Y-71345805D01*
X78854801Y-71345801D01*
X78951307Y-71156397D01*
X79016996Y-70954228D01*
X79050250Y-70744272D01*
X79050250Y-70531698D01*
X79016996Y-70321742D01*
X78951307Y-70119573D01*
X78854801Y-69930169D01*
X78854799Y-69930166D01*
X78854798Y-69930164D01*
X78729859Y-69758198D01*
X78579536Y-69607875D01*
X78407570Y-69482936D01*
X78406865Y-69482576D01*
X78398804Y-69478470D01*
X78348009Y-69430497D01*
X78331213Y-69362677D01*
X78353749Y-69296541D01*
X78398804Y-69257500D01*
X78407566Y-69253036D01*
X78524184Y-69168309D01*
X78579536Y-69128094D01*
X78579538Y-69128091D01*
X78579542Y-69128089D01*
X78729854Y-68977777D01*
X78729856Y-68977773D01*
X78729859Y-68977771D01*
X78854798Y-68805805D01*
X78854797Y-68805805D01*
X78854801Y-68805801D01*
X78951307Y-68616397D01*
X79016996Y-68414228D01*
X79050250Y-68204272D01*
X79050250Y-67991698D01*
X79050250Y-67991697D01*
X79033662Y-67886963D01*
X79031554Y-67873653D01*
X83919500Y-67873653D01*
X83919500Y-68031346D01*
X83950261Y-68185989D01*
X83950264Y-68186001D01*
X84010602Y-68331672D01*
X84010609Y-68331685D01*
X84098210Y-68462788D01*
X84098213Y-68462792D01*
X84209707Y-68574286D01*
X84209711Y-68574289D01*
X84340814Y-68661890D01*
X84340827Y-68661897D01*
X84486498Y-68722235D01*
X84486503Y-68722237D01*
X84641153Y-68752999D01*
X84641156Y-68753000D01*
X84641158Y-68753000D01*
X84798844Y-68753000D01*
X84798845Y-68752999D01*
X84953497Y-68722237D01*
X85099179Y-68661894D01*
X85230289Y-68574289D01*
X85341789Y-68462789D01*
X85429394Y-68331679D01*
X85489737Y-68185997D01*
X85520500Y-68031342D01*
X85520500Y-67873658D01*
X85520500Y-67873655D01*
X85520499Y-67873653D01*
X85489737Y-67719003D01*
X85473244Y-67679185D01*
X85429397Y-67573327D01*
X85429390Y-67573314D01*
X85341789Y-67442211D01*
X85341786Y-67442207D01*
X85230292Y-67330713D01*
X85230288Y-67330710D01*
X85099185Y-67243109D01*
X85099172Y-67243102D01*
X84953501Y-67182764D01*
X84953489Y-67182761D01*
X84798845Y-67152000D01*
X84798842Y-67152000D01*
X84641158Y-67152000D01*
X84641155Y-67152000D01*
X84486510Y-67182761D01*
X84486498Y-67182764D01*
X84340827Y-67243102D01*
X84340814Y-67243109D01*
X84209711Y-67330710D01*
X84209707Y-67330713D01*
X84098213Y-67442207D01*
X84098210Y-67442211D01*
X84010609Y-67573314D01*
X84010602Y-67573327D01*
X83950264Y-67718998D01*
X83950261Y-67719010D01*
X83919500Y-67873653D01*
X79031554Y-67873653D01*
X79021517Y-67810288D01*
X79016996Y-67781742D01*
X78951307Y-67579573D01*
X78854801Y-67390169D01*
X78854799Y-67390166D01*
X78854798Y-67390164D01*
X78729859Y-67218198D01*
X78579536Y-67067875D01*
X78407570Y-66942936D01*
X78406865Y-66942576D01*
X78398804Y-66938470D01*
X78348009Y-66890497D01*
X78331213Y-66822677D01*
X78353749Y-66756541D01*
X78398804Y-66717500D01*
X78407566Y-66713036D01*
X78524184Y-66628309D01*
X78579536Y-66588094D01*
X78579538Y-66588091D01*
X78579542Y-66588089D01*
X78729854Y-66437777D01*
X78729856Y-66437773D01*
X78729859Y-66437771D01*
X78854798Y-66265805D01*
X78854797Y-66265805D01*
X78854801Y-66265801D01*
X78951307Y-66076397D01*
X79016996Y-65874228D01*
X79050250Y-65664272D01*
X79050250Y-65451698D01*
X79016996Y-65241742D01*
X78951307Y-65039573D01*
X78854801Y-64850169D01*
X78854799Y-64850166D01*
X78854798Y-64850164D01*
X78729859Y-64678198D01*
X78579536Y-64527875D01*
X78407570Y-64402936D01*
X78406865Y-64402576D01*
X78398804Y-64398470D01*
X78348009Y-64350497D01*
X78331213Y-64282677D01*
X78353749Y-64216541D01*
X78398804Y-64177500D01*
X78407566Y-64173036D01*
X78444537Y-64146175D01*
X78579536Y-64048094D01*
X78579538Y-64048091D01*
X78579542Y-64048089D01*
X78729854Y-63897777D01*
X78729856Y-63897773D01*
X78729859Y-63897771D01*
X78854798Y-63725805D01*
X78854797Y-63725805D01*
X78854801Y-63725801D01*
X78951307Y-63536397D01*
X79016996Y-63334228D01*
X79050250Y-63124272D01*
X79050250Y-62911698D01*
X79016996Y-62701742D01*
X78951307Y-62499573D01*
X78854801Y-62310169D01*
X78854799Y-62310166D01*
X78854798Y-62310164D01*
X78729859Y-62138198D01*
X78579536Y-61987875D01*
X78407570Y-61862936D01*
X78218164Y-61766429D01*
X78218163Y-61766428D01*
X78218162Y-61766428D01*
X78015993Y-61700739D01*
X78015991Y-61700738D01*
X78015990Y-61700738D01*
X77854707Y-61675193D01*
X77806037Y-61667485D01*
X77593463Y-61667485D01*
X77544792Y-61675193D01*
X77383510Y-61700738D01*
X77181335Y-61766429D01*
X76991929Y-61862936D01*
X76819963Y-61987875D01*
X76669640Y-62138198D01*
X76544701Y-62310164D01*
X76448194Y-62499570D01*
X76382503Y-62701745D01*
X76349250Y-62911698D01*
X76349250Y-63124271D01*
X76382334Y-63333158D01*
X76382504Y-63334228D01*
X76442669Y-63519397D01*
X76448194Y-63536399D01*
X76544701Y-63725805D01*
X76669640Y-63897771D01*
X76819963Y-64048094D01*
X76991932Y-64173035D01*
X77000696Y-64177501D01*
X77051492Y-64225476D01*
X77068286Y-64293297D01*
X77045748Y-64359432D01*
X77000696Y-64398469D01*
X76991932Y-64402934D01*
X76819963Y-64527875D01*
X76669640Y-64678198D01*
X76544701Y-64850164D01*
X76448194Y-65039570D01*
X76382503Y-65241745D01*
X76349250Y-65451698D01*
X76349250Y-65664272D01*
X76382504Y-65874228D01*
X76436204Y-66039500D01*
X76448194Y-66076399D01*
X76544701Y-66265805D01*
X76669640Y-66437771D01*
X76819963Y-66588094D01*
X76991932Y-66713035D01*
X77000696Y-66717501D01*
X77051492Y-66765476D01*
X77068286Y-66833297D01*
X77045748Y-66899432D01*
X77000696Y-66938469D01*
X76991932Y-66942934D01*
X76819963Y-67067875D01*
X76669640Y-67218198D01*
X76544701Y-67390164D01*
X76448194Y-67579570D01*
X76382503Y-67781745D01*
X76349250Y-67991698D01*
X76349250Y-68204271D01*
X76380721Y-68402974D01*
X76382504Y-68414228D01*
X76445533Y-68608211D01*
X76448194Y-68616399D01*
X76544701Y-68805805D01*
X76669640Y-68977771D01*
X76819963Y-69128094D01*
X76991932Y-69253035D01*
X77000696Y-69257501D01*
X77051492Y-69305476D01*
X77068286Y-69373297D01*
X77045748Y-69439432D01*
X77000696Y-69478469D01*
X76991932Y-69482934D01*
X76819963Y-69607875D01*
X76669640Y-69758198D01*
X76544701Y-69930164D01*
X76448194Y-70119570D01*
X76382503Y-70321745D01*
X76368656Y-70409172D01*
X76349250Y-70531698D01*
X76349250Y-70744272D01*
X76382504Y-70954228D01*
X76447226Y-71153422D01*
X76448194Y-71156399D01*
X76544701Y-71345805D01*
X76669640Y-71517771D01*
X76819963Y-71668094D01*
X76991932Y-71793035D01*
X77000696Y-71797501D01*
X77051492Y-71845476D01*
X77068286Y-71913297D01*
X77045748Y-71979432D01*
X77000696Y-72018469D01*
X76991932Y-72022934D01*
X76819963Y-72147875D01*
X76669640Y-72298198D01*
X76544701Y-72470165D01*
X76490370Y-72576795D01*
X76442395Y-72627591D01*
X76379885Y-72644500D01*
X70589500Y-72644500D01*
X70522461Y-72624815D01*
X70476706Y-72572011D01*
X70465500Y-72520500D01*
X70465500Y-69951153D01*
X73774500Y-69951153D01*
X73774500Y-70108846D01*
X73805261Y-70263489D01*
X73805264Y-70263501D01*
X73865602Y-70409172D01*
X73865609Y-70409185D01*
X73953210Y-70540288D01*
X73953213Y-70540292D01*
X74064707Y-70651786D01*
X74064711Y-70651789D01*
X74195814Y-70739390D01*
X74195827Y-70739397D01*
X74341498Y-70799735D01*
X74341503Y-70799737D01*
X74496153Y-70830499D01*
X74496156Y-70830500D01*
X74496158Y-70830500D01*
X74653844Y-70830500D01*
X74653845Y-70830499D01*
X74808497Y-70799737D01*
X74921166Y-70753067D01*
X74954172Y-70739397D01*
X74954172Y-70739396D01*
X74954179Y-70739394D01*
X75085289Y-70651789D01*
X75196789Y-70540289D01*
X75284394Y-70409179D01*
X75344737Y-70263497D01*
X75375500Y-70108842D01*
X75375500Y-69951158D01*
X75375500Y-69951155D01*
X75375499Y-69951153D01*
X75355734Y-69851789D01*
X75344737Y-69796503D01*
X75321452Y-69740288D01*
X75284397Y-69650827D01*
X75284390Y-69650814D01*
X75196789Y-69519711D01*
X75196786Y-69519707D01*
X75085292Y-69408213D01*
X75085288Y-69408210D01*
X74954185Y-69320609D01*
X74954172Y-69320602D01*
X74808501Y-69260264D01*
X74808489Y-69260261D01*
X74653845Y-69229500D01*
X74653842Y-69229500D01*
X74496158Y-69229500D01*
X74496155Y-69229500D01*
X74341510Y-69260261D01*
X74341498Y-69260264D01*
X74195827Y-69320602D01*
X74195814Y-69320609D01*
X74064711Y-69408210D01*
X74064707Y-69408213D01*
X73953213Y-69519707D01*
X73953210Y-69519711D01*
X73865609Y-69650814D01*
X73865602Y-69650827D01*
X73805264Y-69796498D01*
X73805261Y-69796510D01*
X73774500Y-69951153D01*
X70465500Y-69951153D01*
X70465500Y-67444234D01*
X70461996Y-67431159D01*
X70461995Y-67431155D01*
X70426281Y-67297865D01*
X70420507Y-67287865D01*
X70419788Y-67286620D01*
X70350517Y-67166638D01*
X70350516Y-67166637D01*
X70350515Y-67166635D01*
X70243365Y-67059485D01*
X70243364Y-67059484D01*
X70239034Y-67055154D01*
X70239034Y-67055153D01*
X70239024Y-67055144D01*
X70046819Y-66862939D01*
X70029462Y-66831153D01*
X73739500Y-66831153D01*
X73739500Y-66988846D01*
X73770261Y-67143489D01*
X73770264Y-67143501D01*
X73830602Y-67289172D01*
X73830609Y-67289185D01*
X73918210Y-67420288D01*
X73918213Y-67420292D01*
X74029707Y-67531786D01*
X74029711Y-67531789D01*
X74160814Y-67619390D01*
X74160827Y-67619397D01*
X74299458Y-67676819D01*
X74306503Y-67679737D01*
X74461153Y-67710499D01*
X74461156Y-67710500D01*
X74461158Y-67710500D01*
X74618844Y-67710500D01*
X74618845Y-67710499D01*
X74773497Y-67679737D01*
X74919179Y-67619394D01*
X75050289Y-67531789D01*
X75161789Y-67420289D01*
X75249394Y-67289179D01*
X75309737Y-67143497D01*
X75340500Y-66988842D01*
X75340500Y-66831158D01*
X75340500Y-66831155D01*
X75340499Y-66831153D01*
X75326575Y-66761153D01*
X75309737Y-66676503D01*
X75287728Y-66623368D01*
X75249397Y-66530827D01*
X75249390Y-66530814D01*
X75161789Y-66399711D01*
X75161786Y-66399707D01*
X75050292Y-66288213D01*
X75050288Y-66288210D01*
X74919185Y-66200609D01*
X74919172Y-66200602D01*
X74773501Y-66140264D01*
X74773489Y-66140261D01*
X74618845Y-66109500D01*
X74618842Y-66109500D01*
X74461158Y-66109500D01*
X74461155Y-66109500D01*
X74306510Y-66140261D01*
X74306498Y-66140264D01*
X74160827Y-66200602D01*
X74160814Y-66200609D01*
X74029711Y-66288210D01*
X74029707Y-66288213D01*
X73918213Y-66399707D01*
X73918210Y-66399711D01*
X73830609Y-66530814D01*
X73830602Y-66530827D01*
X73770264Y-66676498D01*
X73770261Y-66676510D01*
X73739500Y-66831153D01*
X70029462Y-66831153D01*
X70013334Y-66801616D01*
X70010500Y-66775258D01*
X70010500Y-66761155D01*
X70010499Y-66761153D01*
X69994001Y-66678213D01*
X69979737Y-66606503D01*
X69955484Y-66547950D01*
X69919397Y-66460827D01*
X69919390Y-66460814D01*
X69831789Y-66329711D01*
X69827924Y-66325001D01*
X69829680Y-66323559D01*
X69801057Y-66271140D01*
X69806041Y-66201448D01*
X69847913Y-66145515D01*
X69902823Y-66122309D01*
X70122326Y-66087543D01*
X70347563Y-66014360D01*
X70558578Y-65906842D01*
X70750176Y-65767638D01*
X70917638Y-65600176D01*
X71056842Y-65408578D01*
X71164360Y-65197563D01*
X71237543Y-64972326D01*
X71274592Y-64738414D01*
X71274592Y-64501586D01*
X71237543Y-64267674D01*
X71166198Y-64048094D01*
X71164361Y-64042439D01*
X71164360Y-64042436D01*
X71090652Y-63897777D01*
X71056842Y-63831422D01*
X70917638Y-63639824D01*
X70750176Y-63472362D01*
X70558578Y-63333158D01*
X70533327Y-63320292D01*
X70347563Y-63225639D01*
X70347560Y-63225638D01*
X70122327Y-63152457D01*
X70005370Y-63133932D01*
X69888414Y-63115408D01*
X69651586Y-63115408D01*
X69573615Y-63127757D01*
X69417672Y-63152457D01*
X69192439Y-63225638D01*
X69192436Y-63225639D01*
X68981421Y-63333158D01*
X68789821Y-63472364D01*
X68622364Y-63639821D01*
X68483158Y-63831421D01*
X68375639Y-64042436D01*
X68375638Y-64042439D01*
X68302457Y-64267672D01*
X68283208Y-64389206D01*
X68269771Y-64474043D01*
X68265408Y-64501587D01*
X56570500Y-64501587D01*
X56570500Y-63386153D01*
X59259500Y-63386153D01*
X59259500Y-63543846D01*
X59290261Y-63698489D01*
X59290264Y-63698501D01*
X59350602Y-63844172D01*
X59350609Y-63844185D01*
X59438210Y-63975288D01*
X59438213Y-63975292D01*
X59549707Y-64086786D01*
X59549711Y-64086789D01*
X59680814Y-64174390D01*
X59680827Y-64174397D01*
X59826498Y-64234735D01*
X59826503Y-64234737D01*
X59978041Y-64264880D01*
X59981153Y-64265499D01*
X59981156Y-64265500D01*
X59981158Y-64265500D01*
X60138844Y-64265500D01*
X60138845Y-64265499D01*
X60293497Y-64234737D01*
X60439179Y-64174394D01*
X60570289Y-64086789D01*
X60681789Y-63975289D01*
X60769394Y-63844179D01*
X60774679Y-63831421D01*
X60788036Y-63799172D01*
X60829737Y-63698497D01*
X60860500Y-63543842D01*
X60860500Y-63386158D01*
X60855149Y-63359256D01*
X60855149Y-63359253D01*
X60851549Y-63341153D01*
X61469500Y-63341153D01*
X61469500Y-63498846D01*
X61500261Y-63653489D01*
X61500264Y-63653501D01*
X61560602Y-63799172D01*
X61560609Y-63799185D01*
X61648210Y-63930288D01*
X61648213Y-63930292D01*
X61759707Y-64041786D01*
X61759711Y-64041789D01*
X61890814Y-64129390D01*
X61890827Y-64129397D01*
X62006962Y-64177501D01*
X62036503Y-64189737D01*
X62171255Y-64216541D01*
X62191153Y-64220499D01*
X62191156Y-64220500D01*
X62191158Y-64220500D01*
X62348844Y-64220500D01*
X62348845Y-64220499D01*
X62503497Y-64189737D01*
X62649179Y-64129394D01*
X62780289Y-64041789D01*
X62891789Y-63930289D01*
X62979394Y-63799179D01*
X63039737Y-63653497D01*
X63070500Y-63498842D01*
X63070500Y-63341158D01*
X63070500Y-63341155D01*
X63070499Y-63341153D01*
X63066349Y-63320288D01*
X63039737Y-63186503D01*
X63025635Y-63152457D01*
X62979397Y-63040827D01*
X62979390Y-63040814D01*
X62891789Y-62909711D01*
X62891786Y-62909707D01*
X62780292Y-62798213D01*
X62780288Y-62798210D01*
X62649185Y-62710609D01*
X62649172Y-62710602D01*
X62503501Y-62650264D01*
X62503489Y-62650261D01*
X62348845Y-62619500D01*
X62348842Y-62619500D01*
X62191158Y-62619500D01*
X62191155Y-62619500D01*
X62036510Y-62650261D01*
X62036498Y-62650264D01*
X61890827Y-62710602D01*
X61890814Y-62710609D01*
X61759711Y-62798210D01*
X61759707Y-62798213D01*
X61648213Y-62909707D01*
X61648210Y-62909711D01*
X61560609Y-63040814D01*
X61560602Y-63040827D01*
X61500264Y-63186498D01*
X61500261Y-63186510D01*
X61469500Y-63341153D01*
X60851549Y-63341153D01*
X60829738Y-63231508D01*
X60829737Y-63231507D01*
X60829737Y-63231503D01*
X60829735Y-63231498D01*
X60769397Y-63085827D01*
X60769390Y-63085814D01*
X60681789Y-62954711D01*
X60681786Y-62954707D01*
X60570292Y-62843213D01*
X60570288Y-62843210D01*
X60439185Y-62755609D01*
X60439172Y-62755602D01*
X60293501Y-62695264D01*
X60293489Y-62695261D01*
X60138845Y-62664500D01*
X60138842Y-62664500D01*
X59981158Y-62664500D01*
X59981155Y-62664500D01*
X59826510Y-62695261D01*
X59826498Y-62695264D01*
X59680827Y-62755602D01*
X59680814Y-62755609D01*
X59549711Y-62843210D01*
X59549707Y-62843213D01*
X59438213Y-62954707D01*
X59438210Y-62954711D01*
X59350609Y-63085814D01*
X59350602Y-63085827D01*
X59290264Y-63231498D01*
X59290261Y-63231510D01*
X59259500Y-63386153D01*
X56570500Y-63386153D01*
X56570500Y-59651153D01*
X65629500Y-59651153D01*
X65629500Y-59808846D01*
X65660261Y-59963489D01*
X65660264Y-59963501D01*
X65720602Y-60109172D01*
X65720609Y-60109185D01*
X65808210Y-60240288D01*
X65808213Y-60240292D01*
X65919707Y-60351786D01*
X65919711Y-60351789D01*
X66050814Y-60439390D01*
X66050827Y-60439397D01*
X66126181Y-60470609D01*
X66196503Y-60499737D01*
X66351153Y-60530499D01*
X66351156Y-60530500D01*
X66351158Y-60530500D01*
X66508844Y-60530500D01*
X66508845Y-60530499D01*
X66663497Y-60499737D01*
X66809179Y-60439394D01*
X66940289Y-60351789D01*
X66980925Y-60311153D01*
X68019500Y-60311153D01*
X68019500Y-60468846D01*
X68050261Y-60623489D01*
X68050264Y-60623501D01*
X68110602Y-60769172D01*
X68110609Y-60769185D01*
X68198210Y-60900288D01*
X68198213Y-60900292D01*
X68309707Y-61011786D01*
X68309711Y-61011789D01*
X68440814Y-61099390D01*
X68440827Y-61099397D01*
X68586498Y-61159735D01*
X68586503Y-61159737D01*
X68741153Y-61190499D01*
X68741156Y-61190500D01*
X68741158Y-61190500D01*
X68898844Y-61190500D01*
X68898845Y-61190499D01*
X69053497Y-61159737D01*
X69166166Y-61113067D01*
X69199172Y-61099397D01*
X69199172Y-61099396D01*
X69199179Y-61099394D01*
X69330289Y-61011789D01*
X69330292Y-61011786D01*
X69340260Y-61001819D01*
X69401583Y-60968334D01*
X69427941Y-60965500D01*
X81180258Y-60965500D01*
X81209698Y-60974144D01*
X81239685Y-60980668D01*
X81244700Y-60984422D01*
X81247297Y-60985185D01*
X81267939Y-61001819D01*
X81423181Y-61157061D01*
X81456666Y-61218384D01*
X81459500Y-61244742D01*
X81459500Y-61258846D01*
X81490261Y-61413489D01*
X81490264Y-61413501D01*
X81550602Y-61559172D01*
X81550609Y-61559185D01*
X81638210Y-61690288D01*
X81638213Y-61690292D01*
X81749707Y-61801786D01*
X81749711Y-61801789D01*
X81880814Y-61889390D01*
X81880827Y-61889397D01*
X82026498Y-61949735D01*
X82026503Y-61949737D01*
X82154669Y-61975231D01*
X82181153Y-61980499D01*
X82181156Y-61980500D01*
X82181158Y-61980500D01*
X82338843Y-61980500D01*
X82354620Y-61977361D01*
X82413355Y-61965678D01*
X82482945Y-61971905D01*
X82538123Y-62014767D01*
X82561368Y-62080656D01*
X82545301Y-62148653D01*
X82513325Y-62183014D01*
X82514419Y-62184347D01*
X82509707Y-62188213D01*
X82398213Y-62299707D01*
X82398210Y-62299711D01*
X82310609Y-62430814D01*
X82310602Y-62430827D01*
X82250264Y-62576498D01*
X82250261Y-62576510D01*
X82219500Y-62731153D01*
X82219500Y-62888846D01*
X82250261Y-63043489D01*
X82250264Y-63043501D01*
X82310602Y-63189172D01*
X82310609Y-63189185D01*
X82398210Y-63320288D01*
X82398213Y-63320292D01*
X82509707Y-63431786D01*
X82509711Y-63431789D01*
X82640814Y-63519390D01*
X82640827Y-63519397D01*
X82786498Y-63579735D01*
X82786503Y-63579737D01*
X82941153Y-63610499D01*
X82941156Y-63610500D01*
X82941158Y-63610500D01*
X83098844Y-63610500D01*
X83098845Y-63610499D01*
X83253497Y-63579737D01*
X83399179Y-63519394D01*
X83530289Y-63431789D01*
X83641789Y-63320289D01*
X83729394Y-63189179D01*
X83730503Y-63186503D01*
X83756279Y-63124272D01*
X83789737Y-63043497D01*
X83820500Y-62888842D01*
X83820500Y-62731158D01*
X83820500Y-62731155D01*
X83820499Y-62731153D01*
X83789737Y-62576503D01*
X83757871Y-62499570D01*
X83729397Y-62430827D01*
X83729390Y-62430814D01*
X83641789Y-62299711D01*
X83641786Y-62299707D01*
X83530292Y-62188213D01*
X83530288Y-62188210D01*
X83399185Y-62100609D01*
X83399172Y-62100602D01*
X83253501Y-62040264D01*
X83253489Y-62040261D01*
X83098845Y-62009500D01*
X83098842Y-62009500D01*
X82941158Y-62009500D01*
X82941153Y-62009500D01*
X82866644Y-62024321D01*
X82797053Y-62018094D01*
X82741875Y-61975231D01*
X82718631Y-61909341D01*
X82734699Y-61841344D01*
X82766682Y-61806995D01*
X82765581Y-61805653D01*
X82770285Y-61801791D01*
X82770289Y-61801789D01*
X82881789Y-61690289D01*
X82969394Y-61559179D01*
X83029737Y-61413497D01*
X83060500Y-61258842D01*
X83060500Y-61101158D01*
X83060500Y-61101155D01*
X83060499Y-61101153D01*
X83042723Y-61011789D01*
X83029737Y-60946503D01*
X83010594Y-60900288D01*
X82969397Y-60800827D01*
X82969390Y-60800814D01*
X82881789Y-60669711D01*
X82881786Y-60669707D01*
X82770292Y-60558213D01*
X82770288Y-60558210D01*
X82639185Y-60470609D01*
X82639172Y-60470602D01*
X82493501Y-60410264D01*
X82493489Y-60410261D01*
X82338845Y-60379500D01*
X82338842Y-60379500D01*
X82324742Y-60379500D01*
X82257703Y-60359815D01*
X82237061Y-60343181D01*
X81823367Y-59929487D01*
X81823365Y-59929485D01*
X81757750Y-59891602D01*
X81692136Y-59853719D01*
X81618950Y-59834109D01*
X81545766Y-59814500D01*
X81545765Y-59814500D01*
X69427941Y-59814500D01*
X69360902Y-59794815D01*
X69340260Y-59778181D01*
X69330292Y-59768213D01*
X69330288Y-59768210D01*
X69199185Y-59680609D01*
X69199172Y-59680602D01*
X69053501Y-59620264D01*
X69053489Y-59620261D01*
X68898845Y-59589500D01*
X68898842Y-59589500D01*
X68741158Y-59589500D01*
X68741155Y-59589500D01*
X68586510Y-59620261D01*
X68586498Y-59620264D01*
X68440827Y-59680602D01*
X68440814Y-59680609D01*
X68309711Y-59768210D01*
X68309707Y-59768213D01*
X68198213Y-59879707D01*
X68198210Y-59879711D01*
X68110609Y-60010814D01*
X68110602Y-60010827D01*
X68050264Y-60156498D01*
X68050261Y-60156510D01*
X68019500Y-60311153D01*
X66980925Y-60311153D01*
X67051789Y-60240289D01*
X67139394Y-60109179D01*
X67199737Y-59963497D01*
X67230500Y-59808842D01*
X67230500Y-59651158D01*
X67230500Y-59651155D01*
X67230499Y-59651153D01*
X67224355Y-59620264D01*
X67199737Y-59496503D01*
X67199735Y-59496498D01*
X67139397Y-59350827D01*
X67139390Y-59350814D01*
X67051789Y-59219711D01*
X67051786Y-59219707D01*
X66940292Y-59108213D01*
X66940288Y-59108210D01*
X66809185Y-59020609D01*
X66809172Y-59020602D01*
X66663501Y-58960264D01*
X66663489Y-58960261D01*
X66508845Y-58929500D01*
X66508842Y-58929500D01*
X66351158Y-58929500D01*
X66351155Y-58929500D01*
X66196510Y-58960261D01*
X66196498Y-58960264D01*
X66050827Y-59020602D01*
X66050814Y-59020609D01*
X65919711Y-59108210D01*
X65919707Y-59108213D01*
X65808213Y-59219707D01*
X65808210Y-59219711D01*
X65720609Y-59350814D01*
X65720602Y-59350827D01*
X65660264Y-59496498D01*
X65660261Y-59496510D01*
X65629500Y-59651153D01*
X56570500Y-59651153D01*
X56570500Y-57461153D01*
X58209500Y-57461153D01*
X58209500Y-57618846D01*
X58240261Y-57773489D01*
X58240264Y-57773501D01*
X58300602Y-57919172D01*
X58300609Y-57919185D01*
X58388210Y-58050288D01*
X58388213Y-58050292D01*
X58499707Y-58161786D01*
X58499711Y-58161789D01*
X58630814Y-58249390D01*
X58630827Y-58249397D01*
X58776498Y-58309735D01*
X58776503Y-58309737D01*
X58931153Y-58340499D01*
X58931156Y-58340500D01*
X58931158Y-58340500D01*
X59088844Y-58340500D01*
X59088845Y-58340499D01*
X59243497Y-58309737D01*
X59389179Y-58249394D01*
X59520289Y-58161789D01*
X59631789Y-58050289D01*
X59719394Y-57919179D01*
X59779737Y-57773497D01*
X59810500Y-57618842D01*
X59810500Y-57461158D01*
X59810500Y-57461155D01*
X59810499Y-57461153D01*
X59779738Y-57306510D01*
X59779737Y-57306503D01*
X59779735Y-57306498D01*
X59719397Y-57160827D01*
X59719390Y-57160814D01*
X59631789Y-57029711D01*
X59631786Y-57029707D01*
X59520292Y-56918213D01*
X59520288Y-56918210D01*
X59389185Y-56830609D01*
X59389172Y-56830602D01*
X59243501Y-56770264D01*
X59243489Y-56770261D01*
X59088845Y-56739500D01*
X59088842Y-56739500D01*
X58931158Y-56739500D01*
X58931155Y-56739500D01*
X58776510Y-56770261D01*
X58776498Y-56770264D01*
X58630827Y-56830602D01*
X58630814Y-56830609D01*
X58499711Y-56918210D01*
X58499707Y-56918213D01*
X58388213Y-57029707D01*
X58388210Y-57029711D01*
X58300609Y-57160814D01*
X58300602Y-57160827D01*
X58240264Y-57306498D01*
X58240261Y-57306510D01*
X58209500Y-57461153D01*
X56570500Y-57461153D01*
X56570500Y-55121153D01*
X58284500Y-55121153D01*
X58284500Y-55278846D01*
X58315261Y-55433489D01*
X58315264Y-55433501D01*
X58375602Y-55579172D01*
X58375609Y-55579185D01*
X58463210Y-55710288D01*
X58463213Y-55710292D01*
X58574707Y-55821786D01*
X58574711Y-55821789D01*
X58705814Y-55909390D01*
X58705827Y-55909397D01*
X58851498Y-55969735D01*
X58851503Y-55969737D01*
X59006153Y-56000499D01*
X59006156Y-56000500D01*
X59006158Y-56000500D01*
X59163844Y-56000500D01*
X59163845Y-56000499D01*
X59318497Y-55969737D01*
X59464179Y-55909394D01*
X59595289Y-55821789D01*
X59706789Y-55710289D01*
X59794394Y-55579179D01*
X59854737Y-55433497D01*
X59885500Y-55278842D01*
X59885500Y-55121158D01*
X59885500Y-55121155D01*
X59885499Y-55121153D01*
X59854738Y-54966510D01*
X59854737Y-54966503D01*
X59854735Y-54966498D01*
X59794397Y-54820827D01*
X59794390Y-54820814D01*
X59706789Y-54689711D01*
X59706786Y-54689707D01*
X59595292Y-54578213D01*
X59595288Y-54578210D01*
X59464185Y-54490609D01*
X59464172Y-54490602D01*
X59318501Y-54430264D01*
X59318489Y-54430261D01*
X59163845Y-54399500D01*
X59163842Y-54399500D01*
X59006158Y-54399500D01*
X59006155Y-54399500D01*
X58851510Y-54430261D01*
X58851498Y-54430264D01*
X58705827Y-54490602D01*
X58705814Y-54490609D01*
X58574711Y-54578210D01*
X58574707Y-54578213D01*
X58463213Y-54689707D01*
X58463210Y-54689711D01*
X58375609Y-54820814D01*
X58375602Y-54820827D01*
X58315264Y-54966498D01*
X58315261Y-54966510D01*
X58284500Y-55121153D01*
X56570500Y-55121153D01*
X56570500Y-53094500D01*
X56590185Y-53027461D01*
X56642989Y-52981706D01*
X56694500Y-52970500D01*
X93905500Y-52970500D01*
X93972539Y-52990185D01*
G37*
%TD.AperFunction*%
M02*
