%TF.GenerationSoftware,KiCad,Pcbnew,9.0.7*%
%TF.CreationDate,2026-06-15T22:57:30+05:30*%
%TF.ProjectId,Jazz,4a617a7a-2e6b-4696-9361-645f70636258,rev?*%
%TF.SameCoordinates,Original*%
%TF.FileFunction,Copper,L4,Bot*%
%TF.FilePolarity,Positive*%
%FSLAX46Y46*%
G04 Gerber Fmt 4.6, Leading zero omitted, Abs format (unit mm)*
G04 Created by KiCad (PCBNEW 9.0.7) date 2026-06-15 22:57:30*
%MOMM*%
%LPD*%
G01*
G04 APERTURE LIST*
G04 Aperture macros list*
%AMRoundRect*
0 Rectangle with rounded corners*
0 $1 Rounding radius*
0 $2 $3 $4 $5 $6 $7 $8 $9 X,Y pos of 4 corners*
0 Add a 4 corners polygon primitive as box body*
4,1,4,$2,$3,$4,$5,$6,$7,$8,$9,$2,$3,0*
0 Add four circle primitives for the rounded corners*
1,1,$1+$1,$2,$3*
1,1,$1+$1,$4,$5*
1,1,$1+$1,$6,$7*
1,1,$1+$1,$8,$9*
0 Add four rect primitives between the rounded corners*
20,1,$1+$1,$2,$3,$4,$5,0*
20,1,$1+$1,$4,$5,$6,$7,0*
20,1,$1+$1,$6,$7,$8,$9,0*
20,1,$1+$1,$8,$9,$2,$3,0*%
G04 Aperture macros list end*
%ADD10C,0.300000*%
%TA.AperFunction,NonConductor*%
%ADD11C,0.300000*%
%TD*%
%TA.AperFunction,ComponentPad*%
%ADD12R,1.700000X1.700000*%
%TD*%
%TA.AperFunction,ComponentPad*%
%ADD13C,1.700000*%
%TD*%
%TA.AperFunction,ComponentPad*%
%ADD14O,2.100000X1.000000*%
%TD*%
%TA.AperFunction,ComponentPad*%
%ADD15O,2.600000X1.000000*%
%TD*%
%TA.AperFunction,SMDPad,CuDef*%
%ADD16RoundRect,0.250000X-0.450000X0.262500X-0.450000X-0.262500X0.450000X-0.262500X0.450000X0.262500X0*%
%TD*%
%TA.AperFunction,SMDPad,CuDef*%
%ADD17RoundRect,0.500000X0.500000X1.500000X-0.500000X1.500000X-0.500000X-1.500000X0.500000X-1.500000X0*%
%TD*%
%TA.AperFunction,SMDPad,CuDef*%
%ADD18R,0.250000X0.600000*%
%TD*%
%TA.AperFunction,SMDPad,CuDef*%
%ADD19R,0.600000X0.250000*%
%TD*%
%TA.AperFunction,SMDPad,CuDef*%
%ADD20R,1.500000X1.500000*%
%TD*%
%TA.AperFunction,SMDPad,CuDef*%
%ADD21RoundRect,0.250000X0.250000X0.475000X-0.250000X0.475000X-0.250000X-0.475000X0.250000X-0.475000X0*%
%TD*%
%TA.AperFunction,SMDPad,CuDef*%
%ADD22RoundRect,0.250000X-0.250000X-0.475000X0.250000X-0.475000X0.250000X0.475000X-0.250000X0.475000X0*%
%TD*%
%TA.AperFunction,ViaPad*%
%ADD23C,0.600000*%
%TD*%
%TA.AperFunction,Conductor*%
%ADD24C,0.200000*%
%TD*%
%TA.AperFunction,Conductor*%
%ADD25C,0.150000*%
%TD*%
G04 APERTURE END LIST*
D10*
D11*
X90890828Y-56340225D02*
X90890828Y-55483082D01*
X90890828Y-55911653D02*
X89390828Y-55911653D01*
X89390828Y-55911653D02*
X89605114Y-55768796D01*
X89605114Y-55768796D02*
X89747971Y-55625939D01*
X89747971Y-55625939D02*
X89819400Y-55483082D01*
X89390828Y-57697367D02*
X89390828Y-56983081D01*
X89390828Y-56983081D02*
X90105114Y-56911653D01*
X90105114Y-56911653D02*
X90033685Y-56983081D01*
X90033685Y-56983081D02*
X89962257Y-57125939D01*
X89962257Y-57125939D02*
X89962257Y-57483081D01*
X89962257Y-57483081D02*
X90033685Y-57625939D01*
X90033685Y-57625939D02*
X90105114Y-57697367D01*
X90105114Y-57697367D02*
X90247971Y-57768796D01*
X90247971Y-57768796D02*
X90605114Y-57768796D01*
X90605114Y-57768796D02*
X90747971Y-57697367D01*
X90747971Y-57697367D02*
X90819400Y-57625939D01*
X90819400Y-57625939D02*
X90890828Y-57483081D01*
X90890828Y-57483081D02*
X90890828Y-57125939D01*
X90890828Y-57125939D02*
X90819400Y-56983081D01*
X90819400Y-56983081D02*
X90747971Y-56911653D01*
X89390828Y-59983081D02*
X90462257Y-59983081D01*
X90462257Y-59983081D02*
X90676542Y-59911652D01*
X90676542Y-59911652D02*
X90819400Y-59768795D01*
X90819400Y-59768795D02*
X90890828Y-59554509D01*
X90890828Y-59554509D02*
X90890828Y-59411652D01*
X89890828Y-61340224D02*
X90890828Y-61340224D01*
X89890828Y-60697366D02*
X90676542Y-60697366D01*
X90676542Y-60697366D02*
X90819400Y-60768795D01*
X90819400Y-60768795D02*
X90890828Y-60911652D01*
X90890828Y-60911652D02*
X90890828Y-61125938D01*
X90890828Y-61125938D02*
X90819400Y-61268795D01*
X90819400Y-61268795D02*
X90747971Y-61340224D01*
X89890828Y-62054509D02*
X90890828Y-62054509D01*
X90033685Y-62054509D02*
X89962257Y-62125938D01*
X89962257Y-62125938D02*
X89890828Y-62268795D01*
X89890828Y-62268795D02*
X89890828Y-62483081D01*
X89890828Y-62483081D02*
X89962257Y-62625938D01*
X89962257Y-62625938D02*
X90105114Y-62697367D01*
X90105114Y-62697367D02*
X90890828Y-62697367D01*
X90819400Y-63983081D02*
X90890828Y-63840224D01*
X90890828Y-63840224D02*
X90890828Y-63554510D01*
X90890828Y-63554510D02*
X90819400Y-63411652D01*
X90819400Y-63411652D02*
X90676542Y-63340224D01*
X90676542Y-63340224D02*
X90105114Y-63340224D01*
X90105114Y-63340224D02*
X89962257Y-63411652D01*
X89962257Y-63411652D02*
X89890828Y-63554510D01*
X89890828Y-63554510D02*
X89890828Y-63840224D01*
X89890828Y-63840224D02*
X89962257Y-63983081D01*
X89962257Y-63983081D02*
X90105114Y-64054510D01*
X90105114Y-64054510D02*
X90247971Y-64054510D01*
X90247971Y-64054510D02*
X90390828Y-63340224D01*
X89533685Y-65768795D02*
X89462257Y-65840223D01*
X89462257Y-65840223D02*
X89390828Y-65983081D01*
X89390828Y-65983081D02*
X89390828Y-66340223D01*
X89390828Y-66340223D02*
X89462257Y-66483081D01*
X89462257Y-66483081D02*
X89533685Y-66554509D01*
X89533685Y-66554509D02*
X89676542Y-66625938D01*
X89676542Y-66625938D02*
X89819400Y-66625938D01*
X89819400Y-66625938D02*
X90033685Y-66554509D01*
X90033685Y-66554509D02*
X90890828Y-65697366D01*
X90890828Y-65697366D02*
X90890828Y-66625938D01*
X89390828Y-67554509D02*
X89390828Y-67697366D01*
X89390828Y-67697366D02*
X89462257Y-67840223D01*
X89462257Y-67840223D02*
X89533685Y-67911652D01*
X89533685Y-67911652D02*
X89676542Y-67983080D01*
X89676542Y-67983080D02*
X89962257Y-68054509D01*
X89962257Y-68054509D02*
X90319400Y-68054509D01*
X90319400Y-68054509D02*
X90605114Y-67983080D01*
X90605114Y-67983080D02*
X90747971Y-67911652D01*
X90747971Y-67911652D02*
X90819400Y-67840223D01*
X90819400Y-67840223D02*
X90890828Y-67697366D01*
X90890828Y-67697366D02*
X90890828Y-67554509D01*
X90890828Y-67554509D02*
X90819400Y-67411652D01*
X90819400Y-67411652D02*
X90747971Y-67340223D01*
X90747971Y-67340223D02*
X90605114Y-67268794D01*
X90605114Y-67268794D02*
X90319400Y-67197366D01*
X90319400Y-67197366D02*
X89962257Y-67197366D01*
X89962257Y-67197366D02*
X89676542Y-67268794D01*
X89676542Y-67268794D02*
X89533685Y-67340223D01*
X89533685Y-67340223D02*
X89462257Y-67411652D01*
X89462257Y-67411652D02*
X89390828Y-67554509D01*
X89533685Y-68625937D02*
X89462257Y-68697365D01*
X89462257Y-68697365D02*
X89390828Y-68840223D01*
X89390828Y-68840223D02*
X89390828Y-69197365D01*
X89390828Y-69197365D02*
X89462257Y-69340223D01*
X89462257Y-69340223D02*
X89533685Y-69411651D01*
X89533685Y-69411651D02*
X89676542Y-69483080D01*
X89676542Y-69483080D02*
X89819400Y-69483080D01*
X89819400Y-69483080D02*
X90033685Y-69411651D01*
X90033685Y-69411651D02*
X90890828Y-68554508D01*
X90890828Y-68554508D02*
X90890828Y-69483080D01*
X89390828Y-70768794D02*
X89390828Y-70483079D01*
X89390828Y-70483079D02*
X89462257Y-70340222D01*
X89462257Y-70340222D02*
X89533685Y-70268794D01*
X89533685Y-70268794D02*
X89747971Y-70125936D01*
X89747971Y-70125936D02*
X90033685Y-70054508D01*
X90033685Y-70054508D02*
X90605114Y-70054508D01*
X90605114Y-70054508D02*
X90747971Y-70125936D01*
X90747971Y-70125936D02*
X90819400Y-70197365D01*
X90819400Y-70197365D02*
X90890828Y-70340222D01*
X90890828Y-70340222D02*
X90890828Y-70625936D01*
X90890828Y-70625936D02*
X90819400Y-70768794D01*
X90819400Y-70768794D02*
X90747971Y-70840222D01*
X90747971Y-70840222D02*
X90605114Y-70911651D01*
X90605114Y-70911651D02*
X90247971Y-70911651D01*
X90247971Y-70911651D02*
X90105114Y-70840222D01*
X90105114Y-70840222D02*
X90033685Y-70768794D01*
X90033685Y-70768794D02*
X89962257Y-70625936D01*
X89962257Y-70625936D02*
X89962257Y-70340222D01*
X89962257Y-70340222D02*
X90033685Y-70197365D01*
X90033685Y-70197365D02*
X90105114Y-70125936D01*
X90105114Y-70125936D02*
X90247971Y-70054508D01*
D12*
%TO.P,U1,1,P0.02_A0_D0*%
%TO.N,unconnected-(U1-P0.02_A0_D0-Pad1)*%
X92949750Y-78257985D03*
D13*
%TO.P,U1,2,P0.03_A1_D1*%
%TO.N,unconnected-(U1-P0.03_A1_D1-Pad2)*%
X92949750Y-75717985D03*
%TO.P,U1,3,P0.28_A2_D2*%
%TO.N,unconnected-(U1-P0.28_A2_D2-Pad3)*%
X92949750Y-73177985D03*
%TO.P,U1,4,P0.29_A3_D3*%
%TO.N,unconnected-(U1-P0.29_A3_D3-Pad4)*%
X92949750Y-70637985D03*
%TO.P,U1,5,P0.04_A4_D4_SDA*%
%TO.N,unconnected-(U1-P0.04_A4_D4_SDA-Pad5)*%
X92949750Y-68097985D03*
%TO.P,U1,6,P0.05_A5_D5_SCL*%
%TO.N,unconnected-(U1-P0.05_A5_D5_SCL-Pad6)*%
X92949750Y-65557985D03*
%TO.P,U1,7,P1.11_D6_TX*%
%TO.N,unconnected-(U1-P1.11_D6_TX-Pad7)*%
X92949750Y-63017985D03*
%TO.P,U1,8,P1.12_D7_RX*%
%TO.N,Pairing-Mode*%
X77699750Y-63017985D03*
%TO.P,U1,9,P1.13_D8_SCK*%
%TO.N,BCLK*%
X77699750Y-65557985D03*
%TO.P,U1,10,P1.14_D9_MISO*%
%TO.N,LRCK*%
X77699750Y-68097985D03*
%TO.P,U1,11,P1.15_D10_MOSI*%
%TO.N,DIN*%
X77699750Y-70637985D03*
%TO.P,U1,12,3V3*%
%TO.N,Diode Out*%
X77699750Y-73177985D03*
%TO.P,U1,13,GND*%
%TO.N,GND*%
X77699750Y-75717985D03*
%TO.P,U1,14,VBUS*%
%TO.N,unconnected-(U1-VBUS-Pad14)*%
X77699750Y-78257985D03*
%TD*%
D14*
%TO.P,USB-C-Port1,0,0*%
%TO.N,GROUND*%
X63330000Y-67510000D03*
D15*
X57970000Y-67510000D03*
D14*
X63330000Y-76150000D03*
D15*
X57970000Y-76150000D03*
%TD*%
D16*
%TO.P,R1,1*%
%TO.N,3.3V*%
X85470000Y-63195000D03*
%TO.P,R1,2*%
%TO.N,Net-(U4-~{SD_MODE})*%
X85470000Y-65020000D03*
%TD*%
D17*
%TO.P,N1,1,1*%
%TO.N,OUT-N*%
X83100000Y-79840000D03*
%TD*%
D18*
%TO.P,U4,1,DIN*%
%TO.N,DIN*%
X83980000Y-66360000D03*
%TO.P,U4,2,GAIN_SLOT*%
%TO.N,GND*%
X84480000Y-66360000D03*
%TO.P,U4,3,GND*%
X84980000Y-66360000D03*
%TO.P,U4,4,~{SD_MODE}*%
%TO.N,Net-(U4-~{SD_MODE})*%
X85480000Y-66360000D03*
D19*
%TO.P,U4,5,N.C.*%
%TO.N,unconnected-(U4-N.C.-Pad5)*%
X86230000Y-67110000D03*
%TO.P,U4,6,N.C.*%
%TO.N,unconnected-(U4-N.C.-Pad6)*%
X86230000Y-67610000D03*
%TO.P,U4,7,VDD*%
%TO.N,Switch_OUT*%
X86230000Y-68110000D03*
%TO.P,U4,8,VDD*%
X86230000Y-68610000D03*
D18*
%TO.P,U4,9,OUTP*%
%TO.N,OUT-P*%
X85480000Y-69360000D03*
%TO.P,U4,10,OUTN*%
%TO.N,OUT-N*%
X84980000Y-69360000D03*
%TO.P,U4,11,GND*%
%TO.N,GND*%
X84480000Y-69360000D03*
%TO.P,U4,12,N.C.*%
%TO.N,unconnected-(U4-N.C.-Pad12)*%
X83980000Y-69360000D03*
D19*
%TO.P,U4,13,N.C.*%
%TO.N,unconnected-(U4-N.C.-Pad13)*%
X83230000Y-68610000D03*
%TO.P,U4,14,LRCLK*%
%TO.N,LRCK*%
X83230000Y-68110000D03*
%TO.P,U4,15,GND*%
%TO.N,GND*%
X83230000Y-67610000D03*
%TO.P,U4,16,BCLK*%
%TO.N,BCLK*%
X83230000Y-67110000D03*
D20*
%TO.P,U4,17,EP*%
%TO.N,GND*%
X84730000Y-67860000D03*
%TD*%
D21*
%TO.P,C6,1*%
%TO.N,GND*%
X83020000Y-62810000D03*
%TO.P,C6,2*%
%TO.N,3.3V*%
X81120000Y-62810000D03*
%TD*%
D17*
%TO.P,P1,1,1*%
%TO.N,OUT-P*%
X87130000Y-79850000D03*
%TD*%
D22*
%TO.P,C1,1*%
%TO.N,Switch_OUT*%
X72640000Y-66910000D03*
%TO.P,C1,2*%
%TO.N,GND*%
X74540000Y-66910000D03*
%TD*%
D23*
%TO.N,GND*%
X62270000Y-63420000D03*
X65940000Y-69230000D03*
X71490000Y-74215000D03*
X84720000Y-67952500D03*
X65030000Y-75810000D03*
X83020000Y-62810000D03*
X74575000Y-70030000D03*
X60060000Y-63465000D03*
X59010000Y-57540000D03*
X59085000Y-55200000D03*
X68080000Y-72760000D03*
X74540000Y-66910000D03*
%TO.N,Switch_OUT*%
X66430000Y-59730000D03*
%TO.N,3.3V*%
X68820000Y-60390000D03*
X82260000Y-61180000D03*
%TO.N,Diode Out*%
X69210000Y-66840000D03*
%TO.N,Net-(USB-C-Port1-CC1)*%
X65700000Y-67300000D03*
X65270000Y-71710000D03*
%TD*%
D24*
%TO.N,OUT-P*%
X87530000Y-79450000D02*
X87130000Y-79850000D01*
X87530000Y-73770000D02*
X87530000Y-79450000D01*
X85480000Y-71720000D02*
X87530000Y-73770000D01*
X85480000Y-69360000D02*
X85480000Y-71720000D01*
%TO.N,OUT-N*%
X82940000Y-79680000D02*
X83100000Y-79840000D01*
X84980000Y-70160000D02*
X82940000Y-72200000D01*
X84980000Y-69360000D02*
X84980000Y-70160000D01*
X82940000Y-72200000D02*
X82940000Y-79680000D01*
D25*
%TO.N,GND*%
X84480000Y-69360000D02*
X84480000Y-68192500D01*
X84980000Y-67610000D02*
X84730000Y-67860000D01*
X84480000Y-67610000D02*
X84730000Y-67860000D01*
X84980000Y-66360000D02*
X84980000Y-67610000D01*
X83230000Y-67610000D02*
X84480000Y-67610000D01*
X84480000Y-68192500D02*
X84720000Y-67952500D01*
X84480000Y-66360000D02*
X84480000Y-67610000D01*
%TO.N,Switch_OUT*%
X88020000Y-60420000D02*
X87270000Y-59670000D01*
X88020000Y-68150000D02*
X88020000Y-60420000D01*
X69790000Y-60760000D02*
X71750000Y-62720000D01*
X87270000Y-59670000D02*
X69790000Y-59670000D01*
X66490000Y-59670000D02*
X66430000Y-59730000D01*
X69790000Y-59670000D02*
X66490000Y-59670000D01*
X86230000Y-68610000D02*
X86230000Y-68110000D01*
X71750000Y-62720000D02*
X71750000Y-66020000D01*
X86270000Y-68150000D02*
X88020000Y-68150000D01*
X71750000Y-66020000D02*
X72640000Y-66910000D01*
X86230000Y-68110000D02*
X86270000Y-68150000D01*
X69790000Y-59670000D02*
X69790000Y-60760000D01*
%TO.N,3.3V*%
X85470000Y-63195000D02*
X83455000Y-61180000D01*
X81120000Y-62320000D02*
X81120000Y-62810000D01*
X82260000Y-61180000D02*
X81120000Y-62320000D01*
X83455000Y-61180000D02*
X82260000Y-61180000D01*
%TO.N,Net-(U4-~{SD_MODE})*%
X85480000Y-66360000D02*
X85480000Y-65030000D01*
X85480000Y-65030000D02*
X85470000Y-65020000D01*
%TO.N,LRCK*%
X83217985Y-68097985D02*
X83230000Y-68110000D01*
X77699750Y-68097985D02*
X83217985Y-68097985D01*
%TO.N,DIN*%
X76380000Y-64320000D02*
X83930000Y-64320000D01*
X83930000Y-64320000D02*
X83930000Y-66310000D01*
X83930000Y-66310000D02*
X83980000Y-66360000D01*
X77699750Y-70637985D02*
X76170000Y-69108235D01*
X76170000Y-69108235D02*
X76170000Y-64530000D01*
X76170000Y-64530000D02*
X76380000Y-64320000D01*
%TO.N,BCLK*%
X77699750Y-65557985D02*
X79251765Y-67110000D01*
X79251765Y-67110000D02*
X83230000Y-67110000D01*
%TD*%
%TA.AperFunction,NonConductor*%
G36*
X84225702Y-62765028D02*
G01*
X84232180Y-62771060D01*
X84234703Y-62773583D01*
X84268188Y-62834906D01*
X84270381Y-62873856D01*
X84269501Y-62882476D01*
X84269500Y-62882497D01*
X84269500Y-63507501D01*
X84269501Y-63507519D01*
X84280000Y-63610296D01*
X84280001Y-63610301D01*
X84283189Y-63619920D01*
X84285589Y-63689749D01*
X84249856Y-63749789D01*
X84187335Y-63780980D01*
X84133390Y-63778696D01*
X84084049Y-63765475D01*
X84043264Y-63754547D01*
X83983604Y-63718184D01*
X83953074Y-63655337D01*
X83957650Y-63595773D01*
X84009999Y-63437797D01*
X84020500Y-63335009D01*
X84020499Y-62858739D01*
X84040183Y-62791702D01*
X84092987Y-62745947D01*
X84162146Y-62736003D01*
X84225702Y-62765028D01*
G37*
%TD.AperFunction*%
%TA.AperFunction,NonConductor*%
G36*
X93966475Y-64038203D02*
G01*
X94015170Y-64088309D01*
X94029500Y-64146175D01*
X94029500Y-64429794D01*
X94009815Y-64496833D01*
X93957011Y-64542588D01*
X93887853Y-64552532D01*
X93832615Y-64530113D01*
X93728175Y-64454234D01*
X93657566Y-64402934D01*
X93648804Y-64398470D01*
X93598009Y-64350497D01*
X93581213Y-64282677D01*
X93603749Y-64216541D01*
X93648804Y-64177500D01*
X93657566Y-64173036D01*
X93711490Y-64133858D01*
X93832615Y-64045857D01*
X93898421Y-64022377D01*
X93966475Y-64038203D01*
G37*
%TD.AperFunction*%
%TA.AperFunction,NonConductor*%
G36*
X81875981Y-60265185D02*
G01*
X81921736Y-60317989D01*
X81931680Y-60387147D01*
X81902655Y-60450703D01*
X81877833Y-60472602D01*
X81749711Y-60558210D01*
X81749707Y-60558213D01*
X81638213Y-60669707D01*
X81638210Y-60669711D01*
X81550609Y-60800814D01*
X81550602Y-60800827D01*
X81490264Y-60946498D01*
X81490261Y-60946510D01*
X81459500Y-61101153D01*
X81459500Y-61115257D01*
X81439815Y-61182296D01*
X81423181Y-61202938D01*
X81077937Y-61548181D01*
X81016614Y-61581666D01*
X80990257Y-61584500D01*
X80819999Y-61584500D01*
X80819980Y-61584501D01*
X80717203Y-61595000D01*
X80717200Y-61595001D01*
X80550668Y-61650185D01*
X80550663Y-61650187D01*
X80401342Y-61742289D01*
X80277289Y-61866342D01*
X80185187Y-62015663D01*
X80185186Y-62015666D01*
X80130001Y-62182203D01*
X80130001Y-62182204D01*
X80130000Y-62182204D01*
X80119500Y-62284983D01*
X80119500Y-63335001D01*
X80119501Y-63335019D01*
X80130000Y-63437796D01*
X80141455Y-63472364D01*
X80177619Y-63581498D01*
X80180021Y-63651324D01*
X80144290Y-63711366D01*
X80081769Y-63742559D01*
X80059913Y-63744500D01*
X79047623Y-63744500D01*
X78980584Y-63724815D01*
X78934829Y-63672011D01*
X78924885Y-63602853D01*
X78937139Y-63564204D01*
X78951305Y-63536401D01*
X78951306Y-63536399D01*
X78951307Y-63536397D01*
X79016996Y-63334228D01*
X79050250Y-63124272D01*
X79050250Y-62911698D01*
X79016996Y-62701742D01*
X78951307Y-62499573D01*
X78854801Y-62310169D01*
X78854799Y-62310166D01*
X78854798Y-62310164D01*
X78729859Y-62138198D01*
X78579536Y-61987875D01*
X78407570Y-61862936D01*
X78218164Y-61766429D01*
X78218163Y-61766428D01*
X78218162Y-61766428D01*
X78015993Y-61700739D01*
X78015991Y-61700738D01*
X78015990Y-61700738D01*
X77854707Y-61675193D01*
X77806037Y-61667485D01*
X77593463Y-61667485D01*
X77544792Y-61675193D01*
X77383510Y-61700738D01*
X77181335Y-61766429D01*
X76991929Y-61862936D01*
X76819963Y-61987875D01*
X76669640Y-62138198D01*
X76544701Y-62310164D01*
X76448194Y-62499570D01*
X76382503Y-62701745D01*
X76349250Y-62911698D01*
X76349250Y-63124271D01*
X76382334Y-63333158D01*
X76382504Y-63334228D01*
X76382758Y-63335009D01*
X76448194Y-63536401D01*
X76462361Y-63564204D01*
X76475258Y-63632874D01*
X76448982Y-63697614D01*
X76391876Y-63737872D01*
X76351877Y-63744500D01*
X76304234Y-63744500D01*
X76157863Y-63783719D01*
X76026635Y-63859485D01*
X76026632Y-63859487D01*
X75709487Y-64176632D01*
X75709485Y-64176635D01*
X75633719Y-64307863D01*
X75594500Y-64454234D01*
X75594500Y-65878770D01*
X75574815Y-65945809D01*
X75522011Y-65991564D01*
X75452853Y-66001508D01*
X75389297Y-65972483D01*
X75382819Y-65966451D01*
X75258657Y-65842289D01*
X75258656Y-65842288D01*
X75137632Y-65767640D01*
X75109336Y-65750187D01*
X75109331Y-65750185D01*
X75107862Y-65749698D01*
X74942797Y-65695001D01*
X74942795Y-65695000D01*
X74840010Y-65684500D01*
X74239998Y-65684500D01*
X74239980Y-65684501D01*
X74137203Y-65695000D01*
X74137200Y-65695001D01*
X73970668Y-65750185D01*
X73970663Y-65750187D01*
X73821342Y-65842289D01*
X73697285Y-65966346D01*
X73695537Y-65969182D01*
X73693829Y-65970717D01*
X73692807Y-65972011D01*
X73692585Y-65971836D01*
X73643589Y-66015905D01*
X73574626Y-66027126D01*
X73510544Y-65999282D01*
X73484463Y-65969182D01*
X73482714Y-65966346D01*
X73358657Y-65842289D01*
X73358656Y-65842288D01*
X73237632Y-65767640D01*
X73209336Y-65750187D01*
X73209331Y-65750185D01*
X73207862Y-65749698D01*
X73042797Y-65695001D01*
X73042795Y-65695000D01*
X72940016Y-65684500D01*
X72449500Y-65684500D01*
X72382461Y-65664815D01*
X72336706Y-65612011D01*
X72325500Y-65560500D01*
X72325500Y-62644236D01*
X72325500Y-62644234D01*
X72286281Y-62497865D01*
X72210515Y-62366635D01*
X72103365Y-62259485D01*
X70401819Y-60557939D01*
X70387115Y-60531011D01*
X70370523Y-60505193D01*
X70369631Y-60498992D01*
X70368334Y-60496616D01*
X70365500Y-60470258D01*
X70365500Y-60369500D01*
X70385185Y-60302461D01*
X70437989Y-60256706D01*
X70489500Y-60245500D01*
X81808942Y-60245500D01*
X81875981Y-60265185D01*
G37*
%TD.AperFunction*%
%TA.AperFunction,NonConductor*%
G36*
X83297539Y-64915185D02*
G01*
X83343294Y-64967989D01*
X83354500Y-65019500D01*
X83354500Y-66360500D01*
X83334815Y-66427539D01*
X83282011Y-66473294D01*
X83230500Y-66484500D01*
X82882130Y-66484500D01*
X82882123Y-66484501D01*
X82822516Y-66490908D01*
X82726604Y-66526682D01*
X82683271Y-66534500D01*
X79541507Y-66534500D01*
X79474468Y-66514815D01*
X79453826Y-66498181D01*
X79024837Y-66069192D01*
X78991352Y-66007869D01*
X78994586Y-65943195D01*
X79016996Y-65874228D01*
X79050250Y-65664272D01*
X79050250Y-65451698D01*
X79016996Y-65241742D01*
X78957234Y-65057817D01*
X78955240Y-64987977D01*
X78991320Y-64928144D01*
X79054021Y-64897316D01*
X79075166Y-64895500D01*
X83230500Y-64895500D01*
X83297539Y-64915185D01*
G37*
%TD.AperFunction*%
%TA.AperFunction,NonConductor*%
G36*
X93966475Y-66578203D02*
G01*
X94015170Y-66628309D01*
X94029500Y-66686175D01*
X94029500Y-66969794D01*
X94009815Y-67036833D01*
X93957011Y-67082588D01*
X93887853Y-67092532D01*
X93832615Y-67070113D01*
X93714876Y-66984572D01*
X93657566Y-66942934D01*
X93648804Y-66938470D01*
X93598009Y-66890497D01*
X93581213Y-66822677D01*
X93603749Y-66756541D01*
X93648804Y-66717500D01*
X93657566Y-66713036D01*
X93774184Y-66628309D01*
X93832615Y-66585857D01*
X93898421Y-66562377D01*
X93966475Y-66578203D01*
G37*
%TD.AperFunction*%
%TA.AperFunction,NonConductor*%
G36*
X87047297Y-60265185D02*
G01*
X87067939Y-60281819D01*
X87408181Y-60622060D01*
X87441666Y-60683383D01*
X87444500Y-60709741D01*
X87444500Y-67450500D01*
X87441949Y-67459185D01*
X87443238Y-67468147D01*
X87432259Y-67492187D01*
X87424815Y-67517539D01*
X87417974Y-67523466D01*
X87414213Y-67531703D01*
X87391978Y-67545992D01*
X87372011Y-67563294D01*
X87361496Y-67565581D01*
X87355435Y-67569477D01*
X87320500Y-67574500D01*
X87154499Y-67574500D01*
X87087460Y-67554815D01*
X87041705Y-67502011D01*
X87030499Y-67450500D01*
X87030499Y-67437129D01*
X87030499Y-67437128D01*
X87024091Y-67377517D01*
X87024089Y-67377513D01*
X87023632Y-67373255D01*
X87023632Y-67346745D01*
X87024089Y-67342486D01*
X87024091Y-67342483D01*
X87030500Y-67282873D01*
X87030499Y-66937128D01*
X87024091Y-66877517D01*
X87022114Y-66872217D01*
X86973797Y-66742671D01*
X86973793Y-66742664D01*
X86887547Y-66627455D01*
X86887544Y-66627452D01*
X86772335Y-66541206D01*
X86772328Y-66541202D01*
X86637482Y-66490908D01*
X86637483Y-66490908D01*
X86577883Y-66484501D01*
X86577881Y-66484500D01*
X86577873Y-66484500D01*
X86577865Y-66484500D01*
X86229499Y-66484500D01*
X86162460Y-66464815D01*
X86116705Y-66412011D01*
X86105499Y-66360500D01*
X86105499Y-66101203D01*
X86125184Y-66034164D01*
X86177988Y-65988409D01*
X86190485Y-65983500D01*
X86239334Y-65967314D01*
X86388656Y-65875212D01*
X86512712Y-65751156D01*
X86604814Y-65601834D01*
X86659999Y-65435297D01*
X86670500Y-65332509D01*
X86670499Y-64707492D01*
X86659999Y-64604703D01*
X86604814Y-64438166D01*
X86512712Y-64288844D01*
X86419049Y-64195181D01*
X86385564Y-64133858D01*
X86390548Y-64064166D01*
X86419049Y-64019819D01*
X86463580Y-63975288D01*
X86512712Y-63926156D01*
X86604814Y-63776834D01*
X86659999Y-63610297D01*
X86670500Y-63507509D01*
X86670499Y-62882492D01*
X86670497Y-62882476D01*
X86659999Y-62779703D01*
X86659998Y-62779700D01*
X86634165Y-62701742D01*
X86604814Y-62613166D01*
X86512712Y-62463844D01*
X86388656Y-62339788D01*
X86295888Y-62282569D01*
X86239336Y-62247687D01*
X86239331Y-62247685D01*
X86237862Y-62247198D01*
X86072797Y-62192501D01*
X86072795Y-62192500D01*
X85970016Y-62182000D01*
X85970009Y-62182000D01*
X85322242Y-62182000D01*
X85255203Y-62162315D01*
X85234561Y-62145681D01*
X83808367Y-60719487D01*
X83808365Y-60719485D01*
X83742750Y-60681602D01*
X83677136Y-60643719D01*
X83603950Y-60624109D01*
X83530766Y-60604500D01*
X83530765Y-60604500D01*
X82867941Y-60604500D01*
X82800902Y-60584815D01*
X82796321Y-60581725D01*
X82787711Y-60575633D01*
X82770289Y-60558211D01*
X82640811Y-60471696D01*
X82639438Y-60470725D01*
X82618755Y-60444589D01*
X82597362Y-60418990D01*
X82597147Y-60417282D01*
X82596081Y-60415935D01*
X82592810Y-60382749D01*
X82588655Y-60349665D01*
X82589396Y-60348114D01*
X82589228Y-60346402D01*
X82604416Y-60316720D01*
X82618809Y-60286637D01*
X82620273Y-60285732D01*
X82621056Y-60284203D01*
X82649869Y-60267450D01*
X82678253Y-60249918D01*
X82680559Y-60249607D01*
X82681458Y-60249085D01*
X82683697Y-60249184D01*
X82711058Y-60245500D01*
X86980258Y-60245500D01*
X87047297Y-60265185D01*
G37*
%TD.AperFunction*%
%TA.AperFunction,NonConductor*%
G36*
X93966475Y-69118203D02*
G01*
X94015170Y-69168309D01*
X94029500Y-69226175D01*
X94029500Y-69509794D01*
X94026169Y-69521136D01*
X94027328Y-69532899D01*
X94016506Y-69554043D01*
X94009815Y-69576833D01*
X94000883Y-69584572D01*
X93995497Y-69595097D01*
X93974959Y-69607035D01*
X93957011Y-69622588D01*
X93945311Y-69624270D01*
X93935092Y-69630211D01*
X93911364Y-69629151D01*
X93887853Y-69632532D01*
X93875587Y-69627553D01*
X93865292Y-69627094D01*
X93833874Y-69611015D01*
X93829776Y-69608115D01*
X93829542Y-69607881D01*
X93657566Y-69482934D01*
X93640802Y-69474392D01*
X93633473Y-69469206D01*
X93590119Y-69414413D01*
X93583271Y-69344880D01*
X93615102Y-69282682D01*
X93648804Y-69257500D01*
X93657566Y-69253036D01*
X93690524Y-69229091D01*
X93832615Y-69125857D01*
X93898421Y-69102377D01*
X93966475Y-69118203D01*
G37*
%TD.AperFunction*%
%TA.AperFunction,NonConductor*%
G36*
X93966475Y-71658203D02*
G01*
X94015170Y-71708309D01*
X94029500Y-71766175D01*
X94029500Y-72049794D01*
X94026169Y-72061136D01*
X94027328Y-72072899D01*
X94016506Y-72094043D01*
X94009815Y-72116833D01*
X94000883Y-72124572D01*
X93995497Y-72135097D01*
X93974959Y-72147035D01*
X93957011Y-72162588D01*
X93945311Y-72164270D01*
X93935092Y-72170211D01*
X93911364Y-72169151D01*
X93887853Y-72172532D01*
X93875587Y-72167553D01*
X93865292Y-72167094D01*
X93833874Y-72151015D01*
X93829776Y-72148115D01*
X93829542Y-72147881D01*
X93657566Y-72022934D01*
X93640802Y-72014392D01*
X93633473Y-72009206D01*
X93590119Y-71954413D01*
X93583271Y-71884880D01*
X93615102Y-71822682D01*
X93648804Y-71797500D01*
X93657566Y-71793036D01*
X93774184Y-71708309D01*
X93832615Y-71665857D01*
X93898421Y-71642377D01*
X93966475Y-71658203D01*
G37*
%TD.AperFunction*%
%TA.AperFunction,NonConductor*%
G36*
X93966475Y-74198203D02*
G01*
X94015170Y-74248309D01*
X94029500Y-74306175D01*
X94029500Y-74589794D01*
X94026169Y-74601136D01*
X94027328Y-74612899D01*
X94016506Y-74634043D01*
X94009815Y-74656833D01*
X94000883Y-74664572D01*
X93995497Y-74675097D01*
X93974959Y-74687035D01*
X93957011Y-74702588D01*
X93945311Y-74704270D01*
X93935092Y-74710211D01*
X93911364Y-74709151D01*
X93887853Y-74712532D01*
X93875587Y-74707553D01*
X93865292Y-74707094D01*
X93833874Y-74691015D01*
X93829776Y-74688115D01*
X93829542Y-74687881D01*
X93657566Y-74562934D01*
X93640802Y-74554392D01*
X93633473Y-74549206D01*
X93590119Y-74494413D01*
X93583271Y-74424880D01*
X93615102Y-74362682D01*
X93648804Y-74337500D01*
X93657566Y-74333036D01*
X93774184Y-74248309D01*
X93832615Y-74205857D01*
X93898421Y-74182377D01*
X93966475Y-74198203D01*
G37*
%TD.AperFunction*%
%TA.AperFunction,NonConductor*%
G36*
X84798834Y-71292915D02*
G01*
X84854767Y-71334787D01*
X84879184Y-71400251D01*
X84879500Y-71409097D01*
X84879500Y-71633330D01*
X84879499Y-71633348D01*
X84879499Y-71799054D01*
X84879498Y-71799054D01*
X84920423Y-71951785D01*
X84929909Y-71968215D01*
X84999477Y-72088712D01*
X84999481Y-72088717D01*
X85118349Y-72207585D01*
X85118355Y-72207590D01*
X86893181Y-73982416D01*
X86926666Y-74043739D01*
X86929500Y-74070097D01*
X86929500Y-77225500D01*
X86909815Y-77292539D01*
X86857011Y-77338294D01*
X86805501Y-77349500D01*
X86571971Y-77349500D01*
X86571965Y-77349500D01*
X86571964Y-77349501D01*
X86565080Y-77350113D01*
X86452584Y-77360113D01*
X86256954Y-77416089D01*
X86175093Y-77458850D01*
X86076593Y-77510302D01*
X86076591Y-77510303D01*
X86076590Y-77510304D01*
X85918890Y-77638890D01*
X85790304Y-77796590D01*
X85696089Y-77976954D01*
X85653612Y-78125408D01*
X85642976Y-78162582D01*
X85640114Y-78172583D01*
X85640113Y-78172586D01*
X85632607Y-78257016D01*
X85630389Y-78281971D01*
X85629500Y-78291966D01*
X85629500Y-81408028D01*
X85629501Y-81408034D01*
X85640113Y-81527415D01*
X85696089Y-81723045D01*
X85696090Y-81723048D01*
X85696091Y-81723049D01*
X85785078Y-81893407D01*
X85790305Y-81903412D01*
X85858576Y-81987140D01*
X85885685Y-82051536D01*
X85873675Y-82120366D01*
X85826360Y-82171776D01*
X85762474Y-82189500D01*
X84459372Y-82189500D01*
X84392333Y-82169815D01*
X84346578Y-82117011D01*
X84336634Y-82047853D01*
X84363270Y-81987140D01*
X84439694Y-81893412D01*
X84439694Y-81893411D01*
X84439698Y-81893407D01*
X84533909Y-81713049D01*
X84589886Y-81517418D01*
X84600500Y-81398037D01*
X84600499Y-78281964D01*
X84589886Y-78162582D01*
X84533909Y-77966951D01*
X84439698Y-77786593D01*
X84387684Y-77722803D01*
X84311109Y-77628890D01*
X84160797Y-77506328D01*
X84153407Y-77500302D01*
X83973049Y-77406091D01*
X83973048Y-77406090D01*
X83973045Y-77406089D01*
X83855829Y-77372550D01*
X83777418Y-77350114D01*
X83777415Y-77350113D01*
X83777413Y-77350113D01*
X83708708Y-77344005D01*
X83658037Y-77339500D01*
X83658032Y-77339500D01*
X83655299Y-77339257D01*
X83655382Y-77338320D01*
X83592845Y-77316864D01*
X83549507Y-77262059D01*
X83540500Y-77215664D01*
X83540500Y-72500097D01*
X83560185Y-72433058D01*
X83576819Y-72412416D01*
X84667819Y-71321416D01*
X84729142Y-71287931D01*
X84798834Y-71292915D01*
G37*
%TD.AperFunction*%
%TA.AperFunction,NonConductor*%
G36*
X93972539Y-52990185D02*
G01*
X94018294Y-53042989D01*
X94029500Y-53094500D01*
X94029500Y-61889794D01*
X94009815Y-61956833D01*
X93957011Y-62002588D01*
X93887853Y-62012532D01*
X93832615Y-61990113D01*
X93657565Y-61862933D01*
X93468164Y-61766429D01*
X93468163Y-61766428D01*
X93468162Y-61766428D01*
X93265993Y-61700739D01*
X93265991Y-61700738D01*
X93265990Y-61700738D01*
X93104707Y-61675193D01*
X93056037Y-61667485D01*
X92843463Y-61667485D01*
X92794792Y-61675193D01*
X92633510Y-61700738D01*
X92431335Y-61766429D01*
X92241929Y-61862936D01*
X92069963Y-61987875D01*
X91919640Y-62138198D01*
X91794701Y-62310164D01*
X91698194Y-62499570D01*
X91632503Y-62701745D01*
X91599250Y-62911698D01*
X91599250Y-63124271D01*
X91632334Y-63333158D01*
X91632504Y-63334228D01*
X91688806Y-63507508D01*
X91698194Y-63536399D01*
X91794701Y-63725805D01*
X91919640Y-63897771D01*
X92069963Y-64048094D01*
X92241932Y-64173035D01*
X92250696Y-64177501D01*
X92301492Y-64225476D01*
X92318286Y-64293297D01*
X92295748Y-64359432D01*
X92250696Y-64398469D01*
X92241932Y-64402934D01*
X92069963Y-64527875D01*
X91919640Y-64678198D01*
X91794701Y-64850164D01*
X91698194Y-65039570D01*
X91632503Y-65241745D01*
X91599250Y-65451698D01*
X91599250Y-65664271D01*
X91612857Y-65750186D01*
X91632504Y-65874228D01*
X91686204Y-66039500D01*
X91698194Y-66076399D01*
X91794701Y-66265805D01*
X91919640Y-66437771D01*
X92069963Y-66588094D01*
X92241932Y-66713035D01*
X92250696Y-66717501D01*
X92301492Y-66765476D01*
X92318286Y-66833297D01*
X92295748Y-66899432D01*
X92250696Y-66938469D01*
X92241932Y-66942934D01*
X92069963Y-67067875D01*
X91919640Y-67218198D01*
X91794701Y-67390164D01*
X91698194Y-67579570D01*
X91632503Y-67781745D01*
X91599250Y-67991698D01*
X91599250Y-68204271D01*
X91629717Y-68396635D01*
X91632504Y-68414228D01*
X91696281Y-68610514D01*
X91698194Y-68616399D01*
X91794701Y-68805805D01*
X91919640Y-68977771D01*
X92069963Y-69128094D01*
X92241932Y-69253035D01*
X92250696Y-69257501D01*
X92301492Y-69305476D01*
X92318286Y-69373297D01*
X92295748Y-69439432D01*
X92250696Y-69478469D01*
X92241932Y-69482934D01*
X92069963Y-69607875D01*
X91919640Y-69758198D01*
X91794701Y-69930164D01*
X91698194Y-70119570D01*
X91632503Y-70321745D01*
X91599250Y-70531698D01*
X91599250Y-70744271D01*
X91630291Y-70940261D01*
X91632504Y-70954228D01*
X91647573Y-71000606D01*
X91698194Y-71156399D01*
X91794701Y-71345805D01*
X91919640Y-71517771D01*
X92069963Y-71668094D01*
X92241932Y-71793035D01*
X92250696Y-71797501D01*
X92301492Y-71845476D01*
X92318286Y-71913297D01*
X92295748Y-71979432D01*
X92250696Y-72018469D01*
X92241932Y-72022934D01*
X92069963Y-72147875D01*
X91919640Y-72298198D01*
X91794701Y-72470164D01*
X91698194Y-72659570D01*
X91632503Y-72861745D01*
X91599250Y-73071698D01*
X91599250Y-73284271D01*
X91628570Y-73469394D01*
X91632504Y-73494228D01*
X91664666Y-73593213D01*
X91698194Y-73696399D01*
X91794701Y-73885805D01*
X91919640Y-74057771D01*
X92069963Y-74208094D01*
X92241932Y-74333035D01*
X92250696Y-74337501D01*
X92301492Y-74385476D01*
X92318286Y-74453297D01*
X92295748Y-74519432D01*
X92250696Y-74558469D01*
X92241932Y-74562934D01*
X92069963Y-74687875D01*
X91919640Y-74838198D01*
X91794701Y-75010164D01*
X91698194Y-75199570D01*
X91632503Y-75401745D01*
X91599250Y-75611698D01*
X91599250Y-75824271D01*
X91632503Y-76034224D01*
X91698194Y-76236399D01*
X91794701Y-76425805D01*
X91919640Y-76597771D01*
X92033180Y-76711311D01*
X92066665Y-76772634D01*
X92061681Y-76842326D01*
X92019809Y-76898259D01*
X91988833Y-76915174D01*
X91857419Y-76964188D01*
X91857414Y-76964191D01*
X91742205Y-77050437D01*
X91742202Y-77050440D01*
X91655956Y-77165649D01*
X91655952Y-77165656D01*
X91605658Y-77300502D01*
X91599251Y-77360101D01*
X91599250Y-77360120D01*
X91599250Y-79155855D01*
X91599251Y-79155861D01*
X91605658Y-79215468D01*
X91655952Y-79350313D01*
X91655956Y-79350320D01*
X91742202Y-79465529D01*
X91742205Y-79465532D01*
X91857414Y-79551778D01*
X91857421Y-79551782D01*
X91992267Y-79602076D01*
X91992266Y-79602076D01*
X91999194Y-79602820D01*
X92051877Y-79608485D01*
X93847622Y-79608484D01*
X93892246Y-79603687D01*
X93961006Y-79616094D01*
X94012143Y-79663705D01*
X94029500Y-79726977D01*
X94029500Y-82065500D01*
X94009815Y-82132539D01*
X93957011Y-82178294D01*
X93905500Y-82189500D01*
X88497526Y-82189500D01*
X88430487Y-82169815D01*
X88384732Y-82117011D01*
X88374788Y-82047853D01*
X88401424Y-81987140D01*
X88469694Y-81903412D01*
X88469694Y-81903411D01*
X88469698Y-81903407D01*
X88563909Y-81723049D01*
X88619886Y-81527418D01*
X88630500Y-81408037D01*
X88630499Y-78291964D01*
X88619886Y-78172582D01*
X88563909Y-77976951D01*
X88469698Y-77796593D01*
X88417684Y-77732803D01*
X88341109Y-77638890D01*
X88178533Y-77506328D01*
X88179892Y-77504660D01*
X88141117Y-77458850D01*
X88130500Y-77408648D01*
X88130500Y-73859060D01*
X88130501Y-73859047D01*
X88130501Y-73690945D01*
X88130501Y-73690943D01*
X88089577Y-73538215D01*
X88010520Y-73401284D01*
X86116819Y-71507583D01*
X86083334Y-71446260D01*
X86080500Y-71419902D01*
X86080500Y-69839700D01*
X86088318Y-69796366D01*
X86099090Y-69767485D01*
X86099089Y-69767485D01*
X86099091Y-69767483D01*
X86105500Y-69707873D01*
X86105499Y-69359498D01*
X86125183Y-69292460D01*
X86177987Y-69246705D01*
X86229499Y-69235499D01*
X86577871Y-69235499D01*
X86577872Y-69235499D01*
X86637483Y-69229091D01*
X86772331Y-69178796D01*
X86887546Y-69092546D01*
X86973796Y-68977331D01*
X87024091Y-68842483D01*
X87024762Y-68836244D01*
X87051500Y-68771693D01*
X87108893Y-68731845D01*
X87148051Y-68725500D01*
X88095764Y-68725500D01*
X88095766Y-68725500D01*
X88242135Y-68686281D01*
X88373365Y-68610515D01*
X88480515Y-68503365D01*
X88556281Y-68372135D01*
X88595500Y-68225766D01*
X88595500Y-60344234D01*
X88586637Y-60311158D01*
X88569804Y-60248334D01*
X88556282Y-60197867D01*
X88556281Y-60197865D01*
X88548566Y-60184502D01*
X88480515Y-60066635D01*
X88369034Y-59955154D01*
X88369023Y-59955144D01*
X87623367Y-59209487D01*
X87623366Y-59209486D01*
X87623365Y-59209485D01*
X87557750Y-59171602D01*
X87492136Y-59133719D01*
X87396944Y-59108213D01*
X87345766Y-59094500D01*
X87345765Y-59094500D01*
X66957384Y-59094500D01*
X66890345Y-59074815D01*
X66888493Y-59073602D01*
X66809184Y-59020609D01*
X66809172Y-59020602D01*
X66663501Y-58960264D01*
X66663489Y-58960261D01*
X66508845Y-58929500D01*
X66508842Y-58929500D01*
X66351158Y-58929500D01*
X66351155Y-58929500D01*
X66196510Y-58960261D01*
X66196498Y-58960264D01*
X66050827Y-59020602D01*
X66050814Y-59020609D01*
X65919711Y-59108210D01*
X65919707Y-59108213D01*
X65808213Y-59219707D01*
X65808210Y-59219711D01*
X65720609Y-59350814D01*
X65720602Y-59350827D01*
X65660264Y-59496498D01*
X65660261Y-59496510D01*
X65629500Y-59651153D01*
X65629500Y-59808846D01*
X65660261Y-59963489D01*
X65660264Y-59963501D01*
X65720602Y-60109172D01*
X65720609Y-60109185D01*
X65808210Y-60240288D01*
X65808213Y-60240292D01*
X65919707Y-60351786D01*
X65919711Y-60351789D01*
X66050814Y-60439390D01*
X66050827Y-60439397D01*
X66188968Y-60496616D01*
X66196503Y-60499737D01*
X66306516Y-60521620D01*
X66351153Y-60530499D01*
X66351156Y-60530500D01*
X66351158Y-60530500D01*
X66508844Y-60530500D01*
X66508845Y-60530499D01*
X66663497Y-60499737D01*
X66809179Y-60439394D01*
X66940289Y-60351789D01*
X67010260Y-60281817D01*
X67071581Y-60248334D01*
X67097940Y-60245500D01*
X67895500Y-60245500D01*
X67962539Y-60265185D01*
X68008294Y-60317989D01*
X68019500Y-60369500D01*
X68019500Y-60468846D01*
X68050261Y-60623489D01*
X68050264Y-60623501D01*
X68110602Y-60769172D01*
X68110609Y-60769185D01*
X68198210Y-60900288D01*
X68198213Y-60900292D01*
X68309707Y-61011786D01*
X68309711Y-61011789D01*
X68440814Y-61099390D01*
X68440827Y-61099397D01*
X68586498Y-61159735D01*
X68586503Y-61159737D01*
X68741153Y-61190499D01*
X68741156Y-61190500D01*
X68741158Y-61190500D01*
X68898844Y-61190500D01*
X68898845Y-61190499D01*
X69053497Y-61159737D01*
X69140016Y-61123900D01*
X69204808Y-61097063D01*
X69205973Y-61099877D01*
X69261351Y-61087909D01*
X69326782Y-61112414D01*
X69340020Y-61123900D01*
X71138181Y-62922061D01*
X71171666Y-62983384D01*
X71174500Y-63009742D01*
X71174500Y-63611731D01*
X71154815Y-63678770D01*
X71102011Y-63724525D01*
X71032853Y-63734469D01*
X70969297Y-63705444D01*
X70950183Y-63684617D01*
X70917642Y-63639830D01*
X70917638Y-63639824D01*
X70750176Y-63472362D01*
X70558578Y-63333158D01*
X70347563Y-63225639D01*
X70347560Y-63225638D01*
X70122327Y-63152457D01*
X70005370Y-63133932D01*
X69888414Y-63115408D01*
X69651586Y-63115408D01*
X69573615Y-63127757D01*
X69417672Y-63152457D01*
X69192439Y-63225638D01*
X69192436Y-63225639D01*
X68981421Y-63333158D01*
X68789821Y-63472364D01*
X68622364Y-63639821D01*
X68483158Y-63831421D01*
X68375639Y-64042436D01*
X68375638Y-64042439D01*
X68302457Y-64267672D01*
X68281741Y-64398469D01*
X68275454Y-64438163D01*
X68265408Y-64501587D01*
X68265408Y-64738412D01*
X68302457Y-64972327D01*
X68375638Y-65197560D01*
X68375639Y-65197563D01*
X68444402Y-65332516D01*
X68483158Y-65408578D01*
X68622362Y-65600176D01*
X68789824Y-65767638D01*
X68789827Y-65767640D01*
X68943761Y-65879480D01*
X68986427Y-65934810D01*
X68992406Y-66004423D01*
X68959800Y-66066218D01*
X68918329Y-66094359D01*
X68830823Y-66130604D01*
X68830814Y-66130609D01*
X68699711Y-66218210D01*
X68699707Y-66218213D01*
X68588213Y-66329707D01*
X68588210Y-66329711D01*
X68500609Y-66460814D01*
X68500602Y-66460827D01*
X68440264Y-66606498D01*
X68440261Y-66606510D01*
X68409500Y-66761153D01*
X68409500Y-66918846D01*
X68440261Y-67073489D01*
X68440264Y-67073501D01*
X68500602Y-67219172D01*
X68500609Y-67219185D01*
X68588210Y-67350288D01*
X68588213Y-67350292D01*
X68699707Y-67461786D01*
X68699711Y-67461789D01*
X68830814Y-67549390D01*
X68830827Y-67549397D01*
X68973620Y-67608543D01*
X68976503Y-67609737D01*
X69131153Y-67640499D01*
X69131156Y-67640500D01*
X69131158Y-67640500D01*
X69288844Y-67640500D01*
X69288845Y-67640499D01*
X69443497Y-67609737D01*
X69556166Y-67563067D01*
X69589172Y-67549397D01*
X69589172Y-67549396D01*
X69589179Y-67549394D01*
X69720289Y-67461789D01*
X69831789Y-67350289D01*
X69919394Y-67219179D01*
X69919803Y-67218193D01*
X69951222Y-67142339D01*
X69979737Y-67073497D01*
X70010500Y-66918842D01*
X70010500Y-66761158D01*
X70010500Y-66761155D01*
X70010499Y-66761153D01*
X69994001Y-66678213D01*
X69979737Y-66606503D01*
X69955484Y-66547950D01*
X69919397Y-66460827D01*
X69919390Y-66460814D01*
X69831789Y-66329711D01*
X69827924Y-66325001D01*
X69829680Y-66323559D01*
X69801057Y-66271140D01*
X69806041Y-66201448D01*
X69847913Y-66145515D01*
X69902823Y-66122309D01*
X70122326Y-66087543D01*
X70347563Y-66014360D01*
X70558578Y-65906842D01*
X70750176Y-65767638D01*
X70917638Y-65600176D01*
X70950182Y-65555383D01*
X71005512Y-65512717D01*
X71075125Y-65506738D01*
X71136920Y-65539344D01*
X71171277Y-65600182D01*
X71174500Y-65628268D01*
X71174500Y-66095765D01*
X71213719Y-66242136D01*
X71227385Y-66265805D01*
X71289485Y-66373365D01*
X71289487Y-66373367D01*
X71603181Y-66687061D01*
X71636666Y-66748384D01*
X71639500Y-66774742D01*
X71639500Y-67435001D01*
X71639501Y-67435019D01*
X71650000Y-67537796D01*
X71650001Y-67537799D01*
X71673840Y-67609738D01*
X71705186Y-67704334D01*
X71797288Y-67853656D01*
X71921344Y-67977712D01*
X72070666Y-68069814D01*
X72237203Y-68124999D01*
X72339991Y-68135500D01*
X72940008Y-68135499D01*
X72940016Y-68135498D01*
X72940019Y-68135498D01*
X72996302Y-68129748D01*
X73042797Y-68124999D01*
X73209334Y-68069814D01*
X73358656Y-67977712D01*
X73482712Y-67853656D01*
X73484461Y-67850819D01*
X73486169Y-67849283D01*
X73487193Y-67847989D01*
X73487414Y-67848163D01*
X73536406Y-67804096D01*
X73605368Y-67792872D01*
X73669451Y-67820713D01*
X73695537Y-67850817D01*
X73697288Y-67853656D01*
X73821344Y-67977712D01*
X73970666Y-68069814D01*
X74137203Y-68124999D01*
X74239991Y-68135500D01*
X74840008Y-68135499D01*
X74840016Y-68135498D01*
X74840019Y-68135498D01*
X74896302Y-68129748D01*
X74942797Y-68124999D01*
X75109334Y-68069814D01*
X75258656Y-67977712D01*
X75382712Y-67853656D01*
X75382712Y-67853655D01*
X75382819Y-67853549D01*
X75444142Y-67820064D01*
X75513834Y-67825048D01*
X75569767Y-67866920D01*
X75594184Y-67932384D01*
X75594500Y-67941230D01*
X75594500Y-69184000D01*
X75633719Y-69330371D01*
X75655436Y-69367985D01*
X75709485Y-69461600D01*
X75709487Y-69461602D01*
X76374661Y-70126776D01*
X76408146Y-70188099D01*
X76404912Y-70252773D01*
X76382503Y-70321742D01*
X76349250Y-70531698D01*
X76349250Y-70744271D01*
X76380291Y-70940261D01*
X76382504Y-70954228D01*
X76397573Y-71000606D01*
X76448194Y-71156399D01*
X76544701Y-71345805D01*
X76669640Y-71517771D01*
X76819963Y-71668094D01*
X76991932Y-71793035D01*
X77000696Y-71797501D01*
X77051492Y-71845476D01*
X77068286Y-71913297D01*
X77045748Y-71979432D01*
X77000696Y-72018469D01*
X76991932Y-72022934D01*
X76819963Y-72147875D01*
X76669640Y-72298198D01*
X76544701Y-72470164D01*
X76448194Y-72659570D01*
X76382503Y-72861745D01*
X76349250Y-73071698D01*
X76349250Y-73284271D01*
X76378570Y-73469394D01*
X76382504Y-73494228D01*
X76414666Y-73593213D01*
X76448194Y-73696399D01*
X76544701Y-73885805D01*
X76669640Y-74057771D01*
X76819963Y-74208094D01*
X76991932Y-74333035D01*
X77000696Y-74337501D01*
X77051492Y-74385476D01*
X77068286Y-74453297D01*
X77045748Y-74519432D01*
X77000696Y-74558469D01*
X76991932Y-74562934D01*
X76819963Y-74687875D01*
X76669640Y-74838198D01*
X76544701Y-75010164D01*
X76448194Y-75199570D01*
X76382503Y-75401745D01*
X76349250Y-75611698D01*
X76349250Y-75824271D01*
X76382503Y-76034224D01*
X76448194Y-76236399D01*
X76544701Y-76425805D01*
X76669640Y-76597771D01*
X76819963Y-76748094D01*
X76991932Y-76873035D01*
X77000696Y-76877501D01*
X77051492Y-76925476D01*
X77068286Y-76993297D01*
X77045748Y-77059432D01*
X77000696Y-77098469D01*
X76991932Y-77102934D01*
X76819963Y-77227875D01*
X76669640Y-77378198D01*
X76544701Y-77550164D01*
X76448194Y-77739570D01*
X76382503Y-77941745D01*
X76349250Y-78151698D01*
X76349250Y-78364271D01*
X76373224Y-78515640D01*
X76382504Y-78574228D01*
X76443633Y-78762364D01*
X76448194Y-78776399D01*
X76544701Y-78965805D01*
X76669640Y-79137771D01*
X76819963Y-79288094D01*
X76991929Y-79413033D01*
X76991931Y-79413034D01*
X76991934Y-79413036D01*
X77181338Y-79509542D01*
X77383507Y-79575231D01*
X77593463Y-79608485D01*
X77593464Y-79608485D01*
X77806036Y-79608485D01*
X77806037Y-79608485D01*
X78015993Y-79575231D01*
X78218162Y-79509542D01*
X78407566Y-79413036D01*
X78493888Y-79350320D01*
X78579536Y-79288094D01*
X78579538Y-79288091D01*
X78579542Y-79288089D01*
X78729854Y-79137777D01*
X78729856Y-79137773D01*
X78729859Y-79137771D01*
X78854798Y-78965805D01*
X78854797Y-78965805D01*
X78854801Y-78965801D01*
X78951307Y-78776397D01*
X79016996Y-78574228D01*
X79050250Y-78364272D01*
X79050250Y-78151698D01*
X79016996Y-77941742D01*
X78951307Y-77739573D01*
X78854801Y-77550169D01*
X78854799Y-77550166D01*
X78854798Y-77550164D01*
X78729859Y-77378198D01*
X78579536Y-77227875D01*
X78407570Y-77102936D01*
X78406865Y-77102576D01*
X78398804Y-77098470D01*
X78348009Y-77050497D01*
X78331213Y-76982677D01*
X78353749Y-76916541D01*
X78398804Y-76877500D01*
X78407566Y-76873036D01*
X78524905Y-76787785D01*
X78579536Y-76748094D01*
X78579538Y-76748091D01*
X78579542Y-76748089D01*
X78729854Y-76597777D01*
X78729856Y-76597773D01*
X78729859Y-76597771D01*
X78854798Y-76425805D01*
X78854797Y-76425805D01*
X78854801Y-76425801D01*
X78951307Y-76236397D01*
X79016996Y-76034228D01*
X79050250Y-75824272D01*
X79050250Y-75611698D01*
X79016996Y-75401742D01*
X78951307Y-75199573D01*
X78854801Y-75010169D01*
X78854799Y-75010166D01*
X78854798Y-75010164D01*
X78729859Y-74838198D01*
X78579536Y-74687875D01*
X78407570Y-74562936D01*
X78406865Y-74562576D01*
X78398804Y-74558470D01*
X78348009Y-74510497D01*
X78331213Y-74442677D01*
X78353749Y-74376541D01*
X78398804Y-74337500D01*
X78407566Y-74333036D01*
X78524184Y-74248309D01*
X78579536Y-74208094D01*
X78579538Y-74208091D01*
X78579542Y-74208089D01*
X78729854Y-74057777D01*
X78729856Y-74057773D01*
X78729859Y-74057771D01*
X78854798Y-73885805D01*
X78854797Y-73885805D01*
X78854801Y-73885801D01*
X78951307Y-73696397D01*
X79016996Y-73494228D01*
X79050250Y-73284272D01*
X79050250Y-73071698D01*
X79016996Y-72861742D01*
X78951307Y-72659573D01*
X78854801Y-72470169D01*
X78854799Y-72470166D01*
X78854798Y-72470164D01*
X78729859Y-72298198D01*
X78579536Y-72147875D01*
X78407570Y-72022936D01*
X78406865Y-72022576D01*
X78398804Y-72018470D01*
X78348009Y-71970497D01*
X78331213Y-71902677D01*
X78353749Y-71836541D01*
X78398804Y-71797500D01*
X78407566Y-71793036D01*
X78524184Y-71708309D01*
X78579536Y-71668094D01*
X78579538Y-71668091D01*
X78579542Y-71668089D01*
X78729854Y-71517777D01*
X78729856Y-71517773D01*
X78729859Y-71517771D01*
X78854798Y-71345805D01*
X78854797Y-71345805D01*
X78854801Y-71345801D01*
X78951307Y-71156397D01*
X79016996Y-70954228D01*
X79050250Y-70744272D01*
X79050250Y-70531698D01*
X79016996Y-70321742D01*
X78951307Y-70119573D01*
X78854801Y-69930169D01*
X78854799Y-69930166D01*
X78854798Y-69930164D01*
X78729859Y-69758198D01*
X78579536Y-69607875D01*
X78407570Y-69482936D01*
X78406865Y-69482576D01*
X78398804Y-69478470D01*
X78348009Y-69430497D01*
X78331213Y-69362677D01*
X78353749Y-69296541D01*
X78398804Y-69257500D01*
X78407566Y-69253036D01*
X78440524Y-69229091D01*
X78579536Y-69128094D01*
X78579538Y-69128091D01*
X78579542Y-69128089D01*
X78729854Y-68977777D01*
X78729856Y-68977773D01*
X78729859Y-68977771D01*
X78784649Y-68902356D01*
X78854801Y-68805801D01*
X78887722Y-68741190D01*
X78935697Y-68690394D01*
X78998207Y-68673485D01*
X82306357Y-68673485D01*
X82373396Y-68693170D01*
X82419151Y-68745974D01*
X82429647Y-68784232D01*
X82435908Y-68842483D01*
X82486202Y-68977328D01*
X82486206Y-68977335D01*
X82572452Y-69092544D01*
X82572455Y-69092547D01*
X82687664Y-69178793D01*
X82687671Y-69178797D01*
X82701624Y-69184001D01*
X82822517Y-69229091D01*
X82882127Y-69235500D01*
X83230500Y-69235499D01*
X83297539Y-69255183D01*
X83343294Y-69307987D01*
X83354500Y-69359499D01*
X83354500Y-69707869D01*
X83354501Y-69707876D01*
X83360908Y-69767483D01*
X83411202Y-69902328D01*
X83411206Y-69902335D01*
X83497452Y-70017544D01*
X83497455Y-70017547D01*
X83612664Y-70103793D01*
X83612671Y-70103797D01*
X83654961Y-70119570D01*
X83747517Y-70154091D01*
X83807127Y-70160500D01*
X83830900Y-70160499D01*
X83897938Y-70180181D01*
X83943694Y-70232983D01*
X83953641Y-70302142D01*
X83924618Y-70365698D01*
X83918583Y-70372180D01*
X82571286Y-71719478D01*
X82459481Y-71831282D01*
X82459480Y-71831284D01*
X82425845Y-71889542D01*
X82380423Y-71968215D01*
X82339499Y-72120943D01*
X82339499Y-72120945D01*
X82339499Y-72289046D01*
X82339500Y-72289059D01*
X82339500Y-77280390D01*
X82319815Y-77347429D01*
X82267011Y-77393184D01*
X82249615Y-77399605D01*
X82226954Y-77406089D01*
X82136772Y-77453196D01*
X82046593Y-77500302D01*
X82046591Y-77500303D01*
X82046590Y-77500304D01*
X81888890Y-77628890D01*
X81760304Y-77786590D01*
X81760302Y-77786593D01*
X81713196Y-77876772D01*
X81666089Y-77966954D01*
X81621332Y-78123376D01*
X81613229Y-78151698D01*
X81610114Y-78162583D01*
X81610113Y-78162586D01*
X81599500Y-78281966D01*
X81599500Y-81398028D01*
X81599501Y-81398034D01*
X81610113Y-81517415D01*
X81666089Y-81713045D01*
X81666090Y-81713048D01*
X81666091Y-81713049D01*
X81671312Y-81723045D01*
X81760305Y-81893412D01*
X81836730Y-81987140D01*
X81863839Y-82051536D01*
X81851829Y-82120366D01*
X81804514Y-82171776D01*
X81740628Y-82189500D01*
X56694500Y-82189500D01*
X56627461Y-82169815D01*
X56581706Y-82117011D01*
X56570500Y-82065500D01*
X56570500Y-79791586D01*
X58065408Y-79791586D01*
X58065408Y-79844268D01*
X58065408Y-80028414D01*
X58077177Y-80102716D01*
X58102457Y-80262327D01*
X58175638Y-80487560D01*
X58175639Y-80487563D01*
X58283158Y-80698578D01*
X58422362Y-80890176D01*
X58589824Y-81057638D01*
X58781422Y-81196842D01*
X58884918Y-81249576D01*
X58992436Y-81304360D01*
X58992439Y-81304361D01*
X59105055Y-81340951D01*
X59217674Y-81377543D01*
X59451586Y-81414592D01*
X59451587Y-81414592D01*
X59688413Y-81414592D01*
X59688414Y-81414592D01*
X59922326Y-81377543D01*
X60147563Y-81304360D01*
X60358578Y-81196842D01*
X60550176Y-81057638D01*
X60717638Y-80890176D01*
X60856842Y-80698578D01*
X60964360Y-80487563D01*
X61037543Y-80262326D01*
X61074592Y-80028414D01*
X61074592Y-79791586D01*
X61037543Y-79557674D01*
X61022569Y-79511587D01*
X72235408Y-79511587D01*
X72235408Y-79748412D01*
X72272457Y-79982327D01*
X72345638Y-80207560D01*
X72345639Y-80207563D01*
X72431085Y-80375258D01*
X72453158Y-80418578D01*
X72592362Y-80610176D01*
X72759824Y-80777638D01*
X72951422Y-80916842D01*
X73054918Y-80969576D01*
X73162436Y-81024360D01*
X73162439Y-81024361D01*
X73264848Y-81057635D01*
X73387674Y-81097543D01*
X73621586Y-81134592D01*
X73621587Y-81134592D01*
X73858413Y-81134592D01*
X73858414Y-81134592D01*
X74092326Y-81097543D01*
X74317563Y-81024360D01*
X74528578Y-80916842D01*
X74720176Y-80777638D01*
X74887638Y-80610176D01*
X75026842Y-80418578D01*
X75134360Y-80207563D01*
X75207543Y-79982326D01*
X75244592Y-79748414D01*
X75244592Y-79511586D01*
X75207543Y-79277674D01*
X75134360Y-79052437D01*
X75134360Y-79052436D01*
X75026841Y-78841421D01*
X74979600Y-78776399D01*
X74887638Y-78649824D01*
X74720176Y-78482362D01*
X74528578Y-78343158D01*
X74317563Y-78235639D01*
X74317560Y-78235638D01*
X74092327Y-78162457D01*
X73975370Y-78143932D01*
X73858414Y-78125408D01*
X73621586Y-78125408D01*
X73543615Y-78137757D01*
X73387672Y-78162457D01*
X73162439Y-78235638D01*
X73162436Y-78235639D01*
X72951421Y-78343158D01*
X72759821Y-78482364D01*
X72592364Y-78649821D01*
X72453158Y-78841421D01*
X72345639Y-79052436D01*
X72345638Y-79052439D01*
X72272457Y-79277672D01*
X72235408Y-79511587D01*
X61022569Y-79511587D01*
X61000850Y-79444742D01*
X60964361Y-79332439D01*
X60964360Y-79332436D01*
X60904761Y-79215468D01*
X60856842Y-79121422D01*
X60717638Y-78929824D01*
X60550176Y-78762362D01*
X60358578Y-78623158D01*
X60147563Y-78515639D01*
X60147560Y-78515638D01*
X59922327Y-78442457D01*
X59805370Y-78423932D01*
X59688414Y-78405408D01*
X59451586Y-78405408D01*
X59373615Y-78417757D01*
X59217672Y-78442457D01*
X58992439Y-78515638D01*
X58992436Y-78515639D01*
X58781421Y-78623158D01*
X58589821Y-78762364D01*
X58422364Y-78929821D01*
X58283158Y-79121421D01*
X58175639Y-79332436D01*
X58175638Y-79332439D01*
X58102457Y-79557672D01*
X58099676Y-79575231D01*
X58065408Y-79791586D01*
X56570500Y-79791586D01*
X56570500Y-77170191D01*
X56590185Y-77103152D01*
X56642989Y-77057397D01*
X56712147Y-77047453D01*
X56741948Y-77055628D01*
X56878165Y-77112051D01*
X56878169Y-77112051D01*
X56878170Y-77112052D01*
X57071456Y-77150500D01*
X57071459Y-77150500D01*
X58868543Y-77150500D01*
X58998582Y-77124632D01*
X59061835Y-77112051D01*
X59243914Y-77036632D01*
X59407782Y-76927139D01*
X59547139Y-76787782D01*
X59656632Y-76623914D01*
X59732051Y-76441835D01*
X59756228Y-76320289D01*
X59770500Y-76248543D01*
X61779499Y-76248543D01*
X61817947Y-76441829D01*
X61817950Y-76441839D01*
X61893364Y-76623907D01*
X61893371Y-76623920D01*
X62002860Y-76787781D01*
X62002863Y-76787785D01*
X62142214Y-76927136D01*
X62142218Y-76927139D01*
X62306079Y-77036628D01*
X62306092Y-77036635D01*
X62488160Y-77112049D01*
X62488165Y-77112051D01*
X62488169Y-77112051D01*
X62488170Y-77112052D01*
X62681456Y-77150500D01*
X62681459Y-77150500D01*
X63978543Y-77150500D01*
X64108582Y-77124632D01*
X64171835Y-77112051D01*
X64353914Y-77036632D01*
X64517782Y-76927139D01*
X64657139Y-76787782D01*
X64750161Y-76648563D01*
X64803771Y-76603760D01*
X64873096Y-76595053D01*
X64877439Y-76595836D01*
X64887196Y-76597777D01*
X64951156Y-76610500D01*
X64951158Y-76610500D01*
X65108844Y-76610500D01*
X65108845Y-76610499D01*
X65263497Y-76579737D01*
X65409179Y-76519394D01*
X65540289Y-76431789D01*
X65651789Y-76320289D01*
X65739394Y-76189179D01*
X65799737Y-76043497D01*
X65830500Y-75888842D01*
X65830500Y-75731158D01*
X65830500Y-75731155D01*
X65830499Y-75731153D01*
X65799737Y-75576503D01*
X65799735Y-75576498D01*
X65739397Y-75430827D01*
X65739390Y-75430814D01*
X65651789Y-75299711D01*
X65651786Y-75299707D01*
X65540292Y-75188213D01*
X65540288Y-75188210D01*
X65409185Y-75100609D01*
X65409172Y-75100602D01*
X65263501Y-75040264D01*
X65263489Y-75040261D01*
X65108845Y-75009500D01*
X65108842Y-75009500D01*
X64951158Y-75009500D01*
X64951155Y-75009500D01*
X64796510Y-75040261D01*
X64796498Y-75040264D01*
X64650827Y-75100602D01*
X64650814Y-75100609D01*
X64519714Y-75188208D01*
X64519708Y-75188212D01*
X64476590Y-75231330D01*
X64415267Y-75264814D01*
X64345575Y-75259828D01*
X64341459Y-75258208D01*
X64171839Y-75187950D01*
X64171829Y-75187947D01*
X63978543Y-75149500D01*
X63978541Y-75149500D01*
X62681459Y-75149500D01*
X62681457Y-75149500D01*
X62488170Y-75187947D01*
X62488160Y-75187950D01*
X62306092Y-75263364D01*
X62306079Y-75263371D01*
X62142218Y-75372860D01*
X62142214Y-75372863D01*
X62002863Y-75512214D01*
X62002860Y-75512218D01*
X61893371Y-75676079D01*
X61893364Y-75676092D01*
X61817950Y-75858160D01*
X61817947Y-75858170D01*
X61779500Y-76051456D01*
X61779500Y-76051459D01*
X61779500Y-76248541D01*
X61779500Y-76248543D01*
X61779499Y-76248543D01*
X59770500Y-76248543D01*
X59770500Y-76051456D01*
X59732052Y-75858170D01*
X59732051Y-75858169D01*
X59732051Y-75858165D01*
X59718012Y-75824271D01*
X59656635Y-75676092D01*
X59656628Y-75676079D01*
X59547139Y-75512218D01*
X59547136Y-75512214D01*
X59407785Y-75372863D01*
X59407781Y-75372860D01*
X59243920Y-75263371D01*
X59243907Y-75263364D01*
X59061839Y-75187950D01*
X59061829Y-75187947D01*
X58868543Y-75149500D01*
X58868541Y-75149500D01*
X57071459Y-75149500D01*
X57071457Y-75149500D01*
X56878170Y-75187947D01*
X56878160Y-75187950D01*
X56741952Y-75244369D01*
X56672483Y-75251838D01*
X56610004Y-75220562D01*
X56574352Y-75160473D01*
X56570500Y-75129808D01*
X56570500Y-74136153D01*
X70689500Y-74136153D01*
X70689500Y-74293846D01*
X70720261Y-74448489D01*
X70720264Y-74448501D01*
X70780602Y-74594172D01*
X70780609Y-74594185D01*
X70868210Y-74725288D01*
X70868213Y-74725292D01*
X70979707Y-74836786D01*
X70979711Y-74836789D01*
X71110814Y-74924390D01*
X71110827Y-74924397D01*
X71256498Y-74984735D01*
X71256503Y-74984737D01*
X71411153Y-75015499D01*
X71411156Y-75015500D01*
X71411158Y-75015500D01*
X71568844Y-75015500D01*
X71568845Y-75015499D01*
X71723497Y-74984737D01*
X71869179Y-74924394D01*
X72000289Y-74836789D01*
X72111789Y-74725289D01*
X72199394Y-74594179D01*
X72259737Y-74448497D01*
X72290500Y-74293842D01*
X72290500Y-74136158D01*
X72290500Y-74136155D01*
X72290499Y-74136153D01*
X72259737Y-73981503D01*
X72220098Y-73885805D01*
X72199397Y-73835827D01*
X72199390Y-73835814D01*
X72111789Y-73704711D01*
X72111786Y-73704707D01*
X72000292Y-73593213D01*
X72000288Y-73593210D01*
X71869185Y-73505609D01*
X71869172Y-73505602D01*
X71723501Y-73445264D01*
X71723489Y-73445261D01*
X71568845Y-73414500D01*
X71568842Y-73414500D01*
X71411158Y-73414500D01*
X71411155Y-73414500D01*
X71256510Y-73445261D01*
X71256498Y-73445264D01*
X71110827Y-73505602D01*
X71110814Y-73505609D01*
X70979711Y-73593210D01*
X70979707Y-73593213D01*
X70868213Y-73704707D01*
X70868210Y-73704711D01*
X70780609Y-73835814D01*
X70780602Y-73835827D01*
X70720264Y-73981498D01*
X70720261Y-73981510D01*
X70689500Y-74136153D01*
X56570500Y-74136153D01*
X56570500Y-72681153D01*
X67279500Y-72681153D01*
X67279500Y-72838846D01*
X67310261Y-72993489D01*
X67310264Y-72993501D01*
X67370602Y-73139172D01*
X67370609Y-73139185D01*
X67458210Y-73270288D01*
X67458213Y-73270292D01*
X67569707Y-73381786D01*
X67569711Y-73381789D01*
X67700814Y-73469390D01*
X67700827Y-73469397D01*
X67788245Y-73505606D01*
X67846503Y-73529737D01*
X68001153Y-73560499D01*
X68001156Y-73560500D01*
X68001158Y-73560500D01*
X68158844Y-73560500D01*
X68158845Y-73560499D01*
X68313497Y-73529737D01*
X68459179Y-73469394D01*
X68590289Y-73381789D01*
X68701789Y-73270289D01*
X68789394Y-73139179D01*
X68849737Y-72993497D01*
X68880500Y-72838842D01*
X68880500Y-72681158D01*
X68880500Y-72681155D01*
X68880499Y-72681153D01*
X68849738Y-72526510D01*
X68849737Y-72526503D01*
X68849735Y-72526498D01*
X68789397Y-72380827D01*
X68789390Y-72380814D01*
X68701789Y-72249711D01*
X68701786Y-72249707D01*
X68590292Y-72138213D01*
X68590288Y-72138210D01*
X68459185Y-72050609D01*
X68459172Y-72050602D01*
X68313501Y-71990264D01*
X68313489Y-71990261D01*
X68158845Y-71959500D01*
X68158842Y-71959500D01*
X68001158Y-71959500D01*
X68001155Y-71959500D01*
X67846510Y-71990261D01*
X67846498Y-71990264D01*
X67700827Y-72050602D01*
X67700814Y-72050609D01*
X67569711Y-72138210D01*
X67569707Y-72138213D01*
X67458213Y-72249707D01*
X67458210Y-72249711D01*
X67370609Y-72380814D01*
X67370602Y-72380827D01*
X67310264Y-72526498D01*
X67310261Y-72526510D01*
X67279500Y-72681153D01*
X56570500Y-72681153D01*
X56570500Y-71631153D01*
X64469500Y-71631153D01*
X64469500Y-71788846D01*
X64500261Y-71943489D01*
X64500264Y-71943501D01*
X64560602Y-72089172D01*
X64560609Y-72089185D01*
X64648210Y-72220288D01*
X64648213Y-72220292D01*
X64759707Y-72331786D01*
X64759711Y-72331789D01*
X64890814Y-72419390D01*
X64890827Y-72419397D01*
X65036498Y-72479735D01*
X65036503Y-72479737D01*
X65191153Y-72510499D01*
X65191156Y-72510500D01*
X65191158Y-72510500D01*
X65348844Y-72510500D01*
X65348845Y-72510499D01*
X65503497Y-72479737D01*
X65649179Y-72419394D01*
X65780289Y-72331789D01*
X65891789Y-72220289D01*
X65979394Y-72089179D01*
X65979588Y-72088712D01*
X65995708Y-72049794D01*
X66039737Y-71943497D01*
X66070500Y-71788842D01*
X66070500Y-71631158D01*
X66070500Y-71631155D01*
X66070499Y-71631153D01*
X66047947Y-71517777D01*
X66039737Y-71476503D01*
X66027210Y-71446260D01*
X65979397Y-71330827D01*
X65979390Y-71330814D01*
X65891789Y-71199711D01*
X65891786Y-71199707D01*
X65780292Y-71088213D01*
X65780288Y-71088210D01*
X65649185Y-71000609D01*
X65649172Y-71000602D01*
X65503501Y-70940264D01*
X65503489Y-70940261D01*
X65348845Y-70909500D01*
X65348842Y-70909500D01*
X65191158Y-70909500D01*
X65191155Y-70909500D01*
X65036510Y-70940261D01*
X65036498Y-70940264D01*
X64890827Y-71000602D01*
X64890814Y-71000609D01*
X64759711Y-71088210D01*
X64759707Y-71088213D01*
X64648213Y-71199707D01*
X64648210Y-71199711D01*
X64560609Y-71330814D01*
X64560602Y-71330827D01*
X64500264Y-71476498D01*
X64500261Y-71476510D01*
X64469500Y-71631153D01*
X56570500Y-71631153D01*
X56570500Y-69151153D01*
X65139500Y-69151153D01*
X65139500Y-69308846D01*
X65170261Y-69463489D01*
X65170264Y-69463501D01*
X65230602Y-69609172D01*
X65230609Y-69609185D01*
X65318210Y-69740288D01*
X65318213Y-69740292D01*
X65429707Y-69851786D01*
X65429711Y-69851789D01*
X65560814Y-69939390D01*
X65560827Y-69939397D01*
X65706498Y-69999735D01*
X65706503Y-69999737D01*
X65861153Y-70030499D01*
X65861156Y-70030500D01*
X65861158Y-70030500D01*
X66018844Y-70030500D01*
X66018845Y-70030499D01*
X66173497Y-69999737D01*
X66290790Y-69951153D01*
X73774500Y-69951153D01*
X73774500Y-70108846D01*
X73805261Y-70263489D01*
X73805264Y-70263501D01*
X73865602Y-70409172D01*
X73865609Y-70409185D01*
X73953210Y-70540288D01*
X73953213Y-70540292D01*
X74064707Y-70651786D01*
X74064711Y-70651789D01*
X74195814Y-70739390D01*
X74195827Y-70739397D01*
X74341498Y-70799735D01*
X74341503Y-70799737D01*
X74496153Y-70830499D01*
X74496156Y-70830500D01*
X74496158Y-70830500D01*
X74653844Y-70830500D01*
X74653845Y-70830499D01*
X74808497Y-70799737D01*
X74921166Y-70753067D01*
X74954172Y-70739397D01*
X74954172Y-70739396D01*
X74954179Y-70739394D01*
X75085289Y-70651789D01*
X75196789Y-70540289D01*
X75284394Y-70409179D01*
X75344737Y-70263497D01*
X75375500Y-70108842D01*
X75375500Y-69951158D01*
X75375500Y-69951155D01*
X75375499Y-69951153D01*
X75355734Y-69851788D01*
X75344737Y-69796503D01*
X75344680Y-69796366D01*
X75284397Y-69650827D01*
X75284390Y-69650814D01*
X75196789Y-69519711D01*
X75196786Y-69519707D01*
X75085292Y-69408213D01*
X75085288Y-69408210D01*
X74954185Y-69320609D01*
X74954172Y-69320602D01*
X74808501Y-69260264D01*
X74808489Y-69260261D01*
X74653845Y-69229500D01*
X74653842Y-69229500D01*
X74496158Y-69229500D01*
X74496155Y-69229500D01*
X74341510Y-69260261D01*
X74341498Y-69260264D01*
X74195827Y-69320602D01*
X74195814Y-69320609D01*
X74064711Y-69408210D01*
X74064707Y-69408213D01*
X73953213Y-69519707D01*
X73953210Y-69519711D01*
X73865609Y-69650814D01*
X73865602Y-69650827D01*
X73805264Y-69796498D01*
X73805261Y-69796510D01*
X73774500Y-69951153D01*
X66290790Y-69951153D01*
X66319179Y-69939394D01*
X66450289Y-69851789D01*
X66561789Y-69740289D01*
X66649394Y-69609179D01*
X66659587Y-69584572D01*
X66685862Y-69521136D01*
X66709737Y-69463497D01*
X66740500Y-69308842D01*
X66740500Y-69151158D01*
X66740500Y-69151155D01*
X66740499Y-69151153D01*
X66709738Y-68996510D01*
X66709737Y-68996503D01*
X66709735Y-68996498D01*
X66649397Y-68850827D01*
X66649390Y-68850814D01*
X66561789Y-68719711D01*
X66561786Y-68719707D01*
X66450292Y-68608213D01*
X66450288Y-68608210D01*
X66319185Y-68520609D01*
X66319172Y-68520602D01*
X66173501Y-68460264D01*
X66173489Y-68460261D01*
X66018845Y-68429500D01*
X66018842Y-68429500D01*
X65861158Y-68429500D01*
X65861155Y-68429500D01*
X65706510Y-68460261D01*
X65706498Y-68460264D01*
X65560827Y-68520602D01*
X65560814Y-68520609D01*
X65429711Y-68608210D01*
X65429707Y-68608213D01*
X65318213Y-68719707D01*
X65318210Y-68719711D01*
X65230609Y-68850814D01*
X65230602Y-68850827D01*
X65170264Y-68996498D01*
X65170261Y-68996510D01*
X65139500Y-69151153D01*
X56570500Y-69151153D01*
X56570500Y-68530191D01*
X56590185Y-68463152D01*
X56642989Y-68417397D01*
X56712147Y-68407453D01*
X56741948Y-68415628D01*
X56878165Y-68472051D01*
X56878169Y-68472051D01*
X56878170Y-68472052D01*
X57071456Y-68510500D01*
X57071459Y-68510500D01*
X58868543Y-68510500D01*
X58998582Y-68484632D01*
X59061835Y-68472051D01*
X59243914Y-68396632D01*
X59407782Y-68287139D01*
X59547139Y-68147782D01*
X59656632Y-67983914D01*
X59732051Y-67801835D01*
X59756449Y-67679179D01*
X59770500Y-67608543D01*
X61779499Y-67608543D01*
X61817947Y-67801829D01*
X61817950Y-67801839D01*
X61893364Y-67983907D01*
X61893371Y-67983920D01*
X62002860Y-68147781D01*
X62002863Y-68147785D01*
X62142214Y-68287136D01*
X62142218Y-68287139D01*
X62306079Y-68396628D01*
X62306092Y-68396635D01*
X62488160Y-68472049D01*
X62488165Y-68472051D01*
X62488169Y-68472051D01*
X62488170Y-68472052D01*
X62681456Y-68510500D01*
X62681459Y-68510500D01*
X63978543Y-68510500D01*
X64108582Y-68484632D01*
X64171835Y-68472051D01*
X64353914Y-68396632D01*
X64517782Y-68287139D01*
X64657139Y-68147782D01*
X64766632Y-67983914D01*
X64766633Y-67983911D01*
X64766635Y-67983908D01*
X64820586Y-67853656D01*
X64841486Y-67803198D01*
X64885325Y-67748796D01*
X64951619Y-67726731D01*
X65019319Y-67744010D01*
X65059147Y-67781759D01*
X65078211Y-67810290D01*
X65189707Y-67921786D01*
X65189711Y-67921789D01*
X65320814Y-68009390D01*
X65320827Y-68009397D01*
X65466498Y-68069735D01*
X65466503Y-68069737D01*
X65621153Y-68100499D01*
X65621156Y-68100500D01*
X65621158Y-68100500D01*
X65778844Y-68100500D01*
X65778845Y-68100499D01*
X65933497Y-68069737D01*
X66079179Y-68009394D01*
X66210289Y-67921789D01*
X66321789Y-67810289D01*
X66409394Y-67679179D01*
X66469737Y-67533497D01*
X66500500Y-67378842D01*
X66500500Y-67221158D01*
X66500500Y-67221155D01*
X66500499Y-67221153D01*
X66484822Y-67142339D01*
X66469737Y-67066503D01*
X66458335Y-67038975D01*
X66409397Y-66920827D01*
X66409390Y-66920814D01*
X66321789Y-66789711D01*
X66321786Y-66789707D01*
X66210292Y-66678213D01*
X66210288Y-66678210D01*
X66079185Y-66590609D01*
X66079172Y-66590602D01*
X65933501Y-66530264D01*
X65933489Y-66530261D01*
X65778845Y-66499500D01*
X65778842Y-66499500D01*
X65621158Y-66499500D01*
X65621155Y-66499500D01*
X65466510Y-66530261D01*
X65466498Y-66530264D01*
X65320827Y-66590602D01*
X65320814Y-66590609D01*
X65189711Y-66678210D01*
X65189707Y-66678213D01*
X65078213Y-66789707D01*
X65078210Y-66789711D01*
X64990609Y-66920814D01*
X64990604Y-66920824D01*
X64964199Y-66984572D01*
X64920358Y-67038975D01*
X64854063Y-67061040D01*
X64786364Y-67043761D01*
X64746536Y-67006010D01*
X64657139Y-66872217D01*
X64517785Y-66732863D01*
X64517781Y-66732860D01*
X64353920Y-66623371D01*
X64353907Y-66623364D01*
X64171839Y-66547950D01*
X64171829Y-66547947D01*
X63978543Y-66509500D01*
X63978541Y-66509500D01*
X62681459Y-66509500D01*
X62681457Y-66509500D01*
X62488170Y-66547947D01*
X62488160Y-66547950D01*
X62306092Y-66623364D01*
X62306079Y-66623371D01*
X62142218Y-66732860D01*
X62142214Y-66732863D01*
X62002863Y-66872214D01*
X62002860Y-66872218D01*
X61893371Y-67036079D01*
X61893364Y-67036092D01*
X61817950Y-67218160D01*
X61817947Y-67218170D01*
X61779500Y-67411456D01*
X61779500Y-67411459D01*
X61779500Y-67608541D01*
X61779500Y-67608543D01*
X61779499Y-67608543D01*
X59770500Y-67608543D01*
X59770500Y-67411456D01*
X59732052Y-67218170D01*
X59732051Y-67218169D01*
X59732051Y-67218165D01*
X59672125Y-67073489D01*
X59656635Y-67036092D01*
X59656628Y-67036079D01*
X59547139Y-66872218D01*
X59547136Y-66872214D01*
X59407785Y-66732863D01*
X59407781Y-66732860D01*
X59243920Y-66623371D01*
X59243907Y-66623364D01*
X59061839Y-66547950D01*
X59061829Y-66547947D01*
X58868543Y-66509500D01*
X58868541Y-66509500D01*
X57071459Y-66509500D01*
X57071457Y-66509500D01*
X56878170Y-66547947D01*
X56878160Y-66547950D01*
X56741952Y-66604369D01*
X56672483Y-66611838D01*
X56610004Y-66580562D01*
X56574352Y-66520473D01*
X56570500Y-66489808D01*
X56570500Y-63386153D01*
X59259500Y-63386153D01*
X59259500Y-63543846D01*
X59290261Y-63698489D01*
X59290264Y-63698501D01*
X59350602Y-63844172D01*
X59350609Y-63844185D01*
X59438210Y-63975288D01*
X59438213Y-63975292D01*
X59549707Y-64086786D01*
X59549711Y-64086789D01*
X59680814Y-64174390D01*
X59680827Y-64174397D01*
X59826498Y-64234735D01*
X59826503Y-64234737D01*
X59981153Y-64265499D01*
X59981156Y-64265500D01*
X59981158Y-64265500D01*
X60138844Y-64265500D01*
X60138845Y-64265499D01*
X60293497Y-64234737D01*
X60439179Y-64174394D01*
X60570289Y-64086789D01*
X60681789Y-63975289D01*
X60769394Y-63844179D01*
X60774679Y-63831421D01*
X60814837Y-63734469D01*
X60829737Y-63698497D01*
X60860500Y-63543842D01*
X60860500Y-63386158D01*
X60855149Y-63359256D01*
X60855149Y-63359253D01*
X60851549Y-63341153D01*
X61469500Y-63341153D01*
X61469500Y-63498846D01*
X61500261Y-63653489D01*
X61500264Y-63653501D01*
X61560602Y-63799172D01*
X61560609Y-63799185D01*
X61648210Y-63930288D01*
X61648213Y-63930292D01*
X61759707Y-64041786D01*
X61759711Y-64041789D01*
X61890814Y-64129390D01*
X61890827Y-64129397D01*
X62006962Y-64177501D01*
X62036503Y-64189737D01*
X62191027Y-64220474D01*
X62191153Y-64220499D01*
X62191156Y-64220500D01*
X62191158Y-64220500D01*
X62348844Y-64220500D01*
X62348845Y-64220499D01*
X62503497Y-64189737D01*
X62649179Y-64129394D01*
X62780289Y-64041789D01*
X62891789Y-63930289D01*
X62979394Y-63799179D01*
X63039737Y-63653497D01*
X63070500Y-63498842D01*
X63070500Y-63341158D01*
X63070500Y-63341155D01*
X63070499Y-63341153D01*
X63068909Y-63333158D01*
X63039737Y-63186503D01*
X63025635Y-63152457D01*
X62979397Y-63040827D01*
X62979390Y-63040814D01*
X62891789Y-62909711D01*
X62891786Y-62909707D01*
X62780292Y-62798213D01*
X62780288Y-62798210D01*
X62649185Y-62710609D01*
X62649172Y-62710602D01*
X62503501Y-62650264D01*
X62503489Y-62650261D01*
X62348845Y-62619500D01*
X62348842Y-62619500D01*
X62191158Y-62619500D01*
X62191155Y-62619500D01*
X62036510Y-62650261D01*
X62036498Y-62650264D01*
X61890827Y-62710602D01*
X61890814Y-62710609D01*
X61759711Y-62798210D01*
X61759707Y-62798213D01*
X61648213Y-62909707D01*
X61648210Y-62909711D01*
X61560609Y-63040814D01*
X61560602Y-63040827D01*
X61500264Y-63186498D01*
X61500261Y-63186510D01*
X61469500Y-63341153D01*
X60851549Y-63341153D01*
X60829738Y-63231508D01*
X60829737Y-63231507D01*
X60829737Y-63231503D01*
X60829735Y-63231498D01*
X60769397Y-63085827D01*
X60769390Y-63085814D01*
X60681789Y-62954711D01*
X60681786Y-62954707D01*
X60570292Y-62843213D01*
X60570288Y-62843210D01*
X60439185Y-62755609D01*
X60439172Y-62755602D01*
X60293501Y-62695264D01*
X60293489Y-62695261D01*
X60138845Y-62664500D01*
X60138842Y-62664500D01*
X59981158Y-62664500D01*
X59981155Y-62664500D01*
X59826510Y-62695261D01*
X59826498Y-62695264D01*
X59680827Y-62755602D01*
X59680814Y-62755609D01*
X59549711Y-62843210D01*
X59549707Y-62843213D01*
X59438213Y-62954707D01*
X59438210Y-62954711D01*
X59350609Y-63085814D01*
X59350602Y-63085827D01*
X59290264Y-63231498D01*
X59290261Y-63231510D01*
X59259500Y-63386153D01*
X56570500Y-63386153D01*
X56570500Y-57461153D01*
X58209500Y-57461153D01*
X58209500Y-57618846D01*
X58240261Y-57773489D01*
X58240264Y-57773501D01*
X58300602Y-57919172D01*
X58300609Y-57919185D01*
X58388210Y-58050288D01*
X58388213Y-58050292D01*
X58499707Y-58161786D01*
X58499711Y-58161789D01*
X58630814Y-58249390D01*
X58630827Y-58249397D01*
X58776498Y-58309735D01*
X58776503Y-58309737D01*
X58931153Y-58340499D01*
X58931156Y-58340500D01*
X58931158Y-58340500D01*
X59088844Y-58340500D01*
X59088845Y-58340499D01*
X59243497Y-58309737D01*
X59389179Y-58249394D01*
X59520289Y-58161789D01*
X59631789Y-58050289D01*
X59719394Y-57919179D01*
X59779737Y-57773497D01*
X59810500Y-57618842D01*
X59810500Y-57461158D01*
X59810500Y-57461155D01*
X59810499Y-57461153D01*
X59779738Y-57306510D01*
X59779737Y-57306503D01*
X59779735Y-57306498D01*
X59719397Y-57160827D01*
X59719390Y-57160814D01*
X59631789Y-57029711D01*
X59631786Y-57029707D01*
X59520292Y-56918213D01*
X59520288Y-56918210D01*
X59389185Y-56830609D01*
X59389172Y-56830602D01*
X59243501Y-56770264D01*
X59243489Y-56770261D01*
X59088845Y-56739500D01*
X59088842Y-56739500D01*
X58931158Y-56739500D01*
X58931155Y-56739500D01*
X58776510Y-56770261D01*
X58776498Y-56770264D01*
X58630827Y-56830602D01*
X58630814Y-56830609D01*
X58499711Y-56918210D01*
X58499707Y-56918213D01*
X58388213Y-57029707D01*
X58388210Y-57029711D01*
X58300609Y-57160814D01*
X58300602Y-57160827D01*
X58240264Y-57306498D01*
X58240261Y-57306510D01*
X58209500Y-57461153D01*
X56570500Y-57461153D01*
X56570500Y-55121153D01*
X58284500Y-55121153D01*
X58284500Y-55278846D01*
X58315261Y-55433489D01*
X58315264Y-55433501D01*
X58375602Y-55579172D01*
X58375609Y-55579185D01*
X58463210Y-55710288D01*
X58463213Y-55710292D01*
X58574707Y-55821786D01*
X58574711Y-55821789D01*
X58705814Y-55909390D01*
X58705827Y-55909397D01*
X58851498Y-55969735D01*
X58851503Y-55969737D01*
X59006153Y-56000499D01*
X59006156Y-56000500D01*
X59006158Y-56000500D01*
X59163844Y-56000500D01*
X59163845Y-56000499D01*
X59318497Y-55969737D01*
X59464179Y-55909394D01*
X59595289Y-55821789D01*
X59706789Y-55710289D01*
X59794394Y-55579179D01*
X59854737Y-55433497D01*
X59885500Y-55278842D01*
X59885500Y-55121158D01*
X59885500Y-55121155D01*
X59885499Y-55121153D01*
X59854738Y-54966510D01*
X59854737Y-54966503D01*
X59854735Y-54966498D01*
X59794397Y-54820827D01*
X59794390Y-54820814D01*
X59706789Y-54689711D01*
X59706786Y-54689707D01*
X59595292Y-54578213D01*
X59595288Y-54578210D01*
X59464185Y-54490609D01*
X59464172Y-54490602D01*
X59318501Y-54430264D01*
X59318489Y-54430261D01*
X59163845Y-54399500D01*
X59163842Y-54399500D01*
X59006158Y-54399500D01*
X59006155Y-54399500D01*
X58851510Y-54430261D01*
X58851498Y-54430264D01*
X58705827Y-54490602D01*
X58705814Y-54490609D01*
X58574711Y-54578210D01*
X58574707Y-54578213D01*
X58463213Y-54689707D01*
X58463210Y-54689711D01*
X58375609Y-54820814D01*
X58375602Y-54820827D01*
X58315264Y-54966498D01*
X58315261Y-54966510D01*
X58284500Y-55121153D01*
X56570500Y-55121153D01*
X56570500Y-53094500D01*
X56590185Y-53027461D01*
X56642989Y-52981706D01*
X56694500Y-52970500D01*
X93905500Y-52970500D01*
X93972539Y-52990185D01*
G37*
%TD.AperFunction*%
M02*
