%TF.GenerationSoftware,KiCad,Pcbnew,9.0.7*%
%TF.CreationDate,2026-06-15T22:57:31+05:30*%
%TF.ProjectId,Jazz,4a617a7a-2e6b-4696-9361-645f70636258,rev?*%
%TF.SameCoordinates,Original*%
%TF.FileFunction,Soldermask,Bot*%
%TF.FilePolarity,Negative*%
%FSLAX46Y46*%
G04 Gerber Fmt 4.6, Leading zero omitted, Abs format (unit mm)*
G04 Created by KiCad (PCBNEW 9.0.7) date 2026-06-15 22:57:31*
%MOMM*%
%LPD*%
G01*
G04 APERTURE LIST*
G04 Aperture macros list*
%AMRoundRect*
0 Rectangle with rounded corners*
0 $1 Rounding radius*
0 $2 $3 $4 $5 $6 $7 $8 $9 X,Y pos of 4 corners*
0 Add a 4 corners polygon primitive as box body*
4,1,4,$2,$3,$4,$5,$6,$7,$8,$9,$2,$3,0*
0 Add four circle primitives for the rounded corners*
1,1,$1+$1,$2,$3*
1,1,$1+$1,$4,$5*
1,1,$1+$1,$6,$7*
1,1,$1+$1,$8,$9*
0 Add four rect primitives between the rounded corners*
20,1,$1+$1,$2,$3,$4,$5,0*
20,1,$1+$1,$4,$5,$6,$7,0*
20,1,$1+$1,$6,$7,$8,$9,0*
20,1,$1+$1,$8,$9,$2,$3,0*%
G04 Aperture macros list end*
%ADD10R,1.700000X1.700000*%
%ADD11C,1.700000*%
%ADD12O,2.100000X1.000000*%
%ADD13O,2.600000X1.000000*%
%ADD14RoundRect,0.250000X-0.450000X0.262500X-0.450000X-0.262500X0.450000X-0.262500X0.450000X0.262500X0*%
%ADD15RoundRect,0.500000X0.500000X1.500000X-0.500000X1.500000X-0.500000X-1.500000X0.500000X-1.500000X0*%
%ADD16R,0.250000X0.600000*%
%ADD17R,0.600000X0.250000*%
%ADD18R,1.500000X1.500000*%
%ADD19RoundRect,0.250000X0.250000X0.475000X-0.250000X0.475000X-0.250000X-0.475000X0.250000X-0.475000X0*%
%ADD20RoundRect,0.250000X-0.250000X-0.475000X0.250000X-0.475000X0.250000X0.475000X-0.250000X0.475000X0*%
G04 APERTURE END LIST*
D10*
%TO.C,U1*%
X92949750Y-78257985D03*
D11*
X92949750Y-75717985D03*
X92949750Y-73177985D03*
X92949750Y-70637985D03*
X92949750Y-68097985D03*
X92949750Y-65557985D03*
X92949750Y-63017985D03*
X77699750Y-63017985D03*
X77699750Y-65557985D03*
X77699750Y-68097985D03*
X77699750Y-70637985D03*
X77699750Y-73177985D03*
X77699750Y-75717985D03*
X77699750Y-78257985D03*
%TD*%
D12*
%TO.C,USB-C-Port1*%
X63330000Y-67510000D03*
D13*
X57970000Y-67510000D03*
D12*
X63330000Y-76150000D03*
D13*
X57970000Y-76150000D03*
%TD*%
D14*
%TO.C,R1*%
X85470000Y-63195000D03*
X85470000Y-65020000D03*
%TD*%
D15*
%TO.C,N1*%
X83100000Y-79840000D03*
%TD*%
D16*
%TO.C,U4*%
X83980000Y-66360000D03*
X84480000Y-66360000D03*
X84980000Y-66360000D03*
X85480000Y-66360000D03*
D17*
X86230000Y-67110000D03*
X86230000Y-67610000D03*
X86230000Y-68110000D03*
X86230000Y-68610000D03*
D16*
X85480000Y-69360000D03*
X84980000Y-69360000D03*
X84480000Y-69360000D03*
X83980000Y-69360000D03*
D17*
X83230000Y-68610000D03*
X83230000Y-68110000D03*
X83230000Y-67610000D03*
X83230000Y-67110000D03*
D18*
X84730000Y-67860000D03*
%TD*%
D19*
%TO.C,C6*%
X83020000Y-62810000D03*
X81120000Y-62810000D03*
%TD*%
D15*
%TO.C,P1*%
X87130000Y-79850000D03*
%TD*%
D20*
%TO.C,C1*%
X72640000Y-66910000D03*
X74540000Y-66910000D03*
%TD*%
M02*
