%TF.GenerationSoftware,KiCad,Pcbnew,9.0.7*%
%TF.CreationDate,2026-06-15T22:57:31+05:30*%
%TF.ProjectId,Jazz,4a617a7a-2e6b-4696-9361-645f70636258,rev?*%
%TF.SameCoordinates,Original*%
%TF.FileFunction,Legend,Bot*%
%TF.FilePolarity,Positive*%
%FSLAX46Y46*%
G04 Gerber Fmt 4.6, Leading zero omitted, Abs format (unit mm)*
G04 Created by KiCad (PCBNEW 9.0.7) date 2026-06-15 22:57:31*
%MOMM*%
%LPD*%
G01*
G04 APERTURE LIST*
%ADD10C,0.150000*%
%ADD11C,0.120000*%
%ADD12C,0.250000*%
%ADD13C,0.060000*%
G04 APERTURE END LIST*
D10*
X84274819Y-63940833D02*
X83798628Y-63607500D01*
X84274819Y-63369405D02*
X83274819Y-63369405D01*
X83274819Y-63369405D02*
X83274819Y-63750357D01*
X83274819Y-63750357D02*
X83322438Y-63845595D01*
X83322438Y-63845595D02*
X83370057Y-63893214D01*
X83370057Y-63893214D02*
X83465295Y-63940833D01*
X83465295Y-63940833D02*
X83608152Y-63940833D01*
X83608152Y-63940833D02*
X83703390Y-63893214D01*
X83703390Y-63893214D02*
X83751009Y-63845595D01*
X83751009Y-63845595D02*
X83798628Y-63750357D01*
X83798628Y-63750357D02*
X83798628Y-63369405D01*
X84274819Y-64893214D02*
X84274819Y-64321786D01*
X84274819Y-64607500D02*
X83274819Y-64607500D01*
X83274819Y-64607500D02*
X83417676Y-64512262D01*
X83417676Y-64512262D02*
X83512914Y-64417024D01*
X83512914Y-64417024D02*
X83560533Y-64321786D01*
X83861904Y-77494819D02*
X83861904Y-76494819D01*
X83861904Y-76494819D02*
X83290476Y-77494819D01*
X83290476Y-77494819D02*
X83290476Y-76494819D01*
X82290476Y-77494819D02*
X82861904Y-77494819D01*
X82576190Y-77494819D02*
X82576190Y-76494819D01*
X82576190Y-76494819D02*
X82671428Y-76637676D01*
X82671428Y-76637676D02*
X82766666Y-76732914D01*
X82766666Y-76732914D02*
X82861904Y-76780533D01*
X82236666Y-61489580D02*
X82284285Y-61537200D01*
X82284285Y-61537200D02*
X82427142Y-61584819D01*
X82427142Y-61584819D02*
X82522380Y-61584819D01*
X82522380Y-61584819D02*
X82665237Y-61537200D01*
X82665237Y-61537200D02*
X82760475Y-61441961D01*
X82760475Y-61441961D02*
X82808094Y-61346723D01*
X82808094Y-61346723D02*
X82855713Y-61156247D01*
X82855713Y-61156247D02*
X82855713Y-61013390D01*
X82855713Y-61013390D02*
X82808094Y-60822914D01*
X82808094Y-60822914D02*
X82760475Y-60727676D01*
X82760475Y-60727676D02*
X82665237Y-60632438D01*
X82665237Y-60632438D02*
X82522380Y-60584819D01*
X82522380Y-60584819D02*
X82427142Y-60584819D01*
X82427142Y-60584819D02*
X82284285Y-60632438D01*
X82284285Y-60632438D02*
X82236666Y-60680057D01*
X81379523Y-60584819D02*
X81569999Y-60584819D01*
X81569999Y-60584819D02*
X81665237Y-60632438D01*
X81665237Y-60632438D02*
X81712856Y-60680057D01*
X81712856Y-60680057D02*
X81808094Y-60822914D01*
X81808094Y-60822914D02*
X81855713Y-61013390D01*
X81855713Y-61013390D02*
X81855713Y-61394342D01*
X81855713Y-61394342D02*
X81808094Y-61489580D01*
X81808094Y-61489580D02*
X81760475Y-61537200D01*
X81760475Y-61537200D02*
X81665237Y-61584819D01*
X81665237Y-61584819D02*
X81474761Y-61584819D01*
X81474761Y-61584819D02*
X81379523Y-61537200D01*
X81379523Y-61537200D02*
X81331904Y-61489580D01*
X81331904Y-61489580D02*
X81284285Y-61394342D01*
X81284285Y-61394342D02*
X81284285Y-61156247D01*
X81284285Y-61156247D02*
X81331904Y-61061009D01*
X81331904Y-61061009D02*
X81379523Y-61013390D01*
X81379523Y-61013390D02*
X81474761Y-60965771D01*
X81474761Y-60965771D02*
X81665237Y-60965771D01*
X81665237Y-60965771D02*
X81760475Y-61013390D01*
X81760475Y-61013390D02*
X81808094Y-61061009D01*
X81808094Y-61061009D02*
X81855713Y-61156247D01*
X87868094Y-77504819D02*
X87868094Y-76504819D01*
X87868094Y-76504819D02*
X87487142Y-76504819D01*
X87487142Y-76504819D02*
X87391904Y-76552438D01*
X87391904Y-76552438D02*
X87344285Y-76600057D01*
X87344285Y-76600057D02*
X87296666Y-76695295D01*
X87296666Y-76695295D02*
X87296666Y-76838152D01*
X87296666Y-76838152D02*
X87344285Y-76933390D01*
X87344285Y-76933390D02*
X87391904Y-76981009D01*
X87391904Y-76981009D02*
X87487142Y-77028628D01*
X87487142Y-77028628D02*
X87868094Y-77028628D01*
X86344285Y-77504819D02*
X86915713Y-77504819D01*
X86629999Y-77504819D02*
X86629999Y-76504819D01*
X86629999Y-76504819D02*
X86725237Y-76647676D01*
X86725237Y-76647676D02*
X86820475Y-76742914D01*
X86820475Y-76742914D02*
X86915713Y-76790533D01*
X73756666Y-68949580D02*
X73804285Y-68997200D01*
X73804285Y-68997200D02*
X73947142Y-69044819D01*
X73947142Y-69044819D02*
X74042380Y-69044819D01*
X74042380Y-69044819D02*
X74185237Y-68997200D01*
X74185237Y-68997200D02*
X74280475Y-68901961D01*
X74280475Y-68901961D02*
X74328094Y-68806723D01*
X74328094Y-68806723D02*
X74375713Y-68616247D01*
X74375713Y-68616247D02*
X74375713Y-68473390D01*
X74375713Y-68473390D02*
X74328094Y-68282914D01*
X74328094Y-68282914D02*
X74280475Y-68187676D01*
X74280475Y-68187676D02*
X74185237Y-68092438D01*
X74185237Y-68092438D02*
X74042380Y-68044819D01*
X74042380Y-68044819D02*
X73947142Y-68044819D01*
X73947142Y-68044819D02*
X73804285Y-68092438D01*
X73804285Y-68092438D02*
X73756666Y-68140057D01*
X72804285Y-69044819D02*
X73375713Y-69044819D01*
X73089999Y-69044819D02*
X73089999Y-68044819D01*
X73089999Y-68044819D02*
X73185237Y-68187676D01*
X73185237Y-68187676D02*
X73280475Y-68282914D01*
X73280475Y-68282914D02*
X73375713Y-68330533D01*
D11*
%TO.C,R1*%
X84735000Y-63880436D02*
X84735000Y-64334564D01*
X86205000Y-63880436D02*
X86205000Y-64334564D01*
D12*
%TO.C,U4*%
X83230000Y-66360000D02*
X83630000Y-66360000D01*
X83230000Y-66760000D02*
X83230000Y-66360000D01*
X83230000Y-69360000D02*
X83230000Y-68970000D01*
X83230000Y-69360000D02*
X83630000Y-69360000D01*
X85840000Y-66360000D02*
X86230000Y-66360000D01*
X85840000Y-69360000D02*
X86230000Y-69360000D01*
X86230000Y-66360000D02*
X86230000Y-66760000D01*
X86230000Y-68970000D02*
X86230000Y-69360000D01*
D13*
X83260000Y-66360000D02*
G75*
G02*
X83200000Y-66360000I-30000J0D01*
G01*
X83200000Y-66360000D02*
G75*
G02*
X83260000Y-66360000I30000J0D01*
G01*
D12*
X83500000Y-66020000D02*
G75*
G02*
X83380000Y-66020000I-60000J0D01*
G01*
X83380000Y-66020000D02*
G75*
G02*
X83500000Y-66020000I60000J0D01*
G01*
D11*
%TO.C,C6*%
X82331252Y-62075000D02*
X81808748Y-62075000D01*
X82331252Y-63545000D02*
X81808748Y-63545000D01*
%TO.C,C1*%
X73328748Y-66175000D02*
X73851252Y-66175000D01*
X73328748Y-67645000D02*
X73851252Y-67645000D01*
%TD*%
M02*
