%TF.GenerationSoftware,KiCad,Pcbnew,9.0.7*%
%TF.CreationDate,2026-06-15T22:57:30+05:30*%
%TF.ProjectId,Jazz,4a617a7a-2e6b-4696-9361-645f70636258,rev?*%
%TF.SameCoordinates,Original*%
%TF.FileFunction,Paste,Top*%
%TF.FilePolarity,Positive*%
%FSLAX46Y46*%
G04 Gerber Fmt 4.6, Leading zero omitted, Abs format (unit mm)*
G04 Created by KiCad (PCBNEW 9.0.7) date 2026-06-15 22:57:30*
%MOMM*%
%LPD*%
G01*
G04 APERTURE LIST*
G04 Aperture macros list*
%AMRoundRect*
0 Rectangle with rounded corners*
0 $1 Rounding radius*
0 $2 $3 $4 $5 $6 $7 $8 $9 X,Y pos of 4 corners*
0 Add a 4 corners polygon primitive as box body*
4,1,4,$2,$3,$4,$5,$6,$7,$8,$9,$2,$3,0*
0 Add four circle primitives for the rounded corners*
1,1,$1+$1,$2,$3*
1,1,$1+$1,$4,$5*
1,1,$1+$1,$6,$7*
1,1,$1+$1,$8,$9*
0 Add four rect primitives between the rounded corners*
20,1,$1+$1,$2,$3,$4,$5,0*
20,1,$1+$1,$4,$5,$6,$7,0*
20,1,$1+$1,$6,$7,$8,$9,0*
20,1,$1+$1,$8,$9,$2,$3,0*%
G04 Aperture macros list end*
%ADD10RoundRect,0.250000X0.450000X-0.262500X0.450000X0.262500X-0.450000X0.262500X-0.450000X-0.262500X0*%
%ADD11RoundRect,0.250000X0.325000X0.650000X-0.325000X0.650000X-0.325000X-0.650000X0.325000X-0.650000X0*%
%ADD12RoundRect,0.250000X0.250000X0.475000X-0.250000X0.475000X-0.250000X-0.475000X0.250000X-0.475000X0*%
%ADD13R,0.505000X0.224000*%
%ADD14R,0.900000X1.500000*%
%ADD15RoundRect,0.250000X-0.262500X-0.450000X0.262500X-0.450000X0.262500X0.450000X-0.262500X0.450000X0*%
%ADD16RoundRect,0.150000X-0.512500X-0.150000X0.512500X-0.150000X0.512500X0.150000X-0.512500X0.150000X0*%
%ADD17RoundRect,0.250000X-0.250000X-0.475000X0.250000X-0.475000X0.250000X0.475000X-0.250000X0.475000X0*%
%ADD18R,0.800000X0.300000*%
%ADD19R,0.700000X1.000000*%
%ADD20R,0.700000X0.300000*%
%ADD21RoundRect,0.250000X-0.475000X0.250000X-0.475000X-0.250000X0.475000X-0.250000X0.475000X0.250000X0*%
%ADD22RoundRect,0.250000X-0.450000X0.262500X-0.450000X-0.262500X0.450000X-0.262500X0.450000X0.262500X0*%
G04 APERTURE END LIST*
D10*
%TO.C,R3*%
X69610000Y-78075000D03*
X69610000Y-76250000D03*
%TD*%
D11*
%TO.C,C4*%
X74575000Y-70030000D03*
X71625000Y-70030000D03*
%TD*%
D12*
%TO.C,C3*%
X69420000Y-70570000D03*
X67520000Y-70570000D03*
%TD*%
D11*
%TO.C,C2*%
X62035000Y-55200000D03*
X59085000Y-55200000D03*
%TD*%
D13*
%TO.C,U3*%
X67130000Y-71960000D03*
X67130000Y-72360000D03*
X67130000Y-72760000D03*
X67130000Y-73160000D03*
X67130000Y-73560000D03*
X69030000Y-73560000D03*
X69030000Y-73160000D03*
X69030000Y-72760000D03*
X69030000Y-72360000D03*
X69030000Y-71960000D03*
D14*
X68080000Y-72760000D03*
%TD*%
D15*
%TO.C,R5*%
X62430000Y-78040000D03*
X64255000Y-78040000D03*
%TD*%
D16*
%TO.C,U2*%
X60192500Y-59490000D03*
X60192500Y-60440000D03*
X60192500Y-61390000D03*
X62467500Y-61390000D03*
X62467500Y-59490000D03*
%TD*%
D10*
%TO.C,R2*%
X67020000Y-78025000D03*
X67020000Y-76200000D03*
%TD*%
D17*
%TO.C,C5*%
X59010000Y-57540000D03*
X60910000Y-57540000D03*
%TD*%
D18*
%TO.C,USB-C-Port1*%
X63790000Y-68830000D03*
X63790000Y-69330000D03*
X63790000Y-69830000D03*
X63790000Y-70330000D03*
X63790000Y-70830000D03*
X63790000Y-71330000D03*
X63790000Y-72330000D03*
X63790000Y-72830000D03*
X63790000Y-73330000D03*
X63790000Y-73830000D03*
X63790000Y-74330000D03*
X63790000Y-74830000D03*
D19*
X62440000Y-74930000D03*
D20*
X62440000Y-74080000D03*
X62440000Y-73580000D03*
X62440000Y-73080000D03*
X62440000Y-72580000D03*
X62440000Y-72080000D03*
X62440000Y-71580000D03*
X62440000Y-71080000D03*
X62440000Y-70580000D03*
X62440000Y-70080000D03*
X62440000Y-69580000D03*
D19*
X62440000Y-68730000D03*
%TD*%
D21*
%TO.C,C7*%
X62270000Y-63420000D03*
X62270000Y-65320000D03*
%TD*%
D15*
%TO.C,R6*%
X65700000Y-67300000D03*
X67525000Y-67300000D03*
%TD*%
D16*
%TO.C,D1*%
X65872500Y-61000000D03*
X65872500Y-62900000D03*
X68147500Y-61950000D03*
%TD*%
D10*
%TO.C,R4*%
X71490000Y-74215000D03*
X71490000Y-72390000D03*
%TD*%
D22*
%TO.C,R7*%
X60060000Y-63465000D03*
X60060000Y-65290000D03*
%TD*%
M02*
